<?xml version="1.0" standalone="no"?>
<!DOCTYPE svg PUBLIC "-//W3C//DTD SVG 1.1//EN" "http://www.w3.org/Graphics/SVG/1.1/DTD/svg11.dtd" >
<svg xmlns="http://www.w3.org/2000/svg" width="100%" height="100%">
<metadata>
Created by FontXChange 20110222 at Sat Oct 19 12:52:02 2013
 By Gahlord Dewald
(c)1988,1990, 1991 The Font Bureau, Inc.
</metadata>
<defs>
<font id="BelizioBold" horiz-adv-x="667" >
  <font-face 
    font-family="BelizioBold"
    font-weight="700"
    font-stretch="normal"
    units-per-em="1000"
    panose-1="2 0 8 3 0 0 0 0 0 0"
    ascent="800"
    descent="-200"
    x-height="478"
    cap-height="757"
    bbox="-180 -215 1436 1024"
    underline-thickness="24"
    underline-position="-118"
    stemh="79"
    stemv="162"
    unicode-range="U+0020-FB02"
  />
    <missing-glyph />
    <glyph glyph-name="NUL" horiz-adv-x="1000" 
d="M484 342v0z" />
    <glyph glyph-name="Eth" unicode="&#xd0;" horiz-adv-x="943" 
d="M485 327h-124v-146c0 -25 3 -53 15 -65c12 -14 44 -16 71 -16c166 0 212 117 212 288c0 145 -63 270 -209 270c-31 0 -59 -2 -78 -26c-10 -13 -11 -34 -11 -56v-144h124v-105zM144 181v146h-103v105h103v144c0 22 -1 43 -12 56c-11 15 -26 24 -47 24h-44v101h435
c235 0 424 -118 424 -369c0 -246 -180 -388 -424 -388h-435v101h44c21 0 36 9 47 24c11 14 12 34 12 56z" />
    <glyph glyph-name="eth" unicode="&#xf0;" horiz-adv-x="647" 
d="M216 244c0 -107 22 -170 92 -170c73 0 93 76 93 170c0 107 -20 172 -93 172c-70 0 -92 -74 -92 -172zM236 612l88 50c-17 14 -36 21 -57 21c-33 0 -96 -27 -136 -27c-22 0 -35 17 -35 29c0 39 34 87 153 87c63 0 125 -16 179 -48l70 40l48 -69l-50 -29
c57 -62 96 -153 105 -276c0 -42 -1 -106 -6 -137c-25 -147 -138 -265 -292 -265c-171 0 -274 119 -274 255c0 167 132 256 281 256c39 0 65 -13 88 -23c-5 46 -14 85 -26 116l-86 -50z" />
    <glyph glyph-name="Lslash" unicode="&#x141;" horiz-adv-x="771" 
d="M43 347l102 41v188c0 26 -1 43 -12 56c-12 16 -25 24 -47 24h-44v101h460v-101h-82c-22 0 -34 -8 -47 -24c-10 -13 -11 -30 -11 -56v-102l150 59v-122l-150 -60v-170c0 -25 -1 -46 10 -59c15 -20 39 -21 61 -21h77c31 0 75 11 98 31c24 20 39 68 39 100v113h117v-345
h-722v101h44c22 0 35 8 47 24c11 14 12 31 12 56v84l-102 -41v123z" />
    <glyph glyph-name="lslash" unicode="&#x142;" horiz-adv-x="374" 
d="M34 421l78 31v176c0 14 -2 24 -10 33c-7 8 -17 13 -28 13h-42v83h243v-243l77 30v-123l-77 -30v-241c0 -18 0 -35 9 -47c8 -11 19 -16 33 -16h35v-87h-321v87h42c11 0 21 4 28 12c8 9 11 20 11 33v197l-78 -30v122z" />
    <glyph glyph-name="Scaron" unicode="&#x160;" horiz-adv-x="768" 
d="M404 800h-81l-159 156h75l125 -78l125 78h75zM521 465c113 -25 204 -85 204 -214c0 -184 -161 -260 -320 -260c-65 0 -113 13 -146 25l-31 11c-11 3 -21 7 -32 7c-18 0 -32 -16 -36 -34h-82v290h110v-22c0 -96 96 -173 211 -173c68 0 137 31 137 95c0 71 -85 84 -155 99
l-132 30c-109 24 -192 93 -192 212c0 153 132 241 307 241c54 0 86 -3 137 -20l29 -10c11 -3 20 -9 33 -7c18 3 32 14 37 32h84v-280h-110l-4 32c-13 94 -83 152 -190 152c-61 0 -129 -27 -129 -88s71 -75 130 -87z" />
    <glyph glyph-name="scaron" unicode="&#x161;" horiz-adv-x="517" 
d="M292 524h-81l-159 156h75l125 -77l125 77h75zM108 0h-64v176h88l1 -14c5 -40 50 -90 122 -88c34 1 76 13 75 47c-1 35 -39 44 -73 51l-89 20c-79 17 -136 58 -137 145c-1 99 84 164 194 165c40 0 65 -3 101 -18l24 -9c9 -4 16 -8 26 -7c13 3 22 14 22 27h62v-167h-90
l-3 16c-6 41 -59 73 -115 73c-40 0 -69 -13 -69 -45c0 -29 32 -40 61 -46l122 -26c71 -16 127 -64 126 -138c0 -111 -107 -173 -215 -174c-40 0 -78 8 -108 22l-16 7c-12 4 -16 9 -25 6c-12 -3 -20 -11 -20 -23z" />
    <glyph glyph-name="Yacute" unicode="&#xdd;" horiz-adv-x="853" 
d="M514 958h131l-193 -164h-76zM537 270v-89c0 -25 1 -42 11 -56c13 -16 25 -24 48 -24h85v-101h-507v101h86c22 0 34 8 47 24c10 14 11 31 11 56v93l-212 337c-14 21 -19 24 -30 32c-12 8 -22 13 -44 13h-24v101h421v-101h-45c-14 0 -28 -4 -34 -16c-8 -14 -2 -29 7 -44
l120 -191l125 199c7 11 10 24 4 37c-6 11 -17 15 -30 15h-38v101h321v-101h-45c-15 0 -28 -7 -37 -13c-10 -7 -19 -20 -27 -33z" />
    <glyph glyph-name="yacute" unicode="&#xfd;" horiz-adv-x="557" 
d="M240 4l7 19h-58l-118 304c-6 17 -9 29 -20 45c-10 12 -25 23 -44 23h-7v83h288v-83h-19c-13 0 -27 1 -33 -10c-7 -11 -3 -20 0 -31l82 -234l72 234c4 11 7 20 1 31c-6 10 -18 10 -29 10h-14v83h216v-83h-8c-18 0 -36 -4 -46 -16c-12 -17 -16 -31 -23 -51l-123 -323
c-30 -81 -104 -153 -187 -153c-91 0 -163 45 -163 124c0 39 30 79 72 79c31 0 62 -23 62 -55c0 -19 -8 -36 -28 -44l-8 -3l7 -8c12 -13 26 -13 44 -13c40 0 63 32 77 72zM348 688h132l-194 -164h-75z" />
    <glyph glyph-name="Thorn" unicode="&#xde;" horiz-adv-x="838" 
d="M440 318c91 0 133 49 133 132c0 74 -41 121 -120 121h-37c-20 0 -36 -9 -47 -24c-11 -14 -12 -34 -12 -56v-173h83zM504 0h-462v101h44c21 0 36 9 47 24c11 14 12 34 12 56v395c0 22 -1 43 -12 56c-11 15 -26 24 -47 24h-44v101h315v-89h127c208 0 325 -65 325 -218
s-94 -231 -280 -231h-172v-38c0 -22 2 -42 13 -56c11 -15 26 -24 47 -24h87v-101z" />
    <glyph glyph-name="thorn" unicode="&#xfe;" horiz-adv-x="653" 
d="M409 -7c-63 0 -116 17 -145 75v-63c0 -24 2 -49 11 -61s20 -16 34 -16h63v-75h-360v75h53c11 0 21 4 28 12c8 8 11 20 11 33v655c0 13 -2 24 -10 33c-7 8 -17 13 -28 13h-54v83h256v-334c32 53 80 77 149 77c117 0 207 -96 207 -251c0 -173 -93 -256 -215 -256zM262 241
c0 -95 32 -133 93 -133c66 0 83 66 83 136c0 60 -23 131 -84 133c-64 2 -92 -63 -92 -136z" />
    <glyph glyph-name="Zcaron" unicode="&#x17d;" horiz-adv-x="821" 
d="M445 773h-81l-159 156h75l125 -77l125 77h74zM517 656h-182c-31 0 -91 -16 -117 -41c-31 -28 -43 -67 -43 -99v-61h-117v302h715v-135l-467 -521h206c31 0 71 8 104 39c30 29 36 69 36 101v58h123v-299h-722v140z" />
    <glyph glyph-name="zcaron" unicode="&#x17e;" horiz-adv-x="556" 
d="M323 517h-82l-158 156h74l126 -77l124 77h75zM306 400h-102c-32 0 -45 -14 -55 -25c-9 -11 -17 -25 -17 -57v-33h-88v193h476v-96l-283 -306h93c31 0 64 8 79 24c18 20 20 29 20 61v35h95v-196h-488v98z" />
    <glyph glyph-name="onehalf" unicode="&#xbd;" 
d="M284 304l-129 12l30 -119l121 34l-57 -108l174 1l-62 111l115 -18l-35 172l-89 -51l75 130h-208zM82 293c1 137 114 248 250 247c137 0 248 -113 248 -250c-1 -137 -114 -248 -251 -247s-248 113 -247 250z" />
    <glyph glyph-name="onequarter" unicode="&#xbc;" 
d="M284 304l-129 12l30 -119l121 34l-57 -108l174 1l-62 111l115 -18l-35 172l-89 -51l75 130h-208zM82 293c1 137 114 248 250 247c137 0 248 -113 248 -250c-1 -137 -114 -248 -251 -247s-248 113 -247 250z" />
    <glyph glyph-name="onesuperior" unicode="&#xb9;" 
d="M284 304l-129 12l30 -119l121 34l-57 -108l174 1l-62 111l115 -18l-35 172l-89 -51l75 130h-208zM82 293c1 137 114 248 250 247c137 0 248 -113 248 -250c-1 -137 -114 -248 -251 -247s-248 113 -247 250z" />
    <glyph glyph-name="threequarters" unicode="&#xbe;" 
d="M284 304l-129 12l30 -119l121 34l-57 -108l174 1l-62 111l115 -18l-35 172l-89 -51l75 130h-208zM82 293c1 137 114 248 250 247c137 0 248 -113 248 -250c-1 -137 -114 -248 -251 -247s-248 113 -247 250z" />
    <glyph glyph-name="threesuperior" unicode="&#xb3;" 
d="M284 304l-129 12l30 -119l121 34l-57 -108l174 1l-62 111l115 -18l-35 172l-89 -51l75 130h-208zM82 293c1 137 114 248 250 247c137 0 248 -113 248 -250c-1 -137 -114 -248 -251 -247s-248 113 -247 250z" />
    <glyph glyph-name="twosuperior" unicode="&#xb2;" 
d="M284 304l-129 12l30 -119l121 34l-57 -108l174 1l-62 111l115 -18l-35 172l-89 -51l75 130h-208zM82 293c1 137 114 248 250 247c137 0 248 -113 248 -250c-1 -137 -114 -248 -251 -247s-248 113 -247 250z" />
    <glyph glyph-name="brokenbar" unicode="&#xa6;" 
d="M284 304l-129 12l30 -119l121 34l-57 -108l174 1l-62 111l115 -18l-35 172l-89 -51l75 130h-208zM82 293c1 137 114 248 250 247c137 0 248 -113 248 -250c-1 -137 -114 -248 -251 -247s-248 113 -247 250z" />
    <glyph glyph-name="minus" unicode="&#x2212;" 
d="M284 304l-129 12l30 -119l121 34l-57 -108l174 1l-62 111l115 -18l-35 172l-89 -51l75 130h-208zM82 293c1 137 114 248 250 247c137 0 248 -113 248 -250c-1 -137 -114 -248 -251 -247s-248 113 -247 250z" />
    <glyph glyph-name="multiply" unicode="&#xd7;" 
d="M284 304l-129 12l30 -119l121 34l-57 -108l174 1l-62 111l115 -18l-35 172l-89 -51l75 130h-208zM82 293c1 137 114 248 250 247c137 0 248 -113 248 -250c-1 -137 -114 -248 -251 -247s-248 113 -247 250z" />
    <glyph glyph-name="space" unicode=" " horiz-adv-x="178" 
d="M178 178v0z" />
    <glyph glyph-name="exclam" unicode="!" horiz-adv-x="384" 
d="M198 -12c-62 0 -113 50 -113 112c0 61 54 105 114 105c58 0 108 -50 108 -110c0 -59 -49 -107 -109 -107zM244 251h-89c0 34 -1 55 -3 89c-2 24 -3 40 -7 64l-11 56c-12 68 -28 108 -28 177c0 78 29 135 93 135s93 -58 93 -135c0 -69 -16 -109 -28 -177l-11 -56
c-4 -24 -5 -40 -7 -64c-2 -34 -2 -55 -2 -89z" />
    <glyph glyph-name="quotedbl" unicode="&#x22;" horiz-adv-x="532" 
d="M419 394h-86c0 25 -1 39 -2 63c-2 17 -4 28 -7 45l-10 41c-11 47 -19 77 -19 125c0 45 32 96 81 96s80 -51 80 -96c0 -48 -7 -78 -18 -125l-10 -41c-3 -17 -5 -28 -7 -45c-1 -24 -2 -38 -2 -63zM195 394h-86c0 25 -1 39 -2 63c-2 17 -4 28 -7 45l-10 41
c-11 47 -19 77 -19 125c0 45 32 96 81 96s80 -51 80 -96c0 -48 -7 -78 -18 -125l-10 -41c-3 -17 -5 -28 -7 -45c-1 -24 -2 -38 -2 -63z" />
    <glyph glyph-name="numbersign" unicode="#" horiz-adv-x="900" 
d="M129 429v88h223l108 240h87l-109 -240h142l110 240h88l-110 -240h168v-88h-208l-46 -98h192v-87h-231l-111 -244h-86l111 244h-144l-110 -244h-86l111 244h-161v87h201l44 98h-183zM541 429h-143l-45 -98h143z" />
    <glyph glyph-name="dollar" unicode="$" horiz-adv-x="732" 
d="M407 -121h-93v122l-15 1c-120 6 -239 85 -239 196c0 67 50 111 112 111c47 0 90 -34 90 -82c0 -47 -31 -62 -41 -66l-15 -8c6 -16 20 -38 40 -52c18 -11 34 -15 54 -15h14v220l-48 13c-107 29 -190 101 -191 212c-2 121 97 201 218 223l24 4v42h92v-41l27 -2
c112 -7 228 -80 228 -177c0 -59 -44 -112 -105 -112c-49 0 -93 35 -93 84c0 30 13 52 41 66l10 5l-4 10c-8 19 -22 27 -40 34c-20 8 -50 11 -58 11h-5v-211l34 -7c138 -28 237 -94 234 -216c-2 -150 -139 -237 -254 -242l-17 -1v-122zM410 290v-203l14 1c56 3 99 48 100 104
c0 50 -40 79 -90 92zM318 487v189l-20 -3c-30 -5 -78 -46 -78 -93c0 -48 36 -79 83 -89z" />
    <glyph glyph-name="percent" unicode="%" horiz-adv-x="1052" 
d="M806 -4c-118 0 -204 106 -204 229c0 138 94 235 210 235c117 0 202 -107 202 -225c0 -134 -89 -239 -208 -239zM742 227c0 -97 14 -154 65 -154c56 0 67 68 67 154c0 96 -11 153 -67 153c-51 0 -65 -65 -65 -153zM248 292c-118 0 -204 107 -204 230c0 138 94 234 209 234
c118 0 203 -106 203 -224c0 -134 -89 -240 -208 -240zM184 524c0 -97 13 -154 65 -154c56 0 67 68 67 154c0 96 -11 153 -67 153c-52 0 -65 -65 -65 -153zM402 0h-89l343 757h91z" />
    <glyph glyph-name="ampersand" unicode="&#x26;" horiz-adv-x="1000" 
d="M244 476l28 8c-7 29 -7 47 -7 77c0 115 80 211 211 211c104 0 182 -56 182 -148c0 -84 -78 -140 -149 -157l-39 -10c21 -49 37 -77 65 -120c34 -51 58 -79 102 -121l15 16c22 23 30 55 30 76c0 25 -15 40 -33 40h-44v102h272v-103h-56c-13 0 -23 -7 -30 -17
s-8 -20 -11 -32l-5 -24c-3 -15 -13 -39 -25 -61c-13 -25 -23 -38 -41 -59c15 -18 53 -37 91 -37c53 0 91 52 91 105v22h83v-23c0 -138 -80 -232 -226 -232c-61 0 -99 9 -152 39l-23 14c-67 -41 -155 -53 -232 -53c-171 0 -313 94 -313 247c0 127 95 206 216 240zM473 110
l11 4c-36 32 -76 79 -114 134c-36 52 -55 97 -72 144c-46 -27 -78 -60 -78 -113c0 -101 86 -181 187 -181c26 0 40 4 66 12zM436 538l23 9c42 16 73 42 73 87c0 30 -24 53 -53 53c-34 0 -63 -30 -63 -64s16 -81 20 -85z" />
    <glyph glyph-name="quotesingle" unicode="'" horiz-adv-x="298" 
d="M196 388h-89c0 24 -1 39 -3 63c-2 17 -4 28 -7 45l-11 41c-11 47 -20 76 -20 125c0 45 35 96 86 96c50 0 84 -51 84 -96c0 -49 -8 -78 -19 -125l-11 -41c-3 -17 -5 -28 -7 -45c-2 -24 -3 -39 -3 -63z" />
    <glyph glyph-name="parenleft" unicode="(" horiz-adv-x="491" 
d="M420 716l-34 -24c-86 -64 -128 -215 -128 -365c0 -144 19 -265 126 -347l35 -26l-42 -62l-41 24c-172 104 -283 225 -283 424c0 198 143 338 292 416l34 17z" />
    <glyph glyph-name="parenright" unicode=")" horiz-adv-x="491" 
d="M105 692l-34 24l41 57l34 -17c148 -78 291 -218 291 -416c0 -199 -111 -320 -282 -424l-41 -24l-42 62l35 26c108 84 126 203 126 347c0 150 -38 299 -128 365z" />
    <glyph glyph-name="asterisk" unicode="*" horiz-adv-x="532" 
d="M340 555c-8 1 -21 2 -32 5c5 4 16 16 22 21c6 7 12 12 20 18l15 13c12 8 36 20 48 37c24 35 11 69 -14 87c-26 19 -62 20 -86 -13c-13 -18 -18 -44 -22 -57l-7 -19c-3 -9 -7 -17 -10 -25c-4 -8 -12 -21 -14 -27c-4 5 -11 19 -14 26c-4 9 -7 17 -10 26l-8 18
c-4 14 -8 40 -21 57c-25 34 -62 32 -87 14c-26 -19 -38 -53 -13 -87c12 -17 35 -29 47 -38l15 -12c8 -6 16 -11 22 -18c6 -5 16 -17 21 -21c-8 -3 -23 -5 -31 -6c-9 -2 -17 -3 -28 -3h-20c-13 0 -40 4 -60 -3c-40 -13 -49 -49 -40 -78c10 -30 39 -53 78 -40
c21 6 40 25 51 33l17 12c8 4 15 9 24 13c6 4 21 12 26 14c-1 -5 -2 -21 -4 -29c-2 -9 -4 -17 -6 -27l-6 -18c-4 -14 -16 -38 -16 -59c0 -42 32 -62 63 -62c32 0 62 20 62 62c0 21 -12 45 -16 59l-6 18c-2 10 -4 18 -6 27c-2 8 -3 24 -4 30c6 -3 20 -10 27 -14
c8 -5 15 -8 24 -13l16 -12c11 -8 31 -27 51 -33c40 -13 69 11 78 40c10 30 0 65 -40 78c-20 7 -46 3 -60 3l-20 1c-10 0 -18 1 -26 2z" />
    <glyph glyph-name="plus" unicode="+" horiz-adv-x="709" 
d="M411 67h-107v228h-219v105h219v228h107v-228h217v-105h-217v-228z" />
    <glyph glyph-name="comma" unicode="," horiz-adv-x="366" 
d="M90 -146h-35v77h21c27 0 80 25 80 57c0 12 -7 21 -17 26l-15 8c-33 17 -53 36 -53 80c0 57 51 98 108 98c71 0 124 -56 124 -136c0 -127 -108 -210 -213 -210z" />
    <glyph glyph-name="hyphen" unicode="-" horiz-adv-x="477" 
d="M396 392v-160h-320v160h320z" />
    <glyph glyph-name="period" unicode="." horiz-adv-x="366" 
d="M188 -12c-63 0 -113 50 -113 112c0 61 53 105 113 105c58 0 108 -50 108 -110c0 -59 -49 -107 -108 -107z" />
    <glyph glyph-name="slash" unicode="/" horiz-adv-x="517" 
d="M126 0h-99l362 757h100z" />
    <glyph glyph-name="zero" unicode="0" horiz-adv-x="732" 
d="M356 -9c-191 0 -312 167 -312 375c0 220 130 404 333 404c197 0 309 -175 309 -400c0 -215 -129 -379 -330 -379zM473 372c0 155 -7 304 -109 304c-108 0 -108 -149 -108 -304c0 -143 -1 -289 108 -289c111 0 109 146 109 289z" />
    <glyph glyph-name="one" unicode="1" horiz-adv-x="608" 
d="M570 0h-466v87h110c14 0 26 5 35 16c9 12 8 37 8 61v343c-28 -22 -47 -34 -81 -45c-44 -13 -70 -18 -116 -16v87c66 8 107 29 155 73c49 46 71 86 84 151h150v-593c0 -24 -1 -48 8 -60s20 -17 36 -17h77v-87z" />
    <glyph glyph-name="two" unicode="2" horiz-adv-x="732" 
d="M194 0h-115v78c0 60 -3 97 31 150c40 62 94 96 139 124l73 44c67 41 112 80 112 169c0 72 -33 118 -109 118c-44 0 -86 -18 -96 -63l-3 -15h10c43 0 77 -36 77 -79c0 -65 -52 -96 -107 -96c-79 0 -130 47 -130 141c0 118 124 200 283 200c143 0 292 -82 292 -225
c0 -121 -111 -172 -223 -217l-97 -40c-46 -18 -77 -39 -106 -70c-23 -25 -43 -57 -43 -99v-17l14 25c21 41 64 83 138 85c41 2 63 -10 98 -28l31 -16c23 -12 38 -20 65 -20c34 0 43 34 43 64v43h96v-80c-2 -111 -57 -186 -160 -187c-44 0 -64 7 -100 23l-94 43
c-22 10 -40 19 -64 14c-26 -4 -41 -22 -48 -46z" />
    <glyph glyph-name="three" unicode="3" horiz-adv-x="732" 
d="M346 432c62 0 104 30 104 119c0 101 -46 133 -116 133c-76 0 -100 -28 -112 -67h6c37 0 64 -25 64 -68c0 -58 -43 -83 -91 -83c-62 0 -117 32 -117 117c0 108 119 189 284 189c162 0 286 -62 286 -205c0 -103 -70 -158 -188 -177c132 -2 203 -86 203 -186
c0 -134 -129 -216 -324 -216c-180 0 -274 93 -274 199c0 88 43 128 110 128c57 0 99 -35 99 -91c0 -42 -20 -59 -55 -69l-12 -4l8 -16c15 -28 47 -52 114 -52c88 0 118 39 118 127c0 82 -35 130 -99 130h-38v90z" />
    <glyph glyph-name="four" unicode="4" horiz-adv-x="732" 
d="M555 213v-49c0 -24 -1 -48 8 -60s20 -17 36 -17h65v-87h-447v87h102c14 0 26 5 35 16c9 12 8 37 8 61v49h-320v120l356 424h157v-453h110v-91h-110zM366 304v269l-218 -269h218z" />
    <glyph glyph-name="five" unicode="5" horiz-adv-x="732" 
d="M450 262c0 108 -38 159 -114 158c-35 -1 -63 -11 -81 -37l-9 -12h-118l44 393h51l17 -8c51 -20 115 -28 188 -28s113 7 185 28l9 3c9 3 18 6 25 -2c9 -9 -4 -31 -15 -43l-27 -30c-48 -53 -140 -100 -265 -100c-28 0 -44 3 -72 9l-14 3l-18 -150l26 21c34 25 77 38 127 38
c149 -1 271 -94 271 -256c0 -177 -164 -261 -320 -261c-150 0 -256 84 -255 193c1 90 58 127 114 127c49 0 103 -34 103 -92c0 -43 -23 -66 -50 -72l-10 -3l2 -15c3 -34 38 -51 87 -51c80 0 119 72 119 187z" />
    <glyph glyph-name="six" unicode="6" horiz-adv-x="732" 
d="M384 -12c-188 0 -308 168 -308 370c0 288 166 414 350 414c138 0 228 -82 228 -165c0 -78 -54 -114 -111 -114c-48 0 -92 31 -92 81c0 32 9 46 29 59l8 5l-5 13c-12 27 -51 32 -75 32c-70 0 -127 -73 -127 -228c0 -14 0 -21 1 -35l2 -17l27 26c29 27 72 45 123 45
c134 0 244 -99 244 -230c0 -150 -136 -256 -294 -256zM388 378c-71 0 -99 -56 -99 -149c0 -88 18 -153 99 -153c72 0 99 65 99 150c0 87 -27 152 -99 152z" />
    <glyph glyph-name="seven" unicode="7" horiz-adv-x="732" 
d="M180 449h-90v100c0 134 47 223 152 223c50 0 70 -11 106 -35l40 -29c25 -16 44 -30 75 -30c37 0 68 26 76 64l2 23h114l3 -141c0 -36 -1 -59 -12 -93c-10 -31 -18 -47 -34 -72l-41 -67c-19 -30 -33 -50 -51 -80c-26 -44 -35 -70 -36 -118l-3 -50
c-5 -92 -18 -156 -117 -156c-65 0 -109 42 -109 128c0 92 43 157 102 212l75 69c44 41 75 71 102 119c21 34 30 60 31 101l2 39l-15 -29c-33 -65 -75 -117 -147 -117c-50 0 -78 23 -120 54l-25 18c-16 12 -36 14 -51 6c-21 -12 -29 -31 -29 -60v-79z" />
    <glyph glyph-name="eight" unicode="8" horiz-adv-x="732" 
d="M209 362l23 12l-20 11c-73 37 -112 99 -112 172c0 137 120 215 281 215c159 0 279 -68 279 -190c0 -80 -40 -117 -101 -155l-27 -17l28 -18c69 -44 108 -98 108 -178c0 -146 -136 -226 -301 -226c-171 0 -293 70 -293 210c0 82 61 125 135 164zM348 307c-8 4 -16 6 -27 6
c-46 0 -96 -63 -96 -124c0 -70 59 -111 142 -111c72 0 120 34 120 93c0 40 -20 68 -55 88zM347 507l93 -45l20 14c35 24 44 57 44 100c0 60 -33 106 -116 106c-60 0 -117 -31 -117 -88c0 -45 36 -69 76 -87z" />
    <glyph glyph-name="nine" unicode="9" horiz-adv-x="732" 
d="M360 772c176 0 308 -135 308 -368c0 -298 -188 -416 -370 -416c-134 0 -225 81 -225 164c0 73 51 107 105 107c48 0 89 -38 89 -87c0 -27 -10 -41 -26 -56l-8 -7l7 -12c9 -15 29 -27 70 -27c110 0 152 72 152 227c0 14 -1 21 -1 35v34l-27 -31c-27 -30 -78 -55 -135 -55
c-143 0 -246 104 -246 236c0 151 149 256 307 256zM347 372c76 0 114 62 114 154c0 88 -44 153 -111 153c-72 0 -114 -67 -114 -151c0 -87 40 -156 111 -156z" />
    <glyph glyph-name="colon" unicode=":" horiz-adv-x="384" 
d="M198 -12c-62 0 -113 50 -113 112c0 61 54 105 114 105c58 0 108 -50 108 -110c0 -59 -49 -107 -109 -107zM198 288c-62 0 -113 51 -113 113c0 60 54 105 114 105c58 0 108 -51 108 -110c0 -60 -49 -108 -109 -108z" />
    <glyph glyph-name="semicolon" unicode=";" horiz-adv-x="366" 
d="M191 288c-62 0 -113 51 -113 113c0 60 54 105 114 105c58 0 108 -51 108 -110c0 -60 -49 -108 -109 -108zM90 -147h-35v77h21c27 0 80 26 80 57c0 12 -7 21 -17 26l-15 8c-33 17 -53 36 -53 80c0 57 51 98 108 98c71 0 124 -56 124 -136c0 -127 -108 -210 -213 -210z" />
    <glyph glyph-name="less" unicode="&#x3c;" horiz-adv-x="709" 
d="M158 364l325 250l54 -76l-264 -203l274 -194l-61 -75l-328 238v60z" />
    <glyph glyph-name="equal" unicode="=" horiz-adv-x="709" 
d="M110 293h494v-99h-494v99zM110 471h494v-99h-494v99z" />
    <glyph glyph-name="greater" unicode="&#x3e;" horiz-adv-x="709" 
d="M255 614l325 -250v-60l-328 -238l-61 75l274 194l-264 203z" />
    <glyph glyph-name="question" unicode="?" horiz-adv-x="596" 
d="M266 -12c-62 0 -113 48 -113 109c0 59 54 103 114 103c57 0 107 -48 107 -108c0 -58 -49 -104 -108 -104zM338 483c24 33 24 73 24 103c0 65 -24 105 -85 105c-37 0 -70 -20 -77 -57l-3 -14h9c40 0 77 -24 77 -70c0 -58 -55 -88 -98 -88c-64 0 -119 44 -119 128
c0 107 101 182 228 182c130 0 246 -72 246 -192c0 -75 -25 -119 -82 -153l-40 -25c-30 -18 -46 -30 -72 -58c-25 -26 -35 -46 -35 -80v-26h-89v44c0 38 10 63 30 92c17 27 34 38 53 64z" />
    <glyph glyph-name="at" unicode="@" horiz-adv-x="1010" 
d="M492 -84c-255 0 -432 169 -432 408c0 258 235 448 493 448c186 0 409 -79 409 -341c0 -184 -119 -320 -270 -323c-51 0 -71 28 -77 49l-7 24l-16 -19c-31 -38 -71 -59 -135 -59c-133 -1 -205 75 -205 204c0 163 96 275 235 275c50 0 71 -14 109 -37l19 -13l29 46h101
l-62 -310c-7 -33 -8 -82 33 -82c80 0 153 128 155 236c4 190 -164 269 -318 269c-187 0 -402 -129 -402 -369c0 -179 149 -334 341 -334c144 0 256 39 371 128l40 -60c-138 -99 -223 -140 -411 -140zM542 240l39 224l-10 11c-18 17 -29 31 -57 31c-76 0 -116 -112 -116 -201
c0 -63 0 -137 80 -136c43 0 58 35 64 71z" />
    <glyph glyph-name="A" unicode="A" horiz-adv-x="899" 
d="M341 0h-331v101h28c22 0 31 5 41 13c12 10 21 23 26 39l229 604h226l226 -590c4 -12 13 -34 29 -46c15 -13 29 -20 49 -20h25v-101h-425v101h52c13 0 24 1 33 9c15 12 21 30 15 48l-21 55h-279l-19 -49c-5 -16 -8 -32 2 -47c10 -14 25 -16 43 -16h51v-101zM405 594
l-104 -278h206z" />
    <glyph glyph-name="B" unicode="B" horiz-adv-x="867" 
d="M440 428c68 0 132 38 132 118c0 66 -56 108 -119 108h-37c-20 0 -36 -9 -47 -24c-11 -13 -12 -34 -12 -56v-146h83zM820 203c0 -141 -147 -203 -282 -203h-496v101h44c21 0 36 9 47 24c11 14 12 34 12 56v395c0 22 -1 43 -12 56c-11 15 -26 24 -47 24h-44v101h442
c144 0 318 -44 318 -190c0 -105 -78 -170 -174 -183c97 -3 192 -73 192 -181zM453 99c79 0 129 41 129 127c0 74 -58 110 -131 110h-94v-151c0 -25 1 -49 12 -62c11 -15 27 -24 47 -24h37z" />
    <glyph glyph-name="C" unicode="C" horiz-adv-x="848" 
d="M772 268c0 -107 -80 -280 -331 -280c-255 0 -398 169 -398 392c0 218 171 392 401 392c70 0 117 -22 139 -29l27 -9c13 -4 26 -4 37 2c13 8 20 20 18 36h87v-292h-120l-1 17c-5 115 -61 170 -167 170c-119 0 -183 -117 -183 -283c0 -185 54 -292 180 -292
c135 0 184 99 184 176v40h127v-40z" />
    <glyph glyph-name="D" unicode="D" horiz-adv-x="943" 
d="M900 388c0 -246 -180 -388 -424 -388h-435v101h44c21 0 36 9 47 24c11 14 12 34 12 56v395c0 22 -1 43 -12 56c-11 15 -26 24 -47 24h-44v101h435c235 0 424 -118 424 -369zM376 116c12 -14 44 -16 71 -16c166 0 212 117 212 288c0 145 -63 270 -209 270
c-31 0 -59 -2 -78 -26c-10 -13 -11 -34 -11 -56v-395c0 -25 3 -53 15 -65z" />
    <glyph glyph-name="E" unicode="E" horiz-adv-x="885" 
d="M804 308v-308h-762v101h44c21 0 36 9 47 24c11 14 12 34 12 56v395c0 22 -1 43 -12 56c-11 15 -26 24 -47 24h-44v101h762v-297h-120v57c0 48 -14 80 -39 103c-22 21 -59 36 -100 36h-128c-21 0 -36 -9 -47 -24c-11 -13 -12 -34 -12 -56v-146h67c19 0 29 5 42 17
c11 12 15 29 15 51v48h96v-329h-96v48c0 19 -1 35 -13 48c-13 14 -24 21 -46 21h-65v-153c0 -23 -1 -46 10 -59c12 -15 28 -21 49 -21h140c37 0 71 14 90 31c21 17 39 47 39 81v95h118z" />
    <glyph glyph-name="F" unicode="F" horiz-adv-x="811" 
d="M504 101v-101h-462v101h44c21 0 36 9 47 24c11 14 12 34 12 56v395c0 22 -1 43 -12 56c-11 15 -26 24 -47 24h-44v101h743v-313h-120v73c0 44 -6 76 -37 105c-30 28 -61 34 -103 34h-106c-21 0 -36 -9 -47 -24c-11 -13 -12 -34 -12 -56v-142h60c16 0 25 6 37 16
c15 13 19 30 19 51v48h96v-329h-96v48c0 19 -1 32 -12 47c-12 16 -26 23 -46 23h-58v-157c0 -23 -1 -46 10 -59c11 -15 28 -21 49 -21h85z" />
    <glyph glyph-name="G" unicode="G" horiz-adv-x="891" 
d="M694 0l-31 105l-14 -19c-43 -56 -97 -98 -229 -98c-228 0 -378 179 -377 392c1 219 171 392 401 392c55 0 88 -9 140 -29l26 -10c12 -4 26 -4 37 2c13 8 18 22 18 37h88l-1 -297h-120l-1 22c-3 96 -59 170 -178 170s-176 -93 -176 -278s37 -297 170 -297
c84 0 136 46 136 116v30c0 14 -1 24 -11 33c-10 10 -20 12 -34 12h-89v101h419v-99h-39c-16 0 -25 -8 -34 -20c-13 -16 -13 -32 -13 -53v-212h-88z" />
    <glyph glyph-name="H" unicode="H" horiz-adv-x="990" 
d="M630 332h-268v-151c0 -25 1 -42 11 -56c13 -16 25 -24 47 -24h38v-101h-416v101h44c22 0 35 8 47 24c11 14 12 31 12 56v395c0 26 -1 43 -12 56c-12 16 -25 24 -47 24h-44v101h416v-101h-38c-22 0 -34 -8 -47 -24c-10 -13 -11 -30 -11 -56v-137h268v137
c0 26 -1 43 -11 56c-13 16 -25 24 -47 24h-38v101h416v-101h-44c-22 0 -35 -8 -47 -24c-11 -13 -12 -30 -12 -56v-395c0 -25 1 -42 12 -56c12 -16 25 -24 47 -24h44v-101h-416v101h38c22 0 34 8 47 24c10 14 11 31 11 56v151z" />
    <glyph glyph-name="I" unicode="I" horiz-adv-x="508" 
d="M42 0h426v101h-44c-22 0 -35 8 -47 24c-11 14 -12 31 -12 56v395c0 26 1 43 12 56c12 16 25 24 47 24h44v101h-426v-101h44c22 0 35 -8 47 -24c11 -13 12 -30 12 -56v-395c0 -25 -1 -42 -12 -56c-12 -16 -25 -24 -47 -24h-44v-101z" />
    <glyph glyph-name="J" unicode="J" horiz-adv-x="681" 
d="M559 231c0 -141 -111 -243 -289 -243c-136 0 -254 62 -254 197c0 82 52 139 124 139c64 0 112 -39 112 -101c0 -34 -16 -61 -51 -71l-12 -4c-5 -1 -9 -8 -9 -13c0 -22 37 -40 69 -40c72 0 91 59 91 124v357c0 26 0 43 -11 56c-12 15 -25 24 -47 24h-73v101h453v-101h-44
c-22 0 -36 -9 -47 -24c-11 -13 -12 -30 -12 -56v-345z" />
    <glyph glyph-name="K" unicode="K" horiz-adv-x="980" 
d="M475 343l-115 -99v-63c0 -23 1 -44 12 -57c11 -15 26 -23 47 -23h39v-101h-416v101h44c21 0 36 9 47 24c11 14 12 34 12 56v395c0 22 -1 43 -12 56c-11 15 -26 24 -47 24h-44v101h416v-101h-39c-21 0 -37 -8 -48 -23c-11 -13 -11 -35 -11 -57v-192l234 212
c12 10 26 25 18 41c-3 9 -13 18 -24 18h-30v102h369v-102h-49c-18 0 -32 -4 -46 -11c-14 -8 -29 -18 -44 -31l-162 -136l218 -310c16 -22 32 -40 49 -51c18 -13 32 -16 54 -16h17v-100h-424v99h29c16 0 29 5 36 18c9 17 0 34 -10 50z" />
    <glyph glyph-name="L" unicode="L" horiz-adv-x="771" 
d="M42 757h460v-101h-82c-22 0 -34 -8 -47 -24c-10 -13 -11 -30 -11 -56v-395c0 -25 -1 -46 10 -59c15 -20 39 -21 61 -21h77c31 0 75 11 98 31c24 20 39 68 39 100v113h117v-345h-722v101h44c22 0 35 8 47 24c11 14 12 31 12 56v395c0 26 -1 43 -12 56
c-12 16 -25 24 -47 24h-44v101z" />
    <glyph glyph-name="M" unicode="M" horiz-adv-x="1191" 
d="M500 0l-241 603v-422c0 -25 1 -42 11 -56c13 -16 25 -24 47 -24h55v-101h-330v101h44c22 0 35 8 47 24c11 14 12 31 12 56v395c0 26 -1 43 -12 56c-12 16 -25 24 -47 24h-44v101h390l171 -448l163 448h385v-101h-48c-22 0 -35 -8 -47 -24c-11 -13 -12 -30 -12 -56v-395
c0 -25 1 -42 12 -56c12 -16 25 -24 47 -24h48v-101h-427v101h50c22 0 35 8 47 24c11 14 12 31 12 56v425l-241 -606h-92z" />
    <glyph glyph-name="N" unicode="N" horiz-adv-x="978" 
d="M856 576l-1 -576h-243l-336 507v-326c0 -25 1 -42 12 -56c12 -16 25 -24 47 -24h66v-101h-359v101h44c22 0 35 8 47 24c11 14 12 31 12 56v395c0 26 -1 43 -12 56c-12 16 -25 24 -47 24h-44v101h328l354 -533v352c0 26 0 43 -11 56c-13 16 -25 24 -47 24h-66v101h359
v-101h-44c-23 0 -35 -8 -47 -24c-11 -13 -12 -30 -12 -56z" />
    <glyph glyph-name="O" unicode="O" horiz-adv-x="889" 
d="M441 -16c-259 0 -398 178 -398 396c0 219 155 392 401 392c263 0 402 -173 402 -392c0 -220 -151 -396 -405 -396zM441 669c-133 0 -160 -137 -160 -289c0 -184 37 -291 165 -291c129 0 164 114 163 291c-1 173 -43 289 -168 289z" />
    <glyph glyph-name="P" unicode="P" horiz-adv-x="838" 
d="M440 407c91 0 133 49 133 132c0 73 -41 121 -120 121h-37c-20 0 -36 -9 -47 -24c-11 -14 -12 -34 -12 -56v-173h83zM504 0h-462v101h44c21 0 36 9 47 24c11 14 12 34 12 56v395c0 22 -1 43 -12 56c-11 15 -26 24 -47 24h-44v101h442c208 0 325 -65 325 -218
s-94 -231 -280 -231h-172v-127c0 -22 2 -42 13 -56c11 -15 26 -24 47 -24h87v-101z" />
    <glyph glyph-name="Q" unicode="Q" horiz-adv-x="898" 
d="M598 252c11 41 11 70 11 130c-1 173 -43 286 -168 286c-133 0 -160 -125 -160 -277c0 -62 3 -86 9 -114c24 64 79 100 147 100c82 0 147 -47 156 -145zM485 96l1 21c3 74 -35 160 -94 160c-44 0 -76 -30 -87 -72c16 -66 71 -112 140 -113c15 0 26 1 40 4zM498 -4
c-21 -2 -41 -4 -57 -4c-259 0 -398 171 -398 388s155 392 401 392c263 0 403 -181 402 -400c-1 -154 -67 -260 -201 -336c5 -34 34 -64 70 -64c37 0 68 31 68 68v12h71v-19c0 -97 -89 -166 -185 -166c-93 0 -154 27 -168 105z" />
    <glyph glyph-name="R" unicode="R" horiz-adv-x="914" 
d="M440 421c74 0 144 36 144 125c0 79 -63 114 -131 114h-37c-20 0 -36 -9 -47 -24c-11 -14 -12 -34 -12 -56v-159h83zM517 281c-20 29 -47 41 -86 41h-74v-141c0 -22 0 -44 11 -57c12 -16 28 -23 49 -23h41v-101h-416v101h44c21 0 36 9 47 24c11 14 12 34 12 56v395
c0 22 -1 43 -12 56c-11 15 -26 24 -47 24h-44v101h496c149 0 282 -73 282 -197c0 -136 -80 -181 -186 -196l-31 -5l25 -6c39 -9 60 -19 86 -46c31 -34 36 -68 36 -115v-48c0 -27 6 -59 34 -59c32 0 41 35 41 75v27h69v-34c0 -96 -64 -176 -172 -176c-102 0 -167 51 -175 139
l-5 46c-4 50 -6 92 -25 119z" />
    <glyph glyph-name="S" unicode="S" horiz-adv-x="768" 
d="M521 465c113 -25 204 -85 204 -214c0 -184 -161 -260 -320 -260c-65 0 -113 13 -146 25l-31 11c-11 3 -21 7 -32 7c-18 0 -32 -16 -36 -34h-82v290h110v-22c0 -96 96 -173 211 -173c68 0 137 31 137 95c0 71 -85 84 -155 99l-132 30c-109 24 -192 93 -192 212
c0 153 132 241 307 241c54 0 86 -3 137 -20l29 -10c11 -3 20 -9 33 -7c18 3 32 14 37 32h84v-280h-110l-4 32c-13 94 -83 152 -190 152c-61 0 -129 -27 -129 -88s71 -75 130 -87z" />
    <glyph glyph-name="T" unicode="T" horiz-adv-x="876" 
d="M44 757h788v-325h-117v106c0 32 -12 75 -36 96c-23 19 -54 26 -91 26h-40v-479c0 -25 0 -42 11 -56c13 -16 25 -24 47 -24h86v-101h-507v101h85c22 0 35 8 47 24c11 14 12 31 12 56v479h-40c-37 0 -69 -7 -92 -26c-24 -21 -35 -64 -35 -96v-106h-118v325z" />
    <glyph glyph-name="U" unicode="U" horiz-adv-x="926" 
d="M492 -12c-223 0 -356 73 -356 302v285c0 26 -1 44 -12 56c-12 15 -24 24 -47 24h-33v102h417v-101h-49c-23 0 -36 -7 -48 -24c-9 -13 -11 -30 -11 -56v-285c0 -162 76 -195 166 -195c96 -1 165 76 165 198v282c0 26 -1 44 -12 56c-12 15 -25 23 -47 23h-46v102h337v-101
h-41c-23 0 -36 -7 -47 -24c-10 -13 -11 -30 -11 -56v-271c0 -229 -132 -317 -325 -317z" />
    <glyph glyph-name="V" unicode="V" horiz-adv-x="868" 
d="M319 0l-196 566c-8 24 -18 50 -29 63c-13 17 -27 27 -50 27h-32v101h410v-101h-40c-20 0 -38 -5 -48 -23c-10 -20 0 -36 6 -56l132 -383l154 394c6 16 12 29 5 45c-6 14 -19 23 -35 23h-56v101h328v-101h-36c-12 0 -20 -4 -30 -11c-14 -9 -22 -19 -27 -35l-235 -610h-221
z" />
    <glyph glyph-name="W" unicode="W" horiz-adv-x="1307" 
d="M778 0l-113 320l-109 -320h-232l-196 566c-8 24 -18 50 -28 63c-14 17 -28 27 -50 27h-33v101h411v-101h-40c-21 0 -39 -5 -48 -23c-11 -20 0 -36 6 -56l138 -406l120 362l-21 51c-7 19 -12 33 -26 48c-14 16 -27 24 -49 24h-17v101h401v-99h-56c-13 0 -23 -6 -30 -16
c-8 -12 -10 -24 -5 -38l142 -424l134 408c6 17 13 29 6 45c-7 14 -19 23 -35 23h-57v101h328v-101h-35c-15 0 -24 -6 -35 -14c-12 -9 -18 -18 -22 -32l-214 -610h-235z" />
    <glyph glyph-name="X" unicode="X" horiz-adv-x="894" 
d="M860 101h29v-101h-438v101h42c11 0 20 6 24 15c6 10 2 23 -5 32l-117 151l-120 -143c-9 -12 -19 -24 -14 -38c6 -13 19 -17 33 -17h34v-101h-316v101h27c14 0 23 3 36 7c18 8 30 16 42 31l211 245l-179 222c-11 15 -18 28 -35 38c-19 10 -33 12 -55 12h-23v101h430v-101
h-33c-13 0 -25 -9 -29 -19c-5 -15 -2 -26 7 -38l101 -122l100 131c8 10 15 19 11 30c-3 12 -15 18 -27 18h-37v101h315v-101h-41c-16 0 -27 -4 -41 -12c-16 -8 -27 -17 -37 -32l-173 -220l194 -237c12 -15 22 -28 38 -39c16 -10 27 -15 46 -15z" />
    <glyph glyph-name="Y" unicode="Y" horiz-adv-x="853" 
d="M537 270v-89c0 -25 1 -42 11 -56c13 -16 25 -24 48 -24h85v-101h-507v101h86c22 0 34 8 47 24c10 14 11 31 11 56v93l-212 337c-14 21 -19 24 -30 32c-12 8 -22 13 -44 13h-24v101h421v-101h-45c-14 0 -28 -4 -34 -16c-8 -14 -2 -29 7 -44l120 -191l125 199
c7 11 10 24 4 37c-6 11 -17 15 -30 15h-38v101h321v-101h-45c-15 0 -28 -7 -37 -13c-10 -7 -19 -20 -27 -33z" />
    <glyph glyph-name="Z" unicode="Z" horiz-adv-x="821" 
d="M517 656h-182c-31 0 -91 -16 -117 -41c-31 -28 -43 -67 -43 -99v-61h-117v302h715v-135l-467 -521h206c31 0 71 8 104 39c30 29 36 69 36 101v58h123v-299h-722v140z" />
    <glyph glyph-name="bracketleft" unicode="[" horiz-adv-x="523" 
d="M284 600v-590c0 -22 0 -42 10 -54c9 -12 20 -16 36 -16h91v-87h-316v903h316v-86h-91c-16 0 -27 -4 -36 -16c-10 -12 -10 -33 -10 -54z" />
    <glyph glyph-name="backslash" unicode="\" horiz-adv-x="517" 
d="M489 0h-100l-362 757h99z" />
    <glyph glyph-name="bracketright" unicode="]" horiz-adv-x="523" 
d="M239 10v590c0 21 -1 42 -11 54c-8 12 -19 16 -35 16h-92v86h317v-903h-317v87h92c16 0 27 4 35 16c10 12 11 32 11 54z" />
    <glyph glyph-name="asciicircum" unicode="^" horiz-adv-x="613" 
d="M251 757h114l226 -252h-93l-190 165l-197 -165h-86z" />
    <glyph glyph-name="underscore" unicode="_" horiz-adv-x="732" 
d="M0 -81h732v-126h-732v126z" />
    <glyph glyph-name="grave" unicode="`" horiz-adv-x="613" 
d="M201 658c-31 23 -52 73 -18 101c37 32 81 5 109 -28l201 -226h-93z" />
    <glyph glyph-name="a" unicode="a" horiz-adv-x="647" 
d="M376 44l-12 19l-16 -16c-44 -47 -97 -59 -150 -59c-90 0 -170 56 -170 140c0 110 128 116 178 124l53 8c53 8 105 14 105 85c0 46 -24 86 -80 86c-43 0 -60 -19 -70 -34c21 -10 35 -20 35 -48c0 -45 -46 -73 -91 -73c-50 0 -93 32 -94 91c-1 88 114 137 240 137
c100 0 220 -43 220 -145v-235c0 -16 0 -35 25 -35s28 21 28 40l2 48h59v-59c0 -80 -58 -130 -143 -130c-51 0 -91 14 -119 56zM360 234c-12 -8 -21 -14 -35 -19c-14 -6 -23 -10 -39 -13l-20 -6c-39 -9 -62 -24 -62 -57c0 -32 27 -57 59 -57c54 1 97 48 97 103v49z" />
    <glyph glyph-name="b" unicode="b" horiz-adv-x="659" 
d="M349 404c-77 0 -102 -79 -102 -120v-74c0 -87 32 -132 96 -132c74 0 95 65 95 172c0 106 -34 154 -89 154zM88 0v628c0 14 -2 24 -10 33c-7 8 -17 13 -28 13h-34v83h235v-321c17 18 55 67 156 67c141 0 221 -111 221 -256c0 -160 -124 -259 -248 -259
c-104 0 -151 40 -190 85l-18 -73h-84z" />
    <glyph glyph-name="c" unicode="c" horiz-adv-x="550" 
d="M296 -12c-172 0 -267 112 -267 257c0 159 100 259 272 259c117 0 209 -67 209 -157c0 -62 -36 -113 -108 -113c-57 0 -89 35 -90 82c0 30 17 52 44 64l-4 9c-3 7 -13 28 -50 28c-64 0 -83 -66 -83 -156c0 -94 9 -180 100 -180c62 0 83 44 87 95l114 4v-19
c0 -95 -101 -174 -224 -173z" />
    <glyph glyph-name="d" unicode="d" horiz-adv-x="665" 
d="M406 281c0 77 -38 113 -97 113c-54 0 -89 -45 -89 -155c0 -115 27 -151 89 -151c57 0 97 52 97 108v85zM406 443v185c0 14 -2 24 -10 33c-7 8 -16 13 -28 13h-71v83h269v-600c0 -21 1 -41 11 -54c9 -11 19 -16 35 -16h34v-87h-234v66l-19 -22c-38 -44 -77 -56 -137 -56
c-124 0 -221 106 -221 254c0 147 96 259 232 259c51 0 96 -15 122 -41z" />
    <glyph glyph-name="e" unicode="e" horiz-adv-x="579" 
d="M552 220h-336l1 -40c1 -60 34 -104 102 -104c62 0 97 29 104 89h125l-2 -18c-5 -54 -84 -160 -250 -159c-159 0 -267 112 -267 257s111 259 272 259c148 0 252 -91 252 -236c0 -18 2 -18 -1 -48zM216 322v-22h169v21c0 58 -27 104 -84 104c-52 0 -85 -43 -85 -103z" />
    <glyph glyph-name="f" unicode="f" horiz-adv-x="441" 
d="M399 393h-121v-229c0 -24 -1 -49 8 -61c9 -11 21 -16 35 -16h75v-87h-374v87h54c12 0 22 4 29 12c8 9 11 20 11 33v261h-89v85h58c11 0 22 6 26 10c5 4 7 15 7 24v29c0 156 80 231 229 231c115 0 189 -56 189 -134c0 -70 -47 -105 -92 -105c-46 0 -80 27 -81 73
c0 26 13 45 35 56c0 0 -8 34 -51 34c-39 0 -68 -24 -68 -76v-142h120v-85z" />
    <glyph glyph-name="g" unicode="g" horiz-adv-x="580" 
d="M121 219l19 10l-16 9c-45 25 -72 42 -72 110c0 104 131 147 225 147c43 0 70 -2 111 -16l20 -7l-10 14c-15 23 -19 37 -19 69c0 57 47 88 97 88c52 0 82 -32 81 -74c0 -38 -30 -57 -62 -57c-12 0 -20 4 -30 12l-11 8c-5 -12 -10 -23 -10 -36c1 -21 10 -38 27 -52l13 -10
c26 -21 40 -45 40 -80c0 -106 -119 -150 -231 -150c-21 0 -33 0 -55 2l-15 2c-12 1 -26 2 -29 -12c-6 -21 26 -32 50 -33l32 -3c128 -11 297 -6 297 -145c0 -129 -162 -161 -293 -161c-111 0 -260 23 -260 115c0 46 35 59 73 71l23 7l-16 9c-31 17 -48 40 -49 74
c-1 43 31 67 70 89zM199 31l-9 -7c-13 -11 -18 -22 -18 -37c2 -40 67 -51 116 -51c51 0 120 8 121 50c1 38 -54 34 -93 35l-38 2c-18 0 -31 2 -49 4c-10 1 -19 2 -30 4zM223 350c0 -42 19 -63 61 -63s63 21 63 63c0 43 -24 64 -63 64c-40 0 -61 -22 -61 -64z" />
    <glyph glyph-name="h" unicode="h" horiz-adv-x="697" 
d="M679 0h-295v87h27c8 0 14 4 19 8c10 8 9 20 9 33v161c0 57 -23 84 -67 84c-60 0 -97 -61 -97 -159v-74c0 -15 1 -27 9 -39c9 -11 19 -14 33 -14h18v-87h-304v87h42c11 0 21 4 28 12c8 9 11 20 11 33v496c0 14 -2 24 -10 33c-7 8 -17 13 -28 13h-42v83h244v-362
c24 55 88 100 164 100s159 -53 159 -144v-212c0 -16 5 -29 14 -39c10 -12 16 -13 32 -13h34v-87z" />
    <glyph glyph-name="i" unicode="i" horiz-adv-x="382" 
d="M280 478v-333c0 -17 0 -30 9 -42c9 -11 19 -16 34 -16h34v-87h-321v87h42c12 0 22 4 29 12c8 9 10 20 10 33v217c0 14 -1 23 -9 33c-8 8 -17 13 -29 13h-42v83h243zM93 668c0 60 49 109 110 109c60 0 109 -49 109 -109c0 -61 -49 -110 -109 -110c-61 0 -110 49 -110 110z
" />
    <glyph glyph-name="j" unicode="j" horiz-adv-x="353" 
d="M135 91c-7 14 -10 24 -13 41c-4 16 -2 32 -2 54v163c0 14 -2 23 -10 33c-7 8 -17 13 -28 13h-55v83h256v-272c0 -63 9 -98 9 -161c0 -95 -41 -192 -165 -192c-94 0 -152 53 -152 115c0 52 36 82 81 82c32 0 64 -23 64 -60c0 -18 -12 -31 -28 -39c0 0 4 -22 39 -22
c28 0 40 31 40 60c0 26 -6 43 -17 66zM92 668c0 59 50 109 110 109c59 0 109 -50 109 -109c0 -60 -50 -110 -109 -110c-60 0 -110 50 -110 110z" />
    <glyph glyph-name="k" unicode="k" horiz-adv-x="705" 
d="M377 478h295v-83h-31c-14 0 -24 -1 -37 -4c-16 -3 -25 -11 -39 -19l-85 -55l122 -175c11 -18 24 -34 39 -42s25 -13 42 -13h11v-87h-311v87h21c9 0 16 3 20 11c5 10 2 20 -4 29l-69 105l-54 -30c-8 -5 -14 -10 -20 -18c-3 -5 -5 -12 -5 -20v-31c0 -15 3 -27 13 -36
c11 -9 18 -10 30 -10h22v-87h-306v87h42c11 0 21 4 28 12c8 9 11 20 11 33v496c0 14 -2 24 -10 33c-7 8 -17 13 -28 13h-42v83h241v-477l133 83c7 3 13 13 9 22c-3 11 -11 10 -19 10h-19v83z" />
    <glyph glyph-name="l" unicode="l" horiz-adv-x="374" 
d="M275 757v-607c0 -18 0 -35 9 -47c8 -11 19 -16 33 -16h35v-87h-321v87h42c11 0 21 4 28 12c8 9 11 20 11 33v496c0 14 -2 24 -10 33c-7 8 -17 13 -28 13h-42v83h243z" />
    <glyph glyph-name="m" unicode="m" horiz-adv-x="1019" 
d="M999 0h-291v87h27c8 0 14 4 20 8c9 8 9 20 9 33v161c0 57 -24 84 -67 84c-61 0 -99 -61 -99 -159v-74c0 -15 1 -27 10 -39c9 -11 19 -14 33 -14h18v-87h-272v87h26c8 0 15 4 20 8c10 8 9 20 9 33v161c0 57 -22 84 -66 84c-60 0 -100 -61 -100 -159v-74
c0 -15 1 -27 10 -39c9 -11 19 -14 33 -14h18v-87h-301v87h42c12 0 22 4 29 12c8 9 10 20 10 33v217c0 14 -1 23 -9 33c-8 8 -17 13 -29 13h-42v83h237v-104c19 72 96 121 171 121c76 0 114 -29 135 -89l7 -17l14 23c36 60 83 83 159 83s159 -53 159 -144v-194
c0 -21 1 -41 11 -54c9 -11 19 -16 35 -16h34v-87z" />
    <glyph glyph-name="n" unicode="n" horiz-adv-x="704" 
d="M339 0h-303v87h42c12 0 22 4 29 12c8 9 10 20 10 33v217c0 14 -1 23 -9 33c-8 8 -17 13 -29 13h-43v83h238v-104c20 71 96 121 171 121c76 0 159 -53 159 -144v-194c0 -21 1 -41 11 -54c9 -11 20 -16 36 -16h33v-87h-295v87h27c8 0 14 4 20 8c9 8 8 20 8 33v161
c0 57 -23 84 -66 84c-61 0 -100 -61 -100 -159v-74c0 -15 1 -27 10 -39c9 -11 19 -14 33 -14h18v-87z" />
    <glyph glyph-name="o" unicode="o" horiz-adv-x="610" 
d="M303 -12c-159 0 -274 119 -274 255c1 153 127 261 281 261c157 0 270 -108 270 -251c0 -147 -119 -265 -277 -265zM216 244c0 -107 19 -170 89 -170c73 0 89 76 89 170c0 107 -16 172 -89 172c-70 0 -89 -74 -89 -172z" />
    <glyph glyph-name="p" unicode="p" horiz-adv-x="656" 
d="M412 -7c-64 0 -116 17 -145 75v-63c0 -24 1 -49 10 -61s21 -16 35 -16h63v-75h-360v75h53c11 0 21 4 28 12c8 8 11 20 11 33v376c0 13 -2 23 -10 33c-7 8 -17 13 -29 13h-54v83h248v-64c35 53 88 86 158 86c117 0 207 -96 207 -251c0 -173 -94 -256 -215 -256zM265 241
c0 -95 32 -133 92 -133c67 0 84 66 84 136c0 60 -23 131 -85 133c-64 2 -91 -63 -91 -136z" />
    <glyph glyph-name="q" unicode="q" horiz-adv-x="643" 
d="M302 110c52 0 92 38 92 133c0 85 -21 155 -91 155c-68 0 -88 -84 -88 -153s21 -135 87 -135zM281 500c88 0 132 -45 165 -96l30 91h77v-522c0 -13 3 -25 11 -33c7 -8 16 -12 28 -12h52v-75h-360v75h64c14 0 25 4 34 16s10 37 10 61v69c-33 -45 -81 -81 -146 -81
c-132 0 -213 115 -213 256c0 157 99 251 248 251z" />
    <glyph glyph-name="r" unicode="r" horiz-adv-x="568" 
d="M428 494c77 0 136 -47 136 -122c0 -64 -42 -110 -100 -110c-44 0 -76 27 -76 62c0 21 7 37 22 49c0 0 -1 18 -36 18c-50 0 -94 -72 -94 -137v-90c0 -24 -1 -49 8 -61c9 -11 20 -16 35 -16h74v-87h-361v87h42c12 0 22 4 29 12c8 9 10 20 10 33v217c0 14 -1 23 -9 33
c-8 8 -17 13 -29 13h-42v83h236v-73l17 22c36 46 74 67 138 67z" />
    <glyph glyph-name="s" unicode="s" horiz-adv-x="517" 
d="M108 0h-64v176h88l1 -14c5 -40 50 -90 122 -88c34 1 76 13 75 47c-1 35 -39 44 -73 51l-89 20c-79 17 -136 58 -137 145c-1 99 84 164 194 165c40 0 65 -3 101 -18l24 -9c9 -4 16 -8 26 -7c13 3 22 14 22 27h62v-167h-90l-3 16c-6 41 -59 73 -115 73
c-40 0 -69 -13 -69 -45c0 -29 32 -40 61 -46l122 -26c71 -16 127 -64 126 -138c0 -111 -107 -173 -215 -174c-40 0 -78 8 -108 22l-16 7c-12 4 -16 9 -25 6c-12 -3 -20 -11 -20 -23z" />
    <glyph glyph-name="t" unicode="t" horiz-adv-x="457" 
d="M252 393v-249c0 -46 22 -63 47 -63s51 17 51 75v76h72v-99c0 -89 -63 -145 -177 -145c-109 0 -155 75 -155 163v242h-84v85h50c29 0 48 6 68 32c21 27 21 148 21 148h108v-180h147v-85h-148z" />
    <glyph glyph-name="u" unicode="u" horiz-adv-x="678" 
d="M587 478v-349c0 -13 1 -24 9 -33c8 -8 17 -12 29 -12h35v-84h-230v88l-14 -23c-27 -44 -89 -77 -157 -77c-87 0 -161 36 -161 138v194c0 21 -1 43 -11 54c-9 11 -19 16 -35 16h-34v87h242v-294c0 -39 26 -76 66 -76c55 0 99 45 99 134v73c0 24 1 50 -8 61s-21 15 -35 15
h-43v88h248z" />
    <glyph glyph-name="v" unicode="v" horiz-adv-x="582" 
d="M192 0l-121 327c-6 17 -9 29 -20 45c-10 12 -25 23 -44 23h-7v83h292v-83h-13c-13 0 -27 1 -34 -10c-6 -11 -2 -20 1 -31l82 -234l88 234c4 11 7 20 1 31s-21 10 -34 10h-13v83h219v-83h-7c-18 0 -36 -4 -46 -16c-12 -17 -16 -31 -23 -51l-132 -328h-189z" />
    <glyph glyph-name="w" unicode="w" horiz-adv-x="923" 
d="M355 478h296v-83h-28c-13 0 -27 1 -34 -10c-6 -11 -3 -20 1 -31l85 -215l85 215c4 11 7 20 1 31s-21 10 -34 10h-13v83h225v-83h-13c-18 0 -36 -4 -46 -16c-12 -17 -16 -31 -23 -51l-132 -328h-173l-88 239l-91 -239h-171l-132 327c-7 18 -11 29 -24 45
c-10 12 -25 23 -43 23h-13v83h298v-83h-13c-15 0 -29 0 -35 -13c-4 -9 -2 -18 2 -28l85 -234l79 234c3 10 6 19 2 28c-6 13 -20 13 -35 13h-18v83z" />
    <glyph glyph-name="x" unicode="x" horiz-adv-x="628" 
d="M426 235l90 -101c10 -12 18 -20 32 -32c11 -10 30 -18 50 -18h18v-84h-310v84h18c8 0 16 2 19 10s-1 17 -6 23l-66 72l-59 -74c-4 -7 -7 -14 -4 -21s10 -10 18 -10h21v-84h-221v84h25c14 0 22 6 33 16c13 12 22 22 33 36l96 116l-83 92c-11 12 -19 22 -31 35
c-11 10 -28 16 -47 16h-14v83h305v-83h-13c-9 0 -18 -2 -22 -11c-3 -8 0 -19 7 -26l53 -59l52 65c4 6 8 15 5 22c-3 8 -11 9 -19 9h-13v83h212v-83h-19c-11 0 -14 -1 -28 -9c-9 -6 -15 -13 -21 -21z" />
    <glyph glyph-name="y" unicode="y" horiz-adv-x="557" 
d="M240 4l7 19h-58l-118 304c-6 17 -9 29 -20 45c-10 12 -25 23 -44 23h-7v83h288v-83h-19c-13 0 -27 1 -33 -10c-7 -11 -3 -20 0 -31l82 -234l72 234c4 11 7 20 1 31c-6 10 -18 10 -29 10h-14v83h216v-83h-8c-18 0 -36 -4 -46 -16c-12 -17 -16 -31 -23 -51l-123 -323
c-30 -81 -104 -153 -187 -153c-91 0 -163 45 -163 124c0 39 30 79 72 79c31 0 62 -23 62 -55c0 -19 -8 -36 -28 -44l-8 -3l7 -8c12 -13 26 -13 44 -13c40 0 63 32 77 72z" />
    <glyph glyph-name="z" unicode="z" horiz-adv-x="556" 
d="M306 400h-102c-32 0 -45 -14 -55 -25c-9 -11 -17 -25 -17 -57v-33h-88v193h476v-96l-283 -306h93c31 0 64 8 79 24c18 20 20 29 20 61v35h95v-196h-488v98z" />
    <glyph glyph-name="braceleft" unicode="{" horiz-adv-x="523" 
d="M92 264h-46v90h46c22 0 38 2 54 16c17 14 23 30 23 52v158c0 53 5 95 43 130c34 34 66 47 115 47h158v-78h-61c-14 0 -41 -6 -57 -22c-19 -20 -19 -38 -19 -65v-90c0 -61 4 -121 -37 -154c-31 -25 -66 -27 -109 -27l-47 -1v-13l47 -1c50 -1 95 0 123 -41
c23 -33 23 -94 23 -156v-91c0 -27 0 -46 19 -65c16 -16 42 -21 57 -21h61v-79h-158c-50 0 -83 15 -117 49c-37 35 -41 76 -41 127v167c0 22 -6 38 -23 52c-16 13 -32 16 -54 16z" />
    <glyph glyph-name="bar" unicode="|" horiz-adv-x="443" 
d="M168 -199v999h109v-999h-109z" />
    <glyph glyph-name="braceright" unicode="}" horiz-adv-x="523" 
d="M489 264h-46c-22 0 -38 -4 -54 -16c-17 -13 -23 -30 -23 -52v-167c0 -51 -6 -90 -42 -125c-35 -34 -67 -51 -116 -51h-158v79h61c15 0 41 5 57 21c20 19 20 38 20 65v91c0 62 -4 119 22 156c28 41 73 40 123 41l47 1v13l-47 1c-43 0 -78 2 -109 27c-41 33 -36 93 -36 154
v90c0 27 0 45 -20 65c-16 16 -43 22 -57 22h-61v78h158c49 0 81 -15 116 -49c37 -35 42 -75 42 -128v-158c0 -22 6 -39 23 -52c16 -13 32 -16 54 -16h46v-90z" />
    <glyph glyph-name="asciitilde" unicode="~" horiz-adv-x="437" 
d="M221 593l-44 29c-18 12 -27 24 -51 23c-20 0 -26 -24 -26 -44v-25h-48v55c0 51 25 104 76 105c44 1 56 -15 86 -35l45 -29c17 -12 26 -24 50 -23c21 0 27 24 27 44v25h48v-55c0 -51 -26 -104 -76 -105c-45 -1 -56 15 -87 35z" />
    <glyph glyph-name="Adieresis" unicode="&#xc4;" horiz-adv-x="899" 
d="M341 0h-331v101h28c22 0 31 5 41 13c12 10 21 23 26 39l229 604h226l226 -590c4 -11 13 -34 29 -46c15 -13 29 -20 49 -20h25v-101h-425v101h52c13 0 24 2 33 9c15 12 21 30 15 48l-21 55h-279l-19 -49c-5 -16 -8 -32 2 -47c10 -14 25 -16 43 -16h51v-101zM405 594
l-104 -278h206zM313 924c43 0 83 -32 83 -75c0 -44 -40 -75 -83 -75c-44 0 -84 31 -84 75c0 43 40 75 84 75zM564 924c43 0 83 -32 83 -75c0 -44 -40 -75 -83 -75c-44 0 -83 31 -83 75c0 43 39 75 83 75z" />
    <glyph glyph-name="Aring" unicode="&#xc5;" horiz-adv-x="899" 
d="M405 594l-104 -278h206zM537 846c0 49 -40 89 -89 89s-89 -40 -89 -89s40 -89 89 -89s89 40 89 89zM626 846c0 -46 -20 -90 -48 -119l-5 -4l213 -556c4 -12 13 -34 29 -46c15 -13 29 -20 49 -20h25v-101h-425v101h52c13 0 24 1 33 9c15 12 21 30 15 48l-21 55h-279
l-19 -49c-5 -16 -8 -32 2 -47c10 -14 25 -16 43 -16h51v-101h-331v101h28c22 0 31 5 41 13c12 10 21 23 26 39l216 571l-8 8c-25 29 -43 67 -43 114c0 98 80 178 178 178s178 -80 178 -178z" />
    <glyph glyph-name="Ccedilla" unicode="&#xc7;" horiz-adv-x="848" 
d="M455 -11l-8 -28l17 2c45 0 87 -20 87 -81c0 -56 -68 -81 -126 -81c-36 0 -57 6 -89 19l-30 14l16 45l26 -11c28 -12 45 -14 74 -14s38 14 38 28c0 16 -12 28 -31 27l-33 -1l22 82l-12 1c-208 16 -363 171 -363 389c0 219 171 393 401 393c55 0 86 -12 139 -30l27 -9
c13 -4 26 -4 37 2c13 8 20 21 18 37h88l-1 -293h-120l-1 17c-4 86 -56 170 -190 170c-119 0 -160 -111 -160 -278c0 -185 54 -295 180 -295c135 0 181 94 181 170v40h130v-39c0 -157 -124 -262 -299 -275c-6 0 -18 -1 -18 -1z" />
    <glyph glyph-name="Eacute" unicode="&#xc9;" horiz-adv-x="885" 
d="M804 308v-308h-762v101h44c22 0 35 8 47 24c11 14 12 31 12 56v395c0 26 -1 43 -12 56c-12 16 -25 24 -47 24h-44v101h762v-297h-120v57c0 43 -8 75 -39 103c-29 28 -59 36 -100 36h-128c-22 0 -35 -8 -47 -24c-11 -13 -12 -30 -12 -56v-146h67c16 0 26 6 37 16
c15 14 20 30 20 52v48h96v-329h-96v48c0 19 -2 32 -13 46c-12 16 -25 23 -46 23h-65v-153c0 -25 -1 -46 10 -59c12 -16 27 -21 49 -21h140c37 0 63 7 90 31c26 23 39 49 39 81v95h118zM499 928h145l-198 -140h-99z" />
    <glyph glyph-name="Ntilde" unicode="&#xd1;" horiz-adv-x="978" 
d="M856 576l-1 -576h-243l-336 507v-326c0 -25 1 -42 12 -56c12 -16 25 -24 47 -24h66v-101h-359v101h44c22 0 35 8 47 24c11 14 12 31 12 56v395c0 26 -1 43 -12 56c-12 16 -25 24 -47 24h-44v101h328l354 -533v352c0 26 0 43 -11 56c-13 16 -25 24 -47 24h-66v101h359
v-101h-44c-23 0 -35 -8 -47 -24c-11 -13 -12 -30 -12 -56zM428 924c49 0 57 -12 90 -28c20 -10 37 -22 63 -22s40 16 55 37l9 14l63 -27l-29 -43c-26 -38 -54 -63 -100 -63c-49 0 -58 12 -88 28c-23 11 -39 24 -64 24c-26 0 -41 -17 -55 -39l-10 -14l-62 29l29 41
c26 38 54 63 99 63z" />
    <glyph glyph-name="Odieresis" unicode="&#xd6;" horiz-adv-x="889" 
d="M441 -16c-259 2 -398 178 -398 396c0 219 155 393 401 393c263 0 401 -174 402 -393c1 -220 -151 -398 -405 -396zM441 670c-133 0 -160 -138 -160 -290c0 -184 37 -291 165 -291c129 0 164 114 163 291c-1 173 -43 290 -168 290zM318 924c44 0 83 -32 83 -75
c0 -44 -39 -75 -83 -75c-43 0 -83 31 -83 75c0 43 40 75 83 75zM569 924c43 0 83 -32 83 -75c0 -44 -40 -75 -83 -75c-44 0 -83 31 -83 75c0 43 39 75 83 75z" />
    <glyph glyph-name="Udieresis" unicode="&#xdc;" horiz-adv-x="926" 
d="M384 924c44 0 83 -32 83 -75c0 -44 -39 -75 -83 -75s-84 31 -84 75c0 43 40 75 84 75zM635 924c43 0 83 -32 83 -75c0 -44 -40 -75 -83 -75c-44 0 -83 31 -83 75c0 43 39 75 83 75zM492 -16c-200 0 -356 42 -356 302v289c0 26 -1 44 -12 56c-12 15 -24 24 -47 24h-33v102
h417v-101h-49c-23 0 -36 -7 -48 -24c-9 -13 -11 -30 -11 -56v-289c0 -162 76 -195 166 -195c96 0 165 77 165 199v285c0 26 -1 44 -12 56c-12 15 -25 23 -47 23h-46v102h337v-101h-41c-23 0 -36 -7 -47 -24c-10 -13 -11 -30 -11 -56v-275c0 -228 -132 -317 -325 -317z" />
    <glyph glyph-name="aacute" unicode="&#xe1;" horiz-adv-x="647" 
d="M335 688h132l-194 -164h-76zM376 44l-12 19l-16 -16c-44 -47 -97 -59 -150 -59c-90 0 -170 56 -170 140c0 110 128 116 178 124l53 8c53 8 105 14 105 85c0 46 -24 86 -80 86c-43 0 -60 -19 -70 -34c21 -10 35 -20 35 -48c0 -45 -46 -73 -91 -73c-50 0 -93 32 -94 91
c-1 88 114 137 240 137c100 0 220 -43 220 -145v-235c0 -16 0 -35 25 -35s28 21 28 40l2 48h59v-59c0 -80 -58 -130 -143 -130c-51 0 -91 14 -119 56zM360 234c-12 -8 -21 -14 -35 -19c-14 -6 -23 -10 -39 -13l-20 -6c-39 -9 -62 -24 -62 -57c0 -32 27 -57 59 -57
c54 1 97 48 97 103v49z" />
    <glyph glyph-name="agrave" unicode="&#xe0;" horiz-adv-x="647" 
d="M120 688h132l137 -164h-75zM376 44l-12 19l-16 -16c-44 -47 -97 -59 -150 -59c-90 0 -170 56 -170 140c0 110 128 116 178 124l53 8c53 8 105 14 105 85c0 46 -24 86 -80 86c-43 0 -60 -19 -70 -34c21 -10 35 -20 35 -48c0 -45 -46 -73 -91 -73c-50 0 -93 32 -94 91
c-1 88 114 137 240 137c100 0 220 -43 220 -145v-235c0 -16 0 -35 25 -35s28 21 28 40l2 48h59v-59c0 -80 -58 -130 -143 -130c-51 0 -91 14 -119 56zM360 234c-12 -8 -21 -14 -35 -19c-14 -6 -23 -10 -39 -13l-20 -6c-39 -9 -62 -24 -62 -57c0 -32 27 -57 59 -57
c54 1 97 48 97 103v49z" />
    <glyph glyph-name="acircumflex" unicode="&#xe2;" horiz-adv-x="647" 
d="M261 688h74l145 -172h-68l-113 85l-114 -85h-68zM376 44l-12 19l-16 -16c-44 -47 -97 -59 -150 -59c-90 0 -170 56 -170 140c0 110 128 116 178 124l53 8c53 8 105 14 105 85c0 46 -24 86 -80 86c-43 0 -60 -19 -70 -34c21 -10 35 -20 35 -48c0 -45 -46 -73 -91 -73
c-50 0 -93 32 -94 91c-1 88 114 137 240 137c100 0 220 -43 220 -145v-235c0 -16 0 -35 25 -35s28 21 28 40l2 48h59v-59c0 -80 -58 -130 -143 -130c-51 0 -91 14 -119 56zM360 234c-12 -8 -21 -14 -35 -19c-14 -6 -23 -10 -39 -13l-20 -6c-39 -9 -62 -24 -62 -57
c0 -32 27 -57 59 -57c54 1 97 48 97 103v49z" />
    <glyph glyph-name="adieresis" unicode="&#xe4;" horiz-adv-x="647" 
d="M193 688c42 0 75 -34 75 -76c0 -41 -33 -75 -75 -75s-76 34 -76 75c0 42 34 76 76 76zM421 688c42 0 76 -34 76 -76c0 -41 -34 -75 -76 -75c-41 0 -75 34 -75 75c0 42 34 76 75 76zM376 44l-12 19l-16 -16c-44 -47 -97 -59 -150 -59c-90 0 -170 56 -170 140
c0 110 128 116 178 124l53 8c53 8 105 14 105 85c0 46 -24 86 -80 86c-43 0 -60 -19 -70 -34c21 -10 35 -20 35 -48c0 -45 -46 -73 -91 -73c-50 0 -93 32 -94 91c-1 88 114 137 240 137c100 0 220 -43 220 -145v-235c0 -16 0 -35 25 -35s28 21 28 40l2 48h59v-59
c0 -80 -58 -130 -143 -130c-51 0 -91 14 -119 56zM360 234c-12 -8 -21 -14 -35 -19c-14 -6 -23 -10 -39 -13l-20 -6c-39 -9 -62 -24 -62 -57c0 -32 27 -57 59 -57c54 1 97 48 97 103v49z" />
    <glyph glyph-name="atilde" unicode="&#xe3;" horiz-adv-x="647" 
d="M236 684c45 0 53 -13 82 -32c18 -11 33 -24 57 -24c25 0 38 19 50 41l9 16l57 -31l-27 -47c-21 -39 -46 -70 -91 -70c-44 0 -49 7 -76 26c-21 13 -38 31 -62 31c-25 0 -39 -20 -50 -42l-9 -16l-57 31l27 47c21 39 46 70 90 70zM376 44l-12 19l-16 -16
c-44 -47 -97 -59 -150 -59c-90 0 -170 56 -170 140c0 110 128 116 178 124l53 8c53 8 105 14 105 85c0 46 -24 86 -80 86c-43 0 -60 -19 -70 -34c21 -10 35 -20 35 -48c0 -45 -46 -73 -91 -73c-50 0 -93 32 -94 91c-1 88 114 137 240 137c100 0 220 -43 220 -145v-235
c0 -16 0 -35 25 -35s28 21 28 40l2 48h59v-59c0 -80 -58 -130 -143 -130c-51 0 -91 14 -119 56zM360 234c-12 -8 -21 -14 -35 -19c-14 -6 -23 -10 -39 -13l-20 -6c-39 -9 -62 -24 -62 -57c0 -32 27 -57 59 -57c54 1 97 48 97 103v49z" />
    <glyph glyph-name="aring" unicode="&#xe5;" horiz-adv-x="647" 
d="M306 800c78 0 142 -64 142 -142s-64 -142 -142 -142s-143 64 -143 142s65 142 143 142zM377 658c0 39 -32 71 -71 71s-71 -32 -71 -71s32 -71 71 -71s71 32 71 71zM376 44l-12 19l-16 -16c-44 -47 -97 -59 -150 -59c-90 0 -170 56 -170 140c0 110 128 116 178 124l53 8
c53 8 105 14 105 85c0 46 -24 86 -80 86c-43 0 -60 -19 -70 -34c21 -10 35 -20 35 -48c0 -45 -46 -73 -91 -73c-50 0 -93 32 -94 91c-1 88 114 137 240 137c100 0 220 -43 220 -145v-235c0 -16 0 -35 25 -35s28 21 28 40l2 48h59v-59c0 -80 -58 -130 -143 -130
c-51 0 -91 14 -119 56zM360 234c-12 -8 -21 -14 -35 -19c-14 -6 -23 -10 -39 -13l-20 -6c-39 -9 -62 -24 -62 -57c0 -32 27 -57 59 -57c54 1 97 48 97 103v49z" />
    <glyph glyph-name="ccedilla" unicode="&#xe7;" horiz-adv-x="550" 
d="M238 -87l22 76l-6 1c-155 26 -225 125 -225 255c0 168 107 258 272 258c117 0 209 -66 209 -156c0 -62 -36 -113 -108 -113c-47 0 -89 27 -90 82c0 30 17 52 44 64l-4 9c-3 7 -13 28 -50 28c-64 0 -83 -66 -83 -156c0 -103 14 -180 100 -180c62 0 83 44 87 95l114 4v-19
c0 -91 -90 -170 -217 -173h-12l-11 -36l22 2c52 4 81 -29 81 -70c0 -56 -66 -80 -119 -80c-32 0 -58 7 -96 24l-17 8l13 34l11 -5c26 -13 47 -18 84 -18c31 0 48 13 48 37c0 16 -11 32 -36 31z" />
    <glyph glyph-name="eacute" unicode="&#xe9;" horiz-adv-x="579" 
d="M552 220h-336l1 -40c1 -60 34 -104 102 -104c62 0 97 29 104 89h125l-2 -18c-6 -54 -84 -160 -250 -159c-159 0 -267 112 -267 257s111 259 272 259c148 0 252 -91 252 -236c0 -18 2 -18 -1 -48zM216 322v-22h169v21c0 58 -31 104 -84 104c-52 0 -85 -43 -85 -103z
M369 688h131l-193 -164h-76z" />
    <glyph glyph-name="egrave" unicode="&#xe8;" horiz-adv-x="579" 
d="M552 220h-336l1 -40c1 -60 34 -104 102 -104c62 0 97 29 104 89h125l-2 -18c-6 -54 -84 -160 -250 -159c-159 0 -267 112 -267 257s111 259 272 259c148 0 252 -91 252 -236c0 -18 2 -18 -1 -48zM216 322v-22h169v21c0 58 -31 104 -84 104c-52 0 -85 -43 -85 -103z
M113 688h131l138 -164h-75z" />
    <glyph glyph-name="ecircumflex" unicode="&#xea;" horiz-adv-x="579" 
d="M552 220h-336l1 -40c1 -60 34 -104 102 -104c62 0 97 29 104 89h125l-2 -18c-6 -54 -84 -160 -250 -159c-159 0 -267 112 -267 257s111 259 272 259c148 0 252 -91 252 -236c0 -18 2 -18 -1 -48zM216 322v-22h169v21c0 58 -31 104 -84 104c-52 0 -85 -43 -85 -103z
M270 688h74l145 -172h-68l-113 85l-114 -85h-68z" />
    <glyph glyph-name="edieresis" unicode="&#xeb;" horiz-adv-x="579" 
d="M552 220h-336l1 -40c1 -60 34 -104 102 -104c62 0 97 29 104 89h125l-2 -18c-6 -54 -84 -160 -250 -159c-159 0 -267 112 -267 257s111 259 272 259c148 0 252 -91 252 -236c0 -18 2 -18 -1 -48zM216 322v-22h169v21c0 58 -31 104 -84 104c-52 0 -85 -43 -85 -103z
M188 688c41 0 75 -34 75 -76c0 -41 -34 -75 -75 -75c-42 0 -76 34 -76 75c0 42 34 76 76 76zM416 688c42 0 76 -34 76 -76c0 -41 -34 -75 -76 -75s-76 34 -76 75c0 42 34 76 76 76z" />
    <glyph glyph-name="iacute" unicode="&#xed;" horiz-adv-x="382" 
d="M280 478v-333c0 -17 0 -30 9 -42c9 -11 19 -16 34 -16h34v-87h-321v87h42c12 0 22 4 29 12c8 9 10 20 10 33v217c0 14 -1 23 -9 33c-8 8 -17 13 -29 13h-42v83h243zM225 688h131l-198 -172h-71z" />
    <glyph glyph-name="igrave" unicode="&#xec;" horiz-adv-x="382" 
d="M280 478v-333c0 -17 0 -30 9 -42c9 -11 19 -16 34 -16h34v-87h-321v87h42c12 0 22 4 29 12c8 9 10 20 10 33v217c0 14 -1 23 -9 33c-8 8 -17 13 -29 13h-42v83h243zM-24 688h132l137 -172h-71z" />
    <glyph glyph-name="icircumflex" unicode="&#xee;" horiz-adv-x="382" 
d="M280 478v-333c0 -17 0 -30 9 -42c9 -11 19 -16 34 -16h34v-87h-321v87h42c12 0 22 4 29 12c8 9 10 20 10 33v217c0 14 -1 23 -9 33c-8 8 -17 13 -29 13h-42v83h243zM142 688h74l145 -172h-68l-113 85l-114 -85h-68z" />
    <glyph glyph-name="idieresis" unicode="&#xef;" horiz-adv-x="382" 
d="M280 478v-333c0 -17 0 -30 9 -42c9 -11 19 -16 34 -16h34v-87h-321v87h42c12 0 22 4 29 12c8 9 10 20 10 33v217c0 14 -1 23 -9 33c-8 8 -17 13 -29 13h-42v83h243zM56 688c42 0 76 -34 76 -76c0 -41 -34 -75 -76 -75s-76 34 -76 75c0 42 34 76 76 76zM284 688
c42 0 76 -34 76 -76c0 -41 -34 -75 -76 -75c-41 0 -75 34 -75 75c0 42 34 76 75 76z" />
    <glyph glyph-name="ntilde" unicode="&#xf1;" horiz-adv-x="704" 
d="M339 0h-303v87h42c12 0 22 4 29 12c8 9 10 20 10 33v217c0 14 -1 23 -9 33c-8 8 -17 13 -29 13h-43v83h238v-104c20 71 96 121 171 121c76 0 159 -53 159 -144v-194c0 -21 1 -41 11 -54c9 -11 20 -16 36 -16h33v-87h-295v87h27c8 0 14 4 20 8c9 8 8 20 8 33v161
c0 57 -23 84 -66 84c-61 0 -100 -61 -100 -159v-74c0 -15 1 -27 10 -39c9 -11 19 -14 33 -14h18v-87zM263 684c45 0 53 -13 82 -32c18 -11 33 -24 57 -24c25 0 38 19 50 41l8 16l57 -31l-26 -47c-22 -39 -47 -70 -91 -70s-52 12 -80 31c-20 13 -35 26 -59 26
c-25 0 -38 -20 -49 -42l-9 -16l-57 31l26 47c22 39 47 70 91 70z" />
    <glyph glyph-name="oacute" unicode="&#xf3;" horiz-adv-x="610" 
d="M303 -12c-146 0 -274 119 -274 255c1 153 127 261 281 261c157 0 267 -108 270 -251c4 -149 -128 -265 -277 -265zM216 244c0 -107 19 -170 89 -170c73 0 89 76 89 170c0 107 -16 172 -89 172c-70 0 -89 -74 -89 -172zM383 688h132l-194 -164h-76z" />
    <glyph glyph-name="ograve" unicode="&#xf2;" horiz-adv-x="610" 
d="M303 -12c-146 0 -274 119 -274 255c1 153 127 261 281 261c157 0 267 -108 270 -251c4 -149 -128 -265 -277 -265zM216 244c0 -107 19 -170 89 -170c73 0 89 76 89 170c0 107 -16 172 -89 172c-70 0 -89 -74 -89 -172zM113 688h131l138 -163h-75z" />
    <glyph glyph-name="ocircumflex" unicode="&#xf4;" horiz-adv-x="610" 
d="M303 -12c-159 0 -274 119 -274 255c1 153 127 261 281 261c157 0 267 -108 270 -251c4 -147 -119 -265 -277 -265zM216 244c0 -107 19 -170 89 -170c73 0 89 76 89 170c0 107 -16 172 -89 172c-70 0 -89 -74 -89 -172zM347 688h-74l-144 -172h67l114 85l114 -85h68z" />
    <glyph glyph-name="odieresis" unicode="&#xf6;" horiz-adv-x="610" 
d="M303 -12c-146 0 -274 119 -274 255c1 153 127 261 281 261c157 0 267 -108 270 -251c4 -149 -128 -265 -277 -265zM216 244c0 -107 19 -170 89 -170c73 0 89 76 89 170c0 107 -16 172 -89 172c-70 0 -89 -74 -89 -172zM196 688c42 0 76 -34 76 -76c0 -41 -34 -75 -76 -75
c-41 0 -75 34 -75 75c0 42 34 76 75 76zM425 688c42 0 75 -34 75 -76c0 -41 -33 -75 -75 -75s-76 34 -76 75c0 42 34 76 76 76z" />
    <glyph glyph-name="otilde" unicode="&#xf5;" horiz-adv-x="610" 
d="M303 -12c-159 0 -274 119 -274 255c1 153 127 261 281 261c157 0 267 -108 270 -251c4 -147 -119 -265 -277 -265zM216 244c0 -107 19 -170 89 -170c73 0 89 76 89 170c0 107 -16 172 -89 172c-70 0 -89 -74 -89 -172zM233 684c44 0 52 -13 82 -32c17 -11 33 -24 57 -24
s38 19 49 41l9 16l57 -31l-27 -47c-21 -39 -46 -70 -90 -70c-45 0 -53 12 -80 31c-21 13 -35 26 -59 26c-25 0 -38 -20 -50 -42l-9 -16l-56 31l26 47c22 39 46 70 91 70z" />
    <glyph glyph-name="uacute" unicode="&#xfa;" horiz-adv-x="678" 
d="M587 478v-349c0 -13 1 -24 9 -33c8 -8 17 -12 29 -12h35v-84h-230v88l-14 -23c-27 -44 -89 -77 -157 -77c-87 0 -161 36 -161 138v194c0 21 -1 43 -11 54c-9 11 -19 16 -35 16h-34v87h242v-294c0 -39 26 -76 66 -76c55 0 99 45 99 134v73c0 24 1 50 -8 61s-21 15 -35 15
h-43v88h248zM372 688h132l-198 -172h-71z" />
    <glyph glyph-name="ugrave" unicode="&#xf9;" horiz-adv-x="678" 
d="M587 478v-349c0 -13 1 -24 9 -33c8 -8 17 -12 29 -12h35v-84h-230v88l-14 -23c-27 -44 -89 -77 -157 -77c-87 0 -161 36 -161 138v194c0 21 -1 43 -11 54c-9 11 -19 16 -35 16h-34v87h242v-294c0 -39 26 -76 66 -76c55 0 99 45 99 134v73c0 24 1 50 -8 61s-21 15 -35 15
h-43v88h248zM125 688h132l138 -172h-71z" />
    <glyph glyph-name="ucircumflex" unicode="&#xfb;" horiz-adv-x="678" 
d="M587 478v-349c0 -13 1 -24 9 -33c8 -8 17 -12 29 -12h35v-84h-230v88l-14 -23c-27 -44 -89 -77 -157 -77c-87 0 -161 36 -161 138v194c0 21 -1 43 -11 54c-9 11 -19 16 -35 16h-34v87h242v-294c0 -39 26 -76 66 -76c55 0 99 45 99 134v73c0 24 1 50 -8 61s-21 15 -35 15
h-43v88h248zM281 688h74l145 -172h-68l-114 85l-114 -85h-67z" />
    <glyph glyph-name="udieresis" unicode="&#xfc;" horiz-adv-x="678" 
d="M587 478v-349c0 -13 1 -24 9 -33c8 -8 17 -12 29 -12h35v-84h-230v88l-14 -23c-27 -44 -89 -77 -157 -77c-87 0 -161 36 -161 138v194c0 21 -1 43 -11 54c-9 11 -19 16 -35 16h-34v87h242v-294c0 -39 26 -76 66 -76c55 0 99 45 99 134v73c0 24 1 50 -8 61s-21 15 -35 15
h-43v88h248zM196 688c42 0 76 -34 76 -76c0 -41 -34 -75 -76 -75c-41 0 -75 34 -75 75c0 42 34 76 75 76zM425 688c42 0 75 -34 75 -76c0 -41 -33 -75 -75 -75s-76 34 -76 75c0 42 34 76 76 76z" />
    <glyph glyph-name="dagger" unicode="&#x2020;" horiz-adv-x="612" 
d="M290 -196h37c0 129 -3 205 21 331c9 45 17 73 31 117c-27 33 -40 67 -40 114c0 15 1 24 4 39c10 0 28 1 56 -9c23 -8 53 -30 95 -30c44 0 66 20 66 70c0 53 -22 71 -66 71c-42 0 -72 -23 -95 -31c-28 -9 -46 -8 -59 -8c0 13 -1 24 -1 39c1 28 5 44 14 71l9 25
c11 33 23 49 23 88c0 46 -23 80 -76 80c-50 0 -77 -34 -77 -80c0 -39 12 -55 23 -88l9 -25c9 -27 13 -43 14 -71c0 -15 -1 -26 -2 -39c-12 0 -30 -1 -58 8c-23 8 -54 31 -95 31c-44 0 -66 -18 -66 -71c0 -50 22 -70 66 -70c41 0 72 22 95 30c28 10 46 9 56 9
c3 -15 4 -24 4 -39c0 -47 -13 -81 -40 -114c14 -44 22 -72 30 -117c24 -126 22 -202 22 -331z" />
    <glyph glyph-name="degree" unicode="&#xb0;" horiz-adv-x="441" 
d="M220 777c98 0 178 -80 178 -178s-80 -178 -178 -178c-97 0 -177 80 -177 178s80 178 177 178zM309 599c0 49 -40 89 -89 89c-48 0 -88 -40 -88 -89s40 -89 88 -89c49 0 89 40 89 89z" />
    <glyph glyph-name="cent" unicode="&#xa2;" horiz-adv-x="555" 
d="M334 644v-59l9 -1c91 -9 179 -60 179 -150c0 -62 -37 -113 -109 -113c-47 0 -89 35 -89 82c0 30 16 52 43 65l-3 8c-3 8 -14 28 -50 28c-69 0 -84 -66 -84 -156c0 -94 14 -180 101 -180c62 0 82 44 87 95h114v-15c0 -52 -24 -95 -70 -129c-40 -30 -73 -37 -117 -41
l-11 -1v-85h-83v90l-7 2c-136 33 -203 123 -203 248c0 145 103 226 196 245l14 3v64h83z" />
    <glyph glyph-name="sterling" unicode="&#xa3;" horiz-adv-x="713" 
d="M241 296h-161v83h85l-23 25c-41 44 -63 83 -63 142c0 143 144 225 290 226c155 0 282 -80 282 -214c0 -82 -64 -137 -136 -138c-59 0 -111 43 -111 102c0 35 22 77 74 77h14l-3 20c-5 41 -46 58 -87 58c-71 0 -121 -45 -121 -137c0 -52 9 -82 27 -131l12 -30h171v-83
h-139c3 -18 4 -28 5 -47c0 -16 -1 -26 -1 -41l13 -8c19 -12 91 -52 148 -52c44 0 52 32 52 64v45h98v-49c0 -102 -28 -219 -144 -219c-91 0 -136 35 -183 90l-9 12l-13 -22c-31 -53 -74 -81 -133 -81c-83 0 -158 59 -158 142c0 71 62 131 140 131c31 0 43 -5 69 -15l13 -4
c0 9 -1 15 -2 23c-2 11 -3 19 -6 31zM252 155l-16 9c-21 12 -34 16 -57 16c-31 0 -63 -22 -62 -54c1 -28 28 -50 57 -50c43 0 72 25 77 64z" />
    <glyph glyph-name="section" unicode="&#xa7;" horiz-adv-x="588" 
d="M425 198l19 -13c39 -26 57 -61 57 -131c0 -93 -99 -173 -225 -173c-94 0 -208 48 -208 136c0 47 37 90 83 90c38 0 77 -18 77 -63c0 -34 -14 -53 -30 -57l-17 -6c24 -32 58 -41 96 -40c43 1 83 21 84 71c0 47 -23 62 -57 78l-103 49c-55 25 -158 47 -158 169
c0 57 22 101 71 128l23 14l-20 17c-37 32 -42 65 -42 120c-1 94 92 172 217 172c95 0 206 -49 206 -137c0 -47 -38 -90 -84 -90c-38 0 -76 18 -76 63c0 34 12 53 29 57l17 5c-20 32 -54 42 -92 42c-42 0 -80 -21 -80 -71c-1 -48 23 -63 56 -79l104 -49
c55 -25 158 -48 158 -169c0 -70 -41 -111 -75 -122zM345 243c8 -4 15 -8 23 -13l14 7c18 9 30 19 30 41c0 34 -58 65 -107 86l-64 29c-9 3 -16 8 -24 11c-8 4 -15 8 -23 13l-14 -7c-18 -9 -31 -19 -31 -41c0 -34 51 -56 92 -76l80 -39c8 -3 16 -8 24 -11z" />
    <glyph glyph-name="bullet" unicode="&#x2022;" 
d="M95 314c0 130 107 237 237 237c131 0 238 -107 238 -237c0 -131 -107 -238 -238 -238c-130 0 -237 107 -237 238z" />
    <glyph glyph-name="paragraph" unicode="&#xb6;" horiz-adv-x="838" 
d="M273 532c-2 -77 11 -171 114 -171h63v226c0 25 -1 55 -12 68c-13 17 -25 31 -47 31h-18c-72 0 -99 -82 -100 -154zM662 -12h-65v656c0 23 -9 44 -41 44s-42 -20 -42 -44v-656h-64v307h-120c-126 0 -251 99 -248 231c2 146 150 219 292 219h391v-69h-44
c-22 0 -35 -8 -47 -24c-11 -14 -12 -31 -12 -56v-608z" />
    <glyph glyph-name="germandbls" unicode="&#xdf;" horiz-adv-x="778" 
d="M386 772c115 0 247 -58 247 -196c0 -78 6 -92 23 -108v-88h-76c-9 23 -16 37 -52 37c-38 0 -66 -13 -66 -45c0 -28 30 -40 58 -46l116 -26c70 -16 120 -64 120 -138c0 -111 -102 -173 -204 -174c-38 0 -60 8 -96 21l-22 8c-8 3 -16 6 -24 6c-12 0 -19 -11 -19 -23h-60
v176h82l2 -14c5 -38 47 -90 116 -88c32 1 71 13 71 47s-37 44 -70 51l-84 20c-75 17 -130 58 -130 145c0 96 79 165 184 165c7 0 13 -1 19 -2c11 16 27 38 27 80c0 85 -53 116 -141 116c-89 0 -128 -53 -128 -115v-581h-257v87h54c12 0 22 4 29 12c8 9 11 20 11 33v261h-89
v85h58c11 0 22 6 26 10c5 4 7 15 7 24v29c0 156 119 231 268 231z" />
    <glyph glyph-name="registered" unicode="&#xae;" horiz-adv-x="981" 
d="M490 380c67 0 93 21 93 74c0 47 -40 76 -84 76h-25c-14 0 -22 -5 -30 -15c-7 -8 -8 -18 -8 -33v-102h54zM540 302c-15 20 -25 24 -56 24h-48v-98c0 -16 1 -25 8 -33c8 -11 16 -15 31 -15h26v-54h-263v54h29c13 0 23 4 31 15c6 8 7 17 7 33v251c0 16 -1 26 -7 34
c-8 11 -18 14 -31 14h-29v54h315c106 0 176 -46 176 -119c0 -82 -68 -112 -113 -117l-20 -3l16 -4c16 -5 31 -12 47 -28c20 -20 25 -40 25 -68v-30c0 -20 4 -34 22 -34c21 0 26 17 26 44v16h46v-20c0 -87 -42 -105 -112 -105c-66 0 -102 22 -107 83l-3 34
c-1 29 -2 53 -16 72zM54 344c0 242 197 438 438 438c242 0 439 -196 439 -438s-197 -438 -439 -438c-241 0 -438 196 -438 438zM492 -30c206 0 373 167 373 372c0 206 -167 373 -373 373c-205 0 -372 -167 -372 -373c0 -205 167 -372 372 -372z" />
    <glyph glyph-name="copyright" unicode="&#xa9;" horiz-adv-x="981" 
d="M708 262c0 -65 -52 -186 -215 -186c-155 0 -258 120 -258 264s111 265 261 265c36 0 76 -17 90 -21l18 -5c9 -3 16 -4 24 1s13 15 11 25h56l1 -201h-78l-1 15c-3 53 -37 114 -124 114c-77 0 -104 -74 -104 -188c0 -125 36 -199 118 -199c88 0 117 72 117 116v26h84v-26z
M54 344c0 242 197 438 438 438c242 0 439 -196 439 -438s-197 -438 -439 -438c-241 0 -438 196 -438 438zM492 -30c206 0 373 167 373 372c0 206 -167 373 -373 373c-205 0 -372 -167 -372 -373c0 -205 167 -372 372 -372z" />
    <glyph glyph-name="trademark" unicode="&#x2122;" horiz-adv-x="1013" 
d="M52 757h368v-153h-56v53c0 15 -7 38 -17 48c-11 10 -26 12 -44 12h-19v-289c0 -12 0 -21 5 -27c5 -8 12 -13 23 -13h41v-43h-235v43h41c11 0 18 5 23 13c5 6 6 15 6 27v289h-19c-18 0 -35 -3 -45 -12c-10 -10 -16 -33 -16 -48v-53h-56v153zM662 345l-115 344v-261
c0 -12 1 -21 5 -27c5 -8 14 -13 23 -13h17v-43h-158v43h21c8 0 17 5 22 13c5 6 7 15 7 27v248c0 13 -2 22 -7 28c-5 8 -13 12 -22 12h-21v41h186l87 -261l83 261h174v-41h-22c-10 0 -18 -4 -23 -12c-4 -6 -5 -15 -5 -28v-248c0 -12 1 -21 5 -27c5 -8 14 -13 23 -13h22v-43
h-183v43h14c10 0 17 5 22 13c4 6 5 15 5 27v263l-115 -346h-45z" />
    <glyph glyph-name="acute" unicode="&#xb4;" horiz-adv-x="624" 
d="M334 688h132l-194 -164h-76z" />
    <glyph glyph-name="dieresis" unicode="&#xa8;" horiz-adv-x="624" 
d="M196 688c42 0 76 -34 76 -76c0 -41 -34 -75 -76 -75c-41 0 -75 34 -75 75c0 42 34 76 75 76zM425 688c42 0 75 -34 75 -76c0 -41 -33 -75 -75 -75s-76 34 -76 75c0 42 34 76 76 76z" />
    <glyph glyph-name="notequal" unicode="&#x2260;" 
d="M284 304l-129 12l30 -119l121 34l-57 -108l174 1l-62 111l115 -18l-35 172l-89 -51l75 130h-208zM82 293c1 137 114 248 250 247c137 0 248 -113 248 -250c-1 -137 -114 -248 -251 -247s-248 113 -247 250z" />
    <glyph glyph-name="AE" unicode="&#xc6;" horiz-adv-x="1278" 
d="M565 677l-234 -345h234v345zM566 181v55h-290l-49 -72c-10 -15 -13 -32 -3 -47c9 -14 25 -16 43 -16h51v-101h-331v101h28c22 0 31 5 41 13c12 10 25 21 34 36l291 454c7 11 11 24 5 37c-6 11 -17 15 -30 15h-39v101h879v-297h-117v57c0 43 -9 75 -39 103
c-29 28 -60 36 -100 36h-107c-22 0 -35 -8 -47 -24c-11 -13 -12 -30 -12 -56v-146h53c16 0 25 6 37 16c15 14 20 30 20 52v48h92v-329h-92v48c0 19 -2 32 -13 46c-12 16 -26 23 -46 23h-51v-153c0 -25 -1 -46 10 -59c12 -16 27 -21 49 -21h119c31 0 63 7 90 31
c26 23 39 49 39 81v95h114v-308h-727v101h40c22 0 34 8 47 24c10 14 11 31 11 56z" />
    <glyph glyph-name="Oslash" unicode="&#xd8;" horiz-adv-x="889" 
d="M834 729l-79 -83c57 -71 93 -156 91 -266c-4 -220 -151 -396 -405 -396c-90 0 -167 19 -250 76l-90 -94l-53 57l87 91c-64 78 -92 156 -92 266c0 218 155 393 401 393c93 0 169 -17 253 -74l83 87zM602 487l-294 -307c15 -56 57 -91 138 -91c129 0 163 114 163 291
c0 47 -3 83 -7 107zM286 271l293 305c-31 60 -68 94 -138 94c-133 0 -160 -138 -160 -290c0 -48 -2 -67 5 -109z" />
    <glyph glyph-name="infinity" unicode="&#x221e;" 
d="M284 304l-129 12l30 -119l121 34l-57 -108l174 1l-62 111l115 -18l-35 172l-89 -51l75 130h-208zM82 293c1 137 114 248 250 247c137 0 248 -113 248 -250c-1 -137 -114 -248 -251 -247s-248 113 -247 250z" />
    <glyph glyph-name="plusminus" unicode="&#xb1;" 
d="M284 304l-129 12l30 -119l121 34l-57 -108l174 1l-62 111l115 -18l-35 172l-89 -51l75 130h-208zM82 293c1 137 114 248 250 247c137 0 248 -113 248 -250c-1 -137 -114 -248 -251 -247s-248 113 -247 250z" />
    <glyph glyph-name="lessequal" unicode="&#x2264;" 
d="M284 304l-129 12l30 -119l121 34l-57 -108l174 1l-62 111l115 -18l-35 172l-89 -51l75 130h-208zM82 293c1 137 114 248 250 247c137 0 248 -113 248 -250c-1 -137 -114 -248 -251 -247s-248 113 -247 250z" />
    <glyph glyph-name="greaterequal" unicode="&#x2265;" 
d="M284 304l-129 12l30 -119l121 34l-57 -108l174 1l-62 111l115 -18l-35 172l-89 -51l75 130h-208zM82 293c1 137 114 248 250 247c137 0 248 -113 248 -250c-1 -137 -114 -248 -251 -247s-248 113 -247 250z" />
    <glyph glyph-name="yen" unicode="&#xa5;" horiz-adv-x="800" 
d="M580 436l-61 -112h229v-89h-256v-68c0 -26 2 -43 11 -56c10 -15 23 -24 42 -24h75v-87h-450v87h75c19 0 33 9 43 24c9 13 10 30 10 56v68h-248v89h222l-60 112h-162v87h117l-58 105c-11 23 -17 24 -27 32s-17 14 -38 14h-22v83h355v-83h-40c-13 0 -24 -6 -30 -16
c-9 -14 -1 -29 6 -44l121 -242l132 249c6 13 12 25 5 38c-7 10 -15 15 -28 15h-34v83h270v-83h-39c-15 0 -27 -7 -34 -14c-8 -7 -16 -19 -23 -32l-57 -105h122v-87h-168z" />
    <glyph glyph-name="mu" unicode="&#x3bc;" 
d="M284 304l-129 12l30 -119l121 34l-57 -108l174 1l-62 111l115 -18l-35 172l-89 -51l75 130h-208zM82 293c1 137 114 248 250 247c137 0 248 -113 248 -250c-1 -137 -114 -248 -251 -247s-248 113 -247 250z" />
    <glyph glyph-name="partialdiff" unicode="&#x2202;" 
d="M284 304l-129 12l30 -119l121 34l-57 -108l174 1l-62 111l115 -18l-35 172l-89 -51l75 130h-208zM82 293c1 137 114 248 250 247c137 0 248 -113 248 -250c-1 -137 -114 -248 -251 -247s-248 113 -247 250z" />
    <glyph glyph-name="summation" unicode="&#x2211;" 
d="M284 304l-129 12l30 -119l121 34l-57 -108l174 1l-62 111l115 -18l-35 172l-89 -51l75 130h-208zM82 293c1 137 114 248 250 247c137 0 248 -113 248 -250c-1 -137 -114 -248 -251 -247s-248 113 -247 250z" />
    <glyph glyph-name="product" unicode="&#x220f;" 
d="M284 304l-129 12l30 -119l121 34l-57 -108l174 1l-62 111l115 -18l-35 172l-89 -51l75 130h-208zM82 293c1 137 114 248 250 247c137 0 248 -113 248 -250c-1 -137 -114 -248 -251 -247s-248 113 -247 250z" />
    <glyph glyph-name="pi" unicode="&#x3c0;" 
d="M284 304l-129 12l30 -119l121 34l-57 -108l174 1l-62 111l115 -18l-35 172l-89 -51l75 130h-208zM82 293c1 137 114 248 250 247c137 0 248 -113 248 -250c-1 -137 -114 -248 -251 -247s-248 113 -247 250z" />
    <glyph glyph-name="integral" unicode="&#x222b;" 
d="M284 304l-129 12l30 -119l121 34l-57 -108l174 1l-62 111l115 -18l-35 172l-89 -51l75 130h-208zM82 293c1 137 114 248 250 247c137 0 248 -113 248 -250c-1 -137 -114 -248 -251 -247s-248 113 -247 250z" />
    <glyph glyph-name="ordfeminine" unicode="&#xaa;" horiz-adv-x="647" 
d="M372 404l-11 16l-13 -14c-38 -37 -85 -47 -129 -47c-99 0 -147 45 -147 112c0 88 110 94 153 99l45 5c45 5 91 10 91 69c0 48 -16 73 -69 73c-42 0 -52 -18 -60 -30c17 -7 30 -17 30 -39c0 -36 -40 -59 -78 -59c-43 0 -81 27 -81 73c0 71 98 110 206 110
c86 0 189 -30 189 -116v-188c0 -14 1 -28 22 -28s24 16 24 32l2 38h50v-47c0 -67 -49 -104 -122 -104c-44 0 -78 9 -102 45zM357 556c-10 -6 -18 -11 -29 -15c-12 -4 -20 -8 -34 -10l-18 -5c-32 -8 -49 -19 -49 -46c0 -26 21 -46 47 -46c47 0 83 37 83 82v40zM92 252v68h456
v-68h-456z" />
    <glyph glyph-name="ordmasculine" unicode="&#xba;" horiz-adv-x="608" 
d="M92 252v68h425v-68h-425zM303 360c-139 0 -235 78 -235 204c0 123 108 209 241 209c135 0 232 -81 232 -200c0 -129 -113 -213 -238 -213zM228 566c0 -86 16 -137 77 -137c62 0 76 62 76 137c0 86 -14 137 -76 137c-61 0 -77 -59 -77 -137z" />
    <glyph glyph-name="Omega" unicode="&#x3a9;" 
d="M284 304l-129 12l30 -119l121 34l-57 -108l174 1l-62 111l115 -18l-35 172l-89 -51l75 130h-208zM82 293c1 137 114 248 250 247c137 0 248 -113 248 -250c-1 -137 -114 -248 -251 -247s-248 113 -247 250z" />
    <glyph glyph-name="ae" unicode="&#xe6;" horiz-adv-x="905" 
d="M365 234c-14 -7 -25 -13 -40 -19c-14 -6 -23 -10 -39 -13l-20 -6c-39 -9 -70 -24 -70 -59c1 -34 33 -55 67 -55c54 1 102 46 102 103v49zM523 322v-22h176v21c0 58 -34 104 -91 104c-52 0 -85 -43 -85 -103zM626 74c71 0 101 36 107 91h121l-2 -18
c-5 -61 -72 -159 -249 -159c-85 0 -140 14 -190 76l-22 28l-17 -21c-40 -49 -76 -82 -176 -82c-90 0 -162 55 -162 139c0 110 117 117 170 124l53 6c55 6 111 12 111 87c0 47 -30 86 -86 86c-43 0 -59 -19 -70 -34c21 -10 35 -20 35 -48c0 -45 -46 -73 -91 -73
c-49 0 -87 32 -87 91c0 91 86 136 213 136c76 0 128 -17 157 -40l16 -13l17 13c28 22 59 40 134 40c148 0 252 -90 252 -235c0 -18 1 -18 -1 -48h-335l1 -46c2 -58 34 -100 101 -100z" />
    <glyph glyph-name="oslash" unicode="&#xf8;" horiz-adv-x="610" 
d="M144 35l-52 -55l-48 47l49 51c-25 30 -64 80 -64 165c1 153 127 261 281 261c57 0 99 -10 151 -41l46 47l48 -46l-41 -43c36 -41 66 -97 66 -168c3 -147 -119 -265 -277 -265c-61 0 -106 12 -159 47zM217 207l158 166c-12 18 -23 43 -70 43c-70 0 -89 -74 -89 -172
c0 -13 0 -24 1 -37zM392 293l-161 -168c16 -30 29 -51 74 -51c73 0 89 76 89 170c0 10 0 32 -2 49z" />
    <glyph glyph-name="questiondown" unicode="&#xbf;" horiz-adv-x="596" 
d="M341 570c62 0 113 -48 113 -110c0 -59 -54 -103 -114 -103c-57 0 -107 48 -107 108c0 59 49 105 108 105zM269 75c-24 -33 -24 -73 -24 -103c0 -65 24 -105 85 -105c37 0 70 19 77 57l3 13h-9c-40 0 -77 25 -77 70c0 59 55 88 98 88c64 0 119 -43 119 -128
c0 -107 -101 -182 -228 -182c-130 0 -245 72 -245 193c0 74 24 118 81 153l40 25c30 17 46 29 72 57c25 26 35 47 35 80v26h89v-43c0 -39 -10 -64 -29 -93c-18 -27 -35 -38 -54 -64z" />
    <glyph glyph-name="exclamdown" unicode="&#xa1;" horiz-adv-x="341" 
d="M60 457c0 62 51 113 113 113c60 0 109 -48 109 -108c0 -59 -50 -110 -108 -110c-60 0 -114 44 -114 105zM124 306h89c0 -35 1 -55 3 -89c2 -24 3 -41 7 -65l11 -56c12 -68 28 -107 28 -176c0 -88 -29 -135 -93 -135s-93 43 -93 135c0 69 16 108 28 176l11 56
c4 24 5 41 7 65c2 34 2 54 2 89z" />
    <glyph glyph-name="logicalnot" unicode="&#xac;" 
d="M284 304l-129 12l30 -119l121 34l-57 -108l174 1l-62 111l115 -18l-35 172l-89 -51l75 130h-208zM82 293c1 137 114 248 250 247c137 0 248 -113 248 -250c-1 -137 -114 -248 -251 -247s-248 113 -247 250z" />
    <glyph glyph-name="radical" unicode="&#x221a;" 
d="M197 -75c-35 94 -64 146 -117 231c-44 70 -75 108 -130 169l146 127c35 -28 54 -51 75 -91c22 -43 32 -73 33 -122c31 121 64 190 128 301c69 117 116 183 210 280l169 -180c-125 -90 -190 -155 -281 -279c-110 -151 -159 -254 -204 -436h-29z" />
    <glyph glyph-name="florin" unicode="&#x192;" horiz-adv-x="508" 
d="M152 0l-1 393h-89v85h91v63c2 156 81 231 229 231c116 0 190 -56 190 -134c0 -70 -48 -105 -93 -105s-80 27 -81 73c0 26 14 45 36 56c0 0 -8 34 -52 34c-39 0 -67 -24 -67 -76v-142h120v-85h-121v-318c0 -148 -65 -221 -206 -221c-109 0 -179 54 -179 129
c0 68 44 100 88 100c42 0 75 -25 75 -70c0 -25 -12 -41 -33 -53c0 0 8 -33 49 -33c32 0 44 24 44 73z" />
    <glyph glyph-name="approxequal" unicode="&#x2248;" 
d="M284 304l-129 12l30 -119l121 34l-57 -108l174 1l-62 111l115 -18l-35 172l-89 -51l75 130h-208zM82 293c1 137 114 248 250 247c137 0 248 -113 248 -250c-1 -137 -114 -248 -251 -247s-248 113 -247 250z" />
    <glyph glyph-name="Delta" unicode="&#x394;" 
d="M284 304l-129 12l30 -119l121 34l-57 -108l174 1l-62 111l115 -18l-35 172l-89 -51l75 130h-208zM82 293c1 137 114 248 250 247c137 0 248 -113 248 -250c-1 -137 -114 -248 -251 -247s-248 113 -247 250z" />
    <glyph glyph-name="guillemotleft" unicode="&#xab;" horiz-adv-x="748" 
d="M330 216v58l371 222v-72l-206 -179l206 -179v-71zM47 216v58l372 222v-72l-207 -179l207 -179v-71z" />
    <glyph glyph-name="guillemotright" unicode="&#xbb;" horiz-adv-x="748" 
d="M419 274v-58l-372 -221v71l206 179l-206 179v72zM701 274v-58l-371 -221v71l206 179l-206 179v72z" />
    <glyph glyph-name="ellipsis" unicode="&#x2026;" horiz-adv-x="911" 
d="M459 -12c-63 0 -113 50 -113 112c0 61 53 105 114 105c57 0 107 -50 107 -110c0 -59 -49 -107 -108 -107zM761 -12c-62 0 -113 50 -113 112c0 61 53 105 114 105c58 0 107 -50 107 -110c0 -59 -49 -107 -108 -107zM156 -12c-62 0 -112 50 -112 112c0 61 53 105 113 105
c58 0 108 -50 108 -110c0 -59 -49 -107 -109 -107z" />
    <glyph glyph-name="Agrave" unicode="&#xc0;" horiz-adv-x="899" 
d="M341 0h-331v101h28c22 0 31 5 41 13c12 10 21 23 26 39l229 604h226l226 -590c4 -11 13 -34 29 -46c15 -13 29 -20 49 -20h25v-101h-425v101h52c13 0 24 2 33 9c15 12 21 30 15 48l-21 55h-279l-19 -49c-5 -16 -8 -32 2 -47c10 -14 25 -16 43 -16h51v-101zM405 594
l-104 -278h206zM218 928h145l152 -148h-83z" />
    <glyph glyph-name="Atilde" unicode="&#xc3;" horiz-adv-x="899" 
d="M341 0h-331v101h28c22 0 31 5 41 13c12 10 21 23 26 39l229 604h226l226 -590c4 -12 13 -34 29 -46c15 -13 29 -20 49 -20h25v-101h-425v101h52c13 0 24 1 33 9c15 12 21 30 15 48l-21 55h-279l-19 -49c-5 -16 -8 -32 2 -47c10 -14 25 -16 43 -16h51v-101zM405 594
l-104 -278h206zM363 924c49 0 57 -12 89 -28c20 -10 37 -22 64 -22c25 0 40 16 54 37l10 14l63 -27l-30 -43c-25 -38 -54 -63 -100 -63c-49 0 -58 12 -88 28c-23 11 -38 24 -64 24s-41 -17 -55 -39l-10 -14l-62 29l29 41c26 38 54 63 100 63z" />
    <glyph glyph-name="Otilde" unicode="&#xd5;" horiz-adv-x="889" 
d="M441 -16c-259 2 -398 178 -398 396c0 219 155 393 401 393c263 0 401 -174 402 -393c1 -220 -151 -398 -405 -396zM441 670c-133 0 -160 -138 -160 -290c0 -184 37 -291 165 -291c129 0 164 114 163 291c-1 173 -43 290 -168 290zM359 924c49 0 57 -12 90 -28
c19 -10 36 -22 63 -22c26 0 40 16 54 37l10 14l63 -27l-29 -43c-26 -38 -54 -63 -101 -63c-49 0 -57 12 -88 28c-23 11 -38 24 -64 24c-25 0 -41 -17 -55 -39l-10 -14l-62 29l30 41c25 38 54 63 99 63z" />
    <glyph glyph-name="OE" unicode="&#x152;" horiz-adv-x="1380" 
d="M643 475c0 145 -63 192 -186 192c-119 0 -176 -111 -176 -278c0 -185 54 -295 180 -295c135 0 181 94 181 170zM662 0c-86 0 -74 -11 -221 -11c-239 0 -398 174 -398 391c0 219 171 393 401 393c120 0 144 -16 236 -16h619v-297h-120v57c0 43 -9 75 -39 103
s-60 36 -101 36h-124c-23 0 -35 -8 -47 -24c-11 -13 -12 -30 -12 -56v-146h63c16 0 26 6 37 16c16 14 20 30 20 52v48h96v-329h-96v48c0 19 -2 32 -12 46c-13 16 -26 23 -47 23h-61v-153c0 -25 -1 -46 10 -59c12 -16 26 -21 49 -21h137c31 0 63 7 89 31c26 23 39 49 39 81
v95h118v-308h-636z" />
    <glyph glyph-name="oe" unicode="&#x153;" horiz-adv-x="932" 
d="M220 244c0 -107 18 -170 87 -170c70 0 86 76 86 170c0 107 -16 172 -86 172c-69 0 -87 -74 -87 -172zM574 322v-22h164v21c0 54 -26 104 -81 104c-52 0 -83 -45 -83 -103zM652 -12c-80 0 -133 33 -164 55l-9 6l-9 -7c-34 -27 -95 -54 -165 -54c-155 0 -265 119 -266 255
c-1 153 123 261 273 261c77 0 140 -35 160 -50l12 -9l12 10c27 21 89 48 161 48c143 0 243 -90 243 -235c0 -18 2 -18 0 -48h-326l2 -46c2 -58 33 -100 98 -100c60 0 98 38 101 91h120l-2 -18c-5 -58 -81 -159 -241 -159z" />
    <glyph glyph-name="endash" unicode="&#x2013;" horiz-adv-x="709" 
d="M604 241h-494v109h494v-109z" />
    <glyph glyph-name="emdash" unicode="&#x2014;" horiz-adv-x="911" 
d="M0 349h911v-108h-911v108z" />
    <glyph glyph-name="quotedblleft" unicode="&#x201c;" horiz-adv-x="580" 
d="M508 757h31v-68h-20c-37 0 -72 -24 -72 -53c0 -10 8 -16 17 -21l13 -8c29 -17 47 -31 47 -71c0 -51 -45 -89 -96 -89c-64 0 -111 51 -111 123c0 114 97 187 191 187zM243 757h31v-68h-20c-40 0 -72 -24 -72 -53c0 -10 8 -16 17 -21l13 -8c29 -17 48 -31 48 -71
c0 -51 -46 -89 -96 -89c-64 0 -112 51 -112 123c0 114 97 187 191 187z" />
    <glyph glyph-name="quotedblright" unicode="&#x201d;" horiz-adv-x="580" 
d="M72 462h-31v69h19c42 0 72 24 72 52c0 11 -8 16 -16 21l-14 8c-28 17 -47 32 -47 72c0 50 45 88 96 88c64 0 111 -50 111 -122c0 -114 -97 -188 -190 -188zM337 462h-31v69h19c41 0 72 24 72 52c0 11 -8 16 -17 21l-13 8c-28 17 -47 32 -47 72c0 50 45 88 96 88
c64 0 111 -50 111 -122c0 -114 -97 -188 -190 -188z" />
    <glyph glyph-name="quoteleft" unicode="&#x2018;" horiz-adv-x="315" 
d="M243 757h31v-68h-20c-46 0 -72 -24 -72 -53c0 -10 8 -16 17 -21l13 -8c29 -17 48 -31 48 -71c0 -51 -46 -89 -96 -89c-64 0 -112 51 -112 123c0 114 97 187 191 187z" />
    <glyph glyph-name="quoteright" unicode="&#x2019;" horiz-adv-x="315" 
d="M72 462h-31v69h19c44 0 72 24 72 52c0 11 -8 16 -16 21l-14 8c-28 17 -47 32 -47 72c0 50 45 88 96 88c64 0 111 -50 111 -122c0 -114 -97 -188 -190 -188z" />
    <glyph glyph-name="divide" unicode="&#xf7;" 
d="M284 304l-129 12l30 -119l121 34l-57 -108l174 1l-62 111l115 -18l-35 172l-89 -51l75 130h-208zM82 293c1 137 114 248 250 247c137 0 248 -113 248 -250c-1 -137 -114 -248 -251 -247s-248 113 -247 250z" />
    <glyph glyph-name="lozenge" unicode="&#x25ca;" 
d="M284 304l-129 12l30 -119l121 34l-57 -108l174 1l-62 111l115 -18l-35 172l-89 -51l75 130h-208zM82 293c1 137 114 248 250 247c137 0 248 -113 248 -250c-1 -137 -114 -248 -251 -247s-248 113 -247 250z" />
    <glyph glyph-name="ydieresis" unicode="&#xff;" horiz-adv-x="557" 
d="M177 688c42 0 75 -34 75 -76c0 -41 -33 -75 -75 -75s-76 34 -76 75c0 42 34 76 76 76zM405 688c42 0 76 -34 76 -76c0 -41 -34 -75 -76 -75c-41 0 -75 34 -75 75c0 42 34 76 75 76zM240 4l7 19h-58l-118 304c-6 17 -9 29 -20 45c-10 12 -25 23 -44 23h-7v83h288v-83h-19
c-13 0 -27 1 -33 -10c-7 -11 -3 -20 0 -31l82 -234l72 234c4 11 7 20 1 31c-6 10 -18 10 -29 10h-14v83h216v-83h-8c-18 0 -36 -4 -46 -16c-12 -17 -16 -31 -23 -51l-123 -323c-30 -81 -104 -153 -187 -153c-91 0 -163 45 -163 124c0 39 30 79 72 79c31 0 62 -23 62 -55
c0 -19 -8 -36 -28 -44l-8 -3l7 -8c12 -13 26 -13 44 -13c40 0 63 32 77 72z" />
    <glyph glyph-name="Ydieresis" unicode="&#x178;" horiz-adv-x="853" 
d="M537 270v-89c0 -25 1 -42 11 -56c13 -16 25 -24 48 -24h85v-101h-507v101h86c22 0 34 8 47 24c10 14 11 31 11 56v93l-212 337c-14 22 -19 24 -30 32c-12 8 -22 13 -44 13h-24v101h421v-101h-45c-14 0 -28 -4 -34 -16c-8 -14 -2 -29 7 -44l120 -191l125 199
c7 11 10 24 4 37c-6 11 -17 15 -30 15h-38v101h321v-101h-45c-15 0 -28 -7 -37 -13c-10 -7 -19 -20 -27 -33zM338 924c43 0 82 -32 82 -75c0 -44 -39 -75 -82 -75c-44 0 -84 31 -84 75c0 43 40 75 84 75zM588 924c44 0 84 -32 84 -75c0 -44 -40 -75 -84 -75
c-43 0 -82 31 -82 75c0 43 39 75 82 75z" />
    <glyph glyph-name="fraction" unicode="&#x2044;" horiz-adv-x="267" 
d="M-87 -57h-93l539 830h93z" />
    <glyph glyph-name="currency" unicode="&#xa4;" 
d="M284 304l-129 12l30 -119l121 34l-57 -108l174 1l-62 111l115 -18l-35 172l-89 -51l75 130h-208zM82 293c1 137 114 248 250 247c137 0 248 -113 248 -250c-1 -137 -114 -248 -251 -247s-248 113 -247 250z" />
    <glyph glyph-name="guilsinglleft" unicode="&#x2039;" horiz-adv-x="465" 
d="M51 246v58l371 222v-72l-206 -178l206 -180v-71z" />
    <glyph glyph-name="guilsinglright" unicode="&#x203a;" horiz-adv-x="465" 
d="M419 304v-58l-372 -221v71l206 180l-206 178v72z" />
    <glyph glyph-name="fi" unicode="&#xfb01;" horiz-adv-x="785" 
d="M293 478h390v-314c0 -24 0 -49 9 -61c8 -11 19 -16 33 -16h35v-87h-317v87h38c11 0 21 4 28 12c8 9 11 20 11 33v217c0 14 -2 23 -10 33c-7 8 -17 13 -28 13l-190 -1v-230c0 -24 0 -49 8 -61c9 -11 21 -16 35 -16h57v-87h-361v87h54c12 0 22 4 29 12c8 9 10 20 10 33v261
h-88v85l53 3c11 0 20 5 27 13c9 10 11 24 11 33v14c0 156 117 231 314 231c175 0 259 -83 259 -158c0 -74 -54 -108 -113 -108c-60 0 -101 34 -102 83c0 29 13 49 37 64c0 0 -23 39 -81 39c-77 0 -148 -31 -148 -128v-86z" />
    <glyph glyph-name="fl" unicode="&#xfb02;" horiz-adv-x="792" 
d="M520 524l-13 7c-27 14 -39 43 -39 67c0 29 12 50 36 64c0 0 -23 39 -81 39c-74 0 -130 -40 -130 -137v-86h127v-85h-128v-229c0 -24 0 -49 8 -61c9 -11 21 -16 35 -16h45v-87h-349v87h54c12 0 22 4 29 12c8 9 10 20 10 33v261h-88v85l53 3c11 0 20 5 27 13
c9 10 11 24 11 33v14c0 156 105 231 285 231c69 0 131 -8 165 -19l106 4v-593c0 -24 0 -49 9 -61c8 -11 19 -16 33 -16h35v-87h-330v87h51c11 0 21 4 28 12c8 9 11 20 11 33v392z" />
    <glyph glyph-name="daggerdbl" unicode="&#x2021;" horiz-adv-x="612" 
d="M278 228c0 40 -17 63 -40 100c23 36 40 58 40 99c0 14 -1 21 -4 36c-10 0 -28 1 -56 -9c-23 -8 -54 -30 -95 -30c-44 0 -66 20 -66 70c0 53 22 70 66 70c41 0 72 -22 95 -30c28 -10 46 -9 58 -9c1 10 0 18 -1 28c-1 11 -13 35 -23 60c-13 31 -20 63 -20 80
c0 37 26 78 76 78c53 0 77 -41 77 -78c0 -17 -11 -52 -22 -83c-10 -25 -23 -47 -24 -57c-2 -12 0 -21 1 -28c13 0 31 -1 59 9c23 8 53 30 95 30c44 0 66 -17 66 -70c0 -50 -22 -70 -66 -70c-42 0 -72 22 -95 30c-28 10 -46 9 -56 9c-3 -15 -4 -21 -4 -36
c0 -47 16 -65 40 -101c-24 -34 -40 -51 -40 -98c0 -16 1 -22 4 -37c10 0 28 -1 56 9c23 8 53 30 95 30c44 0 66 -19 66 -70c0 -52 -22 -70 -66 -70c-42 0 -72 22 -95 30c-28 10 -46 9 -59 9c-1 -7 -3 -16 -1 -28c1 -9 14 -32 24 -57c11 -31 22 -65 22 -83
c0 -37 -24 -77 -77 -77c-50 0 -76 40 -76 77c0 17 7 50 20 80c10 25 22 50 23 60s2 18 1 28c-12 0 -30 1 -58 -9c-23 -8 -54 -30 -95 -30c-44 0 -66 18 -66 70c0 51 22 70 66 70c41 0 72 -22 95 -30c28 -10 46 -9 56 -9c3 15 4 22 4 37z" />
    <glyph glyph-name="periodcentered" unicode="&#xb7;" horiz-adv-x="366" 
d="M188 287c-63 0 -113 51 -113 113c0 60 53 105 113 105c58 0 108 -51 108 -110c0 -60 -49 -108 -108 -108z" />
    <glyph glyph-name="quotesinglbase" unicode="&#x201a;" horiz-adv-x="343" 
d="M92 -146h-32v69h20c40 0 72 24 72 52c0 11 -8 16 -17 21l-13 8c-29 17 -47 32 -47 72c0 50 45 88 96 88c64 0 111 -50 111 -122c0 -114 -97 -188 -190 -188z" />
    <glyph glyph-name="quotedblbase" unicode="&#x201e;" horiz-adv-x="580" 
d="M72 -146h-31v69h19c39 0 72 24 72 52c0 11 -8 16 -16 21l-14 8c-28 17 -47 32 -47 72c0 50 45 88 96 88c64 0 111 -50 111 -122c0 -114 -97 -188 -190 -188zM337 -146h-31v69h19c37 0 72 24 72 52c0 11 -8 16 -17 21l-13 8c-28 17 -47 32 -47 72c0 50 45 88 96 88
c64 0 111 -50 111 -122c0 -114 -97 -188 -190 -188z" />
    <glyph glyph-name="perthousand" unicode="&#x2030;" horiz-adv-x="1479" 
d="M778 -4c-118 0 -205 106 -205 229c0 138 95 235 210 235c117 0 203 -107 203 -225c0 -134 -89 -239 -208 -239zM714 227c0 -97 13 -154 65 -154c56 0 66 68 66 154c0 96 -10 153 -66 153c-52 0 -65 -65 -65 -153zM248 292c-118 0 -204 107 -204 230c0 138 94 234 209 234
c118 0 203 -106 203 -224c0 -134 -89 -240 -208 -240zM184 524c0 -97 13 -154 65 -154c56 0 67 68 67 154c0 96 -11 153 -67 153c-52 0 -65 -65 -65 -153zM382 0h-89l343 757h91zM1228 -4c-119 0 -205 106 -205 229c0 138 94 235 210 235c117 0 203 -107 203 -225
c0 -134 -89 -239 -208 -239zM1164 227c0 -97 13 -154 64 -154c56 0 67 68 67 154c0 96 -11 153 -67 153c-51 0 -64 -65 -64 -153z" />
    <glyph glyph-name="Acircumflex" unicode="&#xc2;" horiz-adv-x="899" 
d="M341 0h-331v101h28c22 0 31 5 41 13c12 10 21 23 26 39l229 604h226l226 -590c4 -11 13 -34 29 -46c15 -13 29 -20 49 -20h25v-101h-425v101h52c13 0 24 2 33 9c15 12 21 30 15 48l-21 55h-279l-19 -49c-5 -16 -8 -32 2 -47c10 -14 25 -16 43 -16h51v-101zM405 594
l-104 -278h206zM397 928h82l159 -156h-74l-125 78l-125 -78h-75z" />
    <glyph glyph-name="Ecircumflex" unicode="&#xca;" horiz-adv-x="885" 
d="M804 308v-308h-762v101h44c22 0 35 8 47 24c11 14 12 31 12 56v395c0 26 -1 43 -12 56c-12 16 -25 24 -47 24h-44v101h762v-297h-120v57c0 43 -8 75 -39 103c-29 28 -59 36 -100 36h-128c-22 0 -35 -8 -47 -24c-11 -13 -12 -30 -12 -56v-146h67c16 0 27 6 37 16
c14 15 20 30 20 52v48h96v-329h-96v48c0 19 0 32 -13 46c-13 15 -25 23 -46 23h-65v-153c0 -25 -1 -46 10 -59c12 -16 27 -21 49 -21h140c37 0 63 7 90 31c26 23 39 49 39 81v95h118zM374 928h82l159 -148h-79l-120 70l-121 -70h-79z" />
    <glyph glyph-name="Aacute" unicode="&#xc1;" horiz-adv-x="899" 
d="M341 0h-331v101h28c22 0 31 5 41 13c12 10 21 23 26 39l229 604h226l226 -590c4 -11 13 -34 29 -46c15 -13 29 -20 49 -20h25v-101h-425v101h52c13 0 24 2 33 9c15 12 21 30 15 48l-21 55h-279l-19 -49c-5 -16 -8 -32 2 -47c10 -14 25 -16 43 -16h51v-101zM405 594
l-104 -278h206zM547 928h145l-215 -147h-82z" />
    <glyph glyph-name="Edieresis" unicode="&#xcb;" horiz-adv-x="885" 
d="M804 308v-308h-762v101h44c22 0 35 8 47 24c11 14 12 31 12 56v395c0 26 -1 43 -12 56c-12 16 -25 24 -47 24h-44v101h762v-297h-120v57c0 43 -8 75 -39 103c-29 28 -59 36 -100 36h-128c-22 0 -35 -8 -47 -24c-11 -13 -12 -30 -12 -56v-146h67c16 0 27 6 37 16
c15 15 20 30 20 52v48h96v-329h-96v48c0 19 -1 32 -13 46c-12 16 -25 23 -46 23h-65v-153c0 -25 -1 -46 10 -59c12 -16 27 -21 49 -21h140c37 0 63 7 90 31c26 23 39 49 39 81v95h118zM308 922c43 0 82 -31 82 -75c0 -43 -39 -75 -82 -75c-44 0 -84 32 -84 75
c0 44 40 75 84 75zM558 922c44 0 84 -31 84 -75c0 -43 -40 -75 -84 -75c-43 0 -82 32 -82 75c0 44 39 75 82 75z" />
    <glyph glyph-name="Egrave" unicode="&#xc8;" horiz-adv-x="908" 
d="M804 308v-308h-762v101h44c22 0 35 8 47 24c11 14 12 31 12 56v395c0 26 -1 43 -12 56c-12 16 -25 24 -47 24h-44v101h762v-297h-120v57c0 43 -8 75 -39 103c-29 28 -59 36 -100 36h-125c-22 0 -34 -8 -47 -24c-10 -13 -11 -30 -11 -56v-146h63c16 0 27 6 37 16
c15 15 20 30 20 52v48h96v-329h-96v48c0 19 0 32 -13 46c-13 15 -25 23 -46 23h-61v-153c0 -25 -1 -46 10 -59c12 -16 26 -21 48 -21h137c37 0 63 7 90 31c26 23 39 49 39 81v95h118zM232 928h145l152 -148h-83z" />
    <glyph glyph-name="Iacute" unicode="&#xcd;" horiz-adv-x="508" 
d="M468 0h-426v101h44c22 0 35 8 47 24c11 14 12 31 12 56v395c0 26 -1 43 -12 56c-12 16 -25 24 -47 24h-44v101h426v-101h-44c-22 0 -35 -8 -47 -24c-11 -13 -12 -30 -12 -56v-395c0 -25 1 -42 12 -56c12 -16 25 -24 47 -24h44v-101zM342 928h145l-214 -147h-83z" />
    <glyph glyph-name="Icircumflex" unicode="&#xce;" horiz-adv-x="508" 
d="M468 0h-426v101h44c22 0 35 8 47 24c11 14 12 31 12 56v395c0 26 -1 43 -12 56c-12 16 -25 24 -47 24h-44v101h426v-101h-44c-22 0 -35 -8 -47 -24c-11 -13 -12 -30 -12 -56v-395c0 -25 1 -42 12 -56c12 -16 25 -24 47 -24h44v-101zM212 928h82l159 -147h-81l-118 69
l-119 -69h-81z" />
    <glyph glyph-name="Idieresis" unicode="&#xcf;" horiz-adv-x="508" 
d="M468 0h-426v101h44c22 0 35 8 47 24c11 14 12 31 12 56v395c0 26 -1 43 -12 56c-12 16 -25 24 -47 24h-44v101h426v-101h-44c-22 0 -35 -8 -47 -24c-11 -13 -12 -30 -12 -56v-395c0 -25 1 -42 12 -56c12 -16 25 -24 47 -24h44v-101zM132 922c43 0 82 -31 82 -75
c0 -43 -39 -75 -82 -75c-44 0 -84 32 -84 75c0 44 40 75 84 75zM382 922c44 0 84 -31 84 -75c0 -43 -40 -75 -84 -75c-43 0 -82 32 -82 75c0 44 39 75 82 75z" />
    <glyph glyph-name="Igrave" unicode="&#xcc;" horiz-adv-x="508" 
d="M468 0h-426v101h44c22 0 35 8 47 24c11 14 12 31 12 56v395c0 26 -1 43 -12 56c-12 16 -25 24 -47 24h-44v101h426v-101h-44c-22 0 -35 -8 -47 -24c-11 -13 -12 -30 -12 -56v-395c0 -25 1 -42 12 -56c12 -16 25 -24 47 -24h44v-101zM31 928h145l152 -148h-83z" />
    <glyph glyph-name="Oacute" unicode="&#xd3;" horiz-adv-x="889" 
d="M441 -16c-259 2 -398 178 -398 396c0 219 155 393 401 393c263 0 401 -174 402 -393c1 -220 -151 -398 -405 -396zM441 670c-133 0 -160 -138 -160 -290c0 -184 37 -291 165 -291c129 0 164 114 163 291c-1 173 -43 290 -168 290zM501 928h145l-193 -133h-88z" />
    <glyph glyph-name="Ocircumflex" unicode="&#xd4;" horiz-adv-x="889" 
d="M441 -16c-259 2 -398 178 -398 396c0 219 155 393 401 393c263 0 401 -174 402 -393c1 -220 -151 -398 -405 -396zM441 670c-133 0 -160 -138 -160 -290c0 -184 37 -291 165 -291c129 0 164 114 163 291c-1 173 -43 290 -168 290zM399 928h82l159 -152h-78l-121 74
l-122 -74h-78z" />
    <glyph glyph-name="apple" horiz-adv-x="718" 
d="M450 628l-91 -57l-91 57l28 -104l-84 -67l107 -5l41 -100l38 100l108 7l-85 65zM165 772l194 -91l194 91l-27 -213l147 -156l-213 -39l-102 -187l-102 186l-211 40l147 156z" />
    <glyph glyph-name="Ograve" unicode="&#xd2;" horiz-adv-x="889" 
d="M441 -16c-259 2 -398 178 -398 396c0 219 155 393 401 393c263 0 401 -174 402 -393c1 -220 -151 -398 -405 -396zM441 670c-133 0 -160 -138 -160 -290c0 -184 37 -291 165 -291c129 0 164 114 163 291c-1 173 -43 290 -168 290zM257 928h145l136 -133h-86z" />
    <glyph glyph-name="Uacute" unicode="&#xda;" horiz-adv-x="926" 
d="M492 -16c-175 1 -356 42 -356 302v289c0 26 -1 44 -12 56c-12 15 -24 24 -47 24h-33v102h417v-101h-49c-23 0 -36 -7 -48 -24c-9 -13 -11 -30 -11 -56v-289c0 -167 76 -195 166 -195c96 0 165 63 165 199v285c0 26 -1 44 -12 56c-12 15 -25 23 -47 23h-46v102h337v-101
h-41c-23 0 -36 -7 -47 -24c-10 -13 -11 -30 -11 -56v-275c0 -228 -132 -318 -325 -317zM597 928h145l-214 -149h-83z" />
    <glyph glyph-name="Ucircumflex" unicode="&#xdb;" horiz-adv-x="926" 
d="M492 -16c-175 1 -356 42 -356 302v289c0 26 -1 44 -12 56c-12 15 -24 24 -47 24h-33v102h417v-101h-49c-23 0 -36 -7 -48 -24c-9 -13 -11 -30 -11 -56v-289c0 -160 76 -195 166 -195c93 0 165 63 165 199v285c0 26 -1 44 -12 56c-12 15 -25 23 -47 23h-46v102h337v-101
h-41c-23 0 -36 -7 -47 -24c-10 -13 -11 -30 -11 -56v-275c0 -228 -132 -318 -325 -317zM461 928h82l159 -149h-79l-120 71l-121 -71h-79z" />
    <glyph glyph-name="Ugrave" unicode="&#xd9;" horiz-adv-x="926" 
d="M492 -16c-175 1 -356 42 -356 302v289c0 26 -1 44 -12 56c-12 15 -24 24 -47 24h-33v102h417v-101h-49c-23 0 -36 -7 -48 -24c-9 -13 -11 -30 -11 -56v-289c0 -169 76 -195 166 -195c96 0 165 72 165 199v285c0 26 -1 44 -12 56c-12 15 -25 23 -47 23h-46v102h337v-101
h-41c-23 0 -36 -7 -47 -24c-10 -13 -11 -30 -11 -56v-275c0 -228 -132 -318 -325 -317zM275 928h145l152 -149h-83z" />
    <glyph glyph-name="dotlessi" unicode="&#x131;" horiz-adv-x="382" 
d="M280 478v-333c0 -17 0 -30 9 -42c9 -11 19 -16 34 -16h34v-87h-321v87h42c12 0 22 4 29 12c8 9 10 20 10 33v217c0 14 -1 23 -9 33c-8 8 -17 13 -29 13h-42v83h243z" />
    <glyph glyph-name="circumflex" unicode="&#x2c6;" horiz-adv-x="587" 
d="M274 688h74l144 -172h-67l-114 85l-114 -85h-67z" />
    <glyph glyph-name="tilde" unicode="&#x2dc;" horiz-adv-x="624" 
d="M244 684c31 0 52 -13 81 -32c18 -11 33 -24 57 -24c25 0 38 19 50 41l9 16l57 -31l-27 -47c-21 -39 -46 -70 -91 -70c-35 0 -52 12 -80 31c-20 13 -34 26 -58 26c-25 0 -38 -20 -50 -42l-9 -16l-57 31l27 47c21 39 46 70 91 70z" />
    <glyph glyph-name="macron" unicode="&#xaf;" horiz-adv-x="624" 
d="M470 566h-322v81h322v-81z" />
    <glyph glyph-name="breve" unicode="&#x2d8;" horiz-adv-x="624" 
d="M313 519c-158 0 -195 149 -196 155h70c1 -4 26 -78 124 -78c98 -1 125 74 126 78h70c-1 -6 -40 -155 -194 -155z" />
    <glyph glyph-name="dotaccent" unicode="&#x2d9;" horiz-adv-x="624" 
d="M311 690c45 0 83 -38 83 -84c0 -45 -38 -82 -83 -82s-83 37 -83 82c0 46 38 84 83 84z" />
    <glyph glyph-name="ring" unicode="&#x2da;" horiz-adv-x="624" 
d="M327 800c78 0 142 -64 142 -142s-64 -142 -142 -142s-143 64 -143 142s65 142 143 142zM398 658c0 39 -32 71 -71 71s-71 -32 -71 -71s32 -71 71 -71s71 32 71 71z" />
    <glyph glyph-name="cedilla" unicode="&#xb8;" horiz-adv-x="624" 
d="M295 -10l37 -1l-8 -28l17 2c46 0 87 -20 87 -81c0 -56 -68 -81 -126 -81c-35 0 -57 6 -89 19l-30 14l16 45l27 -11c27 -12 44 -14 74 -14c28 0 38 14 38 28c0 16 -13 28 -31 27l-34 -1z" />
    <glyph glyph-name="hungarumlaut" unicode="&#x2dd;" horiz-adv-x="624" 
d="M435 688h131l-198 -172h-71zM248 688h132l-199 -172h-71z" />
    <glyph glyph-name="ogonek" unicode="&#x2db;" horiz-adv-x="437" 
d="M203 0h55s-102 -47 -102 -103c0 -34 26 -44 48 -44c24 0 41 7 59 21l25 -34c-12 -13 -61 -40 -98 -40c-65 0 -108 21 -108 81c0 66 121 119 121 119z" />
    <glyph glyph-name="caron" unicode="&#x2c7;" horiz-adv-x="624" 
d="M351 517h-82l-158 156h75l125 -77l125 77h74z" />
  </font>
</defs>
</svg>
