<?xml version="1.0" standalone="no"?>
<!DOCTYPE svg PUBLIC "-//W3C//DTD SVG 1.1//EN" "http://www.w3.org/Graphics/SVG/1.1/DTD/svg11.dtd" >
<svg xmlns="http://www.w3.org/2000/svg" width="100%" height="100%">
<metadata>
Created by FontXChange 20110222 at Sat Oct 19 12:52:03 2013
 By Gahlord Dewald
(c)2002 by Andrew Leman. Digitized from vintage copies of the Toronto Star exclusively for the HPLHS.
</metadata>
<defs>
<font id="HeadlineOne-HPLHS" horiz-adv-x="362" >
  <font-face 
    font-family="HeadlineOne"
    font-weight="400"
    font-stretch="normal"
    units-per-em="1000"
    panose-1="2 0 5 3 0 0 0 0 0 0"
    ascent="870"
    descent="-130"
    x-height="804"
    cap-height="802"
    bbox="-13.6709 -126 5119.99 873"
    underline-thickness="20"
    underline-position="-133"
    stemh="138.000"
    stemv="156.000"
    unicode-range="U+0020-2022"
  />
    <missing-glyph />
    <glyph glyph-name="space" unicode=" " horiz-adv-x="184" 
 />
    <glyph glyph-name="exclam" unicode="!" horiz-adv-x="297" 
d="M208 462c0 -15 1 -21 -1 -35c-6 -44 -16 -140 -23 -181c-3 -15 -9 -20 -22 -20c-25 0 -49 -4 -66 -2c-12 1 -20 7 -21 25c-4 80 -11 109 -19 179c-2 13 -4 21 -4 34c-2 61 1 192 1 321c0 16 9 18 23 19c40 3 79 0 104 0c15 0 23 -4 23 -13c0 -129 5 -269 5 -327zM208 -4
c0 -9 -12 -10 -22 -10c-41 0 -82 2 -106 2c-14 0 -26 11 -26 24c-1 34 -1 79 0 114c0 12 14 18 26 18c31 0 86 1 108 2c11 1 19 -9 20 -20c2 -36 1 -98 0 -130z" />
    <glyph glyph-name="quotedbl" unicode="&#x22;" 
d="M316 633c1 -12 -8 -73 -14 -105c-1 -7 -6 -11 -12 -12c-16 -2 -45 0 -69 1c-5 0 -15 18 -16 25c-5 23 -10 78 -10 91c0 16 1 134 0 155c0 7 7 13 12 13c26 -1 71 0 95 1c8 0 13 -9 13 -19c0 -29 0 -129 1 -150zM157 629c1 -12 -12 -71 -18 -103c-1 -7 -6 -11 -12 -12
c-16 -2 -45 0 -69 1c-5 0 -11 2 -12 9c-5 23 -14 94 -14 107c0 16 1 134 0 155c0 7 6 13 12 13c26 -1 75 -2 98 -1c8 0 14 -9 14 -19c0 -29 0 -129 1 -150z" />
    <glyph glyph-name="numbersign" unicode="#" horiz-adv-x="552" 
d="M501 276c0 -7 -7 -8 -15 -9c-11 -1 -47 -3 -63 -3c-7 0 -9 -7 -9 -15v-221c0 -11 -5 -25 -17 -26c-26 -3 -55 -2 -84 1c-11 1 -17 16 -17 27c0 45 -1 135 -1 219c0 4 -2 13 -7 13c-9 0 -26 2 -36 1c-5 -1 -7 -8 -7 -13c0 -88 1 -192 1 -225c0 -11 -5 -25 -17 -26
c-26 -3 -55 -2 -84 1c-11 1 -17 16 -17 27c0 44 -1 133 -1 218c0 8 -3 16 -10 17c-19 3 -54 1 -63 2c-7 1 -9 2 -9 8v29c0 9 9 8 18 8s32 -4 53 -2c7 1 9 9 10 15c2 20 1 78 0 96c0 6 -2 14 -9 15c-18 2 -56 0 -65 1c-7 1 -9 2 -9 8v29c0 9 9 8 18 8s39 -3 57 -1
c6 1 8 7 8 15c0 120 -2 283 -1 307c0 14 7 31 20 30c33 -2 57 -7 79 -6c15 1 20 -19 20 -35c-1 -28 0 -182 0 -296c0 -6 2 -14 7 -15c7 -1 29 1 38 2c6 1 6 9 6 15c0 119 0 281 1 305c0 14 16 28 29 27c33 -2 67 0 67 0c15 -3 23 -22 23 -38c-1 -28 -1 -179 -1 -293
c0 -7 3 -15 10 -15c18 -1 45 1 54 1c17 0 21 0 21 -10v-26c0 -7 -7 -8 -15 -9c-11 -1 -43 -1 -61 -2c-5 0 -9 -6 -9 -11v-101c0 -5 3 -13 8 -13c15 -1 49 2 58 2c17 0 21 0 21 -10v-26zM295 324c-1 32 1 61 0 93c0 6 -1 14 -8 15c-11 1 -26 1 -36 1c-5 0 -7 -9 -7 -15
c1 -15 0 -77 1 -99c0 -4 3 -11 8 -12c11 -2 28 1 39 3c4 1 3 9 3 14z" />
    <glyph glyph-name="dollar" unicode="$" horiz-adv-x="381" 
d="M340 178c0 -107 -53 -180 -150 -189v-45c0 -8 -7 -8 -12 -8c-6 0 -19 1 -24 1s-8 2 -8 7v46c-81 11 -152 86 -150 206c0 0 0 32 1 52c0 9 3 21 11 21c19 -1 90 4 113 4c10 0 10 -15 10 -26v-49c0 -22 5 -46 16 -60c1 60 2 117 3 173c-60 60 -148 132 -148 209v85
c0 108 48 193 155 205v9c0 10 4 10 8 10c6 0 12 0 17 1c3 1 6 -2 6 -6v-13c93 -3 146 -78 146 -177v-99c0 -6 -4 -15 -11 -16c-26 -2 -86 -1 -109 0c-7 0 -13 8 -13 15c-1 25 2 80 2 80c0 17 -4 41 -15 54c0 -70 1 -135 1 -199c61 -66 151 -142 151 -222v-69zM156 671
c-15 -10 -22 -35 -22 -61v-52c0 -15 8 -31 20 -48c1 52 2 105 2 161zM205 231c0 11 -6 24 -16 37c0 -44 1 -89 1 -136c11 9 12 26 13 43z" />
    <glyph glyph-name="percent" unicode="%" horiz-adv-x="572" 
d="M437 701c-1 -16 -7 -24 -15 -38c-109 -193 -184 -387 -184 -660c0 -11 -8 -12 -15 -13c-27 -3 -19 -4 -49 -2c-10 1 -22 4 -22 20c0 258 133 529 181 644c5 11 3 26 -15 26c-15 0 -46 -2 -67 -2c-22 0 -17 -11 -17 -20c-1 -46 -4 -166 -4 -166c-1 -55 -34 -86 -118 -86
s-116 30 -116 86l1 240c0 64 51 82 115 82c22 0 36 -10 60 -11c109 -5 181 -2 238 -3c13 0 28 0 27 -19c-1 -14 1 -53 0 -78zM537 302l-6 -231c-1 -55 -34 -87 -118 -87s-117 31 -116 87l6 226c2 78 46 95 110 95c67 0 126 -12 124 -90zM134 699c0 29 -8 31 -21 31
c-16 0 -21 -7 -21 -33l-1 -185c0 -29 7 -30 22 -30c13 0 20 5 20 29zM436 278c0 29 -8 30 -21 30c-16 0 -21 -3 -21 -30l-1 -190c0 -29 7 -28 22 -28c13 0 20 2 20 26z" />
    <glyph glyph-name="ampersand" unicode="&#x26;" horiz-adv-x="442" 
d="M422 368c1 -80 -43 -202 -58 -230c-5 -10 -2 -18 3 -28c14 -28 33 -67 45 -92c4 -8 8 -24 -1 -24c-37 0 -62 1 -95 2c-10 0 -17 2 -20 10s-5 12 -8 19c-6 15 -17 0 -24 -5c-25 -18 -93 -48 -146 -36c-52 12 -104 59 -104 114l1 182c0 70 42 96 64 117c9 8 5 12 -1 21
c-7 11 -27 24 -26 64l3 224c1 80 76 100 141 100c85 -1 142 -32 141 -99l-2 -198c-1 -63 -70 -97 -93 -107c-6 -3 -6 -14 -2 -21c15 -26 30 -66 42 -91c3 -6 7 -21 13 -7c10 23 14 58 20 91c2 10 10 12 23 12c24 0 44 1 62 2c19 1 22 -10 22 -20zM233 657
c0 26 -15 37 -33 37c-21 -1 -36 -10 -36 -32l-2 -104c0 -20 10 -39 16 -52c2 -5 14 -2 19 0c13 5 35 15 35 45zM214 161c-14 32 -37 90 -51 111c-3 5 -12 8 -16 3c-6 -8 -12 -27 -12 -34c0 -26 0 -89 1 -108c2 -41 55 -29 73 -5c5 6 9 25 5 33z" />
    <glyph glyph-name="quotesingle" unicode="'" horiz-adv-x="182" 
d="M157 629c1 -12 -12 -71 -18 -103c-1 -7 -6 -11 -12 -12c-16 -2 -45 0 -69 1c-5 0 -11 2 -12 9c-5 23 -14 94 -14 107c0 16 1 134 0 155c0 7 6 13 12 13c26 -1 75 -2 98 -1c8 0 14 -9 14 -19c0 -29 0 -129 1 -150z" />
    <glyph glyph-name="parenleft" unicode="(" horiz-adv-x="214" 
d="M173 728c0 -10 -14 -19 -18 -18c-26 4 -38 -19 -38 -74l-2 -503c0 -60 15 -63 38 -63c4 0 15 1 15 -11c0 -16 3 -26 2 -65c0 -7 -11 -14 -18 -14c-114 0 -153 55 -153 168v463c0 157 67 193 153 193c8 0 21 4 21 -4c-1 -21 -1 -47 0 -72z" />
    <glyph glyph-name="parenright" unicode=")" horiz-adv-x="230" 
d="M183 167c0 -157 -67 -193 -153 -193c-8 0 -21 -4 -21 4c1 21 1 47 0 72c0 10 14 19 18 18c26 -4 38 19 38 74l2 503c0 60 -15 63 -38 63c-4 0 -15 -1 -15 11c0 16 -3 26 -2 65c0 7 11 14 18 14c114 0 153 -55 153 -168v-463z" />
    <glyph glyph-name="comma" unicode="," horiz-adv-x="212" 
d="M182 241c1 -39 -1 -223 -1 -223c0 -76 -105 -84 -133 -84c-7 0 -17 2 -17 8c-1 16 1 43 1 63c0 5 7 6 11 6c20 0 61 9 61 45v36c0 7 -9 8 -16 8c-18 -1 -31 -2 -48 0c-7 1 -14 8 -14 14c-1 36 0 97 1 129c0 7 7 12 15 12c48 0 95 0 122 -1c9 0 18 -4 18 -13z" />
    <glyph glyph-name="hyphen" unicode="-" horiz-adv-x="303" 
d="M274 277c0 -9 -9 -17 -18 -17c-33 -1 -165 1 -192 2c-8 0 -17 5 -18 12c-5 33 -1 93 -1 125c0 8 10 14 19 14c22 -1 166 -1 193 0c8 0 17 -5 17 -13v-123z" />
    <glyph glyph-name="period" unicode="." horiz-adv-x="250" 
d="M190 11c0 -11 -2 -22 -13 -22c-46 0 -86 -3 -122 -2c-9 0 -19 2 -20 11c-4 37 -1 78 -1 126c0 13 2 20 10 20c29 0 80 3 129 3c9 0 16 -4 16 -10c1 -22 1 -77 1 -126z" />
    <glyph glyph-name="slash" unicode="/" horiz-adv-x="264" 
d="M273 850c-22 -99 -199 -837 -209 -869c-6 -18 2 -30 -29 -29c-10 0 -15 2 -24 2c-22 -1 -15 17 -13 31c38 223 185 794 204 864c5 18 7 23 25 23c10 0 23 1 35 1c10 0 13 -14 11 -23z" />
    <glyph glyph-name="zero" unicode="0" 
d="M312 148c0 -111 -47 -168 -160 -168c-114 0 -153 55 -153 168v463c0 157 67 193 153 193c90 0 160 -27 160 -181v-475zM192 182v409c0 66 -13 73 -35 73c-26 0 -38 -19 -38 -74v-409c0 -60 15 -63 38 -63c22 0 35 6 35 64z" />
    <glyph glyph-name="one" unicode="1" horiz-adv-x="260" 
d="M220 785c0 -273 -2 -474 -2 -777c0 -11 -4 -20 -13 -20c-25 0 -79 -2 -106 0c-6 0 -13 4 -13 13v611c0 8 -1 17 -8 17c-18 1 -52 2 -66 4c-7 1 -10 6 -10 17v48c0 8 1 16 7 20c11 7 62 44 103 69c9 6 14 15 23 14c14 -2 57 -1 71 -1c7 0 14 -4 14 -15z" />
    <glyph glyph-name="two" unicode="2" 
d="M328 476c1 -205 -171 -248 -172 -362c0 0 1 -8 12 -9c43 -4 95 3 140 3c4 0 12 -3 12 -8v-100c0 -7 -4 -13 -13 -13c-112 0 -253 1 -291 1c-6 0 -12 4 -13 10c-1 12 0 39 0 39c0 231 205 313 205 453v100c0 36 5 97 -40 97c-33 0 -29 -92 -29 -133v-27
c0 -13 -4 -15 -11 -16c-33 -3 -69 -1 -95 -1c-9 0 -15 0 -15 17c0 22 -1 70 -1 70c-2 160 57 209 164 209c93 0 146 -62 146 -136z" />
    <glyph glyph-name="three" unicode="3" horiz-adv-x="379" 
d="M336 258l-3 -164c-1 -70 -77 -108 -152 -108c-117 0 -180 40 -179 159c0 0 2 60 1 88c0 5 3 9 8 9c23 -1 86 -1 109 0c8 0 13 -9 13 -16c0 -10 1 -39 1 -39c1 -45 15 -77 38 -78c40 -2 37 50 38 121c2 139 -62 111 -79 111c-7 0 -11 10 -11 16c0 28 0 71 1 91
c0 8 1 19 8 19c13 0 85 -13 85 106c0 60 -4 104 -41 107c-16 1 -39 -24 -38 -52c0 0 1 -27 1 -41c0 -7 -4 -16 -10 -16c-20 0 -77 2 -98 1c-5 0 -10 8 -10 13c-1 30 0 102 0 102c0 99 81 115 168 117c57 1 138 -29 139 -102l2 -146c1 -66 -29 -118 -45 -133
c-5 -5 -10 -10 -1 -18c16 -14 56 -84 55 -147z" />
    <glyph glyph-name="four" unicode="4" horiz-adv-x="432" 
d="M391 203c0 -5 -3 -12 -8 -13c-17 -2 -40 -1 -57 -1c-5 0 -13 -4 -13 -10v-176c0 -13 -15 -17 -28 -18c-34 -2 -70 0 -96 0c-9 0 -14 9 -14 17c-2 37 0 101 0 175c0 6 -6 11 -12 11c-34 0 -103 -4 -137 -2c-5 0 -10 6 -10 11v121c0 5 3 9 5 14c62 177 107 301 159 454
c3 8 11 13 20 13h98c7 0 15 -6 15 -13c-3 -135 1 -386 1 -455c0 -5 1 -13 6 -13c17 -1 48 -1 63 0c5 0 8 -6 8 -11c0 -25 1 -72 0 -104zM176 542c0 38 -11 6 -12 1c-15 -49 -40 -131 -67 -216c-2 -5 4 -10 9 -10c13 -1 43 0 60 1c5 0 8 6 8 11c1 57 2 193 2 213z" />
    <glyph glyph-name="five" unicode="5" horiz-adv-x="386" 
d="M329 125c0 -112 -57 -149 -160 -145c-94 3 -167 58 -167 219c0 0 -1 21 0 32c1 7 8 13 15 13c20 0 74 -1 92 -1c9 0 18 -7 18 -16v-31c0 -41 11 -60 42 -60c29 0 38 28 38 56v142c0 30 -19 63 -43 63c-22 0 -35 -22 -37 -39c-1 -9 -9 -14 -17 -15c-23 -3 -77 -1 -94 1
c-7 1 -11 5 -11 14c0 143 2 348 0 412c0 10 4 13 11 13c93 -1 228 -1 287 -1c7 0 11 -6 11 -13c0 -32 -1 -70 0 -99c0 -7 -6 -13 -13 -14c-42 -3 -173 -1 -195 -1c-7 0 -12 -6 -12 -13c0 -37 -1 -92 -1 -141c0 -14 4 -15 7 -11c25 42 75 52 106 51c93 -4 123 -49 123 -192
v-224z" />
    <glyph glyph-name="six" unicode="6" horiz-adv-x="374" 
d="M327 120c1 -115 -88 -136 -178 -136c-67 0 -147 48 -147 149l2 491c0 121 42 177 158 177c139 0 155 -130 154 -219c0 -7 -5 -15 -12 -15c-25 -1 -65 -1 -85 1c-8 1 -16 -1 -16 12v20c0 45 -19 67 -33 68c-34 3 -44 -29 -44 -72c0 0 -3 -83 -1 -125c0 -6 0 -20 11 -11
c62 53 189 4 190 -114zM212 154v170c0 27 -30 35 -47 35c-16 0 -35 -32 -35 -62v-126c0 -19 8 -71 33 -70c38 2 49 25 49 53z" />
    <glyph glyph-name="seven" unicode="7" horiz-adv-x="385" 
d="M342 716c0 -13 0 -21 -6 -33c-32 -65 -75 -174 -106 -303c-36 -146 -44 -232 -44 -381c0 -6 -3 -11 -8 -11c-27 -1 -104 -1 -121 0c-5 0 -10 4 -10 10c0 159 25 248 66 405c27 102 65 195 78 235c2 8 -10 12 -19 12c-53 0 -114 1 -146 0c-12 0 -23 10 -24 22
c-2 36 0 95 0 115c0 12 14 16 26 15c67 -3 236 2 294 2c14 0 20 -9 20 -19v-69z" />
    <glyph glyph-name="eight" unicode="8" horiz-adv-x="373" 
d="M334 140c0 -113 -65 -162 -165 -160c-96 1 -163 43 -163 153v189c0 61 35 78 62 95c-25 15 -57 28 -57 97l1 157c1 102 67 137 158 137c90 0 157 -51 156 -154l-1 -149c0 -61 -31 -78 -52 -91c23 -13 61 -24 61 -90v-184zM202 525v131c0 20 -16 34 -31 34
c-17 0 -33 -14 -33 -35v-130c0 -21 15 -37 33 -37c16 0 31 17 31 37zM204 119v188c0 22 -17 34 -33 34c-18 0 -34 -12 -34 -35v-189c0 -20 16 -35 33 -35s34 16 34 37z" />
    <glyph glyph-name="nine" unicode="9" horiz-adv-x="374" 
d="M334 657l-2 -491c0 -121 -42 -177 -158 -177c-139 0 -157 164 -155 217c0 8 4 18 12 17c24 -3 68 -2 86 -2c8 0 17 -7 17 -14s-1 -17 -1 -17c-3 -45 19 -67 33 -68c34 -3 44 29 44 72c0 0 1 74 0 121c0 6 1 23 -10 15c-81 -59 -189 -4 -190 114l-1 226
c-1 115 88 136 178 136c67 0 147 -48 147 -149zM206 493v126c0 19 -8 71 -33 70c-38 -2 -49 -25 -49 -53v-170c0 -27 30 -35 47 -35c16 0 35 32 35 62z" />
    <glyph glyph-name="colon" unicode=":" horiz-adv-x="250" 
d="M210 531c0 -11 -2 -22 -13 -22c-46 0 -86 -3 -122 -2c-9 0 -19 2 -20 11c-4 37 -1 78 -1 126c0 13 2 20 10 20c29 0 80 3 129 3c9 0 16 -4 16 -10c1 -22 1 -77 1 -126zM210 11c0 -11 -2 -22 -13 -22c-46 0 -86 -3 -122 -2c-9 0 -19 2 -20 11c-4 37 -1 78 -1 126
c0 13 2 20 10 20c29 0 80 3 129 3c9 0 16 -4 16 -10c1 -22 1 -77 1 -126z" />
    <glyph glyph-name="semicolon" unicode=";" horiz-adv-x="212" 
d="M180 526c0 -11 -2 -22 -13 -22c-46 0 -86 -3 -122 -2c-9 0 -19 2 -20 11c-4 37 -1 78 -1 126c0 13 2 20 10 20c29 0 80 3 129 3c9 0 16 -4 16 -10c1 -22 1 -77 1 -126zM182 241c1 -39 -1 -223 -1 -223c0 -76 -105 -84 -133 -84c-7 0 -17 2 -17 8c-1 16 1 43 1 63
c0 5 7 6 11 6c20 0 61 9 61 45v36c0 7 -9 8 -16 8c-18 -1 -31 -2 -48 0c-7 1 -14 8 -14 14c-1 36 0 97 1 129c0 7 7 12 15 12c48 0 95 0 122 -1c9 0 18 -4 18 -13z" />
    <glyph glyph-name="question" unicode="?" horiz-adv-x="392" 
d="M331 684l-2 -212c-1 -99 -65 -149 -97 -153c-6 -1 -10 -11 -10 -17c0 -17 2 -49 1 -68c0 -7 -7 -12 -14 -13c-22 -3 -57 -4 -80 -3c-7 0 -14 6 -14 13c-2 38 -1 147 -1 185c0 8 5 15 13 17c19 4 33 6 55 27c25 22 21 126 20 172c0 23 -6 53 -41 53c-34 0 -42 -23 -43 -51
c0 0 -2 -52 -2 -58s-8 -13 -15 -13c-23 -1 -59 1 -91 0c-6 0 -13 3 -12 12s2 83 2 83c3 116 57 147 172 147c83 0 160 -47 159 -121zM232 16c0 -13 -8 -27 -20 -28c-25 -3 -65 -2 -90 0c-9 1 -16 10 -16 18c-1 32 1 92 0 112c-1 13 10 28 22 26c25 -4 66 2 86 0
c11 -1 15 -16 16 -28c1 -22 2 -67 2 -100z" />
    <glyph glyph-name="A" unicode="A" horiz-adv-x="447" 
d="M406 -8c1 -4 -4 -6 -9 -6c-33 0 -67 1 -118 1c-3 0 -7 5 -8 8c-5 17 -28 123 -30 141c-1 5 -7 7 -11 7c-9 0 -27 1 -39 0c-5 0 -8 -2 -9 -7c-5 -20 -19 -121 -24 -139c-1 -2 0 -9 -9 -9h-123c-17 0 -14 9 -13 12c5 19 127 803 148 804c53 3 55 3 108 0
c20 -1 132 -783 137 -812zM232 269c-4 31 -13 114 -19 114c-9 0 -16 -92 -20 -114c-1 -6 40 -8 39 0z" />
    <glyph glyph-name="B" unicode="B" horiz-adv-x="395" 
d="M356 103c0 -102 -101 -116 -247 -116c-49 0 -79 -1 -96 0c-6 0 -10 9 -10 15c0 310 -1 486 -1 796c0 6 0 12 6 12h188c80 0 148 -70 147 -148l-1 -106c-1 -81 -13 -113 -74 -150c39 -19 88 -74 88 -134v-169zM207 615c1 45 -6 69 -47 69c0 0 -17 1 -23 0
c-4 -1 -6 -6 -6 -10c1 -46 1 -112 1 -183c0 -5 2 -13 7 -13c22 -2 65 12 66 46zM212 208l-1 59c-1 50 -47 57 -68 57c-5 0 -7 -7 -7 -11c-1 -43 0 -109 0 -179c0 -7 4 -13 11 -13h14c40 0 52 41 51 87z" />
    <glyph glyph-name="C" unicode="C" horiz-adv-x="374" 
d="M335 204c0 -112 -48 -218 -167 -218c-146 0 -162 136 -162 261v386c0 34 24 187 162 187c139 0 169 -118 167 -219c0 0 0 -29 -1 -46c-1 -9 -5 -17 -14 -18c-25 -4 -80 1 -96 1c-9 0 -18 0 -19 17c-2 26 13 123 -37 123c-34 0 -41 -89 -41 -178v-284c0 -28 9 -88 41 -88
c49 0 38 123 38 153c0 8 5 18 14 18c25 0 72 0 100 -1c9 0 15 -8 15 -17c1 -28 0 -77 0 -77z" />
    <glyph glyph-name="D" unicode="D" horiz-adv-x="373" 
d="M339 269c0 -223 -90 -281 -178 -281c0 0 -112 -1 -134 0c-8 0 -14 7 -14 17c0 306 -3 553 -1 786c0 10 4 16 12 16c35 2 150 1 150 1c131 1 165 -143 165 -267v-272zM211 307v250c0 56 -36 117 -71 117c-6 0 -8 -9 -8 -14c0 -47 1 -316 1 -517c0 -7 2 -15 7 -15
c30 -1 71 83 71 179z" />
    <glyph glyph-name="E" unicode="E" horiz-adv-x="313" 
d="M281 1c0 -8 -9 -13 -16 -13c-67 -4 -211 -1 -251 2c-8 1 -11 13 -11 19c0 304 -4 715 -1 781c0 5 6 11 11 11c61 1 178 0 249 -1c8 0 16 -4 16 -12c1 -29 -1 -78 -1 -114c0 -6 -6 -12 -11 -12c-30 -1 -81 1 -115 0c-7 0 -15 -5 -15 -11c0 -31 -2 -108 -1 -155
c0 -6 6 -12 12 -13c21 -3 67 -2 93 -1c7 0 14 -5 14 -12c2 -32 -3 -103 -3 -134c0 -7 -4 -14 -11 -14c-20 -1 -75 0 -90 0c-7 0 -11 -8 -12 -15c-2 -21 -3 -121 -2 -159c0 -8 9 -14 18 -15c22 -2 78 3 110 2c8 0 16 -5 16 -13c0 -33 0 -89 1 -121z" />
    <glyph glyph-name="F" unicode="F" horiz-adv-x="334" 
d="M304 787c0 -24 0 -74 -1 -102c0 -7 -10 -10 -16 -11c-33 -4 -91 1 -123 -1c-7 0 -12 -7 -12 -14c0 -24 -1 -122 0 -176c0 -7 4 -15 10 -15c21 -1 80 1 101 2c7 0 14 -6 15 -13c2 -20 2 -95 0 -131c0 -5 -5 -10 -10 -10c-30 -1 -75 2 -104 0c-6 0 -12 -7 -12 -13
c-4 -59 1 -213 1 -292c0 -7 -8 -13 -14 -14c-33 -3 -95 -4 -128 -1c-6 1 -13 -2 -13 14c4 305 0 466 0 776c0 10 9 15 16 15c77 2 219 -1 275 -1c6 0 15 -7 15 -13z" />
    <glyph glyph-name="G" unicode="G" horiz-adv-x="413" 
d="M369 17c0 -11 3 -27 -10 -27h-28c-7 0 -11 7 -13 14c-4 13 -13 34 -13 34s-10 -50 -112 -50c-144 0 -182 71 -181 204l2 408c1 173 52 207 170 207c162 0 180 -85 182 -191c0 0 3 -86 2 -131c0 -8 -5 -17 -13 -17c-25 -1 -80 0 -109 1c-7 0 -13 9 -13 15
c-2 50 6 197 -41 197c-21 0 -37 -30 -37 -79v-421c0 -14 13 -65 38 -65c36 0 40 60 40 108v51c0 4 -3 13 -8 12c-6 -1 -16 0 -24 0c-4 0 -9 4 -9 9c-1 23 0 71 0 97c0 7 8 15 15 15c37 -1 106 0 147 -1c9 0 15 -8 15 -17c-1 -46 0 -351 0 -373z" />
    <glyph glyph-name="H" unicode="H" horiz-adv-x="379" 
d="M332 784c4 -181 -5 -668 -4 -773c0 -11 -10 -17 -20 -19c-30 -5 -63 0 -86 -2c-10 -1 -13 14 -13 25c0 110 3 277 1 309c0 6 -6 14 -13 15c-15 3 -36 1 -54 0c-7 0 -9 -9 -9 -15c-2 -39 2 -245 -3 -311c-1 -13 -14 -19 -27 -21c-25 -3 -59 -4 -84 -2c-10 1 -16 13 -16 23
c-5 114 -5 585 -2 771c0 6 4 17 10 17c35 0 82 2 109 0c9 -1 15 -8 15 -17c0 -55 -6 -184 -2 -272c0 -8 0 -17 7 -19c15 -4 40 -2 56 1c8 2 11 10 11 18c1 68 -1 220 0 276c0 4 2 14 7 13c30 -3 81 4 107 2c7 -1 10 -11 10 -19z" />
    <glyph glyph-name="I" unicode="I" horiz-adv-x="187" 
d="M142 16c0 -12 -4 -25 -16 -28c-28 -8 -81 -2 -105 0c-13 1 -20 19 -20 32c-3 200 4 676 1 752c0 12 2 31 13 30c40 -2 87 0 109 -2c12 -1 18 -15 18 -28c2 -66 -1 -583 0 -756z" />
    <glyph glyph-name="J" unicode="J" horiz-adv-x="375" 
d="M338 768c1 -67 -2 -561 -2 -561c0 -116 -64 -224 -171 -221c-89 3 -165 66 -167 177c0 0 -4 115 -2 144c1 10 7 22 18 21c23 -2 64 -1 88 0c12 1 17 -13 18 -25c2 -20 0 -93 0 -93c0 -65 23 -91 47 -89c25 2 43 30 43 89c0 0 1 487 0 558c0 11 7 22 18 22
c32 1 72 -1 93 0c10 1 17 -11 17 -22z" />
    <glyph glyph-name="K" unicode="K" horiz-adv-x="380" 
d="M340 8c3 -7 1 -17 -5 -18c-29 -3 -105 0 -137 0c-7 0 -10 8 -12 14c-15 53 -51 197 -56 217c-9 36 -8 3 -8 0c-3 -47 -3 -136 -1 -216c0 -7 -4 -15 -11 -15c-33 0 -70 -1 -98 0c-9 0 -13 10 -13 19c0 303 -1 503 -1 778c0 8 3 14 10 14c30 -1 80 2 108 0
c7 -1 10 -7 10 -14c-2 -64 -6 -158 -4 -213c0 -3 3 -16 8 2c14 50 30 123 54 209c2 6 7 14 13 14c39 -2 95 2 117 2c8 0 18 -10 13 -20c-26 -52 -141 -326 -138 -335c0 0 112 -337 151 -438z" />
    <glyph glyph-name="L" unicode="L" horiz-adv-x="313" 
d="M292 12c-1 -12 -15 -18 -26 -18c-75 0 -194 -6 -249 0c-11 1 -15 14 -15 24c-3 281 -4 662 -3 764c0 12 6 27 18 25c38 -6 78 -1 108 0c21 1 13 -17 14 -29c5 -91 -4 -428 2 -614c0 -13 10 -23 23 -24c37 -2 70 0 104 0c12 0 24 -6 24 -18c-1 -36 2 -69 0 -110z" />
    <glyph glyph-name="M" unicode="M" horiz-adv-x="574" 
d="M534 20c0 -13 1 -32 -13 -34c-24 -3 -87 1 -124 2c-10 0 -16 12 -17 22c-3 59 1 250 1 280c0 42 -12 10 -13 4c-14 -64 -24 -195 -36 -276c-2 -12 -5 -25 -18 -28c-25 -5 -61 -1 -87 -2c-12 0 -13 16 -15 28c-18 86 -28 249 -36 280c-2 6 -15 42 -15 -1
c0 -73 -2 -172 1 -279c0 -12 -3 -27 -15 -28c-28 -3 -85 0 -117 0c-14 0 -17 20 -18 34c-12 192 9 704 6 760c-1 10 1 27 12 26c34 -2 87 -3 114 -2c10 0 14 -12 18 -22c20 -58 62 -197 98 -314c12 -39 18 -28 26 0c37 128 73 237 95 316c3 12 12 21 23 20c39 -2 83 0 105 0
c11 0 14 -16 14 -28c2 -117 16 -554 11 -758z" />
    <glyph glyph-name="N" unicode="N" horiz-adv-x="402" 
d="M370 780c1 -69 -4 -590 -5 -764c0 -13 -3 -27 -16 -29c-27 -5 -68 -5 -101 0c-11 2 -20 9 -23 21c-22 82 -66 300 -77 340c-2 7 -18 33 -18 -6c0 -58 -1 -210 -1 -329c0 -14 -11 -22 -25 -25c-29 -6 -62 -1 -86 -2c-12 -1 -21 11 -21 23c-6 193 -1 675 5 769
c1 11 2 24 13 25c41 2 92 -2 119 -2c10 0 16 -10 18 -21c13 -61 52 -248 70 -312c10 -36 20 -37 18 4c-5 101 -4 236 -4 308c0 11 9 23 20 22c31 -2 68 1 93 0c12 0 21 -10 21 -22z" />
    <glyph glyph-name="O" unicode="O" 
d="M312 148c0 -111 -47 -168 -160 -168c-114 0 -153 55 -153 168v463c0 157 67 193 153 193c90 0 160 -27 160 -181v-475zM185 193v405c0 53 -11 59 -28 59c-21 0 -31 -16 -31 -60v-405c0 -48 12 -50 31 -50c17 0 28 5 28 51z" />
    <glyph glyph-name="P" unicode="P" horiz-adv-x="336" 
d="M313 434c0 -111 -115 -142 -165 -142c-7 0 -13 -5 -13 -14c-2 -92 1 -183 -2 -273c0 -8 -4 -16 -11 -17c-27 -3 -78 -2 -106 0c-6 0 -13 4 -13 13c0 307 -2 507 -2 790c0 8 10 12 17 12c44 2 133 -1 133 -1c72 -1 162 -49 162 -128v-240zM194 547c1 145 -24 124 -44 127
c0 0 -8 1 -15 2c-6 1 -10 -8 -9 -15c2 -22 -1 -151 1 -217c0 -6 4 -11 10 -13c5 -2 13 1 13 1c25 2 43 0 44 115z" />
    <glyph glyph-name="Q" unicode="Q" horiz-adv-x="350" 
d="M316 176c0 -15 -3 -180 -95 -182c-21 0 -20 -6 -20 -16c0 -5 -2 -20 10 -21c22 -2 79 0 87 0c3 0 10 -9 10 -13c0 -13 -1 -23 -1 -62c0 -4 -3 -8 -7 -8c-34 0 -136 1 -152 1c-12 0 -28 16 -28 28c0 34 15 92 -23 93c-43 1 -92 64 -92 176v473c0 126 66 165 151 165
c90 0 158 -43 158 -152zM196 214v385c0 67 -13 72 -35 72c-26 0 -37 -18 -37 -73v-385c0 -59 14 -81 37 -81c22 0 35 25 35 82z" />
    <glyph glyph-name="R" unicode="R" horiz-adv-x="381" 
d="M342 9c2 -9 -1 -22 -10 -23c-24 -2 -92 0 -117 1c-11 0 -12 17 -13 27c-4 58 -5 140 -5 151c0 20 5 151 -53 151c0 0 -7 2 -12 0c-8 -3 -7 -13 -7 -22c0 -87 0 -167 -1 -276c0 -10 -1 -26 -11 -27c-24 -3 -82 -4 -103 -2c-12 1 -12 18 -12 29c0 307 2 471 2 770
c0 12 8 18 18 18c59 0 150 1 150 1c78 1 152 -36 152 -103l-1 -197c0 -74 -51 -110 -74 -118c-14 -5 -6 -9 0 -11c26 -9 30 -16 40 -25c54 -47 47 -180 47 -199c0 -13 4 -119 10 -145zM198 619c0 50 -23 64 -44 63c0 0 -10 -1 -15 -1c-6 0 -9 -11 -9 -17
c-1 -52 0 -107 0 -176c0 -14 4 -28 14 -29c5 -1 12 0 12 0c24 0 42 4 42 160z" />
    <glyph glyph-name="S" unicode="S" horiz-adv-x="381" 
d="M340 178c0 -115 -61 -190 -172 -190c-90 0 -175 77 -172 208c0 0 0 32 1 52c0 9 3 21 11 21c19 -1 90 4 113 4c10 0 10 -15 10 -26v-49c0 -33 11 -72 39 -72c29 0 32 24 33 49l2 56c2 64 -203 171 -203 289v85c0 115 55 204 177 206c99 2 155 -75 155 -177v-99
c0 -6 -4 -15 -11 -16c-26 -2 -86 -1 -109 0c-7 0 -13 8 -13 15c-1 25 2 80 2 80c1 23 -9 62 -30 62c-27 0 -39 -32 -39 -66v-52c0 -77 206 -191 206 -311v-69z" />
    <glyph glyph-name="T" unicode="T" horiz-adv-x="392" 
d="M343 682c0 -9 -8 -14 -17 -14c-17 0 -41 1 -66 1c-9 0 -21 -3 -21 -15c0 -228 2 -394 2 -645c0 -9 -4 -16 -11 -17c-30 -4 -82 -1 -114 1c-8 1 -13 10 -13 17c0 251 -1 416 -1 645c0 6 -7 14 -12 14c-21 0 -49 -2 -74 0c-8 1 -16 7 -16 14c0 26 1 83 1 107
c0 8 9 13 17 13c57 -1 248 2 309 0c9 0 15 -9 15 -18c1 -25 2 -62 1 -103z" />
    <glyph glyph-name="U" unicode="U" horiz-adv-x="400" 
d="M353 785c0 -240 -2 -619 -2 -619c0 -36 -10 -178 -172 -178c-172 0 -176 83 -176 195c0 0 2 481 0 602c0 9 4 19 13 19c30 -1 77 0 107 0c8 0 17 -6 17 -15c0 -54 -1 -581 -1 -581c0 -68 24 -78 41 -78c15 0 36 8 36 78c0 0 2 513 0 576c0 9 4 20 13 20c29 0 82 1 111 -1
c8 -1 13 -10 13 -18z" />
    <glyph glyph-name="V" unicode="V" horiz-adv-x="430" 
d="M401 783c-57 -313 -69 -470 -120 -777c-2 -12 -7 -19 -15 -19c-24 0 -98 -1 -122 0c-10 0 -17 9 -19 19c-43 274 -64 514 -109 783c-2 10 7 19 16 19c30 -1 88 0 113 -1c11 0 19 -11 21 -21c11 -45 12 -183 39 -302c7 -31 13 -11 15 1c20 119 23 238 36 302
c2 9 9 17 17 17c33 1 79 1 112 -3c9 -1 18 -7 16 -18z" />
    <glyph glyph-name="W" unicode="W" horiz-adv-x="651" 
d="M608 787c-35 -278 -78 -470 -129 -775c-2 -12 -6 -17 -15 -18c-24 -3 -70 -2 -97 0c-7 1 -14 7 -15 15c-6 37 -33 323 -39 361c-7 42 -14 7 -15 1c-13 -68 -31 -309 -39 -360c-1 -9 -8 -15 -16 -16c-26 -3 -79 -3 -102 -1c-9 1 -15 9 -16 17c-17 115 -92 499 -120 777
c-1 10 4 20 13 20c30 0 87 2 107 0c11 -1 19 -12 20 -22c5 -31 32 -265 43 -354c1 -11 8 -18 13 1c5 18 11 194 36 355c2 13 8 20 18 19c37 -2 78 -4 99 -3c10 1 17 -9 18 -19c5 -54 29 -266 40 -379c3 -30 15 -8 17 4c18 111 39 340 45 378c2 10 12 19 22 18
c29 -2 87 3 103 2c8 -1 10 -13 9 -21z" />
    <glyph glyph-name="X" unicode="X" horiz-adv-x="425" 
d="M400 22c6 -14 15 -37 -10 -37c-20 0 -84 -5 -123 0c-14 2 -19 16 -23 29c-10 29 -28 103 -42 152c-9 31 -11 48 -23 -5c-10 -43 -14 -88 -31 -139c-5 -16 -8 -33 -25 -35c-32 -3 -76 1 -114 1c-20 0 -26 14 -21 26c27 65 123 328 141 382c5 14 1 31 -6 51
c-45 128 -97 295 -107 327c-4 11 -2 31 10 30c20 -2 77 -5 100 -2c14 2 23 -12 27 -26c7 -22 22 -81 37 -138c7 -27 12 -39 21 -11c20 63 29 114 39 149c4 14 13 27 28 26c24 -1 82 0 103 -2c10 -1 20 -10 17 -20c-9 -29 -77 -205 -131 -337c-7 -17 -8 -32 -4 -47
c41 -155 111 -311 137 -374z" />
    <glyph glyph-name="Y" unicode="Y" horiz-adv-x="379" 
d="M350 774c-12 -32 -91 -265 -106 -340c-3 -15 -1 -23 0 -38c2 -36 -2 -313 0 -374c0 -13 -4 -30 -18 -31c-26 -2 -74 3 -103 4c-11 0 -20 13 -21 25c-3 68 6 340 4 380c0 11 0 17 -3 28c-25 93 -88 294 -110 359c-3 10 8 22 19 23c31 2 65 2 94 0c15 -1 30 -12 32 -27
c6 -37 19 -90 28 -131c14 -67 15 -27 20 0c5 29 15 90 25 131c3 14 15 24 29 25c17 1 65 -1 92 0c15 1 23 -20 18 -34z" />
    <glyph glyph-name="Z" unicode="Z" horiz-adv-x="377" 
d="M342 12c0 -13 -11 -26 -23 -26c-39 1 -244 3 -296 2c-11 0 -15 13 -15 24c-1 29 -5 52 -5 82c0 21 9 33 14 53c50 186 121 443 129 478c3 13 1 34 -12 33c-25 -1 -77 -2 -104 0c-15 1 -29 13 -29 29c0 33 4 68 5 93c0 10 10 20 20 20c44 -2 241 1 280 4
c13 1 27 -9 28 -23c1 -15 2 -41 -2 -68c-3 -21 -9 -33 -14 -53c-45 -169 -117 -434 -131 -498c-3 -12 -6 -29 5 -30c26 -3 77 0 125 2c12 1 22 -10 23 -22c1 -24 2 -69 2 -100z" />
    <glyph glyph-name="bracketleft" unicode="[" horiz-adv-x="234" 
d="M186 746c-1 -11 -4 -15 -12 -15c-19 1 -26 0 -44 -1c-9 -1 -10 -8 -10 -21c0 -176 -2 -575 -1 -627c0 -7 4 -15 11 -16c17 -2 31 -3 42 -4c9 -1 12 -4 13 -20c1 -10 -1 -21 0 -29c3 -26 -2 -24 -18 -25c-31 -2 -122 -2 -146 0c-13 1 -20 19 -20 32c-3 200 4 676 1 752
c0 12 2 31 13 30c40 -2 130 0 152 -2c12 -1 19 -5 19 -18c0 -11 1 -22 0 -36z" />
    <glyph glyph-name="bracketright" unicode="]" horiz-adv-x="242" 
d="M209 770c3 -200 -4 -676 -1 -752c0 -12 -2 -31 -13 -30c-40 2 -130 0 -152 2c-12 1 -19 5 -19 18c0 11 -1 22 0 36c1 11 4 15 12 15c19 -1 26 0 44 1c9 1 10 8 10 21c0 176 4 588 3 640c0 7 -4 15 -11 16c-17 2 -31 0 -42 0c-12 0 -13 2 -14 14c-1 7 0 18 -1 26
c-3 26 2 24 18 25c31 2 122 2 146 0c13 -1 20 -19 20 -32z" />
    <glyph glyph-name="a" unicode="a" horiz-adv-x="447" 
d="M406 -8c1 -4 -4 -6 -9 -6c-33 0 -67 1 -118 1c-3 0 -7 5 -8 8c-5 17 -28 123 -30 141c-1 5 -7 7 -11 7c-9 0 -27 1 -39 0c-5 0 -8 -2 -9 -7c-5 -20 -19 -121 -24 -139c-1 -2 0 -9 -9 -9h-123c-17 0 -14 9 -13 12c5 19 127 803 148 804c53 3 55 3 108 0
c20 -1 132 -783 137 -812zM232 269c-4 31 -13 114 -19 114c-9 0 -16 -92 -20 -114c-1 -6 40 -8 39 0z" />
    <glyph glyph-name="b" unicode="b" horiz-adv-x="395" 
d="M356 103c0 -102 -101 -116 -247 -116c-49 0 -79 -1 -96 0c-6 0 -10 9 -10 15c0 310 -1 486 -1 796c0 6 0 12 6 12h188c80 0 148 -70 147 -148l-1 -106c-1 -81 -13 -113 -74 -150c39 -19 88 -74 88 -134v-169zM207 615c1 45 -6 69 -47 69c0 0 -17 1 -23 0
c-4 -1 -6 -6 -6 -10c1 -46 1 -112 1 -183c0 -5 2 -13 7 -13c22 -2 65 12 66 46zM212 208l-1 59c-1 50 -47 57 -68 57c-5 0 -7 -7 -7 -11c-1 -43 0 -109 0 -179c0 -7 4 -13 11 -13h14c40 0 52 41 51 87z" />
    <glyph glyph-name="c" unicode="c" horiz-adv-x="374" 
d="M335 204c0 -112 -48 -218 -167 -218c-146 0 -162 136 -162 261v386c0 34 24 187 162 187c139 0 169 -118 167 -219c0 0 0 -29 -1 -46c-1 -9 -5 -17 -14 -18c-25 -4 -80 1 -96 1c-9 0 -18 0 -19 17c-2 26 13 123 -37 123c-34 0 -41 -89 -41 -178v-284c0 -28 9 -88 41 -88
c49 0 38 123 38 153c0 8 5 18 14 18c25 0 72 0 100 -1c9 0 15 -8 15 -17c1 -28 0 -77 0 -77z" />
    <glyph glyph-name="d" unicode="d" horiz-adv-x="373" 
d="M339 269c0 -223 -90 -281 -178 -281c0 0 -112 -1 -134 0c-8 0 -14 7 -14 17c0 306 -3 553 -1 786c0 10 4 16 12 16c35 2 150 1 150 1c131 1 165 -143 165 -267v-272zM211 307v250c0 56 -36 117 -71 117c-6 0 -8 -9 -8 -14c0 -47 1 -316 1 -517c0 -7 2 -15 7 -15
c30 -1 71 83 71 179z" />
    <glyph glyph-name="e" unicode="e" horiz-adv-x="313" 
d="M281 1c0 -8 -9 -13 -16 -13c-67 -4 -211 -1 -251 2c-8 1 -11 13 -11 19c0 304 -4 715 -1 781c0 5 6 11 11 11c61 1 178 0 249 -1c8 0 16 -4 16 -12c1 -29 -1 -78 -1 -114c0 -6 -6 -12 -11 -12c-30 -1 -81 1 -115 0c-7 0 -15 -5 -15 -11c0 -31 -2 -108 -1 -155
c0 -6 6 -12 12 -13c21 -3 67 -2 93 -1c7 0 14 -5 14 -12c2 -32 -3 -103 -3 -134c0 -7 -4 -14 -11 -14c-20 -1 -75 0 -90 0c-7 0 -11 -8 -12 -15c-2 -21 -3 -121 -2 -159c0 -8 9 -14 18 -15c22 -2 78 3 110 2c8 0 16 -5 16 -13c0 -33 0 -89 1 -121z" />
    <glyph glyph-name="f" unicode="f" horiz-adv-x="334" 
d="M304 787c0 -24 0 -74 -1 -102c0 -7 -10 -10 -16 -11c-33 -4 -91 1 -123 -1c-7 0 -12 -7 -12 -14c0 -24 -1 -122 0 -176c0 -7 4 -15 10 -15c21 -1 80 1 101 2c7 0 14 -6 15 -13c2 -20 2 -95 0 -131c0 -5 -5 -10 -10 -10c-30 -1 -75 2 -104 0c-6 0 -12 -7 -12 -13
c-4 -59 1 -213 1 -292c0 -7 -8 -13 -14 -14c-33 -3 -95 -4 -128 -1c-6 1 -13 -2 -13 14c4 305 0 466 0 776c0 10 9 15 16 15c77 2 219 -1 275 -1c6 0 15 -7 15 -13z" />
    <glyph glyph-name="g" unicode="g" horiz-adv-x="413" 
d="M369 17c0 -11 3 -27 -10 -27h-28c-7 0 -11 7 -13 14c-4 13 -13 34 -13 34s-10 -50 -112 -50c-144 0 -182 71 -181 204l2 408c1 173 52 207 170 207c162 0 180 -85 182 -191c0 0 3 -86 2 -131c0 -8 -5 -17 -13 -17c-25 -1 -80 0 -109 1c-7 0 -13 9 -13 15
c-2 50 6 197 -41 197c-21 0 -37 -30 -37 -79v-421c0 -14 13 -65 38 -65c36 0 40 60 40 108v51c0 4 -3 13 -8 12c-6 -1 -16 0 -24 0c-4 0 -9 4 -9 9c-1 23 0 71 0 97c0 7 8 15 15 15c37 -1 106 0 147 -1c9 0 15 -8 15 -17c-1 -46 0 -351 0 -373z" />
    <glyph glyph-name="h" unicode="h" horiz-adv-x="379" 
d="M332 784c4 -181 -5 -668 -4 -773c0 -11 -10 -17 -20 -19c-30 -5 -63 0 -86 -2c-10 -1 -13 14 -13 25c0 110 3 277 1 309c0 6 -6 14 -13 15c-15 3 -36 1 -54 0c-7 0 -9 -9 -9 -15c-2 -39 2 -245 -3 -311c-1 -13 -14 -19 -27 -21c-25 -3 -59 -4 -84 -2c-10 1 -16 13 -16 23
c-5 114 -5 585 -2 771c0 6 4 17 10 17c35 0 82 2 109 0c9 -1 15 -8 15 -17c0 -55 -6 -184 -2 -272c0 -8 0 -17 7 -19c15 -4 40 -2 56 1c8 2 11 10 11 18c1 68 -1 220 0 276c0 4 2 14 7 13c30 -3 81 4 107 2c7 -1 10 -11 10 -19z" />
    <glyph glyph-name="i" unicode="i" horiz-adv-x="187" 
d="M142 16c0 -12 -4 -25 -16 -28c-28 -8 -81 -2 -105 0c-13 1 -20 19 -20 32c-3 200 4 676 1 752c0 12 2 31 13 30c40 -2 87 0 109 -2c12 -1 18 -15 18 -28c2 -66 -1 -583 0 -756z" />
    <glyph glyph-name="j" unicode="j" horiz-adv-x="375" 
d="M338 768c1 -67 -2 -561 -2 -561c0 -116 -64 -224 -171 -221c-89 3 -165 66 -167 177c0 0 -4 115 -2 144c1 10 7 22 18 21c23 -2 64 -1 88 0c12 1 17 -13 18 -25c2 -20 0 -93 0 -93c0 -65 23 -91 47 -89c25 2 43 30 43 89c0 0 1 487 0 558c0 11 7 22 18 22
c32 1 72 -1 93 0c10 1 17 -11 17 -22z" />
    <glyph glyph-name="k" unicode="k" horiz-adv-x="380" 
d="M340 8c3 -7 1 -17 -5 -18c-29 -3 -105 0 -137 0c-7 0 -10 8 -12 14c-15 53 -51 197 -56 217c-9 36 -8 3 -8 0c-3 -47 -3 -136 -1 -216c0 -7 -4 -15 -11 -15c-33 0 -70 -1 -98 0c-9 0 -13 10 -13 19c0 303 -1 503 -1 778c0 8 3 14 10 14c30 -1 80 2 108 0
c7 -1 10 -7 10 -14c-2 -64 -6 -158 -4 -213c0 -3 3 -16 8 2c14 50 30 123 54 209c2 6 7 14 13 14c39 -2 95 2 117 2c8 0 18 -10 13 -20c-26 -52 -141 -326 -138 -335c0 0 112 -337 151 -438z" />
    <glyph glyph-name="l" unicode="l" horiz-adv-x="313" 
d="M292 12c-1 -12 -15 -18 -26 -18c-75 0 -194 -6 -249 0c-11 1 -15 14 -15 24c-3 281 -4 662 -3 764c0 12 6 27 18 25c38 -6 78 -1 108 0c21 1 13 -17 14 -29c5 -91 -4 -428 2 -614c0 -13 10 -23 23 -24c37 -2 70 0 104 0c12 0 24 -6 24 -18c-1 -36 2 -69 0 -110z" />
    <glyph glyph-name="m" unicode="m" horiz-adv-x="574" 
d="M534 20c0 -13 1 -32 -13 -34c-24 -3 -87 1 -124 2c-10 0 -16 12 -17 22c-3 59 1 250 1 280c0 42 -12 10 -13 4c-14 -64 -24 -195 -36 -276c-2 -12 -5 -25 -18 -28c-25 -5 -61 -1 -87 -2c-12 0 -13 16 -15 28c-18 86 -28 249 -36 280c-2 6 -15 42 -15 -1
c0 -73 -2 -172 1 -279c0 -12 -3 -27 -15 -28c-28 -3 -85 0 -117 0c-14 0 -17 20 -18 34c-12 192 9 704 6 760c-1 10 1 27 12 26c34 -2 87 -3 114 -2c10 0 14 -12 18 -22c20 -58 62 -197 98 -314c12 -39 18 -28 26 0c37 128 73 237 95 316c3 12 12 21 23 20c39 -2 83 0 105 0
c11 0 14 -16 14 -28c2 -117 16 -554 11 -758z" />
    <glyph glyph-name="n" unicode="n" horiz-adv-x="402" 
d="M370 780c1 -69 -4 -590 -5 -764c0 -13 -3 -27 -16 -29c-27 -5 -68 -5 -101 0c-11 2 -20 9 -23 21c-22 82 -66 300 -77 340c-2 7 -18 33 -18 -6c0 -58 -1 -210 -1 -329c0 -14 -11 -22 -25 -25c-29 -6 -62 -1 -86 -2c-12 -1 -21 11 -21 23c-6 193 -1 675 5 769
c1 11 2 24 13 25c41 2 92 -2 119 -2c10 0 16 -10 18 -21c13 -61 52 -248 70 -312c10 -36 20 -37 18 4c-5 101 -4 236 -4 308c0 11 9 23 20 22c31 -2 68 1 93 0c12 0 21 -10 21 -22z" />
    <glyph glyph-name="o" unicode="o" 
d="M312 148c0 -111 -47 -168 -160 -168c-114 0 -153 55 -153 168v463c0 157 67 193 153 193c90 0 160 -27 160 -181v-475zM185 193v405c0 53 -11 59 -28 59c-21 0 -31 -16 -31 -60v-405c0 -48 12 -50 31 -50c17 0 28 5 28 51z" />
    <glyph glyph-name="p" unicode="p" horiz-adv-x="336" 
d="M313 434c0 -111 -115 -142 -165 -142c-7 0 -13 -5 -13 -14c-2 -92 1 -183 -2 -273c0 -8 -4 -16 -11 -17c-27 -3 -78 -2 -106 0c-6 0 -13 4 -13 13c0 307 -2 507 -2 790c0 8 10 12 17 12c44 2 133 -1 133 -1c72 -1 162 -49 162 -128v-240zM194 547c1 145 -24 124 -44 127
c0 0 -8 1 -15 2c-6 1 -10 -8 -9 -15c2 -22 -1 -151 1 -217c0 -6 4 -11 10 -13c5 -2 13 1 13 1c25 2 43 0 44 115z" />
    <glyph glyph-name="q" unicode="q" horiz-adv-x="350" 
d="M316 176c0 -15 -3 -180 -95 -182c-21 0 -20 -6 -20 -16c0 -5 -2 -20 10 -21c22 -2 79 0 87 0c3 0 10 -9 10 -13c0 -13 -1 -23 -1 -62c0 -4 -3 -8 -7 -8c-34 0 -136 1 -152 1c-12 0 -28 16 -28 28c0 34 15 92 -23 93c-43 1 -92 64 -92 176v473c0 126 66 165 151 165
c90 0 158 -43 158 -152zM196 214v385c0 67 -13 72 -35 72c-26 0 -37 -18 -37 -73v-385c0 -59 14 -81 37 -81c22 0 35 25 35 82z" />
    <glyph glyph-name="r" unicode="r" horiz-adv-x="381" 
d="M342 9c2 -9 -1 -22 -10 -23c-24 -2 -92 0 -117 1c-11 0 -12 17 -13 27c-4 58 -5 140 -5 151c0 20 5 151 -53 151c0 0 -7 2 -12 0c-8 -3 -7 -13 -7 -22c0 -87 0 -167 -1 -276c0 -10 -1 -26 -11 -27c-24 -3 -82 -4 -103 -2c-12 1 -12 18 -12 29c0 307 2 471 2 770
c0 12 8 18 18 18c59 0 150 1 150 1c78 1 152 -36 152 -103l-1 -197c0 -74 -51 -110 -74 -118c-14 -5 -6 -9 0 -11c26 -9 30 -16 40 -25c54 -47 47 -180 47 -199c0 -13 4 -119 10 -145zM198 619c0 50 -23 64 -44 63c0 0 -10 -1 -15 -1c-6 0 -9 -11 -9 -17
c-1 -52 0 -107 0 -176c0 -14 4 -28 14 -29c5 -1 12 0 12 0c24 0 42 4 42 160z" />
    <glyph glyph-name="s" unicode="s" horiz-adv-x="381" 
d="M340 178c0 -115 -61 -190 -172 -190c-90 0 -175 77 -172 208c0 0 0 32 1 52c0 9 3 21 11 21c19 -1 90 4 113 4c10 0 10 -15 10 -26v-49c0 -33 11 -72 39 -72c29 0 32 24 33 49l2 56c2 64 -203 171 -203 289v85c0 115 55 204 177 206c99 2 155 -75 155 -177v-99
c0 -6 -4 -15 -11 -16c-26 -2 -86 -1 -109 0c-7 0 -13 8 -13 15c-1 25 2 80 2 80c1 23 -9 62 -30 62c-27 0 -39 -32 -39 -66v-52c0 -77 206 -191 206 -311v-69z" />
    <glyph glyph-name="t" unicode="t" horiz-adv-x="392" 
d="M343 682c0 -9 -8 -14 -17 -14c-17 0 -41 1 -66 1c-9 0 -21 -3 -21 -15c0 -228 2 -394 2 -645c0 -9 -4 -16 -11 -17c-30 -4 -82 -1 -114 1c-8 1 -13 10 -13 17c0 251 -1 416 -1 645c0 6 -7 14 -12 14c-21 0 -49 -2 -74 0c-8 1 -16 7 -16 14c0 26 1 83 1 107
c0 8 9 13 17 13c57 -1 248 2 309 0c9 0 15 -9 15 -18c1 -25 2 -62 1 -103z" />
    <glyph glyph-name="u" unicode="u" horiz-adv-x="400" 
d="M353 785c0 -240 -2 -619 -2 -619c0 -36 -10 -178 -172 -178c-172 0 -176 83 -176 195c0 0 2 481 0 602c0 9 4 19 13 19c30 -1 77 0 107 0c8 0 17 -6 17 -15c0 -54 -1 -581 -1 -581c0 -68 24 -78 41 -78c15 0 36 8 36 78c0 0 2 513 0 576c0 9 4 20 13 20c29 0 82 1 111 -1
c8 -1 13 -10 13 -18z" />
    <glyph glyph-name="v" unicode="v" horiz-adv-x="430" 
d="M401 783c-57 -313 -69 -470 -120 -777c-2 -12 -7 -19 -15 -19c-24 0 -98 -1 -122 0c-10 0 -17 9 -19 19c-43 274 -64 514 -109 783c-2 10 7 19 16 19c30 -1 88 0 113 -1c11 0 19 -11 21 -21c11 -45 12 -183 39 -302c7 -31 13 -11 15 1c20 119 23 238 36 302
c2 9 9 17 17 17c33 1 79 1 112 -3c9 -1 18 -7 16 -18z" />
    <glyph glyph-name="w" unicode="w" horiz-adv-x="651" 
d="M608 787c-35 -278 -78 -470 -129 -775c-2 -12 -6 -17 -15 -18c-24 -3 -70 -2 -97 0c-7 1 -14 7 -15 15c-6 37 -33 323 -39 361c-7 42 -14 7 -15 1c-13 -68 -31 -309 -39 -360c-1 -9 -8 -15 -16 -16c-26 -3 -79 -3 -102 -1c-9 1 -15 9 -16 17c-17 115 -92 499 -120 777
c-1 10 4 20 13 20c30 0 87 2 107 0c11 -1 19 -12 20 -22c5 -31 32 -265 43 -354c1 -11 8 -18 13 1c5 18 11 194 36 355c2 13 8 20 18 19c37 -2 78 -4 99 -3c10 1 17 -9 18 -19c5 -54 29 -266 40 -379c3 -30 15 -8 17 4c18 111 39 340 45 378c2 10 12 19 22 18
c29 -2 87 3 103 2c8 -1 10 -13 9 -21z" />
    <glyph glyph-name="x" unicode="x" horiz-adv-x="425" 
d="M400 22c6 -14 15 -37 -10 -37c-20 0 -84 -5 -123 0c-14 2 -19 16 -23 29c-10 29 -28 103 -42 152c-9 31 -11 48 -23 -5c-10 -43 -14 -88 -31 -139c-5 -16 -8 -33 -25 -35c-32 -3 -76 1 -114 1c-20 0 -26 14 -21 26c27 65 123 328 141 382c5 14 1 31 -6 51
c-45 128 -97 295 -107 327c-4 11 -2 31 10 30c20 -2 77 -5 100 -2c14 2 23 -12 27 -26c7 -22 22 -81 37 -138c7 -27 12 -39 21 -11c20 63 29 114 39 149c4 14 13 27 28 26c24 -1 82 0 103 -2c10 -1 20 -10 17 -20c-9 -29 -77 -205 -131 -337c-7 -17 -8 -32 -4 -47
c41 -155 111 -311 137 -374z" />
    <glyph glyph-name="y" unicode="y" horiz-adv-x="379" 
d="M350 774c-12 -32 -91 -265 -106 -340c-3 -15 -1 -23 0 -38c2 -36 -2 -313 0 -374c0 -13 -4 -30 -18 -31c-26 -2 -74 3 -103 4c-11 0 -20 13 -21 25c-3 68 6 340 4 380c0 11 0 17 -3 28c-25 93 -88 294 -110 359c-3 10 8 22 19 23c31 2 65 2 94 0c15 -1 30 -12 32 -27
c6 -37 19 -90 28 -131c14 -67 15 -27 20 0c5 29 15 90 25 131c3 14 15 24 29 25c17 1 65 -1 92 0c15 1 23 -20 18 -34z" />
    <glyph glyph-name="z" unicode="z" horiz-adv-x="377" 
d="M342 12c0 -13 -11 -26 -23 -26c-39 1 -244 3 -296 2c-11 0 -15 13 -15 24c-1 29 -5 52 -5 82c0 21 9 33 14 53c50 186 121 443 129 478c3 13 1 34 -12 33c-25 -1 -77 -2 -104 0c-15 1 -29 13 -29 29c0 33 4 68 5 93c0 10 10 20 20 20c44 -2 241 1 280 4
c13 1 27 -9 28 -23c1 -15 2 -41 -2 -68c-3 -21 -9 -33 -14 -53c-45 -169 -117 -434 -131 -498c-3 -12 -6 -29 5 -30c26 -3 77 0 125 2c12 1 22 -10 23 -22c1 -24 2 -69 2 -100z" />
    <glyph glyph-name="bullet" unicode="&#x2022;" horiz-adv-x="1894" 
d="M1841 652c-10 -37 -16 -77 -20 -117c11 -9 13 -22 2 -33l-33 -56c-25 16 -50 35 -75 52c-1 7 -1 14 -4 21c-24 -15 -38 -39 -57 -58c-25 22 -53 42 -81 59c17 35 12 76 17 115c-2 10 -15 22 -3 31l47 67c27 -16 49 -42 75 -61c-13 -30 -13 -66 -19 -100
c9 -7 17 -21 27 -17c-1 33 18 76 -1 109l72 51l4 -2zM1566 677c-12 -55 -21 -114 -22 -173c-21 -25 -38 -64 -76 -67c-39 -11 -79 -19 -119 -27c-3 3 -3 5 -3 8c24 12 53 19 70 46c6 15 18 33 10 51c-23 -15 -42 -36 -61 -56c-28 16 -51 40 -75 61c15 90 12 189 17 284l4 5
c40 -6 77 -1 115 -3c1 -42 -11 -86 -10 -127l2 -3c20 20 34 43 51 65c33 -21 62 -46 97 -64zM1279 568l-37 -100c-31 16 -59 37 -90 54c10 93 6 196 9 289c39 -1 77 2 115 5l3 -2l-15 -230zM1577 340c-2 2 -4 1 -5 -1c-2 -6 -5 -12 -4 -18c2 -18 0 -36 0 -54
c0 -10 1 -21 -6 -30c0 3 2 5 -1 8c-10 -14 -11 -30 -13 -46c-2 -11 -1 -22 -6 -32c-10 -24 -7 -49 -19 -71c-3 -5 -10 -6 -10 -14c-8 5 -8 16 -15 20c-4 2 -9 6 -15 7c4 9 -6 11 -10 14s-7 10 -5 15c13 30 25 57 33 89c0 1 4 2 5 3c15 39 15 81 20 122c25 12 13 46 27 65
c1 2 10 5 15 1c9 -6 7 -19 8 -27c2 -16 8 -34 1 -51zM1339 327l1 -1l-2 2c1 -2 2 -3 2 -3c0 2 -1 2 -1 2zM1341 317c0 -1 -1 -1 -2 -2c1 0 1 0 2 -1c-1 0 -3 0 -2 1c1 2 1 3 2 4c1 -2 1 -2 0 -2zM1338 306c-1 0 -4 1 -4 2s3 0 3 -1zM1339 301c-1 -1 -2 0 -1 2v0
c1 -1 1 -2 1 -2zM1114 698c-7 -38 -9 -78 -10 -118c12 -9 15 -21 5 -33l-27 -58c-27 13 -53 29 -80 44c-2 7 -2 14 -6 20c-22 -17 -34 -42 -51 -63c-27 20 -57 37 -86 52c13 36 5 76 6 116c-3 10 -17 20 -6 30l41 72c28 -14 52 -38 80 -54c-10 -31 -6 -67 -9 -102
c9 -6 18 -19 28 -14c-4 32 10 78 -11 109l66 57l4 -2zM1444 374c-16 -25 -60 -23 -92 -36c-9 -3 -16 -13 -24 -21c-5 -6 8 -12 1 -19c-2 -2 4 -3 7 -4c-1 0 -3 -1 -3 -2c0 -2 2 -3 5 -3c-8 -1 3 -7 -1 -8c-3 0 -7 2 -10 2c-5 -1 -5 -4 0 -6c1 1 3 1 5 0c1 0 2 -1 4 -1
c-1 -1 -1 -1 -1 -2l-3 3c-2 1 -4 1 -6 -1c2 -19 14 -35 29 -50c3 -3 6 -10 13 -10c0 -2 -3 -5 2 -8c17 -9 36 -20 42 -34c6 -13 0 -29 -11 -40c-18 -20 -30 -41 -45 -63c-3 -6 -13 -10 -21 -10c-33 -4 -63 -17 -96 -13c-36 4 -77 48 -46 68c13 9 38 -7 59 -4c1 0 3 -3 5 -5
c4 7 12 3 20 3c3 0 5 1 4 4c2 -2 3 -5 6 -4c5 1 9 2 14 2c-1 -1 -3 -1 -3 -2c0 -2 2 -4 5 -4c5 1 4 4 5 7c8 -3 16 -9 22 -2c1 1 -2 3 -5 3l7 4c3 -9 -13 -12 0 -18c4 -2 10 0 16 -1c5 0 5 7 11 7c-9 12 14 24 -3 28c-5 1 -14 -4 -19 -10c-12 10 -18 -11 -30 0
c5 3 14 1 17 6c2 3 -7 3 -7 7c-3 -1 -5 -2 -5 -4c-3 3 -10 8 -6 11c10 8 27 10 33 22c5 11 1 23 -9 32c-10 10 -15 21 -26 27c-4 3 -13 -1 -15 2c-15 23 -35 39 -48 62c-3 4 -4 10 -5 15c-5 37 33 58 69 66c28 7 66 -8 85 10c9 8 26 18 40 16c11 -1 16 -18 14 -22zM1518 22
c-8 -8 -16 5 -25 4c-2 -1 -5 -2 -5 -3c-1 -5 4 -7 9 -8c-1 -2 0 -3 1 -5s-2 -4 -3 -4c-5 1 -8 8 -14 4c3 -4 0 -7 0 -10l-5 1c2 2 1 4 -1 5c-4 3 -9 3 -12 -1c-2 -3 2 -7 0 -10c-3 -3 -6 -2 -7 0c-4 5 3 17 -6 15c-7 -1 -4 -17 -13 -10c-5 5 4 7 5 10c1 7 -9 9 -12 9
c-8 2 -8 -15 -19 -14c-1 0 -1 3 -4 2c4 9 15 9 18 15c2 7 -4 10 -9 14c-4 2 7 5 7 11c-1 2 -2 4 -4 4c-5 -1 -10 -7 -15 -3c-1 0 0 3 1 4c5 -2 10 -2 14 1l-3 6c8 4 13 7 12 16c4 -2 9 -2 12 2c1 1 -1 3 -4 3c1 2 1 4 2 4c6 3 9 -9 15 -3c2 2 1 5 0 7c-2 3 -4 9 -2 9
c9 0 1 -13 7 -17c2 -2 7 -3 7 0c0 2 -1 6 1 7c12 7 15 -6 14 -16c2 1 4 1 4 4c2 -1 5 -1 7 -2c1 -1 2 -3 1 -5c-2 -1 -4 -2 -4 -4c1 -2 2 -5 4 -5c4 0 7 6 13 3c1 -1 3 -4 1 -5c-6 -4 -17 -5 -11 -14c4 3 10 4 11 1c3 -6 -5 -6 -10 -5c-1 1 -3 -1 -3 -3c3 -12 16 -4 24 -9
c2 -1 3 -4 1 -5zM1117 385c0 0 -1 1 -1 2zM1106 386c-1 0 -2 0 -2 1c-1 0 0 1 1 1zM1098 387c1 0 1 -1 0 -2c-1 0 -2 1 0 2zM1078 390c-1 0 -3 1 -1 2c1 0 1 -1 1 -2zM1182 374c-12 -9 -18 -23 -26 -32c-24 -29 -67 -21 -102 -8c-11 3 -25 2 -28 15c-1 3 2 3 3 5
c2 1 1 4 -1 5c-3 2 -7 1 -10 3c-9 8 -17 22 -9 31c9 10 29 10 41 -3c4 -4 -1 5 4 6c-2 -4 2 -6 3 -9c3 1 4 3 3 5c2 -2 3 -5 5 -6c1 -2 3 -1 5 1c0 -3 -3 -7 1 -8c2 -1 4 1 4 4c1 -2 2 -5 4 -6c1 -1 3 1 3 4c1 -2 2 -4 5 -4c1 0 2 1 3 2c0 -1 1 -2 2 -3c4 -1 8 1 11 2l-2 4
c3 1 2 -2 2 -4c0 -1 1 -1 3 -1c2 1 3 2 3 4c0 -2 0 -3 2 -5c2 4 7 0 10 6c3 4 -2 -6 4 -4c5 2 4 5 4 8c-2 1 -2 3 -1 5c0 -1 0 -3 2 -5c7 -2 8 6 13 10c0 -1 1 -3 2 -3c4 -1 3 5 4 6c9 2 19 1 26 -4c8 -6 17 -14 7 -21zM1400 29c1 -2 -1 -4 -3 -4c0 0 -1 2 -1 3c1 1 3 2 4 1
zM1386 3c-1 -3 -4 -1 -7 0c2 2 -2 5 7 5c5 0 0 -3 0 -5zM1286 134c-5 -2 -11 -2 -17 -2c-3 0 -6 0 -9 -1c-13 -2 -27 -4 -37 -12c-6 8 6 13 7 20c1 2 2 3 4 1c-1 -2 1 -5 2 -5c11 2 22 -2 33 -3c6 1 12 1 17 2zM838 697c-7 -55 -11 -115 -7 -174c-19 -27 -33 -67 -70 -73
c-38 -14 -77 -26 -117 -37c-2 3 -3 5 -3 8c23 14 51 23 65 51c6 16 16 35 6 53c-21 -17 -38 -39 -56 -61c-29 13 -54 36 -80 54c8 91 -3 190 -6 284l3 5c40 -2 77 7 115 8c4 -43 -4 -87 1 -128l2 -3c18 22 30 46 45 69c35 -18 66 -41 102 -56zM1182 201
c4 -10 -7 -17 -14 -24c-2 -2 1 -10 0 -15c-1 -4 -7 0 -8 -4c0 -2 2 -5 4 -5c1 -1 4 2 6 3c-8 -5 -9 -14 -3 -21c-2 1 -5 0 -5 -1c1 -4 8 -7 7 -10c-8 -17 -28 -15 -42 -16c-25 -3 -50 -5 -76 -6c-27 0 -55 -17 -77 -7c-14 6 -9 32 -21 48c-10 14 -6 33 -7 48
c0 25 1 52 10 78c2 6 0 13 1 18c6 28 10 57 24 81c2 3 14 15 20 3c10 -24 -2 -49 3 -74c43 -7 84 -22 127 -15c1 0 3 -4 1 -5c-2 -2 -4 -2 -4 -5c1 -2 3 -4 1 -6c-3 -4 -8 -10 -13 -9c-13 1 -27 3 -39 2c-15 -2 -11 -28 -22 -28c-19 0 -46 3 -53 26c-1 2 -4 1 -5 -1
c-3 -14 -6 -29 2 -40c6 -7 19 -9 28 -14c17 -9 39 -9 59 -14c-2 -3 -1 -5 1 -6c2 0 4 2 4 4c4 -3 -2 -9 2 -10c2 -1 3 0 4 3c1 2 1 4 1 6c2 -2 0 -5 -1 -7c0 -1 0 -1 2 -1c7 1 8 -7 12 -6c8 2 16 0 23 5c-1 1 -3 3 -1 5c1 -2 2 -4 4 -3c9 6 9 20 16 24c8 4 24 13 29 -1z
M550 550l-37 -87l-9 -1c-29 17 -59 31 -90 42c-9 7 -1 16 -2 24c-6 38 -2 78 -6 115c-5 6 -12 5 -19 5c-2 21 -9 42 1 57c7 0 15 1 15 7c1 19 -6 41 3 54c36 12 75 19 109 35l6 -5c-1 -28 0 -53 5 -82c5 -7 14 1 19 -5l3 -53c-6 -9 -21 2 -22 -12c8 -31 -11 -77 24 -94z
M915 399c5 -24 -4 -48 -12 -71c-7 -21 3 -47 -5 -66c-15 -38 -18 -78 -36 -114c-6 -13 -14 -36 -25 -34c-43 9 -48 65 -84 88c15 26 -10 48 -15 74c-7 29 -20 56 -5 83c2 2 10 2 13 -1c29 -24 31 -64 57 -91c15 16 23 38 42 53c6 5 7 15 11 19c20 20 15 49 34 65
c6 4 23 6 25 -5zM727 96c-10 -15 -32 -10 -50 -9c-5 0 -4 9 -7 13c-17 23 -36 43 -40 72c0 4 -5 8 -7 13c-12 24 -16 52 -16 79c0 37 -21 88 14 110c15 9 31 -19 35 -34c14 -57 15 -113 47 -165c15 -25 43 -52 24 -79zM379 538c-31 -65 -96 -84 -161 -81
c-54 2 -114 34 -138 86l-13 74c16 29 17 72 56 81c9 3 17 11 25 14c-1 -39 3 -81 28 -111l14 -12l3 2c-7 44 -20 84 -33 125l1 5c35 23 70 46 105 68c27 -17 61 -15 93 -16c4 -24 -7 -49 0 -74c-6 -8 -20 3 -19 -11c4 -39 4 -81 12 -124c4 -9 11 1 17 4c2 4 6 6 9 7
c-2 -13 3 -24 1 -37zM609 61c-16 -7 -35 18 -51 3c-5 -5 3 -24 -4 -26c-19 -2 -39 -11 -59 0c-16 8 -38 3 -50 -9c-14 -15 -32 -29 -47 -17c-31 25 -26 75 -30 117c0 2 2 14 10 11c7 31 -1 62 3 93c4 40 2 79 14 115c4 13 22 21 27 10c14 -25 30 -46 36 -76
c6 -40 -6 -77 0 -116c49 8 105 9 142 -38c1 -2 -1 -8 1 -10c14 -16 29 -49 8 -57zM1430 558c-3 26 12 51 0 72c-7 2 -13 12 -18 6c-2 -22 -8 -49 -1 -71c7 -2 13 -12 19 -7zM713 568c-5 25 7 51 -6 72c-7 1 -14 10 -19 4c0 -22 -3 -50 6 -71c6 -1 13 -11 19 -5zM322 553
c-3 44 -10 87 -15 131c2 12 -11 15 -18 10l8 -103c-14 -16 -36 -20 -53 -32v-4c23 -11 50 -11 75 -5z" />
    <glyph glyph-name="nbspace" unicode="&#xa0;" horiz-adv-x="500" 
 />
    <glyph glyph-name="emdash" unicode="&#x2014;" horiz-adv-x="5160" 
d="M5078 306h-585h-1606c-78 -19 -211 -83 -289 -140c-135 75 -210 125 -310 140h-1535c-65 0 -515 -25 -625 -10c-45 6 -70 70 0 85l630 -15c84 -2 733 -20 1510 -5c76 1 247 99 330 160c110 -80 250 -155 365 -155c-2 -2 -290 -2 1535 -1c351 1 265 6 580 11
c70 1 40 -70 0 -70z" />
    <glyph glyph-name="quotedblleft" unicode="&#x201c;" horiz-adv-x="408" 
d="M379 670c1 -36 0 -97 -1 -129c0 -7 -7 -12 -15 -12c-48 0 -95 0 -122 1c-9 0 -18 4 -18 13c-1 39 1 223 1 223c0 76 105 84 133 84c7 0 17 -2 17 -8c1 -16 -1 -43 -1 -63c0 -5 -7 -6 -11 -6c-20 0 -61 -9 -61 -45v-36c0 -7 9 -8 16 -8c18 1 31 2 48 0c7 -1 14 -8 14 -14z
M179 670c1 -36 0 -97 -1 -129c0 -7 -7 -12 -15 -12c-48 0 -95 0 -122 1c-9 0 -18 4 -18 13c-1 39 1 223 1 223c0 76 105 84 133 84c7 0 17 -2 17 -8c1 -16 -1 -43 -1 -63c0 -5 -7 -6 -11 -6c-20 0 -61 -9 -61 -45v-36c0 -7 9 -8 16 -8c18 1 31 2 48 0c7 -1 14 -8 14 -14z
" />
    <glyph glyph-name="quotedblright" unicode="&#x201d;" horiz-adv-x="408" 
d="M377 831c1 -39 -1 -223 -1 -223c0 -76 -105 -84 -133 -84c-7 0 -17 2 -17 8c-1 16 1 43 1 63c0 5 7 6 11 6c20 0 61 9 61 45v36c0 7 -9 8 -16 8c-18 -1 -31 -2 -48 0c-7 1 -14 8 -14 14c-1 36 0 97 1 129c0 7 7 12 15 12c48 0 95 0 122 -1c9 0 18 -4 18 -13zM177 831
c1 -39 -1 -223 -1 -223c0 -76 -105 -84 -133 -84c-7 0 -17 2 -17 8c-1 16 1 43 1 63c0 5 7 6 11 6c20 0 61 9 61 45v36c0 7 -9 8 -16 8c-18 -1 -31 -2 -48 0c-7 1 -14 8 -14 14c-1 36 0 97 1 129c0 7 7 12 15 12c48 0 95 0 122 -1c9 0 18 -4 18 -13z" />
    <glyph glyph-name="quoteleft" unicode="&#x2018;" horiz-adv-x="216" 
d="M179 670c1 -36 0 -97 -1 -129c0 -7 -7 -12 -15 -12c-48 0 -95 0 -122 1c-9 0 -18 4 -18 13c-1 39 1 223 1 223c0 76 105 84 133 84c7 0 17 -2 17 -8c1 -16 -1 -43 -1 -63c0 -5 -7 -6 -11 -6c-20 0 -61 -9 -61 -45v-36c0 -7 9 -8 16 -8c18 1 31 2 48 0c7 -1 14 -8 14 -14z
" />
    <glyph glyph-name="quoteright" unicode="&#x2019;" horiz-adv-x="220" 
d="M177 831c1 -39 -1 -223 -1 -223c0 -76 -105 -84 -133 -84c-7 0 -17 2 -17 8c-1 16 1 43 1 63c0 5 7 6 11 6c20 0 61 9 61 45v36c0 7 -9 8 -16 8c-18 -1 -31 -2 -48 0c-7 1 -14 8 -14 14c-1 36 0 97 1 129c0 7 7 12 15 12c48 0 95 0 122 -1c9 0 18 -4 18 -13z" />
  </font>
</defs>
</svg>
