<?xml version="1.0" standalone="no"?>
<!DOCTYPE svg PUBLIC "-//W3C//DTD SVG 1.1//EN" "http://www.w3.org/Graphics/SVG/1.1/DTD/svg11.dtd" >
<svg xmlns="http://www.w3.org/2000/svg" width="100%" height="100%">
<metadata>
Created by FontXChange 20110222 at Sat Oct 19 12:52:03 2013
 By Gahlord Dewald
Copyright (c) by Dan Carr 1990. Created at Golgonooza Letter Foundry.
</metadata>
<defs>
<font id="LyonsItalic" horiz-adv-x="459" >
  <font-face 
    font-family="Lyons"
    font-weight="500"
    font-style="italic"
    font-stretch="normal"
    units-per-em="1000"
    panose-1="2 0 6 3 0 0 0 0 0 0"
    ascent="800"
    descent="-200"
    x-height="388"
    cap-height="517"
    bbox="-343.032 -438 986.254 813"
    underline-thickness="17"
    underline-position="-111"
    slope="-12"
    stemh="20"
    stemv="58"
    unicode-range="U+0020-FB02"
  />
    <missing-glyph />
    <glyph glyph-name="Eth" unicode="&#xd0;" horiz-adv-x="233" 
 />
    <glyph glyph-name="onehalf" unicode="&#xbd;" horiz-adv-x="513" 
d="M43 -1c-20 -1 -28 4 0 7c27 2 60 33 67 70c0 0 23 106 35 160c13 54 31 156 31 156c8 44 11 101 -53 105c-65 4 -29 11 0 12c28 1 66 1 81 3c15 1 116 1 116 1c65 0 131 -23 131 -105c0 -64 -30 -114 -121 -140l63 -196c33 -102 105 -244 149 -286
c43 -43 203 -109 310 -91c66 11 51 0 1 -10s-240 -40 -361 70c-70 63 -127 206 -164 312c0 0 -48 141 -66 193c-14 -2 -32 3 -42 8l-43 -190c-8 -35 -2 -66 58 -70c60 -3 28 -10 -3 -8c-32 2 -65 3 -94 3c-28 0 -90 -3 -95 -4zM262 497l-39 -205c9 -14 31 -26 74 -15
c52 13 88 58 88 121c0 62 -71 101 -90 100z" />
    <glyph glyph-name="onequarter" unicode="&#xbc;" horiz-adv-x="829" 
d="M-69 0c-69 0 -277 78 -274 157c1 51 55 51 64 44c20 -18 12 -62 53 -90c74 -52 183 -86 282 -45c116 48 358 237 497 340c139 104 170 118 213 118c17 0 49 9 49 -26c0 -50 -53 20 -72 15c-25 -5 -27 -37 -30 -47l-115 -389c-10 -33 -5 -69 41 -58c49 11 98 44 101 13
c3 -28 -12 -25 -39 -30s-133 -10 -206 -2c-114 12 13 6 25 53l63 210s-82 2 -144 4c-65 -45 -331 -267 -508 -267zM653 454c-16 -16 -146 -124 -198 -169c35 -3 74 0 133 -2c32 75 29 95 65 171z" />
    <glyph glyph-name="onesuperior" unicode="&#xb9;" horiz-adv-x="765" 
d="M141 266c0 0 154 88 168 117c16 31 -6 86 -50 86s-110 -105 -118 -203zM631 593c25 0 25 -10 112 3c41 6 6 25 6 38c0 15 16 33 26 33c19 0 31 -22 31 -44c0 -16 -2 -41 -43 -44c-65 -4 -88 -9 -88 -62c0 -52 34 -208 -11 -327c-25 -65 -58 -119 -91 -152
c-80 -80 -160 -105 -284 -105c-134 0 -243 115 -241 283c1 138 115 271 215 271c87 0 139 -65 113 -112c-15 -27 -238 -126 -238 -126c0 -6 -4 -58 1 -85c6 -31 75 -206 194 -206c75 0 150 41 186 75c27 25 74 97 97 169c38 124 -3 283 -26 332c-22 48 -44 48 -64 51
c-35 6 -53 8 -55 -7c-3 -14 16 -20 16 -34c0 -15 -30 -18 -41 -18c-22 0 -28 36 -28 43c0 16 29 39 59 39c51 0 121 -15 154 -15z" />
    <glyph glyph-name="threequarters" unicode="&#xbe;" horiz-adv-x="765" 
d="M141 266c0 0 159 85 188 108c-6 44 -26 95 -70 95s-110 -105 -118 -203zM627 234c-22 48 -44 48 -64 51c-35 6 -53 8 -55 -7c-3 -14 15 -20 15 -34c0 -15 -30 -18 -40 -18c-22 0 -28 36 -28 43c0 16 28 39 58 39c52 0 122 -15 155 -15c25 0 25 -10 112 3c41 6 6 25 6 38
c0 15 16 33 26 33c19 0 31 -22 31 -44c0 -16 -2 -41 -44 -44c-64 -4 -87 -9 -87 -62c0 -92 -62 -172 -113 -216c-53 -47 -147 -81 -245 -81c-202 0 -308 128 -306 296c1 138 115 271 215 271c62 0 115 -39 127 -75c3 -8 125 61 195 116c32 25 -9 29 -16 40
c-7 14 13 45 21 50c17 9 51 -12 62 -32c8 -13 14 -49 -20 -73c-22 -14 -231 -125 -256 -138c-38 -18 -238 -126 -238 -126c0 -6 -4 -58 1 -85c6 -31 62 -219 209 -219c75 0 148 12 201 58c50 45 119 141 78 231z" />
    <glyph glyph-name="space" unicode=" " horiz-adv-x="208" 
 />
    <glyph glyph-name="exclam" unicode="!" horiz-adv-x="248" 
d="M168 -21c-15 7 -19 28 -7 45c11 18 34 27 50 20c16 -6 19 -27 8 -45c-11 -17 -35 -27 -51 -20zM212 140c16 55 58 298 71 345c12 47 37 152 80 152c44 0 12 -102 -1 -152c-8 -27 -115 -315 -124 -345c-8 -30 -36 -34 -26 0z" />
    <glyph glyph-name="quotedbl" unicode="&#x22;" horiz-adv-x="217" 
d="M317 499c-26 -16 -58 6 -55 34c7 51 5 45 57 105c80 90 65 50 14 -16c-51 -64 -3 -48 10 -73c11 -25 -7 -37 -26 -50zM214 495c-26 -16 -58 6 -56 33c8 52 5 46 58 106c81 90 66 50 13 -16c-51 -65 -2 -48 9 -73c13 -25 -6 -37 -24 -50z" />
    <glyph glyph-name="dollar" unicode="$" horiz-adv-x="315" 
d="M285 101c-11 -54 -67 -111 -153 -111c-66 0 -74 7 -93 13c-15 4 -10 6 -6 25c1 6 1 3 12 54c7 34 18 36 14 -8c-1 -17 -6 -30 16 -51c17 -15 33 -15 57 -15c41 0 75 25 84 66c8 40 -11 79 -38 102l-64 61c-24 21 -28 48 -21 77c15 72 88 101 136 101c39 0 44 -8 69 -14
c22 -5 28 12 21 -18c-2 -12 -11 -48 -14 -70c-2 -5 -11 -45 -11 5c2 45 -1 55 -16 66c-12 10 -27 16 -50 16c-33 0 -65 -29 -71 -61c-5 -23 3 -48 25 -67l64 -64c22 -19 48 -65 39 -107zM228 457h19l-110 -519h-19z" />
    <glyph glyph-name="percent" unicode="%" horiz-adv-x="373" 
d="M98 527c34 0 61 -32 61 -64c0 -35 -31 -59 -63 -59c-34 0 -60 28 -60 60c0 34 30 63 62 63zM97 514c-27 0 -45 -23 -45 -50c0 -26 18 -50 45 -50s48 23 48 50c0 29 -21 50 -48 50zM293 137c34 0 61 -32 61 -64c0 -35 -31 -59 -63 -59c-34 0 -60 28 -60 60
c0 34 30 63 62 63zM292 124c-27 0 -45 -23 -45 -50c0 -26 18 -50 45 -50s48 23 48 50c0 29 -21 50 -48 50zM314 522h19l-277 -519h-18z" />
    <glyph glyph-name="ampersand" unicode="&#x26;" horiz-adv-x="765" 
d="M139 263c0 0 156 91 170 120c16 31 -6 86 -50 86s-111 -107 -120 -206zM668 398c25 0 25 -10 112 3c41 6 6 25 6 38c0 15 16 33 26 33c19 0 31 -22 31 -44c0 -16 -2 -41 -44 -44c-64 -4 -87 -9 -87 -62c0 -92 -62 -206 -139 -284c-71 -71 -198 -111 -277 -111
c-129 0 -250 121 -248 289c1 138 115 271 215 271c87 0 139 -65 113 -112c-15 -27 -238 -126 -238 -126c-6 -28 -4 -58 1 -85c6 -31 75 -212 194 -212c75 0 150 47 186 81c59 55 149 216 108 306c-22 48 -44 48 -64 51c-35 6 -53 8 -55 -7c-3 -14 15 -20 15 -34
c0 -15 -30 -18 -40 -18c-22 0 -28 36 -28 43c0 16 28 39 58 39c52 0 122 -15 155 -15z" />
    <glyph glyph-name="quotesingle" unicode="'" horiz-adv-x="125" 
d="M211 654c26 15 57 -7 56 -35c-9 -51 -6 -46 -58 -106c-80 -88 -66 -50 -14 17c52 66 3 49 -9 74s7 38 25 50z" />
    <glyph glyph-name="parenleft" unicode="(" horiz-adv-x="231" 
d="M308 628c55 47 55 33 15 -2c-103 -92 -163 -302 -175 -345c-12 -47 -65 -295 -35 -396c13 -44 5 -71 -15 -6c-29 89 -47 272 -12 400c35 131 102 247 222 349z" />
    <glyph glyph-name="parenright" unicode=")" horiz-adv-x="231" 
d="M279 275c-34 -128 -150 -311 -226 -400c-56 -65 -49 -38 -11 6c83 101 163 349 176 396c11 43 64 253 10 345c-21 35 -14 49 16 2c66 -102 70 -218 35 -349z" />
    <glyph glyph-name="asterisk" unicode="*" horiz-adv-x="296" 
d="M271 660c6 -9 -6 -107 1 -147c37 20 86 40 97 47c17 11 19 2 9 -7c-12 -10 -97 -71 -100 -79c14 -50 33 -115 36 -123c4 -20 -1 -22 -6 -12c-7 9 -65 116 -75 117c-7 -1 -105 -113 -113 -117c-9 -10 -16 -12 1 12c9 8 47 72 75 121c0 8 -62 76 -71 85c-6 6 -1 16 11 6
c10 -8 48 -27 85 -52c14 40 42 140 50 149z" />
    <glyph glyph-name="comma" unicode="," horiz-adv-x="147" 
d="M68 68c26 15 57 -8 55 -35c-7 -52 -5 -46 -57 -106c-80 -89 -66 -50 -13 16c50 66 3 49 -10 75c-11 25 8 37 25 50z" />
    <glyph glyph-name="hyphen" unicode="-" horiz-adv-x="244" 
d="M82 256c4 -8 146 32 234 33l-15 -31l-229 -40s5 43 10 38z" />
    <glyph glyph-name="period" unicode="." horiz-adv-x="140" 
d="M50 -24c-19 8 -24 34 -10 57c15 22 44 33 63 25c20 -9 25 -35 10 -57c-14 -22 -42 -34 -63 -25z" />
    <glyph glyph-name="slash" unicode="/" horiz-adv-x="420" 
d="M388 652h35l-440 -979h-35z" />
    <glyph glyph-name="zero" unicode="0" 
d="M198 -12c-89 0 -136 95 -105 212c32 122 160 168 251 168c97 0 157 -79 127 -192c-38 -140 -165 -188 -273 -188zM322 353c-59 0 -124 -31 -153 -138c-35 -130 7 -211 58 -211c60 0 134 33 161 134c37 138 7 215 -66 215z" />
    <glyph glyph-name="one" unicode="1" 
d="M131 -3c-33 0 -2 7 3 8c49 9 72 14 86 54c9 26 43 162 54 204c12 41 6 55 -48 54c-45 -2 -46 9 27 24c23 5 74 14 122 32c-16 -21 -25 -61 -37 -105c0 0 -51 -193 -57 -214c-8 -33 16 -40 52 -48c6 -2 37 -12 -7 -10c-58 2 -162 1 -195 1z" />
    <glyph glyph-name="two" unicode="2" horiz-adv-x="460" 
d="M312 357c43 -2 141 9 108 -114c-19 -73 -175 -149 -286 -199c121 -4 180 0 180 0c62 0 124 68 154 107c30 42 -82 -128 -103 -149c-43 -5 -333 0 -333 0s283 141 308 235c19 71 12 79 -52 79c-57 0 -100 -22 -163 -65c-29 -33 68 111 187 106z" />
    <glyph glyph-name="three" unicode="3" 
d="M122 273c75 74 120 87 182 87c63 0 127 -33 109 -99c-14 -53 -62 -128 -174 -148c70 5 190 -35 154 -169c-64 -238 -331 -254 -376 -237c-55 20 -58 30 -9 17c34 -9 244 7 300 217c30 110 -60 139 -125 167c0 0 133 40 161 145c19 69 -50 72 -76 71
c-57 -1 -83 -18 -146 -51z" />
    <glyph glyph-name="four" unicode="4" 
d="M449 478c-4 -14 -117 -440 -117 -440h102l-46 -42h-67l-48 -181l-68 -7l50 187l-242 1s426 466 436 482zM349 339l-277 -304l195 3z" />
    <glyph glyph-name="five" unicode="5" 
d="M151 167c117 18 252 -55 214 -194c-73 -267 -323 -287 -369 -271c-54 20 -58 31 -8 18c34 -9 223 -4 292 256c30 110 -52 177 -167 165l136 216s158 0 196 1c12 1 15 5 22 12c2 3 11 11 3 -4c-19 -28 -37 -56 -42 -64h-185s-29 -41 -92 -135z" />
    <glyph glyph-name="six" unicode="6" 
d="M552 657c-114 -52 -293 -218 -351 -398c-43 -134 -33 -275 64 -257c88 16 145 126 150 203c5 75 -2 146 -90 130c-37 -7 -48 -19 -85 -44l8 15c20 12 34 35 88 44c39 8 167 10 156 -132c-10 -135 -139 -212 -228 -227c-114 -18 -203 89 -140 277c64 188 304 351 427 399z
" />
    <glyph glyph-name="seven" unicode="7" 
d="M145 354h396s13 5 -18 -24c-47 -42 -264 -446 -382 -623c-13 -17 -53 -2 -89 -11c-70 -18 -81 -33 19 26c79 47 371 550 388 583c-26 3 -278 -2 -306 -1c-12 1 -27 -16 -39 -33c-35 -48 31 83 31 83z" />
    <glyph glyph-name="eight" unicode="8" 
d="M365 370c63 -11 125 -71 116 -159c-13 -113 -87 -188 -236 -216c-118 -23 -188 73 -172 155c29 140 140 191 170 198c-25 8 -84 61 -60 149c23 89 127 139 205 146c99 7 140 -70 126 -129c-25 -104 -95 -127 -149 -144zM473 504c14 54 -4 134 -89 125
c-75 -6 -121 -72 -132 -131c-18 -97 57 -115 87 -120c59 23 111 39 134 126zM273 340c-86 -32 -123 -95 -140 -191c-12 -68 62 -156 126 -139c98 28 138 103 150 193c11 78 -77 123 -136 137z" />
    <glyph glyph-name="nine" unicode="9" 
d="M13 -308c114 52 292 218 350 398c44 134 35 279 -62 262c-88 -17 -147 -130 -152 -208c-5 -75 2 -146 91 -130c37 7 48 19 85 44l-8 -15c-21 -12 -34 -35 -88 -44c-40 -7 -166 -10 -156 132c10 135 138 212 227 227c114 18 204 -89 140 -277
c-62 -188 -304 -351 -427 -399v10z" />
    <glyph glyph-name="colon" unicode=":" horiz-adv-x="217" 
d="M192 282c-21 8 -24 34 -10 57c14 21 43 34 62 25c19 -8 24 -36 10 -57c-14 -22 -43 -34 -62 -25zM117 -21c-19 8 -24 36 -9 57c13 22 43 33 63 25c19 -8 24 -33 9 -57c-14 -22 -42 -33 -63 -25z" />
    <glyph glyph-name="semicolon" unicode=";" horiz-adv-x="221" 
d="M200 287c-20 8 -24 34 -9 57c13 21 42 34 62 25c20 -8 24 -36 10 -57c-15 -22 -44 -34 -63 -25zM129 53c30 17 63 -8 62 -37c-10 -59 -6 -51 -64 -118c-89 -98 -73 -56 -15 19c56 71 3 53 -9 82c-14 26 6 39 26 54z" />
    <glyph glyph-name="question" unicode="?" horiz-adv-x="440" 
d="M195 -7c-17 12 -17 38 -2 60c16 20 45 28 62 16c18 -10 18 -37 4 -57c-17 -21 -46 -29 -64 -19zM363 353c25 16 73 35 92 108c20 75 -8 113 -24 113c-70 0 -43 -29 -85 -29c-33 0 -28 29 -26 37c6 21 22 25 36 25c86 0 191 -55 167 -145c-22 -84 -114 -137 -195 -137
c0 0 -26 -86 -50 -138c-10 -23 -1 -59 -31 -59c-35 0 -5 36 1 60c3 10 36 140 37 146c10 0 78 19 78 19z" />
    <glyph glyph-name="at" unicode="@" horiz-adv-x="690" 
d="M448 342c-50 5 -122 -40 -154 -107c-31 -65 -52 -160 -14 -160c28 0 83 43 108 68c10 37 52 168 60 199zM589 242c26 64 37 133 33 173c-9 81 -63 121 -128 121c-113 0 -214 -112 -224 -124c-88 -116 -156 -241 -156 -426c0 -44 9 -89 29 -129c19 -38 61 -50 88 -50
c13 0 90 11 178 75c68 48 79 56 29 6c-127 -126 -234 -136 -274 -136c-43 0 -74 38 -86 70c-15 35 -29 65 -29 162c0 172 162 395 208 444c45 49 165 147 261 147c120 0 148 -61 150 -144c3 -73 -29 -138 -56 -194c-25 -52 -77 -124 -92 -142c-31 -37 -91 -105 -130 -105
s-6 135 -6 135c-36 -31 -133 -140 -166 -138c-34 1 -29 28 -29 55c0 26 41 192 100 243c59 50 104 72 167 80c5 14 9 28 9 28l48 -6c-9 -19 -12 -39 -17 -57c-12 -40 -62 -223 -62 -223c-8 -29 -11 -62 -2 -62c19 0 56 33 77 58c44 55 59 87 80 139z" />
    <glyph glyph-name="A" unicode="A" horiz-adv-x="653" 
d="M528 497c-17 -17 -166 -175 -218 -220c35 -4 102 6 161 4c18 72 27 132 57 216zM126 53c-18 -22 -10 -39 17 -45c32 -6 24 -11 -3 -11s-63 1 -80 1s-21 -1 -39 -1c-20 0 -34 11 3 16c39 5 72 54 92 75c117 127 183 208 289 310c126 120 130 122 148 140
c16 16 45 31 37 -12c-4 -22 -8 -40 -12 -58l-80 -391c-5 -34 -2 -54 45 -61c42 -6 40 -21 12 -18c-53 6 -87 -6 -159 2c-114 12 12 6 25 53l44 208s-107 -3 -168 -3c-49 -54 -103 -120 -171 -205z" />
    <glyph glyph-name="B" unicode="B" horiz-adv-x="454" 
d="M345 520c23 0 111 -7 111 -47c0 -6 15 3 15 -46c0 -65 -47 -106 -108 -131c7 -27 55 -23 55 -133c0 -80 -79 -169 -284 -169h-84c-63 0 -59 -15 -94 -12c11 15 79 32 79 32c15 10 25 59 64 149c18 40 100 197 100 284c0 33 -13 52 -38 44h-35c11 7 34 15 122 15
c0 0 66 14 97 14zM243 338c-65 -150 -100 -215 -100 -260c0 -31 22 -49 56 -49c69 0 143 28 143 126c0 58 -12 90 -73 123c-14 4 -29 -8 -50 5c39 24 179 3 179 129c0 48 -33 85 -80 85c-36 0 -68 -139 -75 -159zM330 283l3 3z" />
    <glyph glyph-name="C" unicode="C" horiz-adv-x="476" 
d="M393 518c80 0 97 -20 130 -19c-1 -15 -50 -88 -59 -95c-7 21 -1 16 -1 55c0 11 -37 33 -129 33c-87 0 -200 -119 -200 -303c0 -116 60 -166 145 -166c95 0 99 60 134 76v-15c-50 -78 -128 -99 -186 -99c-94 0 -184 65 -184 158v66c0 37 56 309 350 309z" />
    <glyph glyph-name="D" unicode="D" horiz-adv-x="596" 
d="M38 -6c-16 -4 -44 -5 -1 8c42 12 78 27 92 94c0 0 32 154 39 183c6 29 22 143 22 143c10 62 -2 87 -64 76c-28 -5 -27 6 0 10c27 5 142 7 202 7c59 0 137 -7 184 -30c46 -23 90 -71 90 -153c0 -48 -7 -144 -73 -223c-61 -73 -173 -110 -242 -110c-77 0 -90 6 -143 6
c-52 0 -106 -10 -106 -11zM279 500c-16 -58 -31 -113 -39 -155c-7 -42 -42 -223 -42 -223c-9 -51 19 -104 88 -104c86 0 232 118 232 291c0 144 -130 189 -195 189z" />
    <glyph glyph-name="E" unicode="E" horiz-adv-x="518" 
d="M367 512c64 0 118 1 146 1c5 -40 11 -48 11 -93c-3 -18 -13 -10 -19 -3c-12 45 -28 79 -101 79c-28 0 -52 1 -78 1c-21 -50 -59 -165 -70 -196c22 -2 63 -6 63 -6c39 -2 53 2 88 45c10 0 13 8 13 0c0 0 -42 -104 -55 -130c-3 4 -7 6 -7 12c9 27 7 53 -44 56
c0 0 -60 5 -65 5c-9 -20 -75 -188 -75 -188c-16 -42 22 -73 92 -73c33 0 99 -2 120 9c41 15 50 85 68 85c12 0 -22 -88 -22 -104c0 -12 10 -15 -67 -14c0 0 -176 1 -184 1c-129 0 -202 -12 -202 14c0 16 91 -4 119 70c0 0 55 145 62 161l70 172c36 87 -25 73 -93 89
c5 13 3 3 9 12c55 -4 172 -5 221 -5z" />
    <glyph glyph-name="F" unicode="F" horiz-adv-x="492" 
d="M138 7c-129 -3 -159 -17 -159 4c0 17 89 -7 119 72c0 0 55 145 62 161l70 172c36 87 -25 73 -93 89c5 13 3 3 9 12c55 -4 172 -5 221 -5c64 0 118 1 146 1c5 -40 11 -48 11 -93c-3 -18 -13 -10 -19 -3c-12 45 -28 79 -101 79c-28 0 -52 1 -78 1
c-21 -50 -79 -207 -90 -238c22 -1 63 -6 63 -6c39 -2 53 2 88 45c10 0 13 8 13 0c0 0 -42 -104 -55 -130c-3 5 -7 6 -7 12c9 28 7 53 -44 57c0 0 -60 5 -65 5c-9 -20 -55 -147 -55 -147c-16 -42 22 -79 92 -79c33 0 24 -16 -1 -16s-77 8 -127 7z" />
    <glyph glyph-name="G" unicode="G" horiz-adv-x="551" 
d="M376 513c31 2 58 2 81 2c22 0 70 -7 81 -7c0 -6 -41 -85 -72 -105c0 19 9 44 6 60c-3 12 -42 45 -124 31c-5 -1 -195 -45 -195 -267c0 -129 71 -194 169 -194c6 0 50 1 61 10c5 2 45 121 45 131c0 14 -10 24 -28 24c-12 0 -52 -5 -52 -5v5l226 46l6 -6
c-11 -5 -23 -5 -36 -8c-19 -5 -81 -35 -81 -162c0 -40 -14 -28 -62 -40c-3 -1 -113 -39 -150 -39c-98 0 -190 68 -190 199c0 78 47 190 119 236c0 0 60 76 196 89z" />
    <glyph glyph-name="H" unicode="H" horiz-adv-x="604" 
d="M327 513c21 2 21 -5 -19 -10c-42 -6 -58 0 -75 -66c0 0 -21 -74 -41 -149c4 0 300 6 300 6c1 1 41 165 41 165c8 30 -30 41 -70 44c-12 0 -45 11 20 8c69 -3 148 1 193 3c7 1 27 -5 -18 -10s-58 -40 -68 -73c0 0 -25 -83 -47 -163c-20 -74 -54 -205 -54 -205
c-6 -25 54 -38 68 -41c6 -2 30 -6 8 -11s-27 -4 -41 -4c0 0 -59 1 -96 0c-38 -1 -75 -8 -100 -8c-5 0 -30 -1 11 10c34 9 73 4 94 82c0 0 30 98 54 191c-34 0 -272 -4 -299 -6c-11 -23 -12 -40 -25 -80c-25 -84 -36 -127 -36 -127c-10 -35 30 -51 67 -51c18 0 18 -5 7 -8
c-13 -3 -45 -6 -76 -6h-86c-19 0 -36 -1 -47 -2c-15 -1 -23 -2 -8 5c28 12 59 -4 71 41c0 0 22 81 56 180c10 34 58 178 58 230c0 48 -25 43 -76 48c-3 0 -20 8 -2 8c37 0 134 -7 236 -1z" />
    <glyph glyph-name="I" unicode="I" horiz-adv-x="341" 
d="M359 517l1 -12c-61 -11 -76 -17 -90 -52c-27 -75 -33 -104 -59 -201c-50 -191 -48 -178 -48 -193c0 -46 50 -42 70 -51c-1 -1 3 -4 -2 -8c-33 1 -88 -1 -114 -3c-38 -1 -81 -2 -115 -5c0 0 -5 7 1 10c45 11 67 27 80 48c16 48 31 96 52 161c46 164 54 206 61 240
c11 55 -23 42 -54 52c0 0 -7 0 1 10c67 -4 110 -3 114 -3c0 0 101 7 102 7z" />
    <glyph glyph-name="J" unicode="J" horiz-adv-x="358" 
d="M395 508c11 0 0 -8 -2 -8c-55 0 -70 -20 -80 -57c0 0 -108 -385 -151 -493c-71 -178 -57 -153 -213 -246c-38 -23 -62 -35 -96 -35c-25 0 -65 18 -65 48c0 0 9 21 65 38h27c-1 -3 -6 -4 -6 -8c0 -35 8 -42 27 -42c75 0 150 159 152 165c95 254 186 572 186 572
c11 35 -19 56 -68 55c0 0 -18 -1 -38 -1c-11 0 -6 9 -2 9c32 1 89 2 147 2c45 0 92 1 117 1z" />
    <glyph glyph-name="K" unicode="K" horiz-adv-x="621" 
d="M235 504l98 -1c-31 -15 -31 -9 -48 -20c-20 -13 -60 -115 -60 -175c0 0 -14 -47 -17 -68c23 5 65 29 177 123c20 16 106 88 106 120c0 15 -18 10 -28 20h162c-32 -24 -259 -192 -320 -244c184 -184 209 -227 258 -227h62c-16 -3 -78 -32 -149 -32c-52 0 -87 60 -191 174
c-23 26 -27 54 -62 54c-8 0 -55 -50 -55 -168c0 -50 45 -49 67 -54c0 0 -142 -30 -233 -16c15 18 51 15 66 36c23 32 81 227 80 260l37 151c-6 54 -17 54 -54 54c-7 0 -13 11 -16 13h120z" />
    <glyph glyph-name="L" unicode="L" horiz-adv-x="494" 
d="M265 510l136 2c-4 -3 5 -4 -9 -9s-68 -9 -83 -38c-16 -32 -26 -76 -59 -174c-40 -122 -74 -211 -74 -224c0 -44 64 -47 110 -47h70c30 0 102 93 127 103c-5 -21 -53 -111 -70 -131c-56 9 -199 5 -222 5c-97 0 -156 3 -211 -3c1 2 -3 -2 7 5c116 19 91 29 157 195
c5 14 77 198 77 244c0 63 -47 63 -73 64c-10 4 -13 9 -4 9c24 0 80 -1 121 -1z" />
    <glyph glyph-name="M" unicode="M" horiz-adv-x="765" 
d="M-15 0c-20 -1 -33 7 3 12c38 5 78 34 95 78l64 148l41 134c17 47 25 125 -15 128c-38 3 -43 13 -15 13c29 0 73 0 109 -1c0 0 68 -154 86 -209c20 -55 50 -128 75 -211c41 69 89 151 104 181c16 29 78 141 125 233c43 6 86 9 115 16c30 6 30 1 5 -7
c-24 -9 -63 -57 -69 -105c0 0 -18 -117 -25 -180c-6 -62 -13 -162 -13 -162c-2 -39 17 -63 77 -66c25 -5 25 -12 0 -12s-85 10 -107 10s-72 2 -93 2c-24 0 -42 8 -7 11c33 4 62 33 65 70c0 0 15 121 18 149c4 31 15 127 24 208c-38 -68 -79 -149 -95 -175
c-17 -29 -97 -174 -160 -285c-30 86 -70 205 -77 222c-8 20 -52 136 -85 221c-23 -70 -52 -149 -63 -183c-12 -32 -52 -152 -52 -152c-12 -32 -2 -67 42 -76c31 -7 23 -12 -4 -12c-26 0 -63 3 -80 2c-16 -2 -70 -1 -88 -2z" />
    <glyph glyph-name="N" unicode="N" horiz-adv-x="748" 
d="M535 -34c-59 105 -114 207 -119 216c-44 77 -85 180 -129 232l-138 -352c-12 -34 44 -53 75 -54c6 -3 1 -9 4 -13c0 0 -88 9 -116 9c-15 0 -140 -3 -143 -3c-3 5 1 8 10 11c105 3 132 41 159 108c0 0 30 73 52 123c67 147 77 171 77 192c0 18 -43 52 -118 73
c7 5 7 7 10 9c7 1 27 -5 160 -5c39 0 20 -25 53 -92c0 0 107 -195 116 -209c18 -31 31 -68 55 -81l127 329c13 33 -41 33 -78 46c3 3 -8 8 -4 9c26 4 66 -3 135 -3c5 0 90 8 90 8l-5 -13c-106 -5 -115 -65 -138 -122c0 0 -114 -248 -118 -276c2 -11 1 -10 10 -28
c-3 -14 -29 -115 -27 -114z" />
    <glyph glyph-name="O" unicode="O" horiz-adv-x="591" 
d="M399 516c115 0 192 -73 192 -180c0 -113 -56 -212 -105 -253c-73 -60 -160 -92 -235 -93c-185 -3 -206 99 -206 201c0 143 116 325 354 325zM133 199c0 -108 55 -183 165 -183c133 0 209 177 209 279c0 100 -40 200 -165 200c-119 0 -209 -179 -209 -296z" />
    <glyph glyph-name="P" unicode="P" horiz-adv-x="496" 
d="M361 515c75 0 154 -32 154 -107c0 -90 -62 -123 -129 -139c-53 -14 -69 -17 -87 -11c15 20 151 15 151 123c0 67 -52 114 -120 114c-38 0 -35 -40 -58 -128c-39 -149 -81 -275 -81 -275c-20 -69 43 -70 63 -80c-11 -15 -48 -9 -8 -12c-6 0 -69 6 -113 6
c-28 0 -115 -4 -131 -8c-4 3 -2 6 0 9c36 11 96 15 110 61l106 360c20 63 -54 55 -83 55c-13 0 -4 7 -7 13c40 3 68 8 109 8c2 0 46 11 124 11z" />
    <glyph glyph-name="Q" unicode="Q" horiz-adv-x="602" 
d="M399 516c115 0 192 -73 192 -180c0 -113 -59 -216 -104 -253c-26 -20 -83 -61 -156 -80l147 -141c77 -75 180 -119 239 -135c56 -19 146 -32 231 32c54 42 46 25 6 -7c-39 -33 -124 -120 -281 -72c-158 46 -169 68 -250 146c0 0 -132 126 -172 164c-66 0 -208 0 -208 200
c0 139 118 326 356 326zM133 199c0 -108 55 -183 165 -183c133 0 209 177 209 279c0 100 -40 200 -165 200c-119 0 -209 -179 -209 -296z" />
    <glyph glyph-name="R" unicode="R" horiz-adv-x="513" 
d="M43 -1c-20 -1 -28 4 0 7c27 2 60 33 67 70c0 0 23 106 35 160c13 54 31 156 31 156c8 44 11 101 -53 105c-65 4 -29 11 0 12c28 1 66 1 81 3c15 1 116 1 116 1c65 0 131 -23 131 -105c0 -64 -30 -114 -121 -140l63 -196c33 -102 104 -189 147 -231
c43 -43 115 -97 222 -79c66 10 51 0 1 -10s-166 -47 -283 68s-116 141 -152 247c0 0 -48 141 -66 193c-14 -2 -32 3 -42 8l-43 -190c-8 -35 -2 -66 58 -70c60 -3 28 -10 -3 -8c-32 2 -65 3 -94 3c-28 0 -90 -3 -95 -4zM262 497l-39 -205c9 -14 31 -26 74 -15
c52 13 88 58 88 121c0 62 -71 101 -90 100z" />
    <glyph glyph-name="S" unicode="S" horiz-adv-x="389" 
d="M348 522c10 0 71 -13 71 -28c0 0 -38 -75 -40 -76c-14 32 0 70 -75 70c-76 0 -89 -48 -89 -100c0 -64 97 -105 97 -251c0 -72 -75 -147 -156 -147c-11 0 -110 34 -134 34c-19 0 -10 -17 -44 -37c13 37 15 37 24 73c1 4 11 48 23 58c10 -14 3 -97 142 -97c17 0 71 7 71 92
c0 122 -92 175 -92 250c0 101 113 159 202 159z" />
    <glyph glyph-name="T" unicode="T" horiz-adv-x="575" 
d="M661 553c-3 -14 -27 -40 -53 -73c-25 -34 -35 -54 -65 -67c15 28 45 49 40 64c-5 20 -51 16 -51 16c-71 2 -100 0 -139 0c-11 -20 -116 -275 -89 -207c28 67 -76 -200 -76 -200c-15 -41 39 -75 91 -78l-1 -12c-70 2 -72 4 -142 7c-43 0 -113 2 -160 -12c0 4 -3 10 -5 15
c112 17 127 37 179 171c0 0 120 274 127 313c-29 6 -174 2 -176 3c-2 -1 -27 -17 -42 -31c-2 -3 -31 -25 -58 -40c32 42 40 55 52 70c11 16 29 41 45 60c0 -2 -6 -42 2 -42c18 -1 38 -2 194 -1c84 1 271 -1 279 11c10 12 39 27 48 33z" />
    <glyph glyph-name="U" unicode="U" horiz-adv-x="603" 
d="M665 512c18 0 1 -1 3 -6c-71 -4 -82 -36 -104 -83c0 0 -76 -223 -145 -305c-56 -68 -111 -126 -231 -126c-68 0 -134 36 -134 119c0 74 87 310 87 310c14 53 3 80 -38 83c-19 2 -11 8 -4 8c16 0 75 -4 104 -3c28 1 71 2 88 3c12 0 25 -8 -6 -9c-42 0 -67 -13 -94 -105
c0 0 -74 -200 -74 -254c0 -106 69 -126 116 -126c121 0 214 156 273 303c27 66 36 131 36 137c0 42 -23 43 -58 48c0 0 -16 6 4 6s86 -4 86 -4s41 4 91 4z" />
    <glyph glyph-name="V" unicode="V" horiz-adv-x="570" 
d="M294 505c-62 -11 -58 -28 -53 -58c0 0 62 -338 66 -369c3 0 29 48 65 107c21 35 126 274 126 274c15 35 -53 47 -90 47c-12 0 -16 4 4 7c20 -1 71 -4 119 -4c46 0 90 2 99 2c19 1 11 -6 1 -7c-48 -4 -83 -18 -98 -50c0 0 -106 -194 -171 -323c-18 -35 -59 -113 -100 -179
c-12 52 -43 236 -63 360c-9 56 -38 156 -38 156c-8 32 -16 28 -68 35c-4 1 0 8 5 8c15 -1 56 -1 98 -1c43 -1 87 3 97 3c16 1 5 -7 1 -8z" />
    <glyph glyph-name="W" unicode="W" horiz-adv-x="763" 
d="M459 381c20 44 35 78 35 78c9 18 -5 29 -26 37c-26 -11 -25 -26 -21 -49c0 0 5 -27 12 -66zM589 503c-47 -5 -45 -19 -60 -49c0 0 -26 -49 -61 -115c20 -101 49 -241 49 -261c3 0 29 48 65 107c21 35 126 274 126 274c14 32 -10 44 -47 44c-6 0 -8 10 -3 10
c20 0 29 -4 76 -4c45 0 89 2 98 2c18 0 11 -7 1 -7c-47 -4 -81 -17 -97 -48c0 0 -94 -191 -158 -318c-17 -34 -66 -110 -107 -174c-10 43 -33 176 -52 289c-21 -39 -40 -80 -58 -115c-17 -34 -58 -110 -99 -174c-12 50 -42 230 -62 352c-9 55 -37 152 -37 152
c-8 32 -15 29 -67 35c-3 0 0 8 6 8c13 0 54 -1 95 -1c42 0 76 3 87 3c16 0 5 -8 1 -8c-62 -10 -53 -27 -48 -57c0 0 66 -330 69 -360c3 0 28 45 63 104c8 12 26 50 45 93c0 10 -5 21 -5 31c-9 55 -37 152 -37 152c-8 32 -18 35 -47 36c-3 0 0 8 6 8c12 0 27 -2 64 -2
c0 0 125 -1 130 -1c32 0 51 4 69 4c6 -1 3 -10 -5 -10z" />
    <glyph glyph-name="X" unicode="X" horiz-adv-x="664" 
d="M406 318c67 57 118 107 132 120c48 44 34 64 -25 64c-20 0 -53 17 -2 11c51 -5 105 0 175 0s34 -13 -10 -16c-37 0 -99 -52 -118 -71c-22 -22 -79 -65 -142 -129c32 -64 69 -139 106 -217c0 0 11 -66 81 -72c25 0 22 -11 -3 -11c-65 5 -117 7 -186 0c-15 0 -54 3 1 10
c55 6 62 16 36 60c-11 20 -48 100 -87 182c-102 -91 -184 -184 -197 -196c-24 -24 -31 -25 28 -42c60 -18 59 -19 -22 -13c-80 6 -127 1 -162 1c-67 0 -49 9 -1 14c48 6 73 10 110 40c21 16 122 121 233 219c-41 91 -85 180 -97 191c-24 24 -29 40 -56 40
c-22 0 -44 10 -1 10h170c44 0 40 0 5 -6c-35 -7 -56 -14 -51 -24c10 -17 41 -80 83 -165z" />
    <glyph glyph-name="Y" unicode="Y" horiz-adv-x="583" 
d="M328 258l134 150c61 60 81 95 12 97c-19 1 -27 9 -1 8s125 -2 155 1c15 3 17 -6 -2 -6c-52 -3 -112 -76 -142 -106l-136 -153l-50 -185c-8 -32 25 -51 54 -53c27 -3 10 -11 -4 -11c-12 0 -159 4 -185 0c-27 -4 -23 7 1 11c25 3 54 26 63 53l48 179l-77 188
c-15 37 -33 71 -71 72c-19 0 -23 10 -4 10c20 -2 193 0 220 0c26 0 4 -10 -5 -10c-43 1 -94 -12 -67 -76z" />
    <glyph glyph-name="Z" unicode="Z" horiz-adv-x="566" 
d="M57 -2c-75 -5 -76 -1 -27 43c28 22 381 357 462 429c14 13 37 18 -8 18c-53 -1 -105 -1 -105 -1c-62 -1 -184 0 -215 -69c-28 -70 2 33 -2 17s22 85 21 78c0 -6 6 41 20 -9c54 -5 317 7 397 6c51 -1 21 -7 -4 -32c-7 -9 -431 -403 -460 -431c-28 -31 -38 -30 -3 -29
c36 1 257 7 257 7c52 1 113 54 123 75c12 22 34 41 9 -5c-28 -47 -34 -69 -39 -79c-10 -18 -2 -23 -46 -18c-47 5 -275 7 -380 0z" />
    <glyph glyph-name="bracketleft" unicode="[" horiz-adv-x="215" 
d="M-5 -153l170 799h86c9 0 11 -11 -3 -12c-15 0 -50 6 -56 -27l-153 -718c-7 -36 29 -30 44 -30c14 -1 7 -12 -2 -12h-86z" />
    <glyph glyph-name="backslash" unicode="\" horiz-adv-x="400" 
d="M382 -12h-35l-329 649h35z" />
    <glyph glyph-name="bracketright" unicode="]" horiz-adv-x="215" 
d="M92 -153h-86c-9 0 -11 11 2 12c15 0 50 -6 58 30l152 718c7 33 -30 27 -45 27c-13 1 -6 12 3 12h86z" />
    <glyph glyph-name="asciicircum" unicode="^" horiz-adv-x="373" 
d="M350 413c-5 7 -54 79 -61 80c-6 -1 -86 -76 -91 -80c-6 -6 -15 -7 2 9c13 11 87 124 106 143c11 -17 44 -129 50 -144c5 -12 -2 -14 -6 -8z" />
    <glyph glyph-name="grave" unicode="`" horiz-adv-x="373" 
d="M320 410l-18 10l-88 223l74 -20z" />
    <glyph glyph-name="a" unicode="a" horiz-adv-x="358" 
d="M214 125c-36 -31 -133 -140 -166 -138c-34 1 -29 28 -29 55c0 26 41 192 100 243c59 50 104 72 167 80c5 14 9 28 9 28l48 -6c-9 -19 -12 -39 -17 -57c-12 -40 -62 -223 -62 -223c-8 -29 -11 -62 -2 -62c19 0 49 33 66 58c16 25 33 34 9 -6s-78 -107 -117 -107
s-6 135 -6 135zM278 342c-50 5 -122 -40 -154 -107c-31 -65 -52 -160 -14 -160c28 0 83 43 108 68c10 37 52 168 60 199z" />
    <glyph glyph-name="b" unicode="b" horiz-adv-x="317" 
d="M37 -9c-31 0 -35 10 -35 32c0 23 56 208 66 251c11 43 68 267 68 267c10 40 11 65 -14 70c-35 7 -37 10 -18 14c22 5 82 23 112 40c-12 -37 -48 -198 -59 -249c-9 -35 -17 -71 -25 -105c28 29 83 78 107 78c29 0 74 -15 74 -83s-74 -176 -95 -198
c-20 -23 -122 -117 -181 -117zM227 352c-47 0 -109 -110 -115 -129c-4 -10 -67 -188 -14 -188c46 0 140 183 152 215c6 17 3 102 -23 102z" />
    <glyph glyph-name="c" unicode="c" horiz-adv-x="300" 
d="M88 -10c-31 0 -73 28 -73 78c0 63 48 194 83 235c31 37 114 90 169 90c36 0 81 -33 81 -55c0 -21 -31 -40 -50 -38c-18 2 -15 41 -28 51s-43 9 -72 -3c-40 -18 -93 -95 -110 -158c-16 -63 -33 -142 19 -142c51 0 81 17 103 35c22 19 72 50 30 -5s-120 -88 -152 -88z" />
    <glyph glyph-name="d" unicode="d" horiz-adv-x="386" 
d="M406 664c-8 -20 -8 -39 -18 -79c-50 -173 -94 -444 -94 -444c-2 -12 -16 -98 1 -98c14 0 48 40 58 54c36 55 39 45 10 -5c-20 -33 -75 -110 -111 -110c-35 0 -26 89 -15 152c-32 -35 -145 -142 -179 -142c-28 1 -45 19 -45 72c0 64 27 136 63 184c57 77 94 105 115 113
c20 13 74 39 91 15c7 23 42 178 42 178c20 84 1 74 -39 74c-22 0 -32 15 4 17c48 3 99 9 117 19zM101 63c47 0 129 72 146 127c10 33 21 97 26 130c5 23 -2 42 -19 42c-45 0 -128 -76 -150 -139c-21 -64 -31 -160 -3 -160z" />
    <glyph glyph-name="e" unicode="e" horiz-adv-x="305" 
d="M97 178c-15 -95 -10 -181 121 -106c27 16 62 43 14 -5c-47 -47 -206 -135 -208 -5c-1 106 49 226 78 261c28 35 159 110 188 42c0 0 17 -40 20 -52c-37 -61 -213 -133 -213 -135zM245 275c3 23 -10 57 -23 70c-48 48 -81 -30 -89 -53c-9 -23 -23 -52 -25 -79
c0 0 80 27 137 62z" />
    <glyph glyph-name="f" unicode="f" horiz-adv-x="251" 
d="M101 337c0 1 57 193 57 193c27 95 161 138 220 127c58 -12 120 -63 -9 -55c-56 3 -65 36 -103 13c-42 -26 -45 -55 -53 -90l-44 -183c37 -2 79 -8 94 -5c73 13 26 -4 -15 -36c-10 -8 -87 -5 -87 -5l-100 -359c-35 -126 -63 -205 -225 -250c-106 -30 -72 -23 -139 5
c-21 9 -5 48 69 48c50 0 3 -61 158 17c32 15 62 106 80 181l89 355s-55 3 -72 9c10 16 27 22 33 26c10 5 25 8 47 9z" />
    <glyph glyph-name="g" unicode="g" horiz-adv-x="342" 
d="M79 137c-8 11 -53 8 -53 86c0 79 80 164 173 164c47 0 42 -5 65 -15l117 45s17 -25 7 -45c-32 -10 -35 -5 -104 -29c0 0 5 -33 5 -41c0 -84 -116 -164 -145 -164c-20 0 -86 -28 -35 -68c52 -40 167 -172 167 -252s-67 -150 -205 -150c-139 0 -200 32 -200 94
c0 101 194 174 207 176c46 9 97 15 5 -20c-58 -21 -139 -103 -139 -135c0 -25 25 -78 127 -78c103 0 141 52 140 115c-1 53 -114 177 -133 200c-55 65 -26 79 1 117zM193 372c-60 0 -112 -97 -112 -145c0 -35 12 -72 48 -72c37 0 94 75 94 137c0 61 -17 78 -30 80z" />
    <glyph glyph-name="h" unicode="h" horiz-adv-x="383" 
d="M11 0c34 113 73 237 90 290c16 53 76 239 76 239c29 92 -2 83 -37 93c-22 6 -25 13 0 18c36 7 84 10 103 18c20 9 32 19 17 -31s-67 -241 -122 -405c0 0 96 165 194 165c38 0 42 -79 42 -102c0 -47 -86 -302 -176 -302c-29 0 -36 2 -36 30c0 29 29 40 44 27
c22 -20 35 0 53 35c19 35 85 253 19 253c-65 1 -109 -87 -149 -140c-19 -43 -64 -188 -64 -188h-54z" />
    <glyph glyph-name="i" unicode="i" horiz-adv-x="253" 
d="M59 -10c-31 0 -37 17 -32 35c6 20 42 94 61 131c20 37 68 137 68 137c4 10 17 37 -8 20c-25 -16 -91 -45 -51 -12s104 70 125 83c21 14 31 16 18 -18c-12 -34 -72 -165 -92 -208c-21 -44 -38 -81 -38 -81c-21 -39 -7 -37 16 -19c17 14 50 49 61 62c26 33 23 12 9 -7
c-14 -20 -83 -123 -137 -123zM194 565c-21 15 -10 50 9 70c15 18 40 30 60 16c20 -15 9 -46 -7 -66c-15 -19 -42 -34 -62 -20z" />
    <glyph glyph-name="j" unicode="j" horiz-adv-x="252" 
d="M194 565c-21 15 -10 50 9 70c15 18 40 30 60 16c20 -15 9 -46 -7 -66c-15 -19 -42 -34 -62 -20zM-64 -167c9 19 133 286 152 323c20 37 68 137 68 137c17 35 14 29 -24 11c-24 -11 -75 -36 -35 -3s104 70 125 83c21 14 31 16 18 -18c-12 -34 -72 -165 -92 -208
c-21 -44 -164 -343 -164 -343c-19 -38 -73 -145 -173 -145c-94 0 -99 51 -99 71c0 26 43 67 53 22s-12 -81 48 -81c52 0 108 121 123 151z" />
    <glyph glyph-name="k" unicode="k" horiz-adv-x="379" 
d="M129 188c-19 -43 -64 -188 -64 -188h-54c34 113 73 237 90 290c16 53 76 239 76 239c29 92 -2 83 -37 93c-22 6 -25 13 0 18c36 7 84 10 103 18c20 9 32 19 17 -31s-67 -241 -122 -405c0 0 84 160 180 160c15 0 50 -10 50 -52c0 -75 -123 -138 -176 -152
c13 -25 121 -168 161 -138c22 17 19 -6 3 -17c-17 -11 -47 -43 -67 -41c-15 20 -102 98 -160 206zM133 200c19 -6 35 -17 52 -13c17 3 128 90 128 110s4 30 -33 30s-110 -72 -147 -127z" />
    <glyph glyph-name="l" unicode="l" horiz-adv-x="215" 
d="M18 -7c-17 0 -15 10 -15 21s89 244 117 318c28 73 104 251 104 251c17 40 4 50 -33 56c-36 7 -13 9 5 12s81 7 125 17c-25 -37 -116 -265 -146 -343s-72 -187 -72 -187c-5 -14 -38 -75 15 -38c54 37 92 55 54 15c-39 -40 -130 -122 -154 -122z" />
    <glyph glyph-name="m" unicode="m" horiz-adv-x="600" 
d="M18 0c24 61 48 117 61 157c14 40 47 125 47 125c24 72 -5 67 -52 30c-41 -34 -25 -5 -6 10c18 15 60 63 100 63s28 -62 18 -98c0 0 138 100 173 100s32 -60 14 -112c0 0 125 112 163 112c34 0 36 -23 36 -49c0 -100 -83 -256 -83 -256c-31 -82 -4 -39 39 8
c21 24 38 33 10 -8c-29 -42 -64 -89 -102 -89c-51 0 -8 67 22 139c30 71 75 196 44 196c-32 0 -93 -42 -143 -83c0 0 -21 -55 -33 -85c-13 -32 -38 -97 -63 -157l-57 -1c22 61 48 130 60 160s72 168 34 168s-95 -52 -131 -75c0 0 -26 -70 -40 -107c-13 -36 -35 -90 -56 -148
h-55z" />
    <glyph glyph-name="n" unicode="n" horiz-adv-x="398" 
d="M22 -3c13 49 26 95 38 128s57 165 57 165c26 74 10 83 -38 39c-32 -30 -32 -9 -15 8c24 23 49 51 98 51c40 0 31 -65 11 -100c54 34 122 99 162 99c30 0 34 -48 25 -77l-65 -200c-5 -16 -33 -113 33 -27c17 22 48 72 10 -10c-10 -21 -58 -76 -98 -76c-38 0 -21 45 -12 71
c0 0 25 77 35 109c10 31 28 86 28 86c6 20 5 65 -23 65c-29 0 -90 -59 -106 -72c-5 -15 -81 -245 -85 -256c-14 -2 -55 -3 -55 -3z" />
    <glyph glyph-name="o" unicode="o" horiz-adv-x="279" 
d="M15 157c0 68 98 234 188 235c40 0 71 -52 71 -127c0 -115 -147 -273 -211 -273c-23 0 -48 96 -48 165zM214 262c0 28 -2 114 -26 115c-36 1 -116 -170 -116 -219c0 -48 5 -128 21 -128c44 0 121 193 121 232z" />
    <glyph glyph-name="p" unicode="p" horiz-adv-x="339" 
d="M-119 -302c-14 -2 -27 7 -2 9c49 3 58 30 80 99l136 442c13 43 25 63 -5 38c-8 -7 -38 -28 -52 -38c-41 -28 -54 -28 -5 14c29 24 55 48 89 72l31 104s22 -13 44 -25c-3 -19 -8 -45 -8 -45c23 8 35 17 77 17s65 -19 65 -72c0 -54 -33 -131 -63 -180
c-50 -82 -143 -133 -164 -141c-22 -11 -15 5 -23 23c-8 -23 -54 -168 -54 -168c-17 -53 -46 -146 -4 -146c24 0 36 -15 11 -13c-46 5 -58 8 -79 9c-21 2 -72 2 -74 1zM238 363c-16 1 -40 -9 -59 -23c-16 -47 -36 -115 -48 -157c-17 -55 -53 -158 -16 -158
c38 0 130 138 150 202c25 78 29 130 -27 136z" />
    <glyph glyph-name="q" unicode="q" horiz-adv-x="358" 
d="M80 -2c-28 0 -48 70 -48 104c0 19 22 125 69 186c57 75 110 99 139 99c47 0 37 -37 48 -37c8 0 31 16 58 32c0 0 -94 -265 -111 -319c-17 -55 -100 -299 -100 -299c-18 -55 -2 -77 53 -81c50 -3 39 -14 11 -14c-31 0 -73 8 -104 7c-31 -2 -65 -3 -82 -4
c-18 -2 -30 9 3 16c32 8 47 10 67 77c0 0 55 180 65 211c9 32 18 53 26 87c-37 -36 -65 -64 -94 -65zM230 369c-22 0 -71 -76 -82 -94c-12 -18 -47 -116 -55 -152c-9 -36 -10 -90 10 -90s68 53 90 93c21 40 54 124 59 162c5 39 -2 83 -22 81z" />
    <glyph glyph-name="r" unicode="r" horiz-adv-x="312" 
d="M33 2c24 65 42 101 52 136s36 106 42 130c18 74 5 77 -32 39c-22 -23 -70 -49 -35 -7s55 87 90 87s40 -25 39 -37c-1 -20 -10 -54 -19 -93c0 0 37 78 50 95c13 16 40 40 72 40c31 0 50 -24 48 -47s-11 -38 -35 -47c-12 -4 -28 -5 -35 15c-5 15 -12 20 -23 19
c-22 -2 -37 -39 -54 -72c-16 -33 -40 -107 -55 -147s-25 -69 -41 -111h-64z" />
    <glyph glyph-name="s" unicode="s" horiz-adv-x="274" 
d="M33 -19c-35 1 -48 11 -48 27c0 15 33 50 48 50s32 -45 54 -47c21 -2 52 8 54 33c2 47 -28 168 -31 194c-2 30 -6 69 16 99c12 16 72 51 93 51c37 0 72 -15 70 -31c-1 -17 -15 -54 -36 -52c-22 2 -26 58 -46 57c-20 -2 -49 -67 -41 -110c8 -44 35 -156 32 -184
c-4 -29 -31 -60 -58 -69c-27 -8 -110 -18 -107 -18z" />
    <glyph glyph-name="t" unicode="t" horiz-adv-x="245" 
d="M38 -5c-33 0 -23 23 -16 52c6 28 30 100 43 138s34 97 57 157l-76 -2l16 18l76 24l21 55l69 31l-33 -85l110 4l-12 -42l-120 -2c-18 -59 -38 -121 -48 -153s-25 -67 -30 -95s-8 -48 18 -28c27 20 32 21 45 38c14 17 39 25 9 -17c-30 -41 -95 -93 -129 -93z" />
    <glyph glyph-name="u" unicode="u" horiz-adv-x="390" 
d="M78 -3c-26 0 -39 40 -39 65s20 96 34 135c13 38 34 101 34 101c18 53 7 42 -27 2c-48 -56 -64 -50 -15 3c48 52 73 85 101 85c27 0 9 -41 -8 -86c-16 -45 -50 -162 -50 -162c-10 -30 -25 -85 5 -83c30 1 115 90 126 105c10 15 25 18 39 48s54 155 59 167c4 11 26 6 46 10
c-14 -47 -45 -152 -52 -184c-8 -31 -23 -106 -23 -106c-10 -51 8 -55 39 -10c21 30 41 42 7 -7c-32 -48 -51 -83 -83 -83c-33 0 -12 125 -9 138c6 35 31 77 -26 13c-57 -63 -124 -151 -158 -151z" />
    <glyph glyph-name="v" unicode="v" horiz-adv-x="353" 
d="M85 -12c3 58 3 112 8 150c5 39 9 173 9 173c0 9 -4 67 -30 20c-29 -50 -39 -48 -19 -4c20 43 52 67 87 65c25 -2 27 -9 22 -70c-5 -62 -9 -157 -37 -264c0 0 50 89 87 147c41 67 53 98 78 175l42 13c-19 -75 -67 -155 -87 -191c-20 -37 -91 -137 -160 -214z" />
    <glyph glyph-name="w" unicode="w" horiz-adv-x="495" 
d="M302 305c-22 -48 -50 -79 -64 -103c-20 -37 -90 -137 -160 -214c4 58 4 112 9 150c5 39 8 173 8 173c0 44 3 62 -27 17c-35 -52 -46 -40 -21 -1c26 41 51 65 86 65c25 0 27 -9 22 -70c-5 -62 -7 -142 -37 -264c0 0 62 85 99 144c36 57 73 126 73 126c22 42 17 49 -13 8
c-22 -29 -44 -32 -15 7c31 43 46 49 81 49c25 0 21 -12 16 -74c-5 -61 -7 -145 -36 -263c0 0 58 82 95 140c41 67 45 105 70 182l43 14c-18 -76 -68 -156 -88 -193c-20 -36 -89 -138 -160 -213c3 58 3 112 8 150c4 34 11 146 11 170z" />
    <glyph glyph-name="x" unicode="x" horiz-adv-x="454" 
d="M71 50l-18 -54c-38 0 -20 67 -11 83c11 23 21 45 7 -6c-8 -27 4 -39 22 -23zM392 338l26 48c38 -1 20 -68 10 -83c-10 -25 -20 -45 -6 5c8 28 -12 51 -34 30c-11 -11 -73 -61 -112 -112c24 -49 35 -100 64 -158c25 -49 64 -53 64 9c0 19 10 14 10 -4
c0 -57 -14 -79 -71 -79c-45 0 -71 74 -61 52s-38 102 -56 138c-48 -44 -98 -115 -117 -139c-21 -27 -31 -49 -56 -49c-38 0 -20 67 -11 83c11 23 21 45 7 -6c-8 -27 4 -39 22 -23c13 12 54 62 68 77s37 51 76 85c-32 69 -48 108 -57 117s-12 37 -25 37c-14 0 -29 -5 -29 -19
c0 -21 -14 -34 -14 -8c0 32 29 51 67 51c26 0 39 -6 49 -21s34 -69 59 -119c56 57 128 136 153 136c38 -1 20 -68 10 -83c-10 -25 -20 -45 -6 5c8 28 -10 51 -30 30z" />
    <glyph glyph-name="y" unicode="y" horiz-adv-x="387" 
d="M-118 -328c-34 0 -30 16 -30 38s6 47 36 47s34 -2 40 -7c7 -5 4 -27 37 -3c33 23 158 126 181 243s22 273 -16 323s-52 25 -78 -10c-27 -35 -37 -25 -19 12c19 37 37 78 80 78c44 0 82 -25 99 -108c16 -83 15 -134 -9 -243c0 0 117 243 120 338c19 10 39 13 39 13
c-15 -135 -55 -225 -90 -298s-100 -188 -137 -237c-37 -48 -178 -186 -253 -186z" />
    <glyph glyph-name="z" unicode="z" horiz-adv-x="373" 
d="M131 155c41 48 94 116 139 176c-17 11 -97 32 -119 35c-16 2 -54 1 -88 -17c-40 -21 -44 -16 5 13c38 22 77 36 95 36c46 0 131 -30 207 -26c-57 -79 -141 -178 -183 -229c-41 -49 -68 -85 -102 -122c48 9 86 10 130 6c43 -4 94 -57 127 -60c34 -3 57 -12 71 -3
c32 20 50 17 7 -10c-36 -22 -62 -39 -96 -36c-33 3 -116 74 -131 74c-24 3 -147 30 -195 1c-12 -7 90 111 133 162z" />
    <glyph glyph-name="braceleft" unicode="{" horiz-adv-x="744" 
d="M141 266c0 0 154 88 168 117c16 31 -6 86 -50 86s-110 -105 -118 -203zM631 593c25 0 25 -10 112 3c41 6 6 25 6 38c0 15 16 33 26 33c19 0 31 -22 31 -44c0 -16 -2 -41 -43 -44c-65 -4 -88 -9 -88 -62c0 -52 34 -208 -11 -327c-25 -65 -58 -119 -91 -152
c-80 -80 -160 -105 -284 -105c-134 0 -243 115 -241 283c1 138 115 271 215 271c87 0 139 -65 113 -112c-15 -27 -238 -126 -238 -126c-4 -29 -4 -58 1 -85c6 -31 75 -206 194 -206c75 0 150 41 186 75c27 25 74 97 97 169c38 124 -3 283 -26 332c-22 48 -44 48 -64 51
c-35 6 -53 8 -55 -7c-3 -14 16 -20 16 -34c0 -15 -30 -18 -41 -18c-22 0 -28 36 -28 43c0 16 29 39 59 39c51 0 121 -15 154 -15z" />
    <glyph glyph-name="bar" unicode="|" horiz-adv-x="215" 
d="M129 -2h-35v649h35v-649z" />
    <glyph glyph-name="braceright" unicode="}" horiz-adv-x="823" 
d="M141 266c0 0 159 85 188 108c-6 44 -26 95 -70 95s-110 -105 -118 -203zM627 234c-22 48 -44 48 -64 51c-35 6 -53 8 -55 -7c-3 -14 15 -20 15 -34c0 -15 -30 -18 -40 -18c-22 0 -28 36 -28 43c0 16 28 39 58 39c52 0 122 -15 155 -15c25 0 25 -10 112 3c41 6 6 25 6 38
c0 15 16 33 26 33c19 0 31 -22 31 -44c0 -16 -2 -41 -44 -44c-64 -4 -87 -9 -87 -62c0 -92 -62 -172 -113 -216c-53 -47 -147 -81 -245 -81c-202 0 -308 128 -306 296c1 138 115 271 215 271c62 0 115 -39 127 -75c3 -8 125 61 195 116c32 25 -9 29 -16 40
c-7 14 13 45 21 50c17 9 51 -12 62 -32c8 -13 14 -49 -20 -73c-22 -14 -231 -125 -256 -138c-38 -18 -238 -126 -238 -126c0 -6 -4 -58 1 -85c6 -31 62 -219 209 -219c75 0 148 12 201 58c50 45 119 141 78 231z" />
    <glyph glyph-name="asciitilde" unicode="~" horiz-adv-x="373" 
d="M168 522c44 0 54 -44 100 -44c27 0 60 23 75 39c-9 -45 -83 -84 -133 -84c-46 0 -48 45 -92 45c-21 0 -65 -29 -81 -42c9 47 90 86 131 86z" />
    <glyph glyph-name="Adieresis" unicode="&#xc4;" horiz-adv-x="653" 
d="M528 497c-17 -17 -166 -175 -218 -220c35 -4 102 6 161 4c18 72 27 132 57 216zM126 53c-18 -22 -10 -39 17 -45c32 -6 24 -11 -3 -11s-63 1 -80 1s-21 -1 -39 -1c-20 0 -34 11 3 16c39 5 72 54 92 75c117 127 183 208 289 310c126 120 130 122 148 140
c16 16 45 31 37 -12c-4 -22 -8 -40 -12 -58l-80 -391c-5 -34 -2 -54 45 -61c42 -6 40 -21 12 -18c-53 6 -87 -6 -159 2c-114 12 12 6 25 53l44 208s-107 -3 -168 -3c-49 -54 -103 -120 -171 -205zM628 583c-16 12 -7 40 7 57c12 14 30 24 45 13c16 -12 8 -38 -4 -53
c-12 -16 -33 -28 -48 -17zM498 582c-16 11 -7 40 7 56c12 15 30 25 45 13c16 -12 8 -38 -4 -53s-33 -28 -48 -16z" />
    <glyph glyph-name="Aring" unicode="&#xc5;" horiz-adv-x="653" 
d="M528 497c-17 -17 -166 -175 -218 -220c35 -4 102 6 161 4c18 72 27 132 57 216zM126 53c-18 -22 -10 -39 17 -45c32 -6 24 -11 -3 -11s-63 1 -80 1s-21 -1 -39 -1c-20 0 -34 11 3 16c39 5 72 54 92 75c117 127 183 208 289 310c126 120 130 122 148 140
c16 16 45 31 37 -12c-4 -22 -8 -40 -12 -58l-80 -391c-5 -34 -2 -54 45 -61c42 -6 40 -21 12 -18c-53 6 -87 -6 -159 2c-114 12 12 6 25 53l44 208s-107 -3 -168 -3c-49 -54 -103 -120 -171 -205zM606 707c29 0 47 -32 41 -64c-7 -35 -37 -59 -64 -59c-30 0 -47 28 -41 60
c6 34 36 63 64 63zM603 694c-23 0 -43 -23 -48 -50c-4 -26 8 -50 30 -50c23 0 45 23 50 50c5 29 -9 50 -32 50z" />
    <glyph glyph-name="Ccedilla" unicode="&#xc7;" horiz-adv-x="476" 
d="M208 -14c-86 8 -165 71 -165 157v66c0 37 56 309 350 309c80 0 97 -20 130 -19c-1 -15 -50 -88 -59 -95c-7 21 -1 16 -1 55c0 11 -37 33 -129 33c-87 0 -200 -119 -200 -303c0 -116 60 -166 145 -166c95 0 99 60 134 76v-15c-50 -78 -128 -99 -186 -99
c-31 -28 -17 -21 -35 -36c11 -2 41 -35 36 -72c-14 -73 -104 -87 -115 -87c-9 0 -30 5 -36 10c-6 4 -17 13 -14 28c3 14 10 34 25 34c10 0 14 -2 20 -12c6 -12 -3 -43 10 -43c28 0 64 26 71 66c4 22 -27 53 -44 59c24 17 37 28 63 54z" />
    <glyph glyph-name="Eacute" unicode="&#xc9;" horiz-adv-x="518" 
d="M367 512c64 0 118 1 146 1c5 -40 11 -48 11 -93c-3 -18 -13 -10 -19 -3c-12 45 -28 79 -101 79c-28 0 -52 1 -78 1c-21 -50 -59 -165 -70 -196c22 -2 63 -6 63 -6c39 -2 53 2 88 45c10 0 13 8 13 0c0 0 -42 -104 -55 -130c-3 4 -7 6 -7 12c9 27 7 53 -44 56
c0 0 -60 5 -65 5c-9 -20 -75 -188 -75 -188c-16 -42 22 -73 92 -73c33 0 99 -2 120 9c41 15 50 85 68 85c12 0 -22 -88 -22 -104c0 -12 10 -15 -67 -14c0 0 -176 1 -184 1c-129 0 -202 -12 -202 14c0 16 91 -4 119 70c0 0 55 145 62 161l70 172c36 87 -25 73 -93 89
c5 13 3 3 9 12c55 -4 172 -5 221 -5zM461 768l-123 -213l23 10l182 223z" />
    <glyph glyph-name="Ntilde" unicode="&#xd1;" horiz-adv-x="748" 
d="M535 -34c-59 105 -114 207 -119 216c-44 77 -85 180 -129 232l-138 -352c-12 -34 44 -53 75 -54c6 -3 1 -9 4 -13c0 0 -88 9 -116 9c-15 0 -140 -3 -143 -3c-3 5 1 8 10 11c105 3 132 41 159 108c0 0 30 73 52 123c67 147 77 171 77 192c0 18 -43 52 -118 73
c7 5 7 7 10 9c7 1 27 -5 160 -5c39 0 20 -25 53 -92c0 0 107 -195 116 -209c18 -31 31 -68 55 -81l127 329c13 33 -41 33 -78 46c3 3 -8 8 -4 9c26 4 66 -3 135 -3c5 0 90 8 90 8l-5 -13c-106 -5 -115 -65 -138 -122c0 0 -114 -248 -118 -276c2 -11 1 -10 10 -28
c-3 -14 -29 -115 -27 -114zM497 654c36 0 46 -44 84 -44c23 0 52 23 65 39c-8 -45 -71 -83 -113 -83c-40 0 -42 44 -79 44c-18 0 -56 -28 -69 -42c8 47 77 86 112 86z" />
    <glyph glyph-name="Odieresis" unicode="&#xd6;" horiz-adv-x="591" 
d="M399 516c115 0 192 -73 192 -180c0 -113 -56 -212 -105 -253c-73 -60 -160 -92 -235 -93c-185 -3 -206 99 -206 201c0 143 116 325 354 325zM133 199c0 -108 55 -183 165 -183c133 0 209 177 209 279c0 100 -40 200 -165 200c-119 0 -209 -179 -209 -296zM437 568
c-17 11 -8 40 6 56c12 14 30 24 45 13c16 -12 8 -38 -4 -53c-11 -16 -32 -28 -47 -16zM307 566c-17 12 -8 40 6 57c12 14 30 24 45 12c16 -12 8 -37 -4 -52c-11 -16 -32 -29 -47 -17z" />
    <glyph glyph-name="Udieresis" unicode="&#xdc;" horiz-adv-x="603" 
d="M665 512c18 0 1 -1 3 -6c-71 -4 -82 -36 -104 -83c0 0 -76 -223 -145 -305c-56 -68 -111 -126 -231 -126c-68 0 -134 36 -134 119c0 74 87 310 87 310c14 53 3 80 -38 83c-19 2 -11 8 -4 8c16 0 75 -4 104 -3c28 1 71 2 88 3c12 0 25 -8 -6 -9c-42 0 -67 -13 -94 -105
c0 0 -74 -200 -74 -254c0 -106 69 -126 116 -126c121 0 214 156 273 303c27 66 36 131 36 137c0 42 -23 43 -58 48c0 0 -16 6 4 6s86 -4 86 -4s41 4 91 4zM443 568c-17 11 -8 40 6 56c12 14 30 24 45 13c16 -12 8 -38 -4 -53c-12 -16 -32 -28 -47 -16zM313 566
c-17 12 -8 40 6 57c12 14 30 24 45 12c16 -12 8 -37 -4 -52c-12 -16 -32 -29 -47 -17z" />
    <glyph glyph-name="aacute" unicode="&#xe1;" horiz-adv-x="358" 
d="M214 125c-36 -31 -133 -140 -166 -138c-34 1 -29 28 -29 55c0 26 41 192 100 243c59 50 104 72 167 80c5 14 9 28 9 28l48 -6c-9 -19 -12 -39 -17 -57c-12 -40 -62 -223 -62 -223c-8 -29 -11 -62 -2 -62c19 0 49 33 66 58c16 25 33 34 9 -6s-78 -107 -117 -107
s-6 135 -6 135zM278 342c-50 5 -122 -40 -154 -107c-31 -65 -52 -160 -14 -160c28 0 83 43 108 68c10 37 52 168 60 199zM308 623l-78 -213l21 10l135 223z" />
    <glyph glyph-name="agrave" unicode="&#xe0;" horiz-adv-x="358" 
d="M214 125c-36 -31 -133 -140 -166 -138c-34 1 -29 28 -29 55c0 26 41 192 100 243c59 50 104 72 167 80c5 14 9 28 9 28l48 -6c-9 -19 -12 -39 -17 -57c-12 -40 -62 -223 -62 -223c-8 -29 -11 -62 -2 -62c19 0 49 33 66 58c16 25 33 34 9 -6s-78 -107 -117 -107
s-6 135 -6 135zM278 342c-50 5 -122 -40 -154 -107c-31 -65 -52 -160 -14 -160c28 0 83 43 108 68c10 37 52 168 60 199zM244 410l-13 10l-5 228l62 -25z" />
    <glyph glyph-name="acircumflex" unicode="&#xe2;" horiz-adv-x="358" 
d="M214 125c-36 -31 -133 -140 -166 -138c-34 1 -29 28 -29 55c0 26 41 192 100 243c59 50 104 72 167 80c5 14 9 28 9 28l48 -6c-9 -19 -12 -39 -17 -57c-12 -40 -62 -223 -62 -223c-8 -29 -11 -62 -2 -62c19 0 49 33 66 58c16 25 33 34 9 -6s-78 -107 -117 -107
s-6 135 -6 135zM278 342c-50 5 -122 -40 -154 -107c-31 -65 -52 -160 -14 -160c28 0 83 43 108 68c10 37 52 168 60 199zM300 422c-5 7 -51 79 -57 80c-5 -1 -67 -76 -71 -80c-6 -6 -14 -7 1 9c9 12 65 124 80 143c10 -16 46 -129 51 -144c5 -12 0 -14 -4 -8z" />
    <glyph glyph-name="adieresis" unicode="&#xe4;" horiz-adv-x="358" 
d="M214 125c-36 -31 -133 -140 -166 -138c-34 1 -29 28 -29 55c0 26 41 192 100 243c59 50 104 72 167 80c5 14 9 28 9 28l48 -6c-9 -19 -12 -39 -17 -57c-12 -40 -62 -223 -62 -223c-8 -29 -11 -62 -2 -62c19 0 49 33 66 58c16 25 33 34 9 -6s-78 -107 -117 -107
s-6 135 -6 135zM278 342c-50 5 -122 -40 -154 -107c-31 -65 -52 -160 -14 -160c28 0 83 43 108 68c10 37 52 168 60 199zM313 438c-16 11 -7 40 7 56c12 14 30 24 45 13c16 -12 8 -38 -4 -53c-12 -16 -33 -28 -48 -16zM197 436c-17 12 -8 40 6 57c12 14 30 24 45 12
c16 -12 8 -37 -4 -52c-11 -16 -32 -29 -47 -17z" />
    <glyph glyph-name="atilde" unicode="&#xe3;" horiz-adv-x="358" 
d="M214 125c-36 -31 -133 -140 -166 -138c-34 1 -29 28 -29 55c0 26 41 192 100 243c59 50 104 72 167 80c5 14 9 28 9 28l48 -6c-9 -19 -12 -39 -17 -57c-12 -40 -62 -223 -62 -223c-8 -29 -11 -62 -2 -62c19 0 49 33 66 58c16 25 33 34 9 -6s-78 -107 -117 -107
s-6 135 -6 135zM278 342c-50 5 -122 -40 -154 -107c-31 -65 -52 -160 -14 -160c28 0 83 43 108 68c10 37 52 168 60 199zM222 519c43 0 62 -44 108 -44c28 0 55 23 68 39c0 -45 -66 -83 -116 -83c-46 0 -58 44 -101 44c-22 0 -60 -28 -73 -42c0 47 72 86 114 86z" />
    <glyph glyph-name="aring" unicode="&#xe5;" horiz-adv-x="358" 
d="M214 125c-36 -31 -133 -140 -166 -138c-34 1 -29 28 -29 55c0 26 41 192 100 243c59 50 104 72 167 80c5 14 9 28 9 28l48 -6c-9 -19 -12 -39 -17 -57c-12 -40 -62 -223 -62 -223c-8 -29 -11 -62 -2 -62c19 0 49 33 66 58c16 25 33 34 9 -6s-78 -107 -117 -107
s-6 135 -6 135zM278 342c-50 5 -122 -40 -154 -107c-31 -65 -52 -160 -14 -160c28 0 83 43 108 68c10 37 52 168 60 199zM228 562c34 0 61 -32 61 -64c0 -35 -31 -59 -63 -59c-34 0 -60 28 -60 60c0 34 30 63 62 63zM227 549c-27 0 -45 -23 -45 -50c0 -26 18 -50 45 -50
s48 23 48 50c0 29 -21 50 -48 50z" />
    <glyph glyph-name="ccedilla" unicode="&#xe7;" horiz-adv-x="300" 
d="M113 -8c-8 -1 -15 -2 -23 -2c-42 0 -75 27 -75 78c0 63 48 194 83 235c31 37 114 90 169 90c36 0 81 -33 81 -55c0 -21 -31 -40 -50 -38c-18 2 -15 41 -28 51s-43 9 -72 -3c-40 -18 -93 -95 -110 -158c-16 -63 -33 -142 19 -142c51 0 81 17 103 35c22 19 72 50 30 -5
c-17 -22 -38 -42 -62 -58c-11 -7 -22 -12 -33 -17c-22 -24 -48 -54 -55 -60c14 -2 57 -35 57 -71c0 -74 -102 -88 -116 -88c-10 0 -37 5 -45 10c-8 4 -22 13 -22 28s5 35 23 35c10 0 16 -3 25 -13c10 -12 6 -43 21 -43c33 0 70 26 70 66c0 22 -44 53 -65 60
c15 9 48 40 75 65z" />
    <glyph glyph-name="eacute" unicode="&#xe9;" horiz-adv-x="305" 
d="M97 178c-15 -95 -10 -181 121 -106c27 16 62 43 14 -5c-47 -47 -206 -135 -208 -5c-1 106 49 226 78 261c28 35 159 110 188 42c0 0 17 -40 20 -52c-37 -61 -213 -133 -213 -135zM245 275c3 23 -10 57 -23 70c-48 48 -81 -30 -89 -53c-9 -23 -23 -52 -25 -79
c0 0 80 27 137 62zM264 623l-77 -213l21 10l135 223z" />
    <glyph glyph-name="egrave" unicode="&#xe8;" horiz-adv-x="305" 
d="M97 178c-15 -95 -10 -181 121 -106c27 16 62 43 14 -5c-47 -47 -206 -135 -208 -5c-1 106 49 226 78 261c28 35 159 110 188 42c0 0 17 -40 20 -52c-37 -61 -213 -133 -213 -135zM245 275c3 23 -10 57 -23 70c-48 48 -81 -30 -89 -53c-9 -23 -23 -52 -25 -79
c0 0 80 27 137 62zM208 410l-13 10l-5 228l63 -25z" />
    <glyph glyph-name="ecircumflex" unicode="&#xea;" horiz-adv-x="305" 
d="M97 178c-15 -95 -10 -181 121 -106c27 16 62 43 14 -5c-47 -47 -206 -135 -208 -5c-1 106 49 226 78 261c28 35 159 110 188 42c0 0 17 -40 20 -52c-37 -61 -213 -133 -213 -135zM245 275c3 23 -10 57 -23 70c-48 48 -81 -30 -89 -53c-9 -23 -23 -52 -25 -79
c0 0 80 27 137 62zM268 422c-5 7 -51 79 -57 80c-5 -1 -68 -76 -72 -80c-6 -6 -13 -7 1 9c9 12 66 124 81 143c10 -16 46 -129 51 -144c5 -12 0 -14 -4 -8z" />
    <glyph glyph-name="edieresis" unicode="&#xeb;" horiz-adv-x="305" 
d="M97 178c-15 -95 -10 -181 121 -106c27 16 62 43 14 -5c-47 -47 -206 -135 -208 -5c-1 106 49 226 78 261c28 35 159 110 188 42c0 0 17 -40 20 -52c-37 -61 -213 -133 -213 -135zM245 275c3 23 -10 57 -23 70c-48 48 -81 -30 -89 -53c-9 -23 -23 -52 -25 -79
c0 0 80 27 137 62zM266 438c-17 11 -8 40 7 56c11 14 30 24 45 13c15 -12 7 -38 -5 -53c-11 -16 -32 -28 -47 -16zM149 436c-16 12 -7 40 7 57c12 14 30 24 45 12c16 -12 7 -37 -4 -52c-12 -16 -33 -29 -48 -17z" />
    <glyph glyph-name="iacute" unicode="&#xed;" horiz-adv-x="253" 
d="M59 -10c-31 0 -37 17 -32 35c6 20 42 94 61 131c20 37 68 137 68 137c4 10 17 37 -8 20c-25 -16 -91 -45 -51 -12s104 70 125 83c21 14 31 16 18 -18c-12 -34 -72 -165 -92 -208c-21 -44 -38 -81 -38 -81c-21 -39 -7 -37 16 -19c17 14 50 49 61 62c26 33 23 12 9 -7
c-14 -20 -83 -123 -137 -123zM284 627l-77 -213l21 10l135 223z" />
    <glyph glyph-name="igrave" unicode="&#xec;" horiz-adv-x="253" 
d="M59 -10c-31 0 -37 17 -32 35c6 20 42 94 61 131c20 37 68 137 68 137c4 10 17 37 -8 20c-25 -16 -91 -45 -51 -12s104 70 125 83c21 14 31 16 18 -18c-12 -34 -72 -165 -92 -208c-21 -44 -38 -81 -38 -81c-21 -39 -7 -37 16 -19c17 14 50 49 61 62c26 33 23 12 9 -7
c-14 -20 -83 -123 -137 -123zM231 414l-13 10l-5 228l62 -25z" />
    <glyph glyph-name="icircumflex" unicode="&#xee;" horiz-adv-x="253" 
d="M59 -10c-31 0 -37 17 -32 35c6 20 42 94 61 131c20 37 68 137 68 137c4 10 17 37 -8 20c-25 -16 -91 -45 -51 -12s104 70 125 83c21 14 31 16 18 -18c-12 -34 -72 -165 -92 -208c-21 -44 -38 -81 -38 -81c-21 -39 -7 -37 16 -19c17 14 50 49 61 62c26 33 23 12 9 -7
c-14 -20 -83 -123 -137 -123zM288 422c-5 7 -50 79 -56 80c-5 -1 -68 -76 -72 -80c-6 -6 -13 -7 1 9c9 12 66 124 81 143c10 -16 46 -129 51 -144c5 -12 0 -14 -5 -8z" />
    <glyph glyph-name="idieresis" unicode="&#xef;" horiz-adv-x="253" 
d="M59 -10c-31 0 -37 17 -32 35c6 20 42 94 61 131c20 37 68 137 68 137c4 10 17 37 -8 20c-25 -16 -91 -45 -51 -12s104 70 125 83c21 14 31 16 18 -18c-12 -34 -72 -165 -92 -208c-21 -44 -38 -81 -38 -81c-21 -39 -7 -37 16 -19c17 14 50 49 61 62c26 33 23 12 9 -7
c-14 -20 -83 -123 -137 -123zM253 443c-15 11 -7 36 5 51c11 14 27 22 41 12c14 -11 7 -34 -4 -48s-29 -25 -42 -15zM173 442c-15 11 -8 36 5 51c10 13 27 22 40 11c15 -11 7 -33 -3 -47c-11 -14 -29 -25 -42 -15z" />
    <glyph glyph-name="ntilde" unicode="&#xf1;" horiz-adv-x="398" 
d="M22 -3c13 49 26 95 38 128s57 165 57 165c26 74 10 83 -38 39c-32 -30 -32 -9 -15 8c24 23 49 51 98 51c40 0 31 -65 11 -100c54 34 122 99 162 99c30 0 34 -48 25 -77l-65 -200c-5 -16 -33 -113 33 -27c17 22 48 72 10 -10c-10 -21 -58 -76 -98 -76c-38 0 -21 45 -12 71
c0 0 25 77 35 109c10 31 28 86 28 86c6 20 5 65 -23 65c-29 0 -90 -59 -106 -72c-5 -15 -81 -245 -85 -256c-14 -2 -55 -3 -55 -3zM222 519c43 0 62 -44 108 -44c28 0 55 23 68 39c0 -45 -66 -83 -116 -83c-46 0 -58 44 -101 44c-22 0 -60 -28 -73 -42c0 47 72 86 114 86z
" />
    <glyph glyph-name="oacute" unicode="&#xf3;" horiz-adv-x="279" 
d="M15 157c0 68 98 234 188 235c40 0 71 -52 71 -127c0 -115 -147 -273 -211 -273c-23 0 -48 96 -48 165zM214 262c0 28 -2 114 -26 115c-36 1 -116 -170 -116 -219c0 -48 5 -128 21 -128c44 0 121 193 121 232zM266 638l-78 -212l21 10l135 222z" />
    <glyph glyph-name="ograve" unicode="&#xf2;" horiz-adv-x="279" 
d="M15 157c0 68 98 234 188 235c40 0 71 -52 71 -127c0 -115 -147 -273 -211 -273c-23 0 -48 96 -48 165zM214 262c0 28 -2 114 -26 115c-36 1 -116 -170 -116 -219c0 -48 5 -128 21 -128c44 0 121 193 121 232zM201 428l-13 10l-5 227l62 -25z" />
    <glyph glyph-name="ocircumflex" unicode="&#xf4;" horiz-adv-x="279" 
d="M15 157c0 68 98 234 188 235c40 0 71 -52 71 -127c0 -115 -147 -273 -211 -273c-23 0 -48 96 -48 165zM214 262c0 28 -2 114 -26 115c-36 1 -116 -170 -116 -219c0 -48 5 -128 21 -128c44 0 121 193 121 232zM260 422c-5 7 -51 79 -57 80c-5 -1 -67 -76 -71 -80
c-6 -6 -14 -7 1 9c9 12 65 124 80 143c10 -16 46 -129 51 -144c5 -12 0 -14 -4 -8z" />
    <glyph glyph-name="odieresis" unicode="&#xf6;" horiz-adv-x="279" 
d="M15 157c0 68 98 234 188 235c40 0 71 -52 71 -127c0 -115 -147 -273 -211 -273c-23 0 -48 96 -48 165zM214 262c0 28 -2 114 -26 115c-36 1 -116 -170 -116 -219c0 -48 5 -128 21 -128c44 0 121 193 121 232zM253 438c-16 11 -7 40 7 56c12 14 30 24 45 13
c16 -12 8 -38 -4 -53c-12 -16 -33 -28 -48 -16zM137 436c-17 12 -8 40 6 57c12 14 30 24 45 12c16 -12 8 -37 -4 -52c-11 -16 -32 -29 -47 -17z" />
    <glyph glyph-name="otilde" unicode="&#xf5;" horiz-adv-x="279" 
d="M15 157c0 68 98 234 188 235c40 0 71 -52 71 -127c0 -115 -147 -273 -211 -273c-23 0 -48 96 -48 165zM214 262c0 28 -2 114 -26 115c-36 1 -116 -170 -116 -219c0 -48 5 -128 21 -128c44 0 121 193 121 232zM164 519c44 0 63 -44 109 -44c27 0 55 23 67 39
c0 -45 -66 -83 -116 -83c-46 0 -57 44 -101 44c-21 0 -60 -28 -73 -42c0 47 73 86 114 86z" />
    <glyph glyph-name="uacute" unicode="&#xfa;" horiz-adv-x="390" 
d="M78 -3c-26 0 -39 40 -39 65s20 96 34 135c13 38 34 101 34 101c18 53 7 42 -27 2c-48 -56 -64 -50 -15 3c48 52 73 85 101 85c27 0 9 -41 -8 -86c-16 -45 -50 -162 -50 -162c-10 -30 -25 -85 5 -83c30 1 115 90 126 105c10 15 25 18 39 48s54 155 59 167c4 11 26 6 46 10
c-14 -47 -45 -152 -52 -184c-8 -31 -23 -106 -23 -106c-10 -51 8 -55 39 -10c21 30 41 42 7 -7c-32 -48 -51 -83 -83 -83c-33 0 -12 125 -9 138c6 35 31 77 -26 13c-57 -63 -124 -151 -158 -151zM313 623l-77 -213l21 10l135 223z" />
    <glyph glyph-name="ugrave" unicode="&#xf9;" horiz-adv-x="390" 
d="M78 -3c-26 0 -39 40 -39 65s20 96 34 135c13 38 34 101 34 101c18 53 7 42 -27 2c-48 -56 -64 -50 -15 3c48 52 73 85 101 85c27 0 9 -41 -8 -86c-16 -45 -50 -162 -50 -162c-10 -30 -25 -85 5 -83c30 1 115 90 126 105c10 15 25 18 39 48s54 155 59 167c4 11 26 6 46 10
c-14 -47 -45 -152 -52 -184c-8 -31 -23 -106 -23 -106c-10 -51 8 -55 39 -10c21 30 41 42 7 -7c-32 -48 -51 -83 -83 -83c-33 0 -12 125 -9 138c6 35 31 77 -26 13c-57 -63 -124 -151 -158 -151zM260 410l-13 10l-5 228l62 -25z" />
    <glyph glyph-name="ucircumflex" unicode="&#xfb;" horiz-adv-x="390" 
d="M78 -3c-26 0 -39 40 -39 65s20 96 34 135c13 38 34 101 34 101c18 53 7 42 -27 2c-48 -56 -64 -50 -15 3c48 52 73 85 101 85c27 0 9 -41 -8 -86c-16 -45 -50 -162 -50 -162c-10 -30 -25 -85 5 -83c30 1 115 90 126 105c10 15 25 18 39 48s54 155 59 167c4 11 26 6 46 10
c-14 -47 -45 -152 -52 -184c-8 -31 -23 -106 -23 -106c-10 -51 8 -55 39 -10c21 30 41 42 7 -7c-32 -48 -51 -83 -83 -83c-33 0 -12 125 -9 138c6 35 31 77 -26 13c-57 -63 -124 -151 -158 -151zM320 422c-5 7 -51 79 -57 80c-5 -1 -67 -76 -71 -80c-6 -6 -14 -7 1 9
c9 12 65 124 80 143c10 -16 46 -129 51 -144c5 -12 0 -14 -4 -8z" />
    <glyph glyph-name="udieresis" unicode="&#xfc;" horiz-adv-x="390" 
d="M78 -3c-26 0 -39 40 -39 65s20 96 34 135c13 38 34 101 34 101c18 53 7 42 -27 2c-48 -56 -64 -50 -15 3c48 52 73 85 101 85c27 0 9 -41 -8 -86c-16 -45 -50 -162 -50 -162c-10 -30 -25 -85 5 -83c30 1 115 90 126 105c10 15 25 18 39 48s54 155 59 167c4 11 26 6 46 10
c-14 -47 -45 -152 -52 -184c-8 -31 -23 -106 -23 -106c-10 -51 8 -55 39 -10c21 30 41 42 7 -7c-32 -48 -51 -83 -83 -83c-33 0 -12 125 -9 138c6 35 31 77 -26 13c-57 -63 -124 -151 -158 -151zM303 438c-17 11 -8 40 6 56c12 14 30 24 45 13c16 -12 8 -38 -4 -53
c-12 -16 -32 -28 -47 -16zM186 436c-17 12 -8 40 7 57c11 14 30 24 45 12s7 -37 -5 -52c-11 -16 -32 -29 -47 -17z" />
    <glyph glyph-name="dagger" unicode="&#x2020;" horiz-adv-x="211" 
d="M183 465c0 0 14 72 -10 81c0 0 27 13 51 97c-9 -84 15 -97 15 -97c-27 -9 -40 -81 -40 -81c25 18 73 23 80 3l-4 -26c-30 -21 -79 4 -79 4s-13 -68 14 -83c-27 -27 -76 -245 -107 -386c17 141 48 358 31 386c34 15 45 83 45 83s-59 -24 -81 -3l5 25c16 20 60 15 80 -3z
" />
    <glyph glyph-name="degree" unicode="&#xb0;" horiz-adv-x="182" 
d="M92 626c34 0 61 -32 61 -64c0 -34 -30 -59 -63 -59c-34 0 -60 28 -60 60c0 35 30 63 62 63zM91 613c-27 0 -45 -23 -45 -50c0 -26 18 -50 45 -50s48 23 48 50c0 29 -21 50 -48 50z" />
    <glyph glyph-name="cent" unicode="&#xa2;" horiz-adv-x="357" 
d="M336 63c-1 -5 -33 -30 -35 -32c-27 -17 -55 -37 -100 -37c-30 0 -170 18 -138 194c12 70 65 201 203 201c57 0 121 -27 115 -59c-3 -20 -22 -32 -43 -32c-32 0 -11 76 -65 76c-110 0 -140 -136 -150 -185c-22 -126 68 -172 96 -172c33 0 87 29 109 46h8zM268 457h15
l-93 -519h-16z" />
    <glyph glyph-name="sterling" unicode="&#xa3;" horiz-adv-x="361" 
d="M369 64c-10 -24 -21 -44 -32 -66c-29 3 -59 -1 -94 0c-34 2 -70 3 -115 3c-26 0 -57 -3 -68 -3c-30 0 -27 10 -3 10c53 0 69 39 78 90c0 0 9 51 19 107c9 46 20 109 20 109c9 52 10 72 -25 79c-31 7 -13 12 3 12c17 0 32 -2 54 -2c28 0 51 2 74 2c27 0 17 -6 1 -11
c-44 -13 -43 -26 -53 -80c0 0 -10 -53 -22 -113c-11 -64 -25 -146 -25 -146c-6 -32 21 -36 39 -36c80 -3 93 -10 138 58c44 66 16 1 11 -13zM93 205l4 18h177l-3 -18h-178z" />
    <glyph glyph-name="section" unicode="&#xa7;" horiz-adv-x="280" 
d="M304 304c-11 -61 -41 -88 -79 -106c16 -18 42 -37 33 -90c-11 -56 -53 -114 -137 -114c-40 0 -48 14 -68 14c-5 0 -17 -9 -25 -17c-7 4 -1 11 4 33c5 23 7 50 11 69c2 18 12 46 11 5s15 -85 62 -85c46 0 77 42 83 75c8 40 -6 50 -34 75l-49 44c-23 19 -35 41 -28 79
c10 56 63 91 90 98c-12 18 -55 33 -44 94c12 64 67 105 122 105c33 0 52 -19 58 -19c7 0 12 8 20 7c9 -1 0 -15 -1 -19c0 -4 -5 -37 -5 -50c0 -14 -9 -55 -14 0s-35 66 -57 66c-24 0 -63 -15 -72 -67c-8 -43 16 -56 39 -74l38 -28c29 -22 50 -55 42 -95zM246 281
c11 60 -44 76 -54 92c-14 -5 -45 -16 -54 -65c-10 -56 48 -78 65 -92c12 12 35 27 43 65z" />
    <glyph glyph-name="bullet" unicode="&#x2022;" horiz-adv-x="169" 
d="M163 282c-12 -33 -51 -48 -85 -38c-32 13 -47 51 -37 85c12 34 52 48 85 38c32 -13 47 -53 37 -85z" />
    <glyph glyph-name="paragraph" unicode="&#xb6;" horiz-adv-x="333" 
d="M153 -243c0 0 109 595 111 612h36c-11 -65 -104 -580 -109 -610l15 -1c19 103 107 593 111 610c30 0 61 21 0 21h-55c-41 0 -167 -4 -192 -141c-25 -138 62 -165 126 -165c-13 -65 -59 -326 -59 -326h16z" />
    <glyph glyph-name="germandbls" unicode="&#xdf;" horiz-adv-x="392" 
d="M393 530c0 93 -89 108 -127 85c-42 -26 -45 -55 -53 -90l-52 -229l-100 -359c-35 -126 -63 -205 -225 -250c-106 -30 -72 -23 -139 5c-21 9 -5 48 69 48c50 0 3 -61 158 17c32 15 62 106 80 181l89 355s-55 3 -72 9c10 16 27 22 33 26c10 5 25 8 47 9c0 1 57 193 57 193
c27 95 142 133 201 127c48 -5 99 -25 94 -130c-3 -64 -32 -132 -119 -159c-19 -5 -29 -73 -21 -116c9 -44 35 -156 32 -184c-3 -29 -31 -60 -57 -69c-27 -8 -110 -18 -107 -18c-35 1 -48 11 -48 27c0 15 33 50 48 50s32 -45 53 -47c22 -2 53 8 54 33c3 47 -28 168 -30 194
c-3 30 -5 68 15 99c20 30 51 50 69 61c50 33 51 105 51 132z" />
    <glyph glyph-name="registered" unicode="&#xae;" horiz-adv-x="628" 
d="M225 511c0 0 99 -1 109 0l-1 -7c-83 -1 -93 -51 -110 -106l-105 -342c-10 -34 51 -42 78 -49c1 -2 1 -6 -3 -9c-26 -1 -117 8 -155 8c-10 0 -80 -9 -126 -9c0 0 -1 8 7 11c18 0 61 4 80 20c44 36 69 101 71 110c8 27 103 310 103 310c9 28 -22 60 -52 60
c-12 0 -8 5 -10 5c0 0 111 -2 114 -2zM591 510c23 0 62 3 89 3c1 -3 -2 -3 -2 -5c-107 -16 -65 -36 -255 -155c-40 -25 -161 -71 -165 -79c20 -36 60 -100 73 -123c0 0 143 -251 163 -283c61 -91 189 -291 285 -291c41 0 48 45 118 45c40 0 -29 -60 -88 -60
c-51 0 -93 2 -126 11c-47 14 -92 51 -130 103c-1 1 -130 149 -169 235c-10 23 -152 307 -186 356c18 12 113 48 181 91c42 25 140 107 140 107c58 43 -2 39 -21 39c4 1 -10 7 2 8c19 1 80 -2 91 -2z" />
    <glyph glyph-name="copyright" unicode="&#xa9;" horiz-adv-x="584" 
d="M440 93c-2 -10 -7 -30 -4 -47c-51 -33 -81 -49 -135 -49c-43 0 -71 6 -96 21c-53 32 -87 79 -87 160c0 52 14 84 45 115c42 40 114 46 136 46c27 0 50 -6 69 -12c25 -11 51 -24 59 -18l6 -2c-1 -10 -2 -32 2 -56c7 -44 -2 -21 -10 -1c0 0 -9 21 -17 31
c-14 15 -30 26 -40 31c-12 6 -42 15 -69 15c-31 0 -61 -17 -83 -37c-23 -22 -41 -70 -41 -109c0 -47 9 -91 50 -124c27 -25 43 -44 80 -44c73 0 108 27 127 90c6 21 13 20 8 -10zM296 423c144 0 257 -118 257 -263c0 -143 -114 -258 -257 -258c-144 0 -257 116 -257 261
c0 143 113 260 257 260zM287 -84c130 0 246 112 246 244c0 129 -105 248 -235 248c-131 0 -240 -109 -240 -240c0 -129 100 -252 229 -252z" />
    <glyph glyph-name="trademark" unicode="&#x2122;" horiz-adv-x="457" 
d="M199 630c-7 -12 -3 -23 -7 -35c-2 -3 -6 -7 -6 5c2 12 -10 18 -19 18h-50v-147c0 -19 12 -22 23 -23c7 -2 3 -5 0 -5c-16 0 -26 1 -38 1c-15 0 -24 -1 -39 -1c-3 0 -15 0 -1 5c12 1 24 10 24 22v148h-43c-11 0 -22 -5 -27 -20c-3 -17 -7 -7 -3 5c1 9 3 25 2 27
c-1 17 5 1 8 -2c4 -4 165 -2 166 0c5 9 18 17 10 2zM409 601l7 -137c1 -12 7 -14 17 -20c5 -1 10 -1 0 -1c-24 1 -45 1 -65 0c-5 0 -15 -2 -1 3c10 4 20 8 20 17c0 0 -5 85 -5 128l-75 -150l-67 143c-1 -19 -2 -63 -2 -87c-2 -42 -4 -45 16 -51c9 -3 1 -3 -1 -3
c-23 1 -31 1 -48 0c-6 0 -9 0 -2 1c20 9 26 6 27 49c0 39 4 100 4 100c0 15 -23 33 -29 35h8c18 -3 37 -4 40 -4l65 -143c16 28 17 35 32 62c9 15 29 63 29 63c3 5 4 12 4 22c5 -2 26 -4 48 0c-14 -9 -22 -11 -22 -27z" />
    <glyph glyph-name="acute" unicode="&#xb4;" horiz-adv-x="373" 
d="M236 623l-123 -213l23 10l182 223z" />
    <glyph glyph-name="dieresis" unicode="&#xa8;" horiz-adv-x="373" 
d="M244 509c18 -8 24 -31 12 -51c-13 -20 -38 -29 -57 -23c-16 8 -23 31 -11 50c12 21 39 30 56 24zM375 509c17 -7 23 -30 11 -51c-12 -20 -39 -29 -55 -23c-18 8 -23 32 -12 51c13 21 37 30 56 23z" />
    <glyph glyph-name="AE" unicode="&#xc6;" horiz-adv-x="828" 
d="M831 422c-3 -19 -13 -10 -19 -4c-13 45 -29 80 -101 80h-78c-21 -50 -60 -165 -70 -195c21 -2 66 -3 66 -3c39 -2 53 2 88 45c10 0 13 8 13 0c0 0 -42 -104 -55 -130c-3 4 -7 6 -7 12c9 27 7 53 -44 56c0 0 -63 2 -68 2c-9 -20 -75 -188 -75 -188c-17 -43 22 -74 92 -74
c33 0 99 -1 120 10c40 15 50 85 68 85c12 0 -23 -88 -23 -105c0 -11 10 -14 -66 -13c0 0 -176 1 -184 1c-130 0 -202 -12 -202 14c0 16 83 -9 119 71c31 69 78 198 78 198s-101 1 -163 1c-49 -54 -126 -147 -194 -232c-18 -22 -10 -39 17 -45c32 -6 24 -11 -3 -11
s-63 1 -80 1s-21 -1 -39 -1c-20 0 -34 11 3 16c39 5 72 54 92 75c117 127 149 174 252 285c23 24 99 103 120 130c-15 3 -43 7 -43 7c5 13 3 3 9 12c55 -4 170 -9 219 -9c65 0 119 1 146 1c5 -40 12 -47 12 -92zM543 435c15 43 28 55 -35 64c-8 -9 -123 -151 -175 -196
c35 -3 99 -4 158 0z" />
    <glyph glyph-name="Oslash" unicode="&#xd8;" horiz-adv-x="591" 
d="M591 336c0 -113 -56 -212 -105 -253c-73 -60 -160 -92 -235 -93c-185 -3 -206 99 -206 201c0 143 116 325 354 325c115 0 192 -73 192 -180zM566 532l-508 -549h-25l509 549h24zM507 295c0 100 -40 200 -165 200c-119 0 -209 -179 -209 -296c0 -108 55 -183 165 -183
c133 0 209 177 209 279z" />
    <glyph glyph-name="yen" unicode="&#xa5;" horiz-adv-x="421" 
d="M397 399c-35 0 -57 -58 -74 -81l-70 -117v-147c0 -22 28 -44 50 -46c45 -4 20 -9 0 -9c-6 0 -55 2 -85 2c-25 0 -65 -2 -73 -2c-37 0 -38 4 -2 9c18 3 46 25 46 46v139l-103 148c-20 27 -43 58 -56 58c-22 0 -27 9 0 9c19 0 43 -1 57 -1c12 0 37 1 71 1c41 0 12 -9 -2 -9
c-18 0 -38 -7 -5 -53l89 -128l66 110c16 24 49 71 10 71c-24 0 -24 9 -3 9s40 -1 45 -1c8 0 22 1 38 1c20 0 25 -9 1 -9zM117 107v18h208v-18h-208zM115 173v19h208v-19h-208z" />
    <glyph glyph-name="ae" unicode="&#xe6;" horiz-adv-x="422" 
d="M376 263c3 22 -5 61 -18 75c-10 12 -15 20 -29 20c-33 0 -51 -51 -58 -68c-8 -22 -25 -57 -28 -82c0 0 78 22 133 55zM254 348c-48 -5 -104 -43 -136 -110c-30 -65 -61 -170 -24 -170c19 0 47 20 72 42c20 90 42 139 60 174c6 12 22 53 28 64zM164 90
c-34 -31 -89 -98 -122 -98c-34 0 -29 26 -29 52c0 42 36 180 100 244c23 23 40 40 66 55c36 19 50 25 82 23c5 14 7 13 7 13l43 4l-8 -20c19 18 39 21 63 21c22 0 42 -11 49 -34c0 0 13 -41 16 -53c-38 -59 -194 -106 -194 -108c-6 -29 -14 -66 -14 -98c0 -29 10 -53 45 -53
c28 0 49 10 79 25c26 15 61 41 13 -5c-28 -26 -90 -66 -145 -66c-35 0 -52 20 -52 71c0 9 0 18 1 27z" />
    <glyph glyph-name="oslash" unicode="&#xf8;" horiz-adv-x="279" 
d="M15 157c0 68 98 234 188 235c40 0 71 -52 71 -127c0 -115 -147 -273 -211 -273c-23 0 -48 96 -48 165zM214 262c0 28 -2 114 -26 115c-36 1 -116 -170 -116 -219c0 -48 5 -128 21 -128c44 0 121 193 121 232zM288 395h25l-338 -411h-24z" />
    <glyph glyph-name="questiondown" unicode="&#xbf;" horiz-adv-x="375" 
d="M321 400c-11 -22 -35 -32 -53 -25c-16 8 -20 35 -10 57c10 21 34 31 53 25c16 -9 20 -34 10 -57zM234 -137c-4 -21 -17 -25 -29 -25c-73 0 -165 55 -149 145c15 84 90 137 160 137c0 0 18 86 36 138c7 23 -3 60 23 60c30 0 7 -37 3 -60c-3 -10 -25 -141 -26 -147
c-9 0 -64 -18 -64 -18c-21 -17 -61 -35 -75 -109c-13 -75 14 -113 27 -113c59 0 35 29 71 29c27 0 24 -29 23 -37z" />
    <glyph glyph-name="exclamdown" unicode="&#xa1;" horiz-adv-x="330" 
d="M256 433c2 -22 -11 -49 -31 -57c-20 -7 -41 2 -44 25c-1 22 12 48 32 57c20 6 40 -4 43 -25zM170 -50c-9 -50 -25 -152 -61 -152s-14 105 -6 152c9 47 73 290 81 345c5 34 29 30 23 0s-32 -318 -37 -345z" />
    <glyph glyph-name="florin" unicode="&#x192;" horiz-adv-x="377" 
d="M181 355c0 2 22 76 22 76c29 94 88 123 178 121c24 -1 41 -14 40 -32c-1 -17 -18 -34 -40 -33c-39 1 2 49 -48 49c-34 0 -67 -68 -79 -112l-16 -69c35 0 50 -1 65 -1c10 0 14 -5 -18 -27c-10 -7 -56 -4 -56 -4l-73 -232c-56 -186 -120 -232 -208 -232
c-21 0 -37 13 -36 37c0 21 10 32 35 31c30 0 20 -50 44 -50c27 0 61 57 109 218l73 231s-69 -3 -85 3c10 16 25 20 32 24c9 4 40 2 61 2z" />
    <glyph glyph-name="guillemotleft" unicode="&#xab;" horiz-adv-x="272" 
d="M208 128c1 -8 0 -18 -9 -1c-6 14 -50 111 -63 126c16 15 100 120 112 133c8 11 9 3 5 -3c-5 -10 -65 -124 -67 -131c0 -6 21 -117 22 -124zM116 128c2 -8 0 -18 -8 -1c-7 14 -51 111 -65 126c17 15 100 120 113 133c8 11 9 3 5 -3c-5 -10 -65 -124 -67 -131
c0 -6 20 -117 22 -124z" />
    <glyph glyph-name="guillemotright" unicode="&#xbb;" horiz-adv-x="272" 
d="M139 253c-19 -15 -98 -112 -111 -126c-14 -17 -10 -7 -6 1c4 7 64 118 66 124c0 7 -18 121 -20 131c-1 6 2 14 8 3c6 -13 52 -118 63 -133zM232 253c-19 -15 -99 -112 -111 -126c-14 -17 -12 -7 -8 1c5 7 65 118 66 124c1 7 -17 121 -18 131c-3 6 1 14 7 3
c6 -13 51 -118 64 -133z" />
    <glyph glyph-name="ellipsis" unicode="&#x2026;" horiz-adv-x="493" 
d="M112 6c-10 -22 -34 -32 -53 -25c-16 8 -20 34 -10 57c10 22 35 31 53 25c16 -9 20 -35 10 -57zM286 6c-10 -22 -34 -32 -53 -25c-16 8 -20 34 -10 57c10 22 35 31 53 25c17 -9 20 -35 10 -57zM462 6c-11 -22 -34 -32 -53 -25c-16 8 -20 34 -10 57c10 22 35 31 52 25
c17 -9 21 -35 11 -57z" />
    <glyph glyph-name="Agrave" unicode="&#xc0;" horiz-adv-x="653" 
d="M528 497c-17 -17 -166 -175 -218 -220c35 -4 102 6 161 4c18 72 27 132 57 216zM126 53c-18 -22 -10 -39 17 -45c32 -6 24 -11 -3 -11s-63 1 -80 1s-21 -1 -39 -1c-20 0 -34 11 3 16c39 5 72 54 92 75c117 127 183 208 289 310c126 120 130 122 148 140
c16 16 45 31 37 -12c-4 -22 -8 -40 -12 -58l-80 -391c-5 -34 -2 -54 45 -61c42 -6 40 -21 12 -18c-53 6 -87 -6 -159 2c-114 12 12 6 25 53l44 208s-107 -3 -168 -3c-49 -54 -103 -120 -171 -205zM570 575l-18 10l-88 223l74 -20z" />
    <glyph glyph-name="Atilde" unicode="&#xc3;" horiz-adv-x="653" 
d="M528 497c-17 -17 -166 -175 -218 -220c35 -4 102 6 161 4c18 72 27 132 57 216zM126 53c-18 -22 -10 -39 17 -45c32 -6 24 -11 -3 -11s-63 1 -80 1s-21 -1 -39 -1c-20 0 -34 11 3 16c39 5 72 54 92 75c117 127 183 208 289 310c126 120 130 122 148 140
c16 16 45 31 37 -12c-4 -22 -8 -40 -12 -58l-80 -391c-5 -34 -2 -54 45 -61c42 -6 40 -21 12 -18c-53 6 -87 -6 -159 2c-114 12 12 6 25 53l44 208s-107 -3 -168 -3c-49 -54 -103 -120 -171 -205zM567 684c36 0 46 -44 84 -44c23 0 52 23 65 39c-8 -45 -71 -83 -113 -83
c-40 0 -42 44 -79 44c-18 0 -56 -28 -69 -42c8 47 77 86 112 86z" />
    <glyph glyph-name="Otilde" unicode="&#xd5;" horiz-adv-x="591" 
d="M399 516c115 0 192 -73 192 -180c0 -113 -56 -212 -105 -253c-73 -60 -160 -92 -235 -93c-185 -3 -206 99 -206 201c0 143 116 325 354 325zM133 199c0 -108 55 -183 165 -183c133 0 209 177 209 279c0 100 -40 200 -165 200c-119 0 -209 -179 -209 -296zM382 649
c36 0 46 -44 84 -44c23 0 52 23 65 39c-8 -45 -71 -83 -113 -83c-40 0 -42 44 -79 44c-18 0 -56 -28 -69 -42c8 47 77 86 112 86z" />
    <glyph glyph-name="OE" unicode="&#x152;" horiz-adv-x="749" 
d="M366 498c-126 0 -234 -157 -234 -289c0 -108 26 -192 111 -190c70 2 85 63 85 63c31 58 127 307 127 307c21 50 60 109 -89 109zM554 513c64 0 161 -2 189 -2c5 -40 11 -48 11 -93c-3 -18 -13 -10 -19 -3c-12 45 -28 79 -101 79c-28 0 -52 1 -78 1
c-21 -50 -63 -171 -74 -202c21 -1 67 -2 67 -2c39 -3 53 4 88 47c10 0 13 8 13 0c0 0 -42 -104 -55 -130c-3 5 -7 6 -7 12c9 28 7 51 -44 54c0 0 -64 2 -69 2c-9 -20 -71 -183 -71 -183c-16 -42 22 -73 92 -73c33 0 99 -2 120 9c41 15 50 85 68 85c12 0 -22 -87 -22 -104
c0 -12 10 -14 -67 -13c0 0 -206 5 -214 5c-84 0 -61 -7 -158 -7c-157 0 -180 122 -180 223c0 151 129 295 332 295c115 0 78 2 179 0z" />
    <glyph glyph-name="oe" unicode="&#x153;" horiz-adv-x="486" 
d="M268 261c3 30 -2 103 -36 103c-33 0 -69 -66 -79 -80c-14 -20 -48 -131 -48 -190c0 -17 -5 -83 24 -83c37 0 59 39 83 81c31 56 48 100 56 169zM313 207c6 1 80 24 132 55c3 22 -5 61 -17 76c-10 11 -16 19 -30 19c-33 0 -50 -51 -58 -68c-7 -21 -20 -52 -27 -82z
M303 178c-5 -27 -10 -60 -10 -88c0 -29 10 -53 44 -53c28 0 49 10 79 26c26 15 62 40 13 -5c-28 -27 -90 -66 -145 -66c-34 0 -50 18 -51 66c-20 -40 -78 -66 -134 -66c-24 0 -53 26 -53 71c0 107 18 161 92 259c19 24 59 61 127 61c21 0 51 -17 59 -49c25 23 67 49 111 49
c22 0 43 -11 49 -34c0 0 14 -41 16 -53c-36 -55 -173 -99 -192 -107c-1 -4 -2 -7 -5 -11z" />
    <glyph glyph-name="endash" unicode="&#x2013;" horiz-adv-x="502" 
d="M12 253l21 31l460 1l-15 -32h-466z" />
    <glyph glyph-name="emdash" unicode="&#x2014;" horiz-adv-x="825" 
d="M13 250l22 34l775 1l-27 -35h-770z" />
    <glyph glyph-name="quotedblleft" unicode="&#x201c;" horiz-adv-x="217" 
d="M317 499c-26 -16 -58 6 -55 34c7 51 5 45 57 105c80 90 65 50 14 -16c-51 -64 -3 -48 10 -73c11 -25 -7 -37 -26 -50zM214 495c-26 -16 -58 6 -56 33c8 52 5 46 58 106c81 90 66 50 13 -16c-51 -65 -2 -48 9 -73c13 -25 -6 -37 -24 -50z" />
    <glyph glyph-name="quotedblright" unicode="&#x201d;" horiz-adv-x="216" 
d="M206 650c27 16 58 -7 56 -34c-9 -53 -5 -46 -58 -107c-81 -88 -66 -50 -13 17c51 66 2 49 -9 74c-13 25 6 38 24 50zM308 654c26 16 58 -7 55 -34c-7 -52 -4 -46 -57 -107c-79 -88 -65 -50 -13 17c51 66 3 49 -10 74c-11 25 7 38 25 50z" />
    <glyph glyph-name="quoteleft" unicode="&#x2018;" horiz-adv-x="138" 
d="M231 493c-25 -14 -57 7 -55 34c7 52 5 46 58 106c79 89 65 50 13 -16c-51 -66 -3 -49 9 -74s-7 -38 -25 -50z" />
    <glyph glyph-name="quoteright" unicode="&#x2019;" horiz-adv-x="138" 
d="M211 654c26 15 57 -7 56 -35c-9 -51 -6 -46 -58 -106c-80 -88 -66 -50 -14 17c52 66 3 49 -9 74s7 38 25 50z" />
    <glyph glyph-name="ydieresis" unicode="&#xff;" horiz-adv-x="297" 
d="M-112 -316c-25 0 -21 13 -21 32c0 16 5 36 28 36c22 0 25 0 31 -5c5 -3 11 -25 40 -3c44 32 127 98 157 215c14 55 17 149 17 229c0 93 -12 153 -36 153c-15 0 -21 -1 -31 -21c-20 -39 -30 -33 -11 5c15 30 32 58 58 58c50 0 79 -66 79 -186c0 -69 -5 -101 -17 -174
c30 55 100 230 101 351c17 10 29 14 29 14c-14 -136 -40 -227 -74 -300c-33 -74 -102 -189 -137 -237c-35 -49 -154 -167 -213 -167zM285 438c-17 11 -7 40 7 56c11 14 30 24 45 13c16 -12 7 -38 -4 -53c-12 -16 -33 -28 -48 -16zM168 436c-16 12 -7 40 7 57
c12 14 30 24 45 12c16 -12 8 -37 -4 -52c-12 -16 -33 -29 -48 -17z" />
    <glyph glyph-name="Ydieresis" unicode="&#x178;" horiz-adv-x="583" 
d="M328 258l134 150c61 60 81 95 12 97c-19 1 -27 9 -1 8s125 -2 155 1c15 3 17 -6 -2 -6c-52 -3 -112 -76 -142 -106l-136 -153l-50 -185c-8 -32 25 -51 54 -53c27 -3 10 -11 -4 -11c-12 0 -159 4 -185 0c-27 -4 -23 7 1 11c25 3 54 26 63 53l48 179l-77 188
c-15 37 -33 71 -71 72c-19 0 -23 10 -4 10c20 -2 193 0 220 0c26 0 4 -10 -5 -10c-43 1 -94 -12 -67 -76zM448 568c-17 11 -8 40 6 56c12 14 30 24 45 13c16 -12 8 -38 -4 -53c-12 -16 -32 -28 -47 -16zM318 566c-17 12 -8 40 6 57c12 14 30 24 45 12c16 -12 8 -37 -4 -52
c-12 -16 -32 -29 -47 -17z" />
    <glyph glyph-name="fraction" unicode="&#x2044;" horiz-adv-x="350" 
d="M421 654h28l-537 -956h-28z" />
    <glyph glyph-name="guilsinglleft" unicode="&#x2039;" horiz-adv-x="158" 
d="M191 383c-6 -10 -66 -124 -68 -131c0 -6 20 -117 22 -124c2 -8 0 -18 -8 -1c-7 14 -50 111 -64 126c16 15 100 120 111 133c9 11 10 3 7 -3z" />
    <glyph glyph-name="guilsinglright" unicode="&#x203a;" horiz-adv-x="158" 
d="M182 253c-19 -15 -99 -112 -110 -126c-14 -17 -12 -7 -8 1c4 7 65 118 66 124c1 7 -17 121 -19 131c-2 6 2 14 7 3c7 -13 52 -118 64 -133z" />
    <glyph glyph-name="fi" unicode="&#xfb01;" horiz-adv-x="438" 
d="M278 306c-13 -3 -117 -10 -117 -10l-100 -359c-35 -126 -63 -205 -225 -250c-106 -30 -72 -23 -139 5c-21 9 -5 48 69 48c50 0 3 -61 158 17c32 15 62 106 80 181l89 355s-59 -2 -75 4c10 16 28 17 35 21c10 5 26 19 48 19l57 193c27 95 161 138 220 127
c58 -12 120 -63 -9 -55c-56 3 -65 36 -103 13c-42 -26 -45 -55 -53 -90l-44 -183c37 0 124 9 139 11c50 9 152 73 125 19c-17 -33 -59 -170 -73 -213c-14 -42 -26 -80 -26 -80c-11 -43 -2 -36 18 -18c16 12 43 47 52 59c22 32 22 11 11 -7c-12 -20 -67 -121 -120 -119
c-32 1 -39 19 -37 37c2 19 33 91 43 128c9 37 47 140 47 140c25 52 -32 15 -70 7z" />
    <glyph glyph-name="fl" unicode="&#xfb02;" horiz-adv-x="418" 
d="M407 647c4 0 4 1 11 2c15 3 80 8 125 17c-25 -37 -116 -264 -146 -343c-30 -78 -72 -186 -72 -186c-5 -14 -38 -75 15 -39c53 37 92 55 53 15c-38 -40 -130 -121 -153 -121c-17 0 -16 10 -16 21c0 10 89 243 118 317c28 73 104 251 104 251c12 32 8 44 -12 51
c22 -17 15 -34 -65 -30c-56 3 -65 36 -103 13c-42 -26 -45 -55 -53 -90l-44 -183c37 0 79 -5 94 -5c73 13 26 -4 -15 -36c-10 -8 -87 -5 -87 -5l-100 -359c-35 -126 -63 -205 -225 -250c-106 -30 -72 -23 -139 5c-21 9 -5 48 69 48c50 0 3 -61 158 17c32 15 62 106 80 181
l89 355s-55 3 -72 9c10 16 27 22 33 26c10 5 25 9 47 9l57 193c27 95 161 138 220 127c10 0 20 -5 29 -10z" />
    <glyph glyph-name="daggerdbl" unicode="&#x2021;" horiz-adv-x="521" 
d="M-92 -287c-21 -10 -45 -19 -72 -26c-106 -30 -72 -23 -139 5c-21 9 -5 48 69 48c50 0 3 -61 158 17c32 15 62 106 80 181l89 355s-55 3 -72 9c10 16 27 22 33 26c10 5 25 9 47 9l57 193c27 95 161 138 220 127c27 -6 55 -20 64 -34c51 35 118 50 155 43
c58 -12 120 -63 -9 -55c-56 3 -65 37 -103 13c-42 -26 -45 -55 -53 -90l-44 -183c37 0 79 -5 94 -5c73 13 26 -4 -15 -36c-10 -7 -87 -5 -87 -5l-100 -359c-35 -126 -62 -204 -225 -250c-106 -30 -72 -23 -138 5c-6 0 -9 6 -9 12zM-36 -253c-16 -12 -34 -24 -56 -34
c0 12 17 29 56 34zM248 300c-15 -1 -87 -4 -87 -4l-100 -359c-23 -82 -42 -144 -97 -190c6 0 13 2 21 2c50 0 3 -61 158 17c32 16 62 106 80 181l89 356s-41 -2 -64 -3zM320 346l57 193c9 33 35 64 65 84c9 -13 -6 -25 -73 -21c-56 3 -65 36 -103 13
c-42 -26 -45 -55 -53 -90l-44 -183c37 0 70 1 85 1c19 1 50 3 66 3z" />
    <glyph glyph-name="periodcentered" unicode="&#xb7;" horiz-adv-x="144" 
d="M132 299c-11 -21 -35 -31 -53 -25c-16 9 -21 34 -11 57c11 22 35 32 53 25c17 -8 21 -35 11 -57z" />
    <glyph glyph-name="quotesinglbase" unicode="&#x201a;" horiz-adv-x="176" 
d="M133 -8c-6 -31 -28 -50 -45 -74c-64 -88 -54 -50 -12 17c9 17 17 26 18 41c5 21 -21 14 -30 33c-3 8 -4 12 -3 20c2 21 22 37 40 37c29 0 38 -32 32 -74z" />
    <glyph glyph-name="quotedblbase" unicode="&#x201e;" horiz-adv-x="203" 
d="M87 -5c-6 -32 -28 -51 -44 -74c-65 -89 -55 -50 -13 16c10 17 17 26 19 41c4 22 -22 14 -31 34c-3 7 -4 11 -3 20c2 21 22 36 40 36c29 0 38 -31 32 -73zM190 -5c-6 -32 -27 -51 -44 -74c-64 -89 -54 -50 -13 16c10 17 17 26 20 41c4 22 -23 14 -31 34c-4 7 -4 11 -4 20
c2 21 22 36 40 36c30 0 39 -31 32 -73z" />
    <glyph glyph-name="perthousand" unicode="&#x2030;" horiz-adv-x="829" 
d="M-69 0c-69 0 -277 78 -274 157c1 51 55 51 64 44c20 -18 12 -62 53 -90c74 -52 183 -86 282 -45c116 48 358 237 497 340c139 104 170 118 213 118c17 0 49 9 49 -26c0 -50 -53 20 -72 15c-25 -5 -27 -37 -30 -47l-115 -389c-10 -33 -5 -69 41 -58c49 11 98 44 101 13
c3 -28 -12 -25 -39 -30s-133 -10 -206 -2c-114 12 13 6 25 53l63 210s-82 2 -144 4c-65 -45 -331 -267 -508 -267zM653 454c-16 -16 -146 -124 -198 -169c35 -3 74 0 133 -2c32 75 29 95 65 171z" />
    <glyph glyph-name="Acircumflex" unicode="&#xc2;" horiz-adv-x="653" 
d="M528 497c-17 -17 -166 -175 -218 -220c35 -4 102 6 161 4c18 72 27 132 57 216zM126 53c-18 -22 -10 -39 17 -45c32 -6 24 -11 -3 -11s-63 1 -80 1s-21 -1 -39 -1c-20 0 -34 11 3 16c39 5 72 54 92 75c117 127 183 208 289 310c126 120 130 122 148 140
c16 16 45 31 37 -12c-4 -22 -8 -40 -12 -58l-80 -391c-5 -34 -2 -54 45 -61c42 -6 40 -21 12 -18c-53 6 -87 -6 -159 2c-114 12 12 6 25 53l44 208s-107 -3 -168 -3c-49 -54 -103 -120 -171 -205zM638 548c-5 7 -46 79 -52 80c-6 -1 -73 -76 -78 -80c-5 -6 -13 -7 2 9
c11 11 73 124 90 143c9 -17 38 -129 43 -144c4 -12 -2 -14 -5 -8z" />
    <glyph glyph-name="Ecircumflex" unicode="&#xca;" horiz-adv-x="518" 
d="M367 512c64 0 118 1 146 1c5 -40 11 -48 11 -93c-3 -18 -13 -10 -19 -3c-12 45 -28 79 -101 79c-28 0 -52 1 -78 1c-21 -50 -59 -165 -70 -196c22 -2 63 -6 63 -6c39 -2 53 2 88 45c10 0 13 8 13 0c0 0 -42 -104 -55 -130c-3 4 -7 6 -7 12c9 27 7 53 -44 56
c0 0 -60 5 -65 5c-9 -20 -75 -188 -75 -188c-16 -42 22 -73 92 -73c33 0 99 -2 120 9c41 15 50 85 68 85c12 0 -22 -88 -22 -104c0 -12 10 -15 -67 -14c0 0 -176 1 -184 1c-129 0 -202 -12 -202 14c0 16 91 -4 119 70c0 0 55 145 62 161l70 172c36 87 -25 73 -93 89
c5 13 3 3 9 12c55 -4 172 -5 221 -5zM423 553c-5 7 -46 79 -52 80c-6 -1 -73 -76 -78 -80c-5 -6 -13 -7 2 9c11 11 73 124 90 143c9 -17 38 -129 43 -144c4 -12 -2 -14 -5 -8z" />
    <glyph glyph-name="Aacute" unicode="&#xc1;" horiz-adv-x="653" 
d="M528 497c-17 -17 -166 -175 -218 -220c35 -4 102 6 161 4c18 72 27 132 57 216zM126 53c-18 -22 -10 -39 17 -45c32 -6 24 -11 -3 -11s-63 1 -80 1s-21 -1 -39 -1c-20 0 -34 11 3 16c39 5 72 54 92 75c117 127 183 208 289 310c126 120 130 122 148 140
c16 16 45 31 37 -12c-4 -22 -8 -40 -12 -58l-80 -391c-5 -34 -2 -54 45 -61c42 -6 40 -21 12 -18c-53 6 -87 -6 -159 2c-114 12 12 6 25 53l44 208s-107 -3 -168 -3c-49 -54 -103 -120 -171 -205zM696 793l-123 -213l23 10l182 223z" />
    <glyph glyph-name="Edieresis" unicode="&#xcb;" horiz-adv-x="518" 
d="M367 512c64 0 118 1 146 1c5 -40 11 -48 11 -93c-3 -18 -13 -10 -19 -3c-12 45 -28 79 -101 79c-28 0 -52 1 -78 1c-21 -50 -59 -165 -70 -196c22 -2 63 -6 63 -6c39 -2 53 2 88 45c10 0 13 8 13 0c0 0 -42 -104 -55 -130c-3 4 -7 6 -7 12c9 27 7 53 -44 56
c0 0 -60 5 -65 5c-9 -20 -75 -188 -75 -188c-16 -42 22 -73 92 -73c33 0 99 -2 120 9c41 15 50 85 68 85c12 0 -22 -88 -22 -104c0 -12 10 -15 -67 -14c0 0 -176 1 -184 1c-129 0 -202 -12 -202 14c0 16 91 -4 119 70c0 0 55 145 62 161l70 172c36 87 -25 73 -93 89
c5 13 3 3 9 12c55 -4 172 -5 221 -5zM448 568c-17 11 -8 40 6 56c12 14 30 24 45 13c16 -12 8 -38 -4 -53c-12 -16 -32 -28 -47 -16zM318 566c-17 12 -8 40 6 57c12 14 30 24 45 12c16 -12 8 -37 -4 -52c-12 -16 -32 -29 -47 -17z" />
    <glyph glyph-name="Egrave" unicode="&#xc8;" horiz-adv-x="518" 
d="M367 512c64 0 118 1 146 1c5 -40 11 -48 11 -93c-3 -18 -13 -10 -19 -3c-12 45 -28 79 -101 79c-28 0 -52 1 -78 1c-21 -50 -59 -165 -70 -196c22 -2 63 -6 63 -6c39 -2 53 2 88 45c10 0 13 8 13 0c0 0 -42 -104 -55 -130c-3 4 -7 6 -7 12c9 27 7 53 -44 56
c0 0 -60 5 -65 5c-9 -20 -75 -188 -75 -188c-16 -42 22 -73 92 -73c33 0 99 -2 120 9c41 15 50 85 68 85c12 0 -22 -88 -22 -104c0 -12 10 -15 -67 -14c0 0 -176 1 -184 1c-129 0 -202 -12 -202 14c0 16 91 -4 119 70c0 0 55 145 62 161l70 172c36 87 -25 73 -93 89
c5 13 3 3 9 12c55 -4 172 -5 221 -5zM385 560l-18 10l-88 223l74 -20z" />
    <glyph glyph-name="Iacute" unicode="&#xcd;" horiz-adv-x="341" 
d="M359 517l1 -12c-61 -11 -76 -17 -90 -52c-27 -75 -33 -104 -59 -201c-50 -191 -48 -178 -48 -193c0 -46 50 -42 70 -51c-1 -1 3 -4 -2 -8c-33 1 -88 -1 -114 -3c-38 -1 -81 -2 -115 -5c0 0 -5 7 1 10c45 11 67 27 80 48c16 48 31 96 52 161c46 164 54 206 61 240
c11 55 -23 42 -54 52c0 0 -7 0 1 10c67 -4 110 -3 114 -3c0 0 101 7 102 7zM361 753l-123 -213l23 10l182 223z" />
    <glyph glyph-name="Icircumflex" unicode="&#xce;" horiz-adv-x="341" 
d="M359 517l1 -12c-61 -11 -76 -17 -90 -52c-27 -75 -33 -104 -59 -201c-50 -191 -48 -178 -48 -193c0 -46 50 -42 70 -51c-1 -1 3 -4 -2 -8c-33 1 -88 -1 -114 -3c-38 -1 -81 -2 -115 -5c0 0 -5 7 1 10c45 11 67 27 80 48c16 48 31 96 52 161c46 164 54 206 61 240
c11 55 -23 42 -54 52c0 0 -7 0 1 10c67 -4 110 -3 114 -3c0 0 101 7 102 7zM318 543c-5 7 -46 79 -52 80c-6 -1 -73 -76 -78 -80c-5 -6 -13 -7 2 9c11 11 73 124 90 143c9 -17 38 -129 43 -144c4 -12 -2 -14 -5 -8z" />
    <glyph glyph-name="Idieresis" unicode="&#xcf;" horiz-adv-x="341" 
d="M359 517l1 -12c-61 -11 -76 -17 -90 -52c-27 -75 -33 -104 -59 -201c-50 -191 -48 -178 -48 -193c0 -46 50 -42 70 -51c-1 -1 3 -4 -2 -8c-33 1 -88 -1 -114 -3c-38 -1 -81 -2 -115 -5c0 0 -5 7 1 10c45 11 67 27 80 48c16 48 31 96 52 161c46 164 54 206 61 240
c11 55 -23 42 -54 52c0 0 -7 0 1 10c67 -4 110 -3 114 -3c0 0 101 7 102 7zM288 571c-15 11 -7 36 5 51c11 13 28 21 41 11c14 -10 7 -34 -3 -47c-11 -14 -30 -25 -43 -15zM194 569c-15 11 -6 36 6 51c11 13 28 23 41 12c14 -11 7 -34 -4 -48c-10 -14 -29 -25 -43 -15z" />
    <glyph glyph-name="Igrave" unicode="&#xcc;" horiz-adv-x="341" 
d="M359 517l1 -12c-61 -11 -76 -17 -90 -52c-27 -75 -33 -104 -59 -201c-50 -191 -48 -178 -48 -193c0 -46 50 -42 70 -51c-1 -1 3 -4 -2 -8c-33 1 -88 -1 -114 -3c-38 -1 -81 -2 -115 -5c0 0 -5 7 1 10c45 11 67 27 80 48c16 48 31 96 52 161c46 164 54 206 61 240
c11 55 -23 42 -54 52c0 0 -7 0 1 10c67 -4 110 -3 114 -3c0 0 101 7 102 7zM265 540l-18 10l-88 223l74 -20z" />
    <glyph glyph-name="Oacute" unicode="&#xd3;" horiz-adv-x="591" 
d="M399 516c115 0 192 -73 192 -180c0 -113 -56 -212 -105 -253c-73 -60 -160 -92 -235 -93c-185 -3 -206 99 -206 201c0 143 116 325 354 325zM133 199c0 -108 55 -183 165 -183c133 0 209 177 209 279c0 100 -40 200 -165 200c-119 0 -209 -179 -209 -296zM471 758
l-123 -213l23 10l182 223z" />
    <glyph glyph-name="Ocircumflex" unicode="&#xd4;" horiz-adv-x="591" 
d="M399 516c115 0 192 -73 192 -180c0 -113 -56 -212 -105 -253c-73 -60 -160 -92 -235 -93c-185 -3 -206 99 -206 201c0 143 116 325 354 325zM133 199c0 -108 55 -183 165 -183c133 0 209 177 209 279c0 100 -40 200 -165 200c-119 0 -209 -179 -209 -296zM433 548
c-5 7 -46 79 -52 80c-6 -1 -73 -76 -78 -80c-5 -6 -13 -7 2 9c11 11 73 124 90 143c9 -17 38 -129 43 -144c4 -12 -2 -14 -5 -8z" />
    <glyph glyph-name="Ograve" unicode="&#xd2;" horiz-adv-x="591" 
d="M399 516c115 0 192 -73 192 -180c0 -113 -56 -212 -105 -253c-73 -60 -160 -92 -235 -93c-185 -3 -206 99 -206 201c0 143 116 325 354 325zM133 199c0 -108 55 -183 165 -183c133 0 209 177 209 279c0 100 -40 200 -165 200c-119 0 -209 -179 -209 -296zM385 545l-18 10
l-88 223l74 -20z" />
    <glyph glyph-name="Uacute" unicode="&#xda;" horiz-adv-x="603" 
d="M665 512c18 0 1 -1 3 -6c-71 -4 -82 -36 -104 -83c0 0 -76 -223 -145 -305c-56 -68 -111 -126 -231 -126c-68 0 -134 36 -134 119c0 74 87 310 87 310c14 53 3 80 -38 83c-19 2 -11 8 -4 8c16 0 75 -4 104 -3c28 1 71 2 88 3c12 0 25 -8 -6 -9c-42 0 -67 -13 -94 -105
c0 0 -74 -200 -74 -254c0 -106 69 -126 116 -126c121 0 214 156 273 303c27 66 36 131 36 137c0 42 -23 43 -58 48c0 0 -16 6 4 6s86 -4 86 -4s41 4 91 4zM501 758l-123 -213l23 10l182 223z" />
    <glyph glyph-name="Ucircumflex" unicode="&#xdb;" horiz-adv-x="603" 
d="M665 512c18 0 1 -1 3 -6c-71 -4 -82 -36 -104 -83c0 0 -76 -223 -145 -305c-56 -68 -111 -126 -231 -126c-68 0 -134 36 -134 119c0 74 87 310 87 310c14 53 3 80 -38 83c-19 2 -11 8 -4 8c16 0 75 -4 104 -3c28 1 71 2 88 3c12 0 25 -8 -6 -9c-42 0 -67 -13 -94 -105
c0 0 -74 -200 -74 -254c0 -106 69 -126 116 -126c121 0 214 156 273 303c27 66 36 131 36 137c0 42 -23 43 -58 48c0 0 -16 6 4 6s86 -4 86 -4s41 4 91 4zM458 543c-5 7 -46 79 -52 80c-6 -1 -73 -76 -78 -80c-5 -6 -13 -7 2 9c11 11 73 124 90 143c9 -17 38 -129 43 -144
c4 -12 -2 -14 -5 -8z" />
    <glyph glyph-name="Ugrave" unicode="&#xd9;" horiz-adv-x="603" 
d="M665 512c18 0 1 -1 3 -6c-71 -4 -82 -36 -104 -83c0 0 -76 -223 -145 -305c-56 -68 -111 -126 -231 -126c-68 0 -134 36 -134 119c0 74 87 310 87 310c14 53 3 80 -38 83c-19 2 -11 8 -4 8c16 0 75 -4 104 -3c28 1 71 2 88 3c12 0 25 -8 -6 -9c-42 0 -67 -13 -94 -105
c0 0 -74 -200 -74 -254c0 -106 69 -126 116 -126c121 0 214 156 273 303c27 66 36 131 36 137c0 42 -23 43 -58 48c0 0 -16 6 4 6s86 -4 86 -4s41 4 91 4zM399 520l-18 10l-88 223l74 -20z" />
    <glyph glyph-name="circumflex" unicode="&#x2c6;" horiz-adv-x="318" 
d="M298 413c-5 7 -46 79 -52 80c-6 -1 -73 -76 -78 -80c-5 -6 -13 -7 2 9c11 11 73 124 90 143c9 -17 38 -129 43 -144c4 -12 -2 -14 -5 -8z" />
    <glyph glyph-name="tilde" unicode="&#x2dc;" horiz-adv-x="418" 
d="M282 519c36 0 46 -44 84 -44c23 0 52 23 65 39c-8 -45 -71 -83 -113 -83c-40 0 -42 44 -79 44c-18 0 -56 -28 -69 -42c8 47 77 86 112 86z" />
    <glyph glyph-name="macron" unicode="&#xaf;" horiz-adv-x="349" 
d="M205 430l5 24h118l-4 -24h-119z" />
    <glyph glyph-name="breve" unicode="&#x2d8;" horiz-adv-x="318" 
d="M218 561c4 -8 45 -79 52 -80c5 1 73 76 77 80c6 6 14 7 -1 -9c-11 -12 -74 -124 -91 -144c-9 17 -37 130 -42 145c-5 11 2 14 5 8z" />
    <glyph glyph-name="dotaccent" unicode="&#x2d9;" horiz-adv-x="318" 
d="M268 508c15 -8 20 -30 10 -50c-11 -21 -32 -30 -49 -24c-13 9 -19 31 -10 50c11 21 34 30 49 24z" />
    <glyph glyph-name="ring" unicode="&#x2da;" horiz-adv-x="318" 
d="M261 562c29 0 47 -32 41 -64c-7 -35 -37 -59 -64 -59c-30 0 -47 28 -41 60c6 34 36 63 64 63zM258 549c-23 0 -43 -23 -48 -50c-4 -26 8 -50 30 -50c23 0 45 23 50 50c5 29 -9 50 -32 50z" />
    <glyph glyph-name="cedilla" unicode="&#xb8;" horiz-adv-x="299" 
d="M243 0c-29 -24 -85 -83 -107 -102c12 -2 42 -35 36 -71c-14 -74 -104 -88 -115 -88c-9 0 -30 5 -36 10c-6 4 -17 13 -14 28s11 35 26 35c9 0 13 -3 19 -13c6 -12 -3 -43 10 -43c28 0 64 26 71 66c4 22 -27 53 -44 60c15 10 49 40 79 66c27 25 39 37 53 52h22z" />
    <glyph glyph-name="hungarumlaut" unicode="&#x2dd;" horiz-adv-x="406" 
d="M467 643l-155 -223l-19 -10l105 213zM367 643l-155 -223l-19 -10l105 213z" />
    <glyph glyph-name="ogonek" unicode="&#x2db;" horiz-adv-x="299" 
d="M186 1c-18 -7 -68 -52 -71 -74c-8 -40 19 -66 48 -66c12 0 14 31 25 43c8 10 14 13 23 13c15 0 16 -20 13 -35s-16 -24 -23 -28c-8 -5 -33 -10 -41 -10c-12 0 -96 14 -82 88c6 36 48 69 61 71c14 0 33 -2 47 -2z" />
  </font>
</defs>
</svg>
