<?xml version="1.0" standalone="no"?>
<!DOCTYPE svg PUBLIC "-//W3C//DTD SVG 1.1//EN" "http://www.w3.org/Graphics/SVG/1.1/DTD/svg11.dtd" >
<svg xmlns="http://www.w3.org/2000/svg" width="100%" height="100%">
<metadata>
Created by FontXChange 20110222 at Sat Oct 19 12:57:02 2013
 By Gahlord Dewald
(c)2002 by Andrew Leman. Revived from the 1935 Linotype catalog exclusively for the H. P. Lovecraft Historical Society.
</metadata>
<defs>
<font id="OldstyleItalic-HPLHS" horiz-adv-x="489" >
  <font-face 
    font-family="OldstyleItalic"
    font-weight="400"
    font-stretch="normal"
    units-per-em="1000"
    panose-1="2 0 5 3 0 0 0 0 0 0"
    ascent="800"
    descent="-200"
    x-height="410"
    cap-height="714"
    bbox="-49 -226.875 2347 1102"
    underline-thickness="20"
    underline-position="-133"
    stemh="41.200"
    stemv="88.974"
    unicode-range="U+0020-FB02"
  />
    <missing-glyph />
    <glyph glyph-name="space" unicode=" " horiz-adv-x="280" 
 />
    <glyph glyph-name="exclam" unicode="!" horiz-adv-x="398" 
d="M325 615c-10 -108 -60 -201 -114 -292c-6 -57 -19 -111 -50 -156c-21 -6 -46 6 -41 25c28 116 52 241 54 363c18 35 16 90 66 102c37 9 67 -13 85 -42zM198 73c11 -31 5 -68 -29 -83c-22 -16 -54 -23 -83 -14c-18 10 -35 35 -47 56c-5 33 14 56 41 79c42 14 96 8 118 -38
z" />
    <glyph glyph-name="quotedbl" unicode="&#x22;" horiz-adv-x="378" 
d="M288 791c89 0 29 -94 -2 -153c-34 -65 -19 -130 -73 -137c-42 -5 1 70 -3 129c-3 49 -15 161 78 161zM144 791c89 0 28 -94 -2 -153c-34 -65 -19 -130 -74 -137c-42 -5 2 70 -2 129c-4 49 -15 161 78 161z" />
    <glyph glyph-name="dollar" unicode="$" horiz-adv-x="471" 
d="M501 511c2 -21 -2 -39 -11 -56c-14 -6 -39 -14 -52 0c-37 23 -35 69 -60 102c-21 2 -23 -21 -27 -35c-9 -42 -23 -81 -43 -119c10 -70 108 -99 118 -172c17 -38 17 -81 17 -123c-27 -41 -42 -93 -92 -116c-43 -15 -97 -27 -145 -12c-52 -40 2 -167 -94 -142
c-18 36 3 73 19 102c11 20 13 52 13 75c-63 33 -104 93 -111 164c15 14 19 36 42 37c44 3 44 -50 60 -74c0 -30 11 -61 33 -71c40 75 63 164 69 249c-69 54 -131 125 -120 218c14 42 45 87 89 108c39 29 118 -14 143 38c4 25 0 54 25 70c19 2 35 13 50 -8
c0 -42 -42 -77 -27 -114c52 -23 83 -73 104 -121zM322 605c-10 20 -31 16 -48 23c-31 -15 -64 -32 -79 -65c-22 -37 7 -73 23 -104c13 -23 38 -41 63 -33c12 60 39 114 41 179zM364 110c23 69 -34 108 -69 154c-12 -2 -19 -8 -25 -19c-10 -56 -39 -103 -50 -160
c-4 -22 -29 -51 -2 -70c38 0 75 -7 104 19c23 20 35 47 42 76z" />
    <glyph glyph-name="percent" unicode="%" horiz-adv-x="870" 
d="M851 349c23 -39 21 -102 -11 -156c-45 -79 -120 -164 -211 -201c-40 -9 -82 -17 -119 -9c-37 19 -45 57 -66 86c12 91 54 166 143 224c76 58 159 100 244 75zM837 769c-14 -52 -71 -86 -96 -131c-81 -71 -144 -160 -222 -235c-142 -179 -290 -353 -403 -542
c-10 -21 -34 -27 -48 -37c-23 -9 -46 -3 -57 10c-17 54 58 92 91 131c72 84 145 168 213 253c67 65 120 134 180 200c60 65 100 139 157 205c-25 15 -60 -23 -93 -14c-29 -15 -71 12 -99 -23c0 -36 -37 -52 -40 -87c-16 -19 -20 -44 -45 -57c-16 -47 -79 -81 -119 -112
c-46 -18 -107 -27 -145 -6c-38 35 -64 87 -45 150c18 12 12 37 24 52c64 89 172 166 270 191c108 18 126 -124 250 -56c41 21 96 47 120 89c33 29 81 39 107 19zM813 293c-13 35 -63 44 -102 23c-83 -69 -179 -156 -176 -254c2 -39 49 -29 81 -31c78 33 124 98 173 158
c-3 35 45 73 24 104zM425 590c4 37 -34 56 -68 62c-103 -52 -181 -147 -208 -249c3 -21 16 -42 34 -50c34 -6 74 2 109 27c70 58 115 133 133 210z" />
    <glyph glyph-name="ampersand" unicode="&#x26;" horiz-adv-x="790" 
d="M823 404c7 -46 -23 -77 -56 -102c-44 -21 -106 -21 -150 -15c-12 -14 -8 -41 -4 -60c15 -73 -16 -142 -71 -187c-107 -88 -288 -112 -415 -43c-10 14 -27 18 -42 20c-33 52 -79 85 -66 154c17 91 98 172 183 206c27 16 77 10 83 49c-31 19 -50 50 -56 81
c6 94 89 167 170 196c42 -2 112 23 143 -23c19 -23 40 -50 25 -83c-8 -29 -27 -52 -56 -67c-21 -2 -40 8 -48 27c-13 33 30 58 27 96c-18 19 -45 29 -72 19c-54 -15 -81 -69 -100 -115c-4 -45 -12 -104 33 -128c27 -7 48 4 71 -11c2 -66 -85 -10 -127 -33
c-79 -29 -188 -100 -191 -195c-1 -50 11 -96 46 -131c41 -25 83 -67 135 -60c27 -5 70 -5 104 0c12 10 29 10 45 16c86 65 160 162 150 268c-42 25 -94 58 -139 33c-11 -29 18 -49 8 -76c-17 -15 -40 -36 -60 -17c-21 20 -17 41 -13 68c50 79 158 88 243 75
c46 0 86 -72 125 -18c4 29 -38 44 -23 74c12 24 38 17 56 29c21 -8 38 -24 42 -47z" />
    <glyph glyph-name="quotesingle" unicode="'" horiz-adv-x="284" 
d="M188 791c89 0 28 -94 -2 -153c-34 -65 -19 -130 -74 -137c-42 -5 2 70 -2 129c-4 49 -15 161 78 161z" />
    <glyph glyph-name="parenleft" unicode="(" horiz-adv-x="411" 
d="M440 872c-14 2 -25 -6 -33 -16c-29 -69 -102 -113 -141 -175c-27 -42 -58 -83 -73 -131c-37 -33 -29 -83 -56 -120c-19 -85 -39 -177 -25 -272c0 -73 44 -129 60 -195c-10 -13 -27 -38 -45 -23c-57 97 -94 199 -102 316c16 60 -4 137 35 189c10 64 34 121 71 172
c73 101 160 181 253 257z" />
    <glyph glyph-name="parenright" unicode=")" horiz-adv-x="391" 
d="M413 482c10 -54 -29 -96 -27 -152c-33 -33 -34 -79 -52 -116c-36 -71 -108 -121 -143 -187c-31 -35 -73 -50 -94 -89c-12 -13 -31 -11 -48 -17c-16 8 -29 27 -18 46c48 41 91 89 135 131c54 62 75 139 108 209c18 79 54 154 56 239c-15 44 14 92 -11 131
c0 71 -64 123 -45 191c10 15 31 13 45 6c36 -33 38 -81 57 -122c4 -29 18 -52 20 -83c23 -54 23 -129 17 -187z" />
    <glyph glyph-name="asterisk" unicode="*" horiz-adv-x="440" 
d="M471 500c-41 -13 -83 -14 -116 14c-23 20 -27 69 -68 60c-32 -16 0 -43 -2 -66c41 -31 -5 -73 -5 -110l-22 -19c-32 19 -25 60 -42 87c-2 38 52 77 12 104c-51 7 -43 -58 -87 -66c-31 0 -75 -38 -93 4c12 37 48 66 83 81c25 2 66 -6 85 23c-17 54 -81 21 -118 41
c-25 25 -61 50 -46 86c33 8 81 4 112 -19c17 -21 31 -56 64 -60c46 45 -39 74 -8 128c8 25 8 59 38 75c43 -4 37 -56 47 -87c2 -42 -41 -73 -18 -116c35 8 60 49 87 72c29 0 60 17 89 0c19 -37 -35 -56 -48 -79c-39 -14 -97 2 -116 -41c35 -40 106 -11 135 -60
c17 -13 35 -29 37 -52z" />
    <glyph glyph-name="plus" unicode="+" horiz-adv-x="356" 
d="M379 294c0 -23 -10 -52 -31 -71c-31 -14 -65 -12 -99 -9c-6 -42 -12 -89 -58 -106c-26 -4 -54 6 -49 33l25 76c-45 -4 -101 -15 -108 29c2 25 21 56 49 58l72 -4c8 38 28 81 46 115c24 7 53 5 67 -12c7 -26 -3 -60 -16 -94c36 0 72 -8 102 -15z" />
    <glyph glyph-name="comma" unicode="," horiz-adv-x="359" 
d="M271 47c-15 -80 -89 -129 -151 -177c-19 -6 -46 -19 -65 -4c-18 2 -10 25 -8 35c39 25 101 19 120 75c8 23 -29 29 -27 52c-20 17 -27 46 -18 71c33 43 81 39 124 33c23 -23 31 -56 25 -85z" />
    <glyph glyph-name="hyphen" unicode="-" horiz-adv-x="352" 
d="M366 340c4 -20 12 -51 -7 -68c-83 -15 -182 -2 -261 -10c-23 2 -32 20 -38 41c-4 17 9 27 15 42c95 -9 199 29 291 -5z" />
    <glyph glyph-name="period" unicode="." horiz-adv-x="353" 
d="M257 84c15 -33 -8 -61 -23 -85c-21 -21 -52 -30 -79 -19c-18 23 -60 14 -60 48c-12 20 8 43 8 68c23 21 48 33 79 38c29 -5 61 -19 75 -50z" />
    <glyph glyph-name="slash" unicode="/" horiz-adv-x="383" 
d="M401 837c23 -23 -5 -66 -25 -102c-49 -155 -117 -305 -167 -463c13 -10 -8 -25 -13 -37c-21 -83 -61 -168 -80 -243c-12 -17 -27 -33 -57 -47c-28 0 -54 49 43 246c16 33 56 87 39 123c97 205 140 514 260 523z" />
    <glyph glyph-name="zero" unicode="0" horiz-adv-x="450" 
d="M479 418c-21 -65 -34 -133 -52 -198c-54 -78 -81 -159 -173 -213c-31 -30 -81 -25 -122 -19c-71 19 -94 97 -112 158c-3 110 22 236 78 338c40 92 121 210 231 229c35 -17 75 6 102 -34c60 -68 54 -174 48 -261zM385 470c2 52 15 126 -10 176c-25 13 -53 34 -79 15
c-132 -97 -140 -266 -187 -407c-11 -33 6 -63 -11 -94c13 -45 11 -114 75 -124c40 -13 60 27 90 45c51 69 62 154 93 233c6 54 19 104 29 156z" />
    <glyph glyph-name="one" unicode="1" horiz-adv-x="449" 
d="M453 694c-10 -91 -60 -164 -68 -257c-33 -67 -39 -147 -67 -216c-20 -52 -35 -102 -41 -158c33 -42 85 -15 135 -23c2 -6 10 -13 8 -23l-27 -19c-116 -12 -220 13 -332 -6c-21 0 -27 15 -38 29c-4 27 21 31 38 38c33 -7 80 -18 108 8c41 38 41 98 56 149
c31 109 66 214 102 322c-4 13 8 38 -13 40c-35 31 -129 -33 -126 41c27 38 81 10 120 27c47 11 81 61 133 61z" />
    <glyph glyph-name="two" unicode="2" horiz-adv-x="449" 
d="M472 606c13 -75 17 -173 -56 -225c-108 -106 -276 -145 -344 -288c-3 -13 2 -25 14 -29c96 22 233 -40 299 66c8 2 15 0 19 -6c-6 -54 -42 -94 -71 -135c-41 -21 -99 8 -145 -13c-56 21 -119 -10 -173 5c-41 62 26 117 57 168c83 136 278 207 321 367
c-14 13 -2 38 -12 56c-15 34 -52 52 -85 59c-69 -5 -112 -56 -160 -100c-13 -2 -21 2 -27 10c8 36 53 68 79 90c76 61 237 87 284 -25z" />
    <glyph glyph-name="three" unicode="3" horiz-adv-x="469" 
d="M464 467c-40 -50 -94 -63 -139 -100c4 -33 43 -52 60 -79c25 -60 35 -145 -9 -202c-12 -37 -54 -58 -76 -93c-75 -44 -183 -50 -260 -8c-19 25 -42 56 -21 85c13 27 42 28 63 19c52 -24 78 -111 153 -75c50 14 82 68 94 112c13 52 0 102 -46 135c-27 50 -112 23 -112 83
c77 60 263 75 224 224c-6 26 -37 38 -58 48c-64 21 -98 -48 -147 -56c-9 10 -15 23 -7 33c61 79 175 127 266 69c58 -52 27 -133 15 -195z" />
    <glyph glyph-name="four" unicode="4" horiz-adv-x="439" 
d="M464 677c-4 -71 -54 -118 -56 -187c-20 -54 -37 -106 -50 -162c-2 -27 -29 -58 -6 -81c33 -25 119 35 100 -42c-33 -22 -85 -22 -123 -14c-22 -27 -14 -69 -37 -94c-4 -41 -15 -78 -27 -116c-15 -25 -50 -25 -77 -19c-46 61 33 111 33 173c19 10 11 37 7 52
c-40 31 -92 4 -137 6c-21 15 -61 -19 -71 19c-9 35 23 54 44 83c51 54 93 116 143 168c18 19 35 37 43 60c48 48 79 102 117 154c18 21 52 21 79 14c6 -4 16 -4 18 -14zM329 511c-8 85 -35 -29 -70 -33c-48 -50 -83 -119 -135 -165c-6 -24 -54 -29 -38 -60l146 -6l18 6
c32 85 42 177 79 258z" />
    <glyph glyph-name="five" unicode="5" horiz-adv-x="449" 
d="M478 694c-14 -37 -42 -81 -79 -100c-48 7 -91 3 -137 7c-46 -27 -52 -85 -69 -131c32 -11 63 -25 98 -15c46 -10 100 -41 127 -89c0 -17 0 -31 12 -42c-2 -139 -70 -274 -195 -340c-58 -23 -143 -23 -195 14c-23 21 -31 52 -21 79c6 17 23 23 37 31c77 7 85 -139 171 -83
c76 38 101 117 120 187c-4 63 0 119 -60 154c-50 17 -100 -10 -154 -12c-14 35 13 68 19 101c29 69 54 139 75 210c27 25 54 13 87 19c62 -23 104 37 149 60c21 -4 21 -33 15 -50z" />
    <glyph glyph-name="six" unicode="6" horiz-adv-x="493" 
d="M501 694c-83 -44 -145 -112 -220 -172c-16 -9 -16 -25 -16 -40c18 -23 54 -6 74 -16c54 -3 86 -38 121 -75c33 -69 34 -167 0 -235c-24 -48 -67 -95 -112 -127c-52 -45 -129 -22 -191 -22c-54 27 -119 81 -112 149c-28 89 9 166 51 239c55 93 144 176 233 233
c8 27 39 22 60 33c29 27 69 64 112 45v-12zM408 264c-8 50 -9 105 -52 139c-34 28 -77 33 -125 29c-68 -81 -118 -178 -112 -295c15 -37 42 -74 83 -85c54 -14 104 15 137 52c41 45 42 108 69 160z" />
    <glyph glyph-name="seven" unicode="7" horiz-adv-x="440" 
d="M462 657c-96 -115 -202 -229 -262 -356c-29 -81 -83 -153 -94 -243c-10 -22 -33 -41 -51 -56c-23 2 -50 9 -56 34c-3 81 58 133 89 199c23 6 25 42 43 52c34 50 77 102 121 141c23 79 114 112 139 187l-31 19c-94 -23 -237 43 -280 -71h-11c-2 31 23 60 19 98
c23 33 29 91 79 93c10 -14 18 -29 33 -41c85 -9 183 4 262 -11c18 -12 6 -33 0 -45z" />
    <glyph glyph-name="eight" unicode="8" horiz-adv-x="452" 
d="M470 628c12 -67 -4 -129 -56 -173c-29 -46 -123 -27 -98 -102c63 -74 96 -182 56 -276c-52 -66 -133 -89 -214 -79c-64 9 -130 48 -145 117c-2 66 6 149 79 180c29 38 108 54 93 119c-49 54 -64 135 -45 201c33 64 91 91 158 98c66 -7 147 -9 172 -85zM395 623
c-25 44 -68 52 -112 52c-29 -12 -55 -16 -73 -47c-42 -75 25 -142 61 -202c54 -14 85 40 116 75c25 35 17 81 8 122zM308 85c32 52 10 115 -10 169c-34 27 -44 87 -90 89c-79 -29 -122 -110 -128 -187c14 -44 29 -81 72 -108c56 -10 119 -21 156 37z" />
    <glyph glyph-name="nine" unicode="9" horiz-adv-x="399" 
d="M427 534c11 -195 -130 -349 -274 -471c-52 -11 -87 -71 -141 -65v27c83 54 179 110 231 198c-13 47 -69 2 -100 27c-67 22 -127 81 -131 153c-19 94 23 171 75 239c60 46 131 85 216 64c39 -2 62 -39 89 -64c19 -33 27 -71 35 -108zM353 553c-9 25 -17 52 -23 79
c-19 39 -60 41 -98 43c-91 -33 -129 -131 -141 -216c-21 -50 0 -112 39 -149c38 -27 88 -42 131 -31c54 83 92 174 92 274z" />
    <glyph glyph-name="colon" unicode=":" horiz-adv-x="367" 
d="M272 378c-23 -27 -56 -37 -87 -27c-25 2 -33 33 -52 48c-21 45 19 72 48 97c35 7 62 -9 87 -29c33 -25 4 -60 4 -89zM185 33c-14 -21 -35 -39 -60 -48c-29 3 -58 17 -75 44c-10 31 2 62 19 87c29 27 74 13 106 0c8 -27 29 -56 10 -83z" />
    <glyph glyph-name="semicolon" unicode=";" horiz-adv-x="403" 
d="M360 458c6 -35 -4 -69 -38 -85c-24 -21 -51 4 -78 6c-17 23 -29 54 -19 83c19 12 35 29 56 33c31 0 66 -8 79 -37zM233 111c46 -48 9 -114 -10 -162c-36 -64 -106 -87 -168 -108c-13 8 -27 29 -17 46c35 37 118 25 125 93c-13 21 -36 44 -50 67c-2 27 2 52 18 70
c30 21 75 13 102 -6z" />
    <glyph glyph-name="equal" unicode="=" horiz-adv-x="368" 
d="M394 338c1 -20 -8 -46 -29 -62c-47 -20 -103 -4 -153 -4c-45 1 -126 -23 -137 24c2 22 20 49 47 51l105 -5c50 18 118 7 167 -4zM362 218c24 0 1 -55 -29 -62c-49 -11 -103 -4 -153 -3c-45 1 -127 -24 -137 23c2 22 20 49 47 51c96 -5 170 -9 272 -9z" />
    <glyph glyph-name="question" unicode="?" horiz-adv-x="526" 
d="M446 559c-66 -131 -220 -176 -305 -299c2 -14 -10 -36 11 -45c31 -14 45 43 70 8c6 -29 -25 -40 -41 -52c-23 -8 -52 -4 -71 10c-27 17 -25 52 -19 79c40 81 127 137 183 210c31 56 110 96 91 168l-49 38c-56 -13 -113 -44 -146 -98c-6 -19 -14 -46 0 -64
c17 -17 38 -15 56 -7c38 25 46 73 85 90c13 -17 -4 -42 -6 -61c-39 -41 -81 -89 -139 -74c-21 2 -39 27 -48 45c-18 29 4 61 4 86c36 49 96 89 150 120c64 15 131 -4 168 -56c29 -27 4 -64 6 -98zM174 13c-13 -27 -39 -33 -64 -37c-33 8 -66 10 -81 47c-2 30 -1 56 19 75
c29 29 79 27 112 4c27 -22 28 -60 14 -89z" />
    <glyph glyph-name="at" unicode="@" horiz-adv-x="992" 
d="M986 -24c-2 -23 -9 -48 -34 -60c-68 -15 -116 -83 -191 -90c-160 -101 -384 -39 -538 34c-54 60 -162 112 -168 201c-35 81 -47 203 -4 285c-1 72 58 128 98 187c162 145 367 251 592 182l29 -18c29 6 41 -34 70 -34c150 -106 157 -306 112 -459
c-27 -94 -118 -198 -216 -228c-43 -13 -83 2 -116 27c-19 19 -21 52 -48 62c-52 -50 -110 -111 -191 -85c-62 20 -111 85 -116 150c-10 124 79 231 179 295c46 29 101 29 153 10c13 -10 25 -29 46 -21c17 40 60 40 98 33c12 -22 6 -54 -9 -74c-16 -110 -73 -210 -66 -326
c1 -17 21 -27 37 -34c71 -8 119 54 160 104c69 119 109 298 15 416c-88 109 -223 178 -366 139c-165 -46 -327 -166 -386 -337c-45 -128 -24 -275 68 -374c145 -153 398 -149 580 -79c65 26 120 77 183 113c14 4 29 -5 29 -19zM610 377c-11 29 -44 43 -75 37
c-37 -14 -75 -40 -94 -73c-50 -90 -122 -205 -64 -309c17 -10 35 -24 56 -23c73 5 121 89 154 146c23 70 51 145 23 222z" />
    <glyph glyph-name="A" unicode="A" horiz-adv-x="789" 
d="M765 698c-15 -54 -20 -108 -34 -158c-22 -83 -18 -183 -45 -268c-2 -73 -27 -143 -23 -214c16 -50 89 6 93 -48l-23 -14h-263c-13 4 -7 16 -9 25c31 12 69 8 102 18c25 29 12 64 21 94c9 31 16 70 23 106c-4 10 -15 16 -23 25c-98 -21 -233 37 -295 -63l-94 -112
c-12 -43 34 -46 57 -60c14 -4 31 6 41 -8c4 -11 -6 -15 -10 -23c-46 0 -94 -17 -135 0c-48 10 -108 -40 -135 16c8 11 8 27 23 38c68 -2 108 56 153 93c31 38 77 69 108 114c27 9 27 38 48 54c81 67 133 160 214 221c39 60 98 114 137 174c19 11 58 17 69 -10zM644 559
c-23 6 -39 -15 -52 -30c-52 -83 -137 -137 -183 -224c59 -25 123 0 187 -8c19 19 25 48 23 79c6 31 0 68 19 93c-13 36 21 63 6 90z" />
    <glyph glyph-name="B" unicode="B" horiz-adv-x="707" 
d="M719 598c10 -54 1 -111 -33 -154c-34 -41 -81 -49 -121 -81c-2 -27 35 -41 54 -56c42 -39 60 -97 40 -153c-36 -52 -69 -123 -138 -135c-145 -63 -303 -19 -471 -38c-19 2 -10 23 -15 34c17 27 52 10 79 16c48 67 61 148 75 227c21 22 2 62 29 83c13 76 48 149 56 224
c9 23 27 54 4 75c-20 14 -62 -4 -68 33c8 41 58 12 83 27c143 -31 336 54 426 -102zM619 594c-37 44 -91 60 -143 56c-123 15 -102 -139 -141 -212c-7 -21 -23 -50 0 -68c78 -2 168 -2 228 45c62 38 64 113 56 179zM559 145c15 57 2 102 -27 148c-62 39 -141 43 -216 39
l-38 -89c-6 -21 -2 -46 -18 -62c2 -54 -33 -98 -31 -148l222 -2c43 19 96 67 108 114z" />
    <glyph glyph-name="C" unicode="C" horiz-adv-x="622" 
d="M666 621c0 -21 0 -52 -14 -66c-50 14 -67 68 -108 89c-65 25 -150 39 -210 -4c-108 -63 -172 -183 -206 -295c-20 -112 -22 -247 86 -314c49 -25 93 -4 145 -4c46 4 75 48 112 71c15 18 27 47 56 41c29 -48 -43 -73 -66 -108c-46 -8 -73 -58 -121 -56
c-45 -23 -110 -33 -160 -12c-47 27 -116 60 -122 120c-65 125 -19 280 39 388c13 19 23 40 38 57l4 14c106 137 272 191 438 143c35 -16 66 48 89 2v-66z" />
    <glyph glyph-name="D" unicode="D" horiz-adv-x="786" 
d="M796 312c-32 -110 -97 -208 -191 -281c-23 8 -35 -14 -52 -19c-143 -64 -343 -20 -505 -37c-16 6 -14 25 -12 37c29 32 106 -8 110 59c37 112 58 232 96 344c2 65 40 123 49 191c11 75 -135 -12 -74 75c56 -10 122 4 182 4c148 0 322 24 393 -124c37 -78 28 -168 4 -249z
M713 374c13 93 4 191 -79 247c-60 19 -127 27 -197 23c-71 -19 -62 -108 -94 -162c-16 -131 -67 -258 -101 -389c-5 -18 -9 -45 4 -62h251c69 29 121 97 156 156c34 58 46 125 60 187z" />
    <glyph glyph-name="E" unicode="E" horiz-adv-x="731" 
d="M758 592c-7 -17 -3 -46 -27 -35c-73 103 -198 108 -314 101c-62 -68 -77 -160 -104 -243c-8 -14 -17 -33 -8 -47l10 -13c112 11 251 -35 297 94l21 18c25 -8 8 -31 8 -47c-23 -69 -41 -138 -70 -202h-13c-2 37 -4 81 -39 104l-214 8c-33 -10 -27 -50 -42 -75
c-21 -70 -50 -143 -48 -218c17 -16 42 -12 63 -18c133 10 278 -17 378 83c27 -2 31 41 60 25c8 -21 -10 -44 -23 -63c-14 -2 -19 -12 -25 -22c-6 -19 -21 -38 -37 -48c-204 -9 -393 0 -596 2c-2 6 -4 12 -2 19c23 31 85 -15 93 41c19 58 33 116 58 172c-2 44 38 84 31 127
c23 50 30 106 52 158c2 50 46 110 -8 145c-21 -6 -48 -6 -66 9c-7 12 10 20 18 25c164 0 335 4 505 -5c29 -24 19 -66 42 -95z" />
    <glyph glyph-name="F" unicode="F" horiz-adv-x="675" 
d="M708 611c8 -19 4 -40 -8 -54c-40 41 -81 87 -138 106c-54 6 -110 2 -157 4c-67 -23 -52 -98 -75 -148c2 -58 -87 -112 -23 -160c110 0 237 -18 285 104c6 4 10 -2 14 -6c-21 -79 -37 -164 -66 -239c-29 4 -9 44 -19 62c-23 102 -131 23 -195 61c-23 -9 -50 4 -58 -27
c-11 -83 -54 -152 -65 -235c-8 -10 -16 -25 -8 -37c25 -30 60 -7 91 -27c4 -3 2 -7 2 -11c-70 -21 -145 -8 -220 -10c-14 -9 -37 -4 -48 10c7 46 61 6 86 33c49 115 49 248 105 360c-6 35 23 58 19 93c19 19 4 52 25 71c2 29 19 50 13 83c-23 46 -94 -21 -75 43l10 9
c160 -13 324 8 478 -4c14 -25 19 -54 27 -81z" />
    <glyph glyph-name="G" unicode="G" horiz-adv-x="667" 
d="M684 629c-16 -18 7 -66 -33 -56c-41 29 -64 71 -112 96c-118 39 -227 -14 -309 -100c-97 -101 -106 -237 -121 -370c17 -66 35 -139 102 -176c46 -13 85 -19 135 -11c29 13 62 13 85 44c17 62 91 127 42 187c-21 8 -63 -12 -65 23l13 10c79 0 155 4 238 -2
c7 -6 9 -12 7 -19c-23 -20 -61 -6 -81 -31c-38 -45 -31 -110 -52 -164c-15 -18 -4 -48 -23 -64c-91 43 -166 -46 -266 -25c-79 6 -166 48 -191 131c-6 66 -44 141 -19 216c40 172 173 351 355 388c86 38 162 -21 248 -6l22 19c48 -2 17 -65 25 -90z" />
    <glyph glyph-name="H" unicode="H" horiz-adv-x="885" 
d="M948 669c-21 -6 -56 0 -79 -19c-60 -85 -64 -197 -97 -295c-21 -21 -11 -56 -29 -79c-7 -68 -29 -133 -52 -197c-15 -23 4 -42 23 -56c24 -2 54 6 74 -8c0 -27 -33 -9 -45 -21l-239 2c-9 6 -13 14 -13 23c34 4 79 4 106 31l11 10c18 90 54 173 70 262
c-56 27 -116 14 -183 14h-174c-56 -37 -46 -116 -83 -168c17 -50 -48 -106 8 -145c21 2 56 10 75 -8c2 -9 -8 -11 -12 -19c-81 -11 -177 8 -258 -2c-10 6 -21 10 -23 25c35 23 83 -1 98 50c32 107 75 211 93 324c19 39 21 93 42 124c-4 48 54 100 6 141
c-25 7 -64 -14 -75 19c0 17 19 19 27 27c48 -14 112 -6 160 -8c33 -13 96 27 121 -19c-38 -33 -117 -4 -131 -75c-4 -37 -19 -72 -29 -108c4 -45 -63 -95 0 -126h338c33 18 31 56 46 85c2 66 37 124 41 187c-18 47 -81 -4 -93 45c27 19 58 7 89 7l179 -5c8 -4 8 -10 8 -18z
" />
    <glyph glyph-name="I" unicode="I" horiz-adv-x="442" 
d="M473 696c-31 -25 -79 -11 -97 -56c-34 -81 -46 -171 -71 -254c-33 -70 -40 -149 -69 -222c13 -48 -56 -93 0 -133l69 -4v-12c-77 -17 -187 -3 -266 -7l-10 11c29 25 87 10 104 56c8 37 22 68 22 108c40 108 56 222 100 326c13 48 21 100 31 149c-16 29 -52 19 -79 27
c-10 19 15 19 23 29c81 -16 170 19 243 -8v-10z" />
    <glyph glyph-name="J" unicode="J" horiz-adv-x="497" 
d="M533 677c-15 -17 -40 -8 -56 -14c-67 -42 -56 -121 -84 -181c-24 -94 -51 -187 -78 -281c-27 -60 -42 -126 -94 -178c-21 2 -29 -30 -48 -29c-37 -23 -77 -9 -116 2c-15 19 -35 27 -37 50c4 23 18 45 41 60c25 8 58 2 67 -23c10 -19 25 -48 49 -46c48 27 13 88 44 121
c23 158 85 299 129 448c2 17 10 46 -8 61c-23 10 -75 -13 -71 29c15 16 44 18 62 8h185c10 -4 17 -14 15 -27z" />
    <glyph glyph-name="K" unicode="K" horiz-adv-x="785" 
d="M836 673c-38 -29 -94 -17 -131 -52c-98 -62 -191 -145 -287 -210v-25c83 -104 130 -223 202 -330c31 -47 104 13 122 -44l-10 -12c-87 -6 -179 12 -270 0c-6 2 -17 12 -19 19c17 35 73 -9 79 37c-43 102 -120 189 -168 289c-40 8 -71 -23 -98 -52
c-4 -65 -50 -116 -43 -181c-4 -21 -11 -41 -13 -62c19 -35 69 -8 83 -38l-18 -12h-235c-4 6 -17 10 -13 19c32 29 95 6 106 64c25 127 65 249 104 370c-12 37 27 64 19 104c8 33 31 64 23 97c-25 29 -85 -14 -79 38c21 22 45 1 70 4c65 7 125 2 187 4c11 -2 13 -15 13 -23
c-38 -27 -108 -4 -116 -64c-13 -40 -9 -73 -32 -108c-8 -52 -45 -98 -29 -156c48 12 71 60 117 77c83 64 168 129 247 205c-6 17 -19 34 -36 42c-10 0 -27 -17 -37 0c-10 12 6 25 17 31c81 -2 160 2 243 -4c2 -8 10 -19 2 -27z" />
    <glyph glyph-name="L" unicode="L" horiz-adv-x="658" 
d="M654 150c15 -50 -41 -79 -45 -127l-42 -19c-183 -2 -357 4 -542 0c-8 2 -12 13 -10 23c35 10 83 4 101 48c44 156 88 318 133 467c2 44 61 104 -2 131c-18 -2 -50 -10 -64 8c-2 13 4 23 14 25c92 0 173 4 262 -2l13 -19c-27 -43 -94 9 -113 -49c-2 -34 -27 -59 -27 -94
c-24 -33 -18 -80 -33 -118c-39 -103 -62 -214 -93 -318c0 -27 -4 -56 18 -73c88 -10 184 -3 266 23c57 18 112 46 152 94h12z" />
    <glyph glyph-name="M" unicode="M" horiz-adv-x="963" 
d="M1028 677c-33 -14 -79 0 -102 -41c-33 -42 -27 -99 -43 -146c-42 -117 -67 -239 -110 -355c14 -35 -34 -85 16 -108c23 -2 56 4 67 -19l-15 -12c-60 4 -127 -6 -176 8c-27 -8 -73 -19 -98 8c23 19 64 7 91 25c42 61 50 133 67 202c21 12 4 39 23 54c12 46 12 95 37 137
c19 50 6 98 33 143c0 19 19 48 -4 56c-127 -203 -251 -407 -378 -610c-14 -4 -14 -25 -33 -23c-35 62 -6 139 -25 205c0 84 0 173 -17 252c9 48 2 106 -6 158c-6 10 -12 2 -19 0c-41 -106 -41 -227 -97 -326c6 -50 -9 -100 -29 -142c-4 -35 -34 -85 10 -110
c25 -6 52 -16 75 -18c6 -13 -11 -21 -19 -21c-85 -9 -154 0 -235 -9c-8 9 -20 17 -16 30c25 31 57 3 83 27c109 98 91 261 145 382c2 39 31 70 31 112c11 33 23 70 19 108c-23 52 -87 -4 -93 52l20 14l192 -4c31 -31 -5 -62 14 -100c4 -151 8 -311 27 -461l8 -6
c29 38 59 73 77 116c52 75 97 154 144 231c42 70 87 143 135 214c66 19 122 10 193 6c8 -6 16 -19 8 -29z" />
    <glyph glyph-name="N" unicode="N" horiz-adv-x="829" 
d="M889 687c-38 -22 -98 -12 -117 -62c-58 -158 -73 -333 -141 -486c-15 -51 0 -141 -68 -154c-40 27 -27 77 -57 108c-18 77 -53 147 -78 221c-31 86 -59 172 -104 251c-38 0 -21 -48 -42 -67c-29 -112 -61 -221 -89 -334c-10 -39 -21 -87 19 -118c22 -4 54 -4 64 -27
c-75 -25 -158 -13 -241 -11c-2 4 -15 9 -10 19c27 25 67 11 93 42c64 75 56 182 94 272c12 95 62 178 70 276c-2 21 -6 41 -25 56c-21 8 -52 -2 -60 23c19 52 87 12 131 18c10 5 29 9 37 -4c69 -182 131 -365 206 -546c8 -4 12 -21 25 -14c64 137 72 294 129 434
c10 35 -3 70 -32 93c-20 -2 -43 0 -52 19c0 35 50 27 67 23c44 8 95 -19 135 6c17 6 27 -6 41 -11c7 -6 3 -18 5 -27z" />
    <glyph glyph-name="O" unicode="O" horiz-adv-x="686" 
d="M720 411c-4 -95 -47 -176 -99 -253c-34 -31 -54 -79 -102 -94c-46 -60 -123 -52 -183 -79c-85 0 -166 9 -228 65c-63 75 -81 168 -61 264c7 70 38 140 79 199c77 109 189 199 322 220c56 -21 125 15 169 -37c78 -67 130 -179 103 -285zM639 444c-6 59 1 122 -33 167
c-26 34 -56 56 -91 76c-46 -2 -96 11 -133 -24c-112 -40 -168 -158 -218 -252c-19 -60 -29 -110 -38 -174c9 -85 30 -191 127 -214c115 -27 216 39 280 131c11 31 42 56 46 89c42 56 42 135 60 201z" />
    <glyph glyph-name="P" unicode="P" horiz-adv-x="674" 
d="M719 569c15 -74 -29 -135 -75 -191c-48 -21 -94 -41 -141 -60c-75 -21 -146 -21 -225 -15c-54 -70 -52 -164 -79 -247c-12 -20 5 -41 25 -43c29 0 58 0 79 -15v-12c-104 -9 -199 2 -299 4c8 48 69 14 89 52c29 52 42 109 61 164c18 53 27 108 50 158c-7 41 22 74 18 112
c21 23 19 62 29 93c17 15 11 40 15 61c-15 51 -89 -11 -81 51l19 11c141 -6 305 2 440 -21c39 -25 65 -58 75 -102zM625 578c-6 39 -50 66 -85 70c-62 -6 -164 36 -187 -45c-25 -89 -62 -175 -64 -268c95 -9 197 18 280 66c42 48 75 110 56 177z" />
    <glyph glyph-name="Q" unicode="Q" horiz-adv-x="732" 
d="M729 509c15 -135 -42 -263 -124 -364c-55 -67 -135 -128 -229 -133c-48 -24 -106 5 -141 -49c-10 -9 0 -23 10 -25c81 -19 181 -64 260 -9c66 -2 93 92 150 104l6 -6c-42 -83 -127 -185 -229 -187c-47 -23 -110 -10 -151 19c-44 0 -69 50 -117 25
c-27 -15 -43 -67 -79 -48c-12 6 -20 27 -10 41c52 30 94 79 145 113c-6 41 -62 22 -83 60c-52 48 -81 104 -89 170c-12 6 -8 17 -4 27c-8 139 64 254 149 359c96 96 220 171 364 135c51 -12 98 -56 131 -101c16 -42 43 -81 41 -131zM638 546c-17 31 -19 69 -44 98
c-25 56 -85 60 -139 66c-50 -8 -95 -35 -135 -62c-48 -46 -80 -94 -108 -147c-63 -121 -110 -300 -14 -422c29 -31 68 -42 108 -52c99 -2 185 77 236 154c74 108 92 226 96 365z" />
    <glyph glyph-name="R" unicode="R" horiz-adv-x="753" 
d="M771 555c0 -79 -76 -135 -141 -162l-116 -29c-42 -29 14 -54 8 -85c48 -94 50 -258 193 -260c9 -6 23 -8 23 -21c-62 -27 -124 -12 -191 -8c-37 77 -59 160 -89 239c-17 44 -33 89 -65 126c-39 -4 -101 17 -112 -39c-4 -56 -33 -102 -33 -158c-15 -44 -52 -104 -10 -141
c22 -4 49 6 66 -8l-4 -15c-81 -27 -170 4 -258 -12c-8 8 -12 18 -10 31c44 8 96 23 112 70c23 137 71 262 108 393c0 56 27 102 33 158c-8 52 -106 -15 -85 56c60 16 131 -3 191 0c88 3 181 2 264 -13c52 -23 108 -62 116 -122zM674 592c-44 85 -152 62 -231 67l-31 -7
c-25 -18 -52 -47 -52 -83c-19 -52 -21 -110 -48 -158c-4 -54 56 -20 86 -29c81 13 152 10 218 65c42 35 74 87 58 145z" />
    <glyph glyph-name="S" unicode="S" horiz-adv-x="616" 
d="M654 570c0 -17 0 -37 -17 -42c-12 5 -31 15 -37 29c-12 50 -68 67 -95 102c-52 23 -118 46 -162 4c-44 2 -73 -43 -86 -79c-25 -120 111 -171 179 -238c57 -57 102 -137 83 -225c-33 -60 -77 -133 -154 -139c-103 -37 -191 38 -288 8c-17 7 -42 -2 -40 25
c4 40 -8 79 -18 117c2 14 8 35 20 37c36 5 25 -33 42 -48c62 -79 150 -130 247 -116c46 7 73 48 98 85c14 54 5 116 -27 158c-61 78 -156 104 -206 193c15 31 -27 44 -6 73c-11 37 18 77 29 114c79 67 184 130 289 73c36 -20 81 -9 118 2c35 -31 10 -94 31 -133z" />
    <glyph glyph-name="T" unicode="T" horiz-adv-x="662" 
d="M700 572l-4 -25c-60 -2 -60 85 -120 100c-17 10 -40 8 -48 31c37 46 91 6 141 19c27 -36 25 -81 31 -125zM516 678c-25 -29 -84 -2 -94 -52c-31 -58 -31 -129 -58 -187c-2 -75 -42 -131 -54 -199l-56 -193c16 -50 95 6 97 -50l-10 -7l-276 3c-8 4 -4 12 -4 18
c20 29 47 9 74 19c57 54 60 131 81 199c18 57 44 115 50 173c17 72 51 139 71 212c7 25 -10 45 -29 51c-94 9 -189 -29 -241 -112c-13 -6 -23 -16 -37 -18c-17 16 0 35 0 54c35 37 33 103 91 114c129 -15 255 -2 388 -11c4 -4 11 -8 7 -14z" />
    <glyph glyph-name="U" unicode="U" horiz-adv-x="719" 
d="M770 696c-106 -54 -115 -175 -146 -272c-8 -56 -10 -112 -41 -158v-27c-27 -87 -85 -175 -169 -227c-24 7 -41 -9 -62 -16c-79 -27 -162 2 -237 19c-37 33 -77 78 -81 130c-4 56 5 119 23 169c9 54 40 101 44 157c12 40 19 81 41 117c-10 33 40 79 -14 97
c-27 13 -50 -29 -69 7c-6 31 34 18 50 27c73 -7 150 10 224 0c11 -7 15 -21 7 -32c-42 -6 -99 -8 -112 -62c-29 -113 -57 -224 -94 -332c-6 -56 -27 -121 -6 -177s79 -89 135 -97c108 -7 205 70 253 168c23 60 46 120 52 187c21 37 36 79 46 120c5 21 29 40 14 63
c19 20 11 58 9 83c-23 14 -44 50 -79 41c-13 6 -15 21 -9 29c48 17 111 0 158 15c17 -17 71 8 63 -29z" />
    <glyph glyph-name="V" unicode="V" horiz-adv-x="683" 
d="M732 706c2 -25 -33 -41 -54 -52c-102 -91 -188 -208 -291 -309c-113 -111 -214 -235 -322 -345c-12 -6 -31 -19 -43 -4l-9 12c25 183 71 360 90 547c8 39 35 103 -6 132c-27 5 -67 -10 -73 23c19 29 62 7 91 19c63 -6 121 -2 183 -4c10 -4 31 -6 23 -25
c-35 -37 -103 15 -116 -46c-27 -118 -42 -247 -61 -361c-20 -38 -6 -96 -27 -135c0 -13 0 -23 13 -31c133 122 241 263 369 386c17 46 100 77 79 137c-15 46 -79 21 -83 64l15 11c77 -13 156 16 222 -19z" />
    <glyph glyph-name="W" unicode="W" horiz-adv-x="997" 
d="M1069 673c-139 -87 -230 -241 -333 -366c-92 -101 -174 -220 -261 -317c-13 -15 -29 -15 -46 -19c-31 31 -2 74 4 108c19 97 27 201 48 291c-13 27 27 83 -19 87c-48 -52 -97 -102 -131 -162c-47 -27 -67 -89 -108 -131c-61 -63 -101 -143 -172 -193
c-27 -8 -31 17 -37 33c39 214 76 434 97 650c-18 48 -99 -18 -81 50c36 23 92 3 137 2c42 -1 83 8 125 -6c0 -10 0 -25 -13 -27c-35 6 -64 -6 -81 -37c-27 -75 -10 -167 -41 -239c8 -58 -17 -112 -23 -169l-10 -101c8 -11 18 -2 29 0c106 120 197 245 295 367
c54 31 69 96 60 154c-7 46 -116 -2 -67 56c79 -8 173 17 246 -8c-5 -40 -59 -15 -77 -42c-27 -25 -13 -68 -31 -97c-17 -137 -44 -279 -48 -412c2 -6 8 -12 14 -18c17 18 52 29 48 56c104 135 231 272 322 411c-6 23 -2 54 -25 64c-21 2 -44 7 -54 27c-2 17 19 11 27 19
c73 -2 127 2 195 0c11 -8 11 -19 11 -31z" />
    <glyph glyph-name="X" unicode="X" horiz-adv-x="772" 
d="M826 681c-83 -25 -152 -89 -206 -149c-44 -63 -114 -92 -149 -162c37 -108 81 -214 139 -314c23 -39 74 -17 104 -33c6 -29 -32 -4 -38 -27l-235 4l-18 12c16 30 68 -2 81 38c-6 64 -50 112 -63 174c-16 23 -20 52 -45 69c-54 -25 -90 -81 -127 -125
c-33 -16 -52 -52 -79 -79c-8 -29 15 -52 37 -62c17 2 30 -6 42 -15c-42 -33 -79 -1 -127 -12c-41 -10 -93 -6 -128 8c-11 15 12 27 27 34c93 18 157 108 224 172l112 108c4 95 -62 172 -85 262c-23 27 -29 68 -69 79c-22 -3 -43 2 -62 10c0 12 -6 29 6 37
c81 13 150 -27 229 -4c16 -6 47 2 52 -21c-9 -33 -44 -6 -67 -18c-43 -38 8 -85 19 -125c19 -41 25 -87 60 -122c69 41 121 112 179 174c0 17 14 33 4 50c-13 33 -65 10 -69 48l19 14c77 -6 150 15 222 -2c4 -8 15 -12 11 -23z" />
    <glyph glyph-name="Y" unicode="Y" horiz-adv-x="673" 
d="M721 687c6 -39 -58 -41 -83 -70c-98 -112 -195 -238 -289 -347c-51 -59 -80 -131 -114 -199c-10 -20 -2 -40 6 -56c27 -9 67 2 87 -11c-6 -14 -29 -14 -45 -19c-79 -6 -173 0 -258 5c-4 6 -10 10 -8 18c50 21 109 -2 131 63c26 78 104 153 52 243
c-23 106 -32 216 -59 317c-18 48 -147 -4 -74 69c74 -15 166 -4 243 -8c0 -11 12 -19 2 -29c-31 -7 -83 2 -85 -46c8 -75 35 -154 41 -235c11 -21 13 -50 11 -70c12 -13 16 -32 33 -36c91 92 164 191 241 289c10 21 16 54 2 75c-19 28 -83 2 -71 47c38 27 71 -6 108 17
c40 -14 94 -4 129 -17z" />
    <glyph glyph-name="Z" unicode="Z" horiz-adv-x="700" 
d="M723 691c14 -65 -65 -86 -90 -131c-99 -115 -209 -243 -328 -343c-41 -73 -114 -106 -149 -177c4 -6 4 -14 10 -18c143 -25 301 0 397 108c21 4 33 41 56 27c25 -56 -40 -94 -48 -146c-56 -41 -120 -14 -181 -22c-112 10 -218 -7 -336 0c-10 4 -19 18 -29 27
c4 62 79 76 108 130c79 94 189 189 276 277c48 70 106 118 162 187c-4 22 23 41 -8 56c-141 14 -262 -50 -360 -140c-18 21 5 42 9 61c25 41 39 110 99 112c34 -15 65 -4 98 -8c102 4 202 10 307 8z" />
    <glyph glyph-name="bracketleft" unicode="[" horiz-adv-x="402" 
d="M427 808c-47 -46 -115 4 -154 -48c-6 -56 -60 -108 -46 -158c-38 -87 -29 -162 -78 -251c-15 -112 -66 -239 -79 -351c19 -37 75 -6 113 -10c12 -2 22 -11 23 -23c-3 -19 -21 -31 -39 -38c-43 -4 -88 19 -131 0c-27 0 -73 -16 -79 15c15 79 57 164 64 239
c54 207 134 407 138 598c9 21 8 62 41 68c51 -2 114 -6 160 -14c20 14 42 2 60 0c4 -8 17 -15 7 -27z" />
    <glyph glyph-name="backslash" unicode="\" horiz-adv-x="416" 
d="M401 -55c-120 9 -163 318 -260 523c17 35 -23 89 -39 123c-97 197 -71 246 -43 246c30 -14 45 -30 57 -47c19 -75 59 -160 80 -243c5 -13 26 -27 13 -37c50 -158 118 -308 167 -464c20 -35 48 -79 25 -101z" />
    <glyph glyph-name="bracketright" unicode="]" horiz-adv-x="382" 
d="M399 837c25 -23 1 -66 -17 -102c-36 -155 -90 -305 -126 -463c13 -10 -7 -25 -10 -37c-14 -83 -48 -168 -59 -243c-11 -17 3 -42 -26 -56c-61 -21 -99 25 -163 4c-16 -6 -37 -6 -43 8c1 13 6 29 23 33c28 -4 59 -4 88 -4c72 56 59 141 89 214c13 33 48 87 29 123
c60 156 71 299 117 453c-12 56 -107 -5 -131 37c-1 21 16 23 31 33c62 -19 127 8 198 0z" />
    <glyph glyph-name="asciicircum" unicode="^" horiz-adv-x="388" 
d="M368 499c-36 -25 -63 22 -119 43c-13 5 -27 10 -42 15c-40 -16 -133 -77 -161 -58c-28 20 39 42 69 80c10 13 26 31 43 48c2 2 4 4 6 7c15 13 29 18 43 17c37 2 72 -46 92 -72c30 -38 98 -60 69 -80z" />
    <glyph glyph-name="underscore" unicode="_" horiz-adv-x="697" 
d="M702 -31c1 -40 -196 -40 -224 -33c-89 -3 -418 -14 -424 23c-10 66 437 13 623 29c8 -6 19 -8 25 -19z" />
    <glyph glyph-name="grave" unicode="`" horiz-adv-x="284" 
d="M282 499c-37 -25 -63 22 -120 43c-50 19 -138 43 -84 92c57 51 111 -24 135 -55c30 -38 97 -60 69 -80z" />
    <glyph glyph-name="a" unicode="a" 
d="M491 162c-6 -68 -56 -141 -122 -176c-27 -9 -65 -5 -71 27c-2 10 4 27 -12 29c-46 -44 -98 -86 -169 -63c-66 34 -87 108 -81 175c11 16 11 35 15 54c19 33 23 70 52 99c10 42 64 67 89 102c44 19 94 56 143 25c21 -31 63 -23 79 8c19 -2 44 7 59 -8
c-32 -95 -54 -197 -81 -295c-17 -16 -15 -39 -23 -60c-2 -15 8 -23 18 -33c29 6 56 39 71 64c10 17 15 44 33 52zM321 382c-19 13 -38 24 -60 19c-23 -5 -40 -27 -56 -44c-46 -83 -81 -174 -71 -274c8 -29 33 -60 66 -62c30 4 54 21 71 48c33 97 112 205 50 313z" />
    <glyph glyph-name="b" unicode="b" horiz-adv-x="458" 
d="M466 349c-6 -139 -89 -272 -214 -351c-33 -17 -87 -23 -118 -15c-37 -4 -56 21 -79 44c-46 87 19 175 29 262l8 12c17 110 65 206 75 320c-2 17 -10 27 -23 37c-18 3 -45 -4 -52 19c5 27 40 21 61 27c41 -2 93 25 122 -4c-10 -48 -35 -91 -41 -141
c-15 -54 -46 -102 -44 -162l10 -11c61 27 112 80 187 61c48 -12 67 -56 79 -98zM377 364c-19 27 -46 51 -83 41c-62 -4 -112 -58 -139 -108c-11 -83 -56 -168 -33 -251c18 -17 37 -28 64 -25c89 9 135 108 172 174c11 54 40 110 19 169z" />
    <glyph glyph-name="c" unicode="c" horiz-adv-x="413" 
d="M407 362c-6 -21 -27 -19 -42 -23c-50 2 -62 79 -116 61c-79 -42 -75 -123 -112 -185c-13 -46 -19 -110 0 -156c18 -33 62 -31 89 -19c44 13 77 48 116 67c7 -4 5 -13 5 -19c-71 -56 -150 -139 -248 -104c-42 15 -56 65 -60 108c2 46 23 83 27 127c15 10 9 29 15 41
c32 75 110 158 191 177c43 21 102 10 135 -23c6 -14 14 -39 0 -52z" />
    <glyph glyph-name="d" unicode="d" horiz-adv-x="529" 
d="M544 709c4 -77 -50 -141 -56 -216c-13 -56 -38 -102 -38 -162c-33 -27 -14 -77 -45 -104c0 -41 -15 -85 -29 -124c6 -15 0 -38 18 -48c27 6 46 25 63 48c19 26 25 66 54 83c8 -36 -29 -61 -38 -94c-27 -41 -62 -85 -110 -102c-21 2 -35 15 -52 27c-4 13 -4 27 -14 38
c-27 -11 -44 -46 -71 -56c-29 -15 -66 -25 -102 -15c-52 15 -72 71 -85 116c-12 88 27 162 67 235c47 62 108 123 187 123c29 -4 56 -11 78 -29c17 -7 32 8 34 22c18 63 39 125 41 194c-18 25 -87 8 -66 56c25 27 56 0 85 18c21 -2 58 11 79 -10zM338 215
c-6 58 33 139 -18 187c-19 8 -38 14 -61 12c-64 -33 -85 -106 -108 -164c-8 -56 -48 -109 -23 -166c14 -31 46 -44 75 -48c46 -2 79 46 98 83c6 33 37 58 37 96z" />
    <glyph glyph-name="e" unicode="e" horiz-adv-x="410" 
d="M419 354c-30 -61 -97 -129 -168 -139c-13 -7 -19 -29 -38 -21c-24 -33 -68 -27 -85 -69c-2 -37 9 -79 48 -93c58 -15 98 35 143 64c9 0 17 2 21 -8v-15c-66 -39 -124 -118 -212 -97c-25 8 -54 23 -64 50c-50 85 12 170 33 249c65 85 156 193 274 172l29 -23
c15 -20 32 -44 19 -70zM338 343c-12 19 -19 54 -50 52c-87 -25 -122 -124 -141 -201c33 -19 62 19 93 29c36 31 98 69 98 120z" />
    <glyph glyph-name="f" unicode="f" horiz-adv-x="376" 
d="M402 686c4 -27 -2 -62 -34 -66c-33 -13 -41 52 -68 25c-19 -11 -21 -29 -6 -44c0 -56 -2 -106 -13 -162c27 -27 75 -8 106 -25c-8 -64 -95 2 -116 -56c-19 -123 -20 -233 -56 -351c-22 -71 -27 -152 -94 -199c-23 -7 -49 -4 -68 12c-13 11 -9 29 -19 40
c15 22 17 52 50 54c19 0 39 -19 56 0c-2 126 29 226 44 346c-11 17 0 19 8 34c-4 33 27 79 -11 97c-31 4 -74 -27 -93 11c-6 18 8 27 21 35c35 6 97 -37 106 21c8 54 12 110 25 162c18 14 10 39 22 56c25 23 42 59 79 56c29 -3 46 -21 61 -46z" />
    <glyph glyph-name="g" unicode="g" horiz-adv-x="559" 
d="M559 439c-4 -56 -38 -108 -46 -168c-10 -75 -52 -137 -62 -212c-17 -58 -42 -112 -79 -162c-19 -8 -38 -25 -46 -44c-64 -45 -154 -74 -230 -37c-34 21 -54 54 -61 89c4 15 15 31 29 38c25 6 46 -11 56 -29c9 -30 13 -65 42 -79c56 -5 102 16 141 52c-6 29 25 33 36 56
c12 29 37 64 20 97c-47 -25 -99 -48 -155 -37c-52 23 -98 60 -102 118c-10 133 70 266 195 318c49 20 125 21 156 -29c31 -8 21 29 46 33zM428 391c-19 28 -58 19 -87 27c-25 -18 -63 -18 -77 -54c-65 -77 -96 -189 -75 -282c19 -27 37 -46 66 -54c67 2 117 64 142 120
c18 77 84 165 31 243z" />
    <glyph glyph-name="h" unicode="h" horiz-adv-x="501" 
d="M513 171c-2 -41 -30 -71 -48 -106c-17 -34 -50 -48 -79 -70c-27 0 -56 10 -71 33c9 64 11 137 42 195c2 54 44 104 19 158c-46 10 -71 -38 -98 -65c-41 -72 -108 -135 -139 -213c-40 -30 -25 -123 -96 -100c-22 41 22 79 25 118c5 60 38 108 38 168c27 42 25 92 45 135
c-6 21 11 32 15 46c-4 62 79 156 -15 187c-6 0 -10 6 -14 10c-2 15 -2 32 14 34c48 6 98 23 146 16l10 -18c-25 -94 -57 -183 -89 -275c-22 -62 -33 -130 -56 -193c-4 -8 -11 -16 -11 -27c5 -6 15 -18 23 -8c38 73 87 129 141 195c36 29 77 83 131 56c27 -25 11 -56 15 -85
l-71 -243c-8 -16 0 -35 9 -50c3 -6 10 -8 18 -6c48 21 60 79 96 108z" />
    <glyph glyph-name="i" unicode="i" horiz-adv-x="311" 
d="M308 676c4 -27 -6 -48 -23 -65c-20 -16 -47 2 -68 -4c-19 23 -33 52 -21 83c4 23 29 29 48 38c35 2 66 -15 64 -52zM290 171c4 -66 -46 -118 -83 -172c-21 -17 -48 -17 -71 -9c-40 27 -37 73 -31 113c14 39 29 78 31 124c21 40 25 87 37 131c-6 12 -18 23 -33 19
c-37 -38 -60 -85 -93 -117c-11 46 45 63 47 108c27 32 56 75 102 75c21 0 50 -12 52 -37c-10 -87 -30 -172 -52 -254c-7 -28 -27 -70 2 -89c38 -12 40 35 60 48c3 23 23 39 32 60z" />
    <glyph glyph-name="j" unicode="j" horiz-adv-x="377" 
d="M399 701c13 -27 -2 -52 -15 -75c-21 0 -35 -17 -60 -10c-21 10 -31 31 -37 51c-7 32 25 52 45 65c27 12 55 -6 67 -31zM320 420c8 -89 -42 -170 -44 -257c-16 -40 -31 -81 -33 -127c-25 -73 -48 -145 -93 -210c-27 -25 -65 -14 -94 -6s-33 46 -19 67
c44 60 125 -94 127 29c-17 89 23 174 42 259c8 40 22 79 29 123c12 25 25 64 4 89c-50 -17 -75 -71 -106 -108c6 37 33 64 50 98c21 29 41 60 79 70c25 2 47 -2 58 -27z" />
    <glyph glyph-name="k" unicode="k" horiz-adv-x="449" 
d="M479 339c-33 -70 -106 -91 -168 -112c-19 -12 -26 -33 -17 -50c25 -44 -12 -137 73 -131c25 23 54 65 85 75c-4 -31 -39 -62 -60 -93c-19 -13 -42 -38 -66 -44c-108 0 -67 129 -98 193c-10 21 -35 23 -52 17c-50 -50 -41 -129 -64 -185c-8 -19 -23 -29 -44 -29l-31 4
c0 52 19 108 37 156c0 35 27 60 23 98c25 66 40 135 60 201c-4 52 34 87 29 139c19 13 21 42 9 56c-15 29 -71 2 -61 48l-10 12c54 7 118 17 175 19l14 -14c-35 -94 -58 -189 -95 -281c2 -8 6 -18 14 -23c67 32 167 76 235 15c19 -18 14 -50 12 -71zM382 302
c16 23 16 52 0 75c-52 37 -108 8 -162 -4c-27 -48 -38 -100 -48 -154l8 -11c19 11 48 7 67 23c56 -2 95 40 135 71z" />
    <glyph glyph-name="l" unicode="l" horiz-adv-x="280" 
d="M294 699c8 -69 -27 -129 -41 -191c-48 -142 -86 -287 -127 -430c-2 -15 10 -23 14 -34c44 0 57 54 88 81c6 9 -4 25 10 32c10 0 23 0 23 -13c-35 -60 -60 -122 -127 -164c-27 2 -45 -6 -68 8c-29 38 -23 77 -15 123c31 48 31 106 56 158c6 124 79 230 79 355
c-14 29 -79 16 -52 58c33 37 75 -2 112 19z" />
    <glyph glyph-name="m" unicode="m" horiz-adv-x="775" 
d="M768 159c27 -21 -17 -48 -23 -75c-29 -31 -46 -90 -97 -100c-36 -7 -61 11 -79 33c2 88 36 159 52 239c7 34 34 60 18 98c-7 16 -27 12 -37 8c-104 -110 -185 -237 -235 -372c-14 -14 -39 -18 -60 -10c-25 52 25 102 27 158c19 25 6 64 25 89c-2 48 37 81 23 131
c-40 6 -65 -34 -90 -64c-36 -45 -66 -100 -108 -142c-12 -60 -52 -108 -68 -164c-19 -8 -42 -16 -62 -8c-27 25 2 56 4 83c29 50 31 112 56 168c-11 44 52 96 2 133c-35 -12 -60 -56 -85 -85c0 -10 -4 -17 -11 -23h-16v19c47 64 97 187 195 162l14 -23
c15 -50 -10 -102 -18 -149c-9 -27 -33 -57 -15 -84c83 79 121 198 225 256c24 0 51 0 64 -23c6 -81 -40 -149 -50 -228c-6 -7 -14 -13 -10 -23c29 -6 43 33 60 52c48 77 98 153 168 218c27 2 54 12 77 -9c39 -51 -10 -105 -19 -155c-12 -67 -34 -129 -52 -191
c-5 -19 5 -34 15 -46c60 17 68 87 110 127z" />
    <glyph glyph-name="n" unicode="n" horiz-adv-x="561" 
d="M547 171c-15 -60 -44 -112 -88 -162c-29 -14 -56 -52 -95 -37c-27 27 -44 64 -31 101c31 52 31 119 56 173c28 90 15 86 14 100c-4 14 -20 6 -29 12c-8 -7 -28 -18 -29 -30l-85 -97s-79 -112 -95 -180c-29 -25 -29 -104 -86 -79c-31 58 23 101 25 153
c25 73 38 150 54 225c-8 6 -14 20 -27 14c-35 -25 -45 -62 -70 -89h-9c5 64 46 117 94 158c35 29 87 12 97 -31c-2 -71 -20 -133 -41 -198c8 -18 17 2 27 4c60 77 98 173 179 231c27 12 54 -2 74 -15c23 -87 -26 -164 -37 -247c-5 -39 -33 -68 -33 -112c2 -6 8 -12 14 -19
h15c39 38 68 86 91 131c6 4 11 -2 15 -6z" />
    <glyph glyph-name="o" unicode="o" horiz-adv-x="460" 
d="M430 186c-32 -94 -106 -171 -197 -210c-46 -4 -104 -13 -139 23c-7 20 -31 33 -42 52c-21 112 24 216 89 299c62 77 188 136 275 60c61 -53 36 -158 14 -224zM355 373c-14 27 -45 27 -74 27c-48 -2 -69 -52 -98 -84c-25 -83 -75 -170 -44 -261c14 -40 61 -38 96 -42
c75 27 93 110 116 177c2 60 32 129 4 183z" />
    <glyph glyph-name="p" unicode="p" horiz-adv-x="492" 
d="M505 233c-35 -37 -31 -97 -85 -122c-25 -29 -56 -71 -98 -75c-41 -54 -116 -35 -141 -98c-4 -33 -31 -62 -15 -97c11 -31 75 -2 56 -48c-60 -29 -124 8 -187 -4c-8 8 -12 23 -4 31c73 35 65 123 98 187c0 58 40 102 44 160c2 46 45 91 18 131c-25 -21 -54 -52 -85 -67
c6 48 62 77 94 115c51 20 33 85 60 124c4 38 2 94 39 119c29 -7 83 -7 56 -57c-23 -31 -29 -68 -37 -108c12 -14 29 9 41 15c44 0 77 8 108 -19c54 -44 61 -122 38 -187zM424 331c-23 46 -81 50 -121 31c-14 -56 -29 -112 -43 -168c-23 -31 -17 -73 -38 -102
c11 -29 -41 -79 15 -83c35 25 79 41 108 75c61 72 102 154 79 247z" />
    <glyph glyph-name="q" unicode="q" horiz-adv-x="498" 
d="M498 429c-14 -52 -27 -104 -54 -150c-33 -131 -47 -268 -108 -388c-2 -23 11 -42 32 -52c18 0 41 2 56 -13c0 -14 0 -29 -17 -33c-77 15 -156 4 -235 8c-4 5 -10 9 -10 15c21 19 49 2 71 25l33 35c18 50 25 104 37 156c-27 25 -39 -27 -64 -29c-56 -33 -112 -21 -164 14
c-46 54 -38 131 -23 196c41 108 129 226 255 243c61 25 106 -71 160 -5c17 7 29 -12 31 -22zM359 208c11 57 23 117 -4 173c-17 23 -44 43 -79 33c-84 -25 -95 -120 -137 -183c-10 -70 -46 -158 25 -205c54 -27 93 27 131 58c35 37 41 83 64 124z" />
    <glyph glyph-name="r" unicode="r" horiz-adv-x="426" 
d="M450 381c-29 -46 -87 -33 -126 -56c-69 -75 -125 -139 -154 -233c-4 -37 -37 -64 -42 -102c-14 -8 -35 -14 -52 -6c-14 52 23 102 27 156c23 71 46 141 52 218c-8 8 -18 12 -31 10c-35 -33 -48 -81 -85 -112v19c42 60 62 145 139 176c27 -2 61 -8 63 -41
c2 -71 -30 -127 -44 -191c29 -25 19 27 37 37c56 71 90 218 208 187c21 -14 10 -43 8 -62z" />
    <glyph glyph-name="s" unicode="s" horiz-adv-x="441" 
d="M438 395c2 -22 -2 -41 -10 -60c-15 -8 -33 -16 -50 -8c-44 21 -56 97 -112 73c-21 -17 -21 -46 -15 -69c17 -37 37 -73 64 -108c21 -39 48 -85 48 -139c-16 -50 -52 -96 -104 -112c-66 -15 -137 0 -187 37c-20 23 -43 50 -35 79c6 12 21 23 31 33c23 6 42 -6 61 -18
c22 -30 24 -77 70 -90c23 -2 44 6 62 19c52 129 -133 190 -81 322c22 55 73 87 127 102c54 2 106 -13 131 -61z" />
    <glyph glyph-name="t" unicode="t" horiz-adv-x="305" 
d="M313 414c-23 -52 -131 15 -114 -75c-38 -83 -50 -174 -75 -261c2 -9 8 -15 15 -19c37 8 56 48 81 79c2 14 18 23 22 37c15 -18 -8 -48 -14 -72c-29 -48 -64 -115 -131 -115c-21 4 -39 21 -52 40c-2 45 13 91 29 131c9 76 48 139 50 218c-14 33 -79 -7 -60 43
c21 36 70 -4 89 36c15 56 -4 130 48 168c23 -8 50 0 68 -17c-6 -39 -14 -89 -37 -126c0 -13 -4 -25 -12 -34c27 -23 74 0 93 -33z" />
    <glyph glyph-name="u" unicode="u" horiz-adv-x="532" 
d="M538 181c-7 -70 -42 -145 -110 -191c-32 -8 -50 0 -75 19c-33 62 18 125 23 187c2 10 0 23 -11 23c-43 -40 -70 -100 -106 -150c-29 -31 -60 -94 -112 -85c-21 4 -39 23 -48 44c9 83 36 160 52 241c7 33 48 77 9 104c-65 -7 -65 -81 -106 -113c2 44 41 81 54 123
c33 31 64 85 118 60c29 -2 17 -33 31 -48c-27 -81 -39 -166 -64 -247c2 -27 -21 -52 -4 -75c8 -8 18 -22 31 -10c112 104 174 237 220 374c15 23 66 29 79 0c0 -29 -29 -46 -23 -75c-21 -70 -50 -135 -60 -210c-8 -26 -21 -54 -11 -79c13 -16 36 -18 48 5
c31 29 42 72 65 103z" />
    <glyph glyph-name="v" unicode="v" horiz-adv-x="547" 
d="M550 443c7 -89 -31 -154 -58 -230c-29 -17 -14 -50 -45 -65c-25 -75 -106 -124 -173 -158c-45 -14 -101 -6 -137 23c-33 27 -27 73 -27 112c27 94 129 150 158 239c-19 21 -54 9 -73 13c-27 10 -60 27 -89 14c-35 -33 46 -120 -44 -102c-29 17 -25 54 -18 79
c20 54 70 83 122 98c46 4 94 -23 135 0c17 -10 36 8 44 -15c-56 -116 -152 -220 -146 -355c13 -18 21 -47 46 -52c106 -20 175 95 216 169c38 67 4 155 15 230c14 33 62 33 74 0z" />
    <glyph glyph-name="w" unicode="w" horiz-adv-x="754" 
d="M752 420c14 -126 -69 -232 -112 -342c-34 -52 -81 -108 -146 -106c-41 6 -66 31 -93 60c0 23 -15 41 -31 52c-21 -15 -42 -35 -61 -58c-24 0 -37 -34 -62 -31c-25 -30 -70 -22 -106 -19c-37 3 -60 37 -77 68c-25 73 19 140 63 194c33 31 79 66 89 112
c-31 14 -66 16 -100 23c-23 0 -54 47 -68 0c-4 -34 31 -84 -15 -102c-14 0 -29 0 -33 16c-8 36 -4 75 19 104c29 25 58 56 97 60l160 -8c11 -6 11 -25 0 -33c-56 -87 -110 -177 -131 -280c2 -30 6 -57 27 -79c37 -38 90 -15 131 4c19 18 46 31 60 56c-10 102 9 212 57 299
c27 23 62 52 99 33c56 -60 13 -120 -6 -183c-14 -47 -87 -60 -69 -120c25 -40 46 -96 98 -108c85 35 120 125 135 206c12 66 -25 110 -12 176c10 17 20 40 45 33c15 7 38 -8 42 -27zM509 391c-8 15 -27 19 -42 23c-52 -56 -60 -145 -29 -214c67 40 69 123 71 191z" />
    <glyph glyph-name="x" unicode="x" horiz-adv-x="576" 
d="M610 402c-7 -40 -48 -34 -75 -44c-48 21 -94 -4 -127 -33c-89 -40 -37 -148 -46 -218c13 -13 25 -23 46 -19c23 33 54 71 85 93c-2 -51 -50 -93 -74 -141c-27 -18 -50 -58 -86 -45c-76 27 -25 101 -49 164c-19 10 -46 -44 -42 -2c23 22 39 47 54 74
c-17 52 21 123 -42 150c-37 -31 -51 -81 -93 -110c-19 12 0 29 4 41c40 56 77 171 168 146l19 -29c17 -36 -6 -73 19 -104c41 27 63 75 104 112c26 24 66 32 103 21c26 -8 27 -34 32 -56zM227 134c0 -54 -64 -85 -93 -127c-29 -21 -77 -12 -104 6c-8 31 8 60 38 83
c45 7 118 -23 149 38h10z" />
    <glyph glyph-name="y" unicode="y" horiz-adv-x="535" 
d="M528 308c-25 -50 -25 -112 -56 -160c-23 -12 -7 -41 -23 -56c-55 -136 -162 -286 -324 -303c-33 2 -66 8 -83 37c0 21 -15 42 -4 61c16 27 54 24 79 18c35 -27 77 -43 124 -29c19 19 61 23 57 58c-10 73 -25 142 -42 210c2 77 -17 152 -42 220c-14 11 -33 27 -51 17
c-27 -31 -48 -69 -69 -98c0 38 19 79 35 117c27 16 46 60 85 58c40 10 57 -27 75 -52c11 -98 38 -189 48 -287c19 -29 8 -66 37 -91c46 4 36 58 61 83c27 50 56 108 33 168c-4 56 -65 121 -11 172c15 5 36 15 48 0c52 -33 11 -93 23 -143z" />
    <glyph glyph-name="z" unicode="z" horiz-adv-x="488" 
d="M518 433c8 -81 -81 -125 -135 -173c-60 -52 -131 -74 -198 -112c-31 4 -41 -27 -60 -41c-2 -7 6 -9 4 -15c69 -23 139 -43 216 -46c11 36 -14 90 27 113c29 12 65 -2 75 -34c4 -33 4 -74 -31 -97c-46 -50 -110 -71 -179 -56c-43 18 -66 56 -108 64
c-10 -25 -8 -58 -41 -66c-31 -2 -46 27 -52 52c8 66 77 91 122 130c90 56 196 90 266 175c-6 27 -35 16 -48 35c-49 -8 -93 25 -147 19c-27 -33 21 -98 -33 -116c-25 -7 -46 8 -52 29c-6 39 8 78 33 108c35 41 83 63 131 60s58 -48 98 -67c16 25 8 73 51 75
c27 4 52 -14 61 -37z" />
    <glyph glyph-name="bar" unicode="|" horiz-adv-x="206" 
d="M153 926c-39 -114 -17 -253 -33 -376c12 -199 -9 -407 8 -596c-6 -8 -8 -18 -19 -25c-56 -2 -16 54 -33 86c29 35 -8 74 2 112c-8 222 21 457 -10 673c27 47 -46 131 33 149c23 5 42 -8 52 -23z" />
    <glyph glyph-name="asciitilde" unicode="~" 
d="M400 595c97 38 -24 -111 -98 -104c-29 3 -74 31 -89 55c-5 -1 -10 -2 -15 -4c-57 -21 -83 -68 -120 -43c-28 20 39 42 69 80c24 31 78 55 135 4c20 -18 10 -31 26 -37c21 -8 64 38 92 49z" />
    <glyph glyph-name="Adieresis" unicode="&#xc4;" horiz-adv-x="789" 
d="M877 828c11 -24 -5 -43 -16 -61c-15 -14 -37 -20 -56 -13c-13 16 -43 10 -43 34c-9 15 6 31 6 49c16 15 34 23 56 26c21 -3 43 -13 53 -35zM707 830c11 -24 -5 -43 -16 -61c-15 -14 -37 -20 -56 -13c-13 16 -43 10 -43 34c-9 15 6 31 6 49c16 15 34 23 56 26
c21 -3 43 -13 53 -35zM765 698c-15 -54 -20 -108 -34 -158c-22 -83 -18 -183 -45 -268c-2 -73 -27 -143 -23 -214c16 -50 89 6 93 -48l-23 -14h-263c-13 4 -7 16 -9 25c31 12 69 8 102 18c25 29 12 64 21 94c9 31 16 70 23 106c-4 10 -15 16 -23 25
c-98 -21 -233 37 -295 -63l-94 -112c-12 -43 34 -46 57 -60c14 -4 31 6 41 -8c4 -11 -6 -15 -10 -23c-46 0 -94 -17 -135 0c-48 10 -108 -40 -135 16c8 11 8 27 23 38c68 -2 108 56 153 93c31 38 77 69 108 114c27 9 27 38 48 54c81 67 133 160 214 221
c39 60 98 114 137 174c19 11 58 17 69 -10zM644 559c-23 6 -39 -15 -52 -30c-52 -83 -137 -137 -183 -224c59 -25 123 0 187 -8c19 19 25 48 23 79c6 31 0 68 19 93c-13 36 21 63 6 90z" />
    <glyph glyph-name="Aring" unicode="&#xc5;" horiz-adv-x="789" 
d="M842 859c15 -33 -8 -60 -23 -85c-21 -21 -52 -29 -79 -19c-19 23 -60 15 -60 48c-13 21 8 44 8 69c23 20 48 33 79 37c29 -4 61 -19 75 -50zM799 800c21 21 -1 65 -33 65s-44 -30 -38 -53s50 -33 71 -12zM765 698c-15 -54 -20 -108 -34 -158c-22 -83 -18 -183 -45 -268
c-2 -73 -27 -143 -23 -214c16 -50 89 6 93 -48l-23 -14h-263c-13 4 -7 16 -9 25c31 12 69 8 102 18c25 29 12 64 21 94c9 31 16 70 23 106c-4 10 -15 16 -23 25c-98 -21 -233 37 -295 -63l-94 -112c-12 -43 34 -46 57 -60c14 -4 31 6 41 -8c4 -11 -6 -15 -10 -23
c-46 0 -94 -17 -135 0c-48 10 -108 -40 -135 16c8 11 8 27 23 38c68 -2 108 56 153 93c31 38 77 69 108 114c27 9 27 38 48 54c81 67 133 160 214 221c39 60 98 114 137 174c19 11 58 17 69 -10zM644 559c-23 6 -39 -15 -52 -30c-52 -83 -137 -137 -183 -224
c59 -25 123 0 187 -8c19 19 25 48 23 79c6 31 0 68 19 93c-13 36 21 63 6 90z" />
    <glyph glyph-name="Ccedilla" unicode="&#xc7;" horiz-adv-x="622" 
d="M251 -139c-20 -33 -118 -24 -109 -9s77 15 77 27s-30 36 -30 36l24 59l35 3s-23 -51 -14 -57s30 -37 17 -59zM666 621c0 -21 0 -52 -14 -66c-50 14 -67 68 -108 89c-65 25 -150 39 -210 -4c-108 -63 -172 -183 -206 -295c-20 -112 -22 -247 86 -314c49 -25 93 -4 145 -4
c46 4 75 48 112 71c15 18 27 47 56 41c29 -48 -43 -73 -66 -108c-46 -8 -73 -58 -121 -56c-45 -23 -110 -33 -160 -12c-47 27 -116 60 -122 120c-65 125 -19 280 39 388c13 19 23 40 38 57l4 14c106 137 272 191 438 143c35 -16 66 48 89 2v-66z" />
    <glyph glyph-name="Eacute" unicode="&#xc9;" horiz-adv-x="731" 
d="M613 855c54 -49 -34 -73 -84 -92c-56 -21 -83 -68 -120 -43c-28 20 39 42 69 80c25 31 79 105 135 55zM758 592c-7 -17 -3 -46 -27 -35c-73 103 -198 108 -314 101c-62 -68 -77 -160 -104 -243c-8 -14 -17 -33 -8 -47l10 -13c112 11 251 -35 297 94l21 18
c25 -8 8 -31 8 -47c-23 -69 -41 -138 -70 -202h-13c-2 37 -4 81 -39 104l-214 8c-33 -10 -27 -50 -42 -75c-21 -70 -50 -143 -48 -218c17 -16 42 -12 63 -18c133 10 278 -17 378 83c27 -2 31 41 60 25c8 -21 -10 -44 -23 -63c-14 -2 -19 -12 -25 -22c-6 -19 -21 -38 -37 -48
c-204 -9 -393 0 -596 2c-2 6 -4 12 -2 19c23 31 85 -15 93 41c19 58 33 116 58 172c-2 44 38 84 31 127c23 50 30 106 52 158c2 50 46 110 -8 145c-21 -6 -48 -6 -66 9c-7 12 10 20 18 25c164 0 335 4 505 -5c29 -24 19 -66 42 -95z" />
    <glyph glyph-name="Ntilde" unicode="&#xd1;" horiz-adv-x="829" 
d="M695 846c97 38 -23 -111 -98 -104c-29 3 -74 31 -88 55c-6 -1 -11 -2 -16 -4c-56 -21 -83 -68 -120 -43c-28 20 39 42 69 80c25 31 79 55 135 4c20 -18 11 -31 26 -37c21 -8 64 38 92 49zM889 687c-38 -22 -98 -12 -117 -62c-58 -158 -73 -333 -141 -486
c-15 -51 0 -141 -68 -154c-40 27 -27 77 -57 108c-18 77 -53 147 -78 221c-31 86 -59 172 -104 251c-38 0 -21 -48 -42 -67c-29 -112 -61 -221 -89 -334c-10 -39 -21 -87 19 -118c22 -4 54 -4 64 -27c-75 -25 -158 -13 -241 -11c-2 4 -15 9 -10 19c27 25 67 11 93 42
c64 75 56 182 94 272c12 95 62 178 70 276c-2 21 -6 41 -25 56c-21 8 -52 -2 -60 23c19 52 87 12 131 18c10 5 29 9 37 -4c69 -182 131 -365 206 -546c8 -4 12 -21 25 -14c64 137 72 294 129 434c10 35 -3 70 -32 93c-20 -2 -43 0 -52 19c0 35 50 27 67 23
c44 8 95 -19 135 6c17 6 27 -6 41 -11c7 -6 3 -18 5 -27z" />
    <glyph glyph-name="Odieresis" unicode="&#xd6;" horiz-adv-x="686" 
d="M691 832c11 -24 -5 -43 -16 -61c-15 -14 -37 -20 -56 -13c-13 16 -43 10 -43 34c-9 15 6 31 6 49c16 15 34 23 56 26c21 -3 43 -13 53 -35zM521 834c11 -24 -5 -43 -16 -61c-15 -14 -37 -20 -56 -13c-13 16 -43 10 -43 34c-9 15 6 31 6 49c16 15 34 23 56 26
c21 -3 43 -13 53 -35zM720 411c-4 -95 -47 -176 -99 -253c-34 -31 -54 -79 -102 -94c-46 -60 -123 -52 -183 -79c-85 0 -166 9 -228 65c-63 75 -81 168 -61 264c7 70 38 140 79 199c77 109 189 199 322 220c56 -21 125 15 169 -37c78 -67 130 -179 103 -285zM639 444
c-6 59 1 122 -33 167c-26 34 -56 56 -91 76c-46 -2 -96 11 -133 -24c-112 -40 -168 -158 -218 -252c-19 -60 -29 -110 -38 -174c9 -85 30 -191 127 -214c115 -27 216 39 280 131c11 31 42 56 46 89c42 56 42 135 60 201z" />
    <glyph glyph-name="Udieresis" unicode="&#xdc;" horiz-adv-x="719" 
d="M600 829c11 -24 -6 -43 -16 -61c-15 -14 -37 -20 -56 -13c-13 16 -43 10 -43 34c-9 15 6 31 6 49c16 15 34 23 56 26c21 -3 43 -13 53 -35zM430 831c11 -24 -6 -43 -16 -61c-15 -14 -37 -20 -56 -13c-13 16 -43 10 -43 34c-9 15 6 31 6 49c16 15 34 23 56 26
c21 -3 43 -13 53 -35zM770 696c-106 -54 -115 -175 -146 -272c-8 -56 -10 -112 -41 -158v-27c-27 -87 -85 -175 -169 -227c-24 7 -41 -9 -62 -16c-79 -27 -162 2 -237 19c-37 33 -77 78 -81 130c-4 56 5 119 23 169c9 54 40 101 44 157c12 40 19 81 41 117
c-10 33 40 79 -14 97c-27 13 -50 -29 -69 7c-6 31 34 18 50 27c73 -7 150 10 224 0c11 -7 15 -21 7 -32c-42 -6 -99 -8 -112 -62c-29 -113 -57 -224 -94 -332c-6 -56 -27 -121 -6 -177s79 -89 135 -97c108 -7 205 70 253 168c23 60 46 120 52 187c21 37 36 79 46 120
c5 21 29 40 14 63c19 20 11 58 9 83c-23 14 -44 50 -79 41c-13 6 -15 21 -9 29c48 17 111 0 158 15c17 -17 71 8 63 -29z" />
    <glyph glyph-name="aacute" unicode="&#xe1;" 
d="M454 644c54 -49 -34 -73 -84 -92c-56 -21 -83 -68 -120 -43c-28 20 39 42 69 80c24 31 79 106 135 55zM491 162c-6 -68 -56 -141 -122 -176c-27 -9 -65 -5 -71 27c-2 10 4 27 -12 29c-46 -44 -98 -86 -169 -63c-66 34 -87 108 -81 175c11 16 11 35 15 54
c19 33 23 70 52 99c10 42 64 67 89 102c44 19 94 56 143 25c21 -31 63 -23 79 8c19 -2 44 7 59 -8c-32 -95 -54 -197 -81 -295c-17 -16 -15 -39 -23 -60c-2 -15 8 -23 18 -33c29 6 56 39 71 64c10 17 15 44 33 52zM321 382c-19 13 -38 24 -60 19c-23 -5 -40 -27 -56 -44
c-46 -83 -81 -174 -71 -274c8 -29 33 -60 66 -62c30 4 54 21 71 48c33 97 112 205 50 313z" />
    <glyph glyph-name="agrave" unicode="&#xe0;" 
d="M416 484c-36 -25 -63 22 -119 43c-50 19 -139 43 -84 92c56 51 110 -24 135 -55c29 -38 97 -60 68 -80zM491 162c-6 -68 -56 -141 -122 -176c-27 -9 -65 -5 -71 27c-2 10 4 27 -12 29c-46 -44 -98 -86 -169 -63c-66 34 -87 108 -81 175c11 16 11 35 15 54
c19 33 23 70 52 99c10 42 64 67 89 102c44 19 94 56 143 25c21 -31 63 -23 79 8c19 -2 44 7 59 -8c-32 -95 -54 -197 -81 -295c-17 -16 -15 -39 -23 -60c-2 -15 8 -23 18 -33c29 6 56 39 71 64c10 17 15 44 33 52zM321 382c-19 13 -38 24 -60 19c-23 -5 -40 -27 -56 -44
c-46 -83 -81 -174 -71 -274c8 -29 33 -60 66 -62c30 4 54 21 71 48c33 97 112 205 50 313z" />
    <glyph glyph-name="acircumflex" unicode="&#xe2;" 
d="M454 499c-36 -25 -63 22 -119 43c-13 5 -27 10 -42 15c-40 -16 -133 -77 -161 -58c-28 20 39 42 69 80c10 13 26 31 43 48c2 2 4 4 6 7c15 13 30 18 43 17c37 2 72 -46 93 -72c29 -38 97 -60 68 -80zM491 162c-6 -68 -56 -141 -122 -176c-27 -9 -65 -5 -71 27
c-2 10 4 27 -12 29c-46 -44 -98 -86 -169 -63c-66 34 -87 108 -81 175c11 16 11 35 15 54c19 33 23 70 52 99c10 42 64 67 89 102c44 19 94 56 143 25c21 -31 63 -23 79 8c19 -2 44 7 59 -8c-32 -95 -54 -197 -81 -295c-17 -16 -15 -39 -23 -60c-2 -15 8 -23 18 -33
c29 6 56 39 71 64c10 17 15 44 33 52zM321 382c-19 13 -38 24 -60 19c-23 -5 -40 -27 -56 -44c-46 -83 -81 -174 -71 -274c8 -29 33 -60 66 -62c30 4 54 21 71 48c33 97 112 205 50 313z" />
    <glyph glyph-name="adieresis" unicode="&#xe4;" 
d="M480 574c11 -24 -5 -43 -16 -61c-15 -14 -37 -20 -56 -13c-13 16 -43 10 -43 34c-9 15 6 31 6 49c16 15 34 23 56 26c21 -3 43 -13 53 -35zM310 576c11 -24 -5 -43 -16 -61c-15 -14 -37 -20 -56 -13c-13 16 -43 10 -43 34c-9 15 6 31 6 49c16 15 34 23 56 26
c21 -3 43 -13 53 -35zM491 162c-6 -68 -56 -141 -122 -176c-27 -9 -65 -5 -71 27c-2 10 4 27 -12 29c-46 -44 -98 -86 -169 -63c-66 34 -87 108 -81 175c11 16 11 35 15 54c19 33 23 70 52 99c10 42 64 67 89 102c44 19 94 56 143 25c21 -31 63 -23 79 8c19 -2 44 7 59 -8
c-32 -95 -54 -197 -81 -295c-17 -16 -15 -39 -23 -60c-2 -15 8 -23 18 -33c29 6 56 39 71 64c10 17 15 44 33 52zM321 382c-19 13 -38 24 -60 19c-23 -5 -40 -27 -56 -44c-46 -83 -81 -174 -71 -274c8 -29 33 -60 66 -62c30 4 54 21 71 48c33 97 112 205 50 313z" />
    <glyph glyph-name="atilde" unicode="&#xe3;" 
d="M455 598c97 38 -24 -111 -98 -104c-29 3 -74 31 -89 55c-5 -1 -10 -2 -15 -4c-57 -21 -83 -68 -120 -43c-28 20 39 42 69 80c24 31 78 55 135 4c20 -18 10 -31 26 -37c21 -8 64 38 92 49zM491 162c-6 -68 -56 -141 -122 -176c-27 -9 -65 -5 -71 27c-2 10 4 27 -12 29
c-46 -44 -98 -86 -169 -63c-66 34 -87 108 -81 175c11 16 11 35 15 54c19 33 23 70 52 99c10 42 64 67 89 102c44 19 94 56 143 25c21 -31 63 -23 79 8c19 -2 44 7 59 -8c-32 -95 -54 -197 -81 -295c-17 -16 -15 -39 -23 -60c-2 -15 8 -23 18 -33c29 6 56 39 71 64
c10 17 15 44 33 52zM321 382c-19 13 -38 24 -60 19c-23 -5 -40 -27 -56 -44c-46 -83 -81 -174 -71 -274c8 -29 33 -60 66 -62c30 4 54 21 71 48c33 97 112 205 50 313z" />
    <glyph glyph-name="aring" unicode="&#xe5;" 
d="M431 608c15 -33 -8 -60 -23 -85c-21 -21 -52 -29 -79 -19c-19 23 -60 15 -60 48c-13 21 8 44 8 69c23 20 48 33 79 37c29 -4 61 -19 75 -50zM388 549c21 21 -1 65 -33 65s-44 -30 -38 -53s50 -33 71 -12zM491 162c-6 -68 -56 -141 -122 -176c-27 -9 -65 -5 -71 27
c-2 10 4 27 -12 29c-46 -44 -98 -86 -169 -63c-66 34 -87 108 -81 175c11 16 11 35 15 54c19 33 23 70 52 99c10 42 64 67 89 102c44 19 94 56 143 25c21 -31 63 -23 79 8c19 -2 44 7 59 -8c-32 -95 -54 -197 -81 -295c-17 -16 -15 -39 -23 -60c-2 -15 8 -23 18 -33
c29 6 56 39 71 64c10 17 15 44 33 52zM321 382c-19 13 -38 24 -60 19c-23 -5 -40 -27 -56 -44c-46 -83 -81 -174 -71 -274c8 -29 33 -60 66 -62c30 4 54 21 71 48c33 97 112 205 50 313z" />
    <glyph glyph-name="ccedilla" unicode="&#xe7;" horiz-adv-x="413" 
d="M161 -121c-20 -33 -118 -24 -109 -9s77 15 77 27s-30 36 -30 36l24 59l35 3s-23 -51 -14 -57s30 -37 17 -59zM407 362c-6 -21 -27 -19 -42 -23c-50 2 -62 79 -116 61c-79 -42 -75 -123 -112 -185c-13 -46 -19 -110 0 -156c18 -33 62 -31 89 -19c44 13 77 48 116 67
c7 -4 5 -13 5 -19c-71 -56 -150 -139 -248 -104c-42 15 -56 65 -60 108c2 46 23 83 27 127c15 10 9 29 15 41c32 75 110 158 191 177c43 21 102 10 135 -23c6 -14 14 -39 0 -52z" />
    <glyph glyph-name="eacute" unicode="&#xe9;" horiz-adv-x="410" 
d="M467 642c54 -49 -34 -73 -85 -92c-56 -21 -82 -69 -119 -43c-29 19 39 41 69 80c24 31 78 105 135 55zM419 354c-30 -61 -97 -129 -168 -139c-13 -7 -19 -29 -38 -21c-24 -33 -68 -27 -85 -69c-2 -37 9 -79 48 -93c58 -15 98 35 143 64c9 0 17 2 21 -8v-15
c-66 -39 -124 -118 -212 -97c-25 8 -54 23 -64 50c-50 85 12 170 33 249c65 85 156 193 274 172l29 -23c15 -20 32 -44 19 -70zM338 343c-12 19 -19 54 -50 52c-87 -25 -122 -124 -141 -201c33 -19 62 19 93 29c36 31 98 69 98 120z" />
    <glyph glyph-name="egrave" unicode="&#xe8;" horiz-adv-x="410" 
d="M395 493c-37 -25 -63 22 -119 43c-51 19 -139 43 -85 92c57 51 111 -24 135 -55c30 -38 98 -60 69 -80zM419 354c-30 -61 -97 -129 -168 -139c-13 -7 -19 -29 -38 -21c-24 -33 -68 -27 -85 -69c-2 -37 9 -79 48 -93c58 -15 98 35 143 64c9 0 17 2 21 -8v-15
c-66 -39 -124 -118 -212 -97c-25 8 -54 23 -64 50c-50 85 12 170 33 249c65 85 156 193 274 172l29 -23c15 -20 32 -44 19 -70zM338 343c-12 19 -19 54 -50 52c-87 -25 -122 -124 -141 -201c33 -19 62 19 93 29c36 31 98 69 98 120z" />
    <glyph glyph-name="ecircumflex" unicode="&#xea;" horiz-adv-x="410" 
d="M455 499c-37 -25 -64 22 -120 43c-12 5 -27 10 -41 15c-41 -16 -134 -77 -161 -58c-29 20 39 42 68 80c10 13 26 31 43 48l7 7c14 13 29 18 43 17c36 2 71 -46 92 -72c30 -38 97 -60 69 -80zM419 354c-30 -61 -97 -129 -168 -139c-13 -7 -19 -29 -38 -21
c-24 -33 -68 -27 -85 -69c-2 -37 9 -79 48 -93c58 -15 98 35 143 64c9 0 17 2 21 -8v-15c-66 -39 -124 -118 -212 -97c-25 8 -54 23 -64 50c-50 85 12 170 33 249c65 85 156 193 274 172l29 -23c15 -20 32 -44 19 -70zM338 343c-12 19 -19 54 -50 52
c-87 -25 -122 -124 -141 -201c33 -19 62 19 93 29c36 31 98 69 98 120z" />
    <glyph glyph-name="edieresis" unicode="&#xeb;" horiz-adv-x="410" 
d="M464 556c11 -24 -5 -43 -16 -61c-15 -14 -37 -20 -56 -13c-13 16 -43 10 -43 34c-9 15 6 31 6 49c16 15 34 23 56 26c21 -3 43 -13 53 -35zM294 558c11 -24 -5 -43 -16 -61c-15 -14 -37 -20 -56 -13c-13 16 -43 10 -43 34c-9 15 6 31 6 49c16 15 34 23 56 26
c21 -3 43 -13 53 -35zM419 354c-30 -61 -97 -129 -168 -139c-13 -7 -19 -29 -38 -21c-24 -33 -68 -27 -85 -69c-2 -37 9 -79 48 -93c58 -15 98 35 143 64c9 0 17 2 21 -8v-15c-66 -39 -124 -118 -212 -97c-25 8 -54 23 -64 50c-50 85 12 170 33 249c65 85 156 193 274 172
l29 -23c15 -20 32 -44 19 -70zM338 343c-12 19 -19 54 -50 52c-87 -25 -122 -124 -141 -201c33 -19 62 19 93 29c36 31 98 69 98 120z" />
    <glyph glyph-name="iacute" unicode="&#xed;" horiz-adv-x="311" 
d="M340 663c54 -49 -35 -73 -85 -92c-56 -21 -83 -68 -119 -43c-29 20 39 42 69 80c24 31 78 105 135 55zM290 171c4 -66 -46 -118 -83 -172c-21 -17 -48 -17 -71 -9c-40 27 -37 73 -31 113c14 39 29 78 31 124c21 40 25 87 37 131c-6 12 -18 23 -33 19
c-37 -38 -60 -85 -93 -117c-11 46 45 63 47 108c27 32 56 75 102 75c21 0 50 -12 52 -37c-10 -87 -30 -172 -52 -254c-7 -28 -27 -70 2 -89c38 -12 40 35 60 48c3 23 23 39 32 60z" />
    <glyph glyph-name="igrave" unicode="&#xec;" horiz-adv-x="311" 
d="M282 499c-37 -25 -63 22 -120 43c-50 19 -138 43 -84 92c57 51 111 -24 135 -55c30 -38 97 -60 69 -80zM290 171c4 -66 -46 -118 -83 -172c-21 -17 -48 -17 -71 -9c-40 27 -37 73 -31 113c14 39 29 78 31 124c21 40 25 87 37 131c-6 12 -18 23 -33 19
c-37 -38 -60 -85 -93 -117c-11 46 45 63 47 108c27 32 56 75 102 75c21 0 50 -12 52 -37c-10 -87 -30 -172 -52 -254c-7 -28 -27 -70 2 -89c38 -12 40 35 60 48c3 23 23 39 32 60z" />
    <glyph glyph-name="icircumflex" unicode="&#xee;" horiz-adv-x="311" 
d="M368 499c-36 -25 -63 22 -119 43c-13 5 -27 10 -42 15c-40 -16 -133 -77 -161 -58c-28 20 39 42 69 80c10 13 26 31 43 48c2 2 4 4 6 7c15 13 29 18 43 17c37 2 72 -46 92 -72c30 -38 98 -60 69 -80zM290 171c4 -66 -46 -118 -83 -172c-21 -17 -48 -17 -71 -9
c-40 27 -37 73 -31 113c14 39 29 78 31 124c21 40 25 87 37 131c-6 12 -18 23 -33 19c-37 -38 -60 -85 -93 -117c-11 46 45 63 47 108c27 32 56 75 102 75c21 0 50 -12 52 -37c-10 -87 -30 -172 -52 -254c-7 -28 -27 -70 2 -89c38 -12 40 35 60 48c3 23 23 39 32 60z" />
    <glyph glyph-name="idieresis" unicode="&#xef;" horiz-adv-x="311" 
d="M363 549c11 -24 -5 -43 -16 -61c-15 -14 -37 -20 -56 -13c-13 16 -43 10 -43 34c-9 15 6 31 6 49c16 15 34 23 56 26c21 -3 43 -13 53 -35zM193 551c11 -24 -5 -43 -16 -61c-15 -14 -37 -20 -56 -13c-13 16 -43 10 -43 34c-9 15 6 31 6 49c16 15 34 23 56 26
c21 -3 43 -13 53 -35zM290 171c4 -66 -46 -118 -83 -172c-21 -17 -48 -17 -71 -9c-40 27 -37 73 -31 113c14 39 29 78 31 124c21 40 25 87 37 131c-6 12 -18 23 -33 19c-37 -38 -60 -85 -93 -117c-11 46 45 63 47 108c27 32 56 75 102 75c21 0 50 -12 52 -37
c-10 -87 -30 -172 -52 -254c-7 -28 -27 -70 2 -89c38 -12 40 35 60 48c3 23 23 39 32 60z" />
    <glyph glyph-name="ntilde" unicode="&#xf1;" horiz-adv-x="561" 
d="M547 171c-15 -60 -44 -112 -88 -162c-29 -14 -56 -52 -95 -37c-27 27 -44 64 -31 101c31 52 31 119 56 173c28 90 15 86 14 100c-4 14 -20 6 -29 12c-8 -7 -28 -18 -29 -30l-85 -97s-79 -112 -95 -180c-29 -25 -29 -104 -86 -79c-31 58 23 101 25 153
c25 73 38 150 54 225c-8 6 -14 20 -27 14c-35 -25 -45 -62 -70 -89h-9c5 64 46 117 94 158c35 29 87 12 97 -31c-2 -71 -20 -133 -41 -198c8 -18 17 2 27 4c60 77 98 173 179 231c27 12 54 -2 74 -15c23 -87 -26 -164 -37 -247c-5 -39 -33 -68 -33 -112c2 -6 8 -12 14 -19
h15c39 38 68 86 91 131c6 4 11 -2 15 -6z" />
    <glyph glyph-name="oacute" unicode="&#xf3;" horiz-adv-x="460" 
d="M493 635c54 -49 -34 -73 -84 -92c-56 -20 -83 -68 -120 -43c-28 20 39 42 69 80c25 32 79 106 135 55zM430 186c-32 -94 -106 -171 -197 -210c-46 -4 -104 -13 -139 23c-7 20 -31 33 -42 52c-21 112 24 216 89 299c62 77 188 136 275 60c61 -53 36 -158 14 -224zM355 373
c-14 27 -45 27 -74 27c-48 -2 -69 -52 -98 -84c-25 -83 -75 -170 -44 -261c14 -40 61 -38 96 -42c75 27 93 110 116 177c2 60 32 129 4 183z" />
    <glyph glyph-name="ograve" unicode="&#xf2;" horiz-adv-x="460" 
d="M417 482c-37 -26 -64 22 -120 43c-50 18 -138 43 -84 91c56 51 110 -23 135 -55c30 -38 97 -60 69 -79zM430 186c-32 -94 -106 -171 -197 -210c-46 -4 -104 -13 -139 23c-7 20 -31 33 -42 52c-21 112 24 216 89 299c62 77 188 136 275 60c61 -53 36 -158 14 -224z
M355 373c-14 27 -45 27 -74 27c-48 -2 -69 -52 -98 -84c-25 -83 -75 -170 -44 -261c14 -40 61 -38 96 -42c75 27 93 110 116 177c2 60 32 129 4 183z" />
    <glyph glyph-name="ocircumflex" unicode="&#xf4;" horiz-adv-x="460" 
d="M491 499c-37 -25 -63 22 -120 43c-12 5 -27 10 -41 15c-41 -16 -133 -77 -161 -58c-28 20 39 42 69 80c10 13 25 31 42 48l7 7c15 13 29 18 43 17c36 2 72 -46 92 -72c30 -38 97 -60 69 -80zM430 186c-32 -94 -106 -171 -197 -210c-46 -4 -104 -13 -139 23
c-7 20 -31 33 -42 52c-21 112 24 216 89 299c62 77 188 136 275 60c61 -53 36 -158 14 -224zM355 373c-14 27 -45 27 -74 27c-48 -2 -69 -52 -98 -84c-25 -83 -75 -170 -44 -261c14 -40 61 -38 96 -42c75 27 93 110 116 177c2 60 32 129 4 183z" />
    <glyph glyph-name="odieresis" unicode="&#xf6;" horiz-adv-x="460" 
d="M470 554c11 -24 -5 -43 -16 -61c-15 -14 -37 -20 -56 -13c-13 16 -43 10 -43 34c-9 15 6 31 6 49c16 15 34 23 56 26c21 -3 43 -13 53 -35zM300 556c11 -24 -5 -43 -16 -61c-15 -14 -37 -20 -56 -13c-13 16 -43 10 -43 34c-9 15 6 31 6 49c16 15 34 23 56 26
c21 -3 43 -13 53 -35zM430 186c-32 -94 -106 -171 -197 -210c-46 -4 -104 -13 -139 23c-7 20 -31 33 -42 52c-21 112 24 216 89 299c62 77 188 136 275 60c61 -53 36 -158 14 -224zM355 373c-14 27 -45 27 -74 27c-48 -2 -69 -52 -98 -84c-25 -83 -75 -170 -44 -261
c14 -40 61 -38 96 -42c75 27 93 110 116 177c2 60 32 129 4 183z" />
    <glyph glyph-name="otilde" unicode="&#xf5;" horiz-adv-x="460" 
d="M485 596c97 38 -24 -111 -98 -104c-29 3 -74 31 -89 55c-5 -1 -10 -2 -15 -4c-57 -21 -83 -68 -120 -43c-28 20 39 42 69 80c24 31 78 55 135 4c20 -18 10 -31 26 -37c21 -8 64 38 92 49zM430 186c-32 -94 -106 -171 -197 -210c-46 -4 -104 -13 -139 23
c-7 20 -31 33 -42 52c-21 112 24 216 89 299c62 77 188 136 275 60c61 -53 36 -158 14 -224zM355 373c-14 27 -45 27 -74 27c-48 -2 -69 -52 -98 -84c-25 -83 -75 -170 -44 -261c14 -40 61 -38 96 -42c75 27 93 110 116 177c2 60 32 129 4 183z" />
    <glyph glyph-name="uacute" unicode="&#xfa;" horiz-adv-x="532" 
d="M479 668c54 -48 -34 -73 -85 -91c-56 -21 -82 -69 -119 -43c-28 19 39 41 69 80c24 31 78 105 135 54zM538 181c-7 -70 -42 -145 -110 -191c-32 -8 -50 0 -75 19c-33 62 18 125 23 187c2 10 0 23 -11 23c-43 -40 -70 -100 -106 -150c-29 -31 -60 -94 -112 -85
c-21 4 -39 23 -48 44c9 83 36 160 52 241c7 33 48 77 9 104c-65 -7 -65 -81 -106 -113c2 44 41 81 54 123c33 31 64 85 118 60c29 -2 17 -33 31 -48c-27 -81 -39 -166 -64 -247c2 -27 -21 -52 -4 -75c8 -8 18 -22 31 -10c112 104 174 237 220 374c15 23 66 29 79 0
c0 -29 -29 -46 -23 -75c-21 -70 -50 -135 -60 -210c-8 -26 -21 -54 -11 -79c13 -16 36 -18 48 5c31 29 42 72 65 103z" />
    <glyph glyph-name="ugrave" unicode="&#xf9;" horiz-adv-x="532" 
d="M426 501c-36 -25 -63 23 -119 44c-50 18 -139 42 -85 91c57 51 111 -23 136 -55c29 -38 97 -60 68 -80zM538 181c-7 -70 -42 -145 -110 -191c-32 -8 -50 0 -75 19c-33 62 18 125 23 187c2 10 0 23 -11 23c-43 -40 -70 -100 -106 -150c-29 -31 -60 -94 -112 -85
c-21 4 -39 23 -48 44c9 83 36 160 52 241c7 33 48 77 9 104c-65 -7 -65 -81 -106 -113c2 44 41 81 54 123c33 31 64 85 118 60c29 -2 17 -33 31 -48c-27 -81 -39 -166 -64 -247c2 -27 -21 -52 -4 -75c8 -8 18 -22 31 -10c112 104 174 237 220 374c15 23 66 29 79 0
c0 -29 -29 -46 -23 -75c-21 -70 -50 -135 -60 -210c-8 -26 -21 -54 -11 -79c13 -16 36 -18 48 5c31 29 42 72 65 103z" />
    <glyph glyph-name="ucircumflex" unicode="&#xfb;" horiz-adv-x="532" 
d="M495 499c-37 -25 -63 22 -120 43c-12 5 -27 10 -41 15c-40 -16 -133 -77 -161 -58c-28 20 39 42 69 80c10 13 26 31 42 48c2 2 5 4 7 7c15 13 29 18 43 17c36 2 72 -46 92 -72c30 -38 97 -60 69 -80zM538 181c-7 -70 -42 -145 -110 -191c-32 -8 -50 0 -75 19
c-33 62 18 125 23 187c2 10 0 23 -11 23c-43 -40 -70 -100 -106 -150c-29 -31 -60 -94 -112 -85c-21 4 -39 23 -48 44c9 83 36 160 52 241c7 33 48 77 9 104c-65 -7 -65 -81 -106 -113c2 44 41 81 54 123c33 31 64 85 118 60c29 -2 17 -33 31 -48c-27 -81 -39 -166 -64 -247
c2 -27 -21 -52 -4 -75c8 -8 18 -22 31 -10c112 104 174 237 220 374c15 23 66 29 79 0c0 -29 -29 -46 -23 -75c-21 -70 -50 -135 -60 -210c-8 -26 -21 -54 -11 -79c13 -16 36 -18 48 5c31 29 42 72 65 103z" />
    <glyph glyph-name="udieresis" unicode="&#xfc;" horiz-adv-x="532" 
d="M494 582c11 -24 -5 -43 -16 -61c-15 -14 -37 -20 -56 -13c-13 16 -43 10 -43 34c-9 15 6 31 6 49c16 15 34 23 56 26c21 -3 43 -13 53 -35zM324 584c11 -24 -5 -43 -16 -61c-15 -14 -37 -20 -56 -13c-13 16 -43 10 -43 34c-9 15 6 31 6 49c16 15 34 23 56 26
c21 -3 43 -13 53 -35zM538 181c-7 -70 -42 -145 -110 -191c-32 -8 -50 0 -75 19c-33 62 18 125 23 187c2 10 0 23 -11 23c-43 -40 -70 -100 -106 -150c-29 -31 -60 -94 -112 -85c-21 4 -39 23 -48 44c9 83 36 160 52 241c7 33 48 77 9 104c-65 -7 -65 -81 -106 -113
c2 44 41 81 54 123c33 31 64 85 118 60c29 -2 17 -33 31 -48c-27 -81 -39 -166 -64 -247c2 -27 -21 -52 -4 -75c8 -8 18 -22 31 -10c112 104 174 237 220 374c15 23 66 29 79 0c0 -29 -29 -46 -23 -75c-21 -70 -50 -135 -60 -210c-8 -26 -21 -54 -11 -79c13 -16 36 -18 48 5
c31 29 42 72 65 103z" />
    <glyph glyph-name="degree" unicode="&#xb0;" horiz-adv-x="296" 
d="M224 657c15 -33 -8 -60 -23 -85c-21 -21 -52 -29 -79 -19c-19 23 -60 15 -60 48c-13 21 8 44 8 69c23 20 48 33 79 37c29 -4 61 -19 75 -50zM181 598c21 21 -1 65 -33 65s-44 -30 -38 -53s50 -33 71 -12z" />
    <glyph glyph-name="sterling" unicode="&#xa3;" horiz-adv-x="516" 
d="M518 660c4 -29 0 -58 -29 -71c-34 -8 -52 13 -75 27c-10 23 -23 43 -50 56c-19 10 -37 -4 -52 -16c-62 -54 -48 -141 -70 -212c-5 -23 4 -46 29 -42c56 -18 110 38 162 -4c14 -39 -32 -23 -46 -37c-48 14 -89 4 -141 8c-27 -45 -24 -105 -50 -149
c-16 -27 -21 -58 -44 -83c19 -34 71 -25 104 -38c52 -12 116 -28 164 15c29 25 31 83 75 79c17 -17 0 -38 0 -56c-13 -48 -31 -93 -81 -117c-48 -22 -95 -32 -150 -18c-53 13 -93 110 -149 56c2 -25 -8 -46 -27 -58c-19 -7 -33 -9 -48 2c-23 54 60 64 52 116
c27 21 22 41 27 71c19 50 23 105 25 162c-27 47 -118 -23 -108 51c35 23 112 -18 131 38c-15 64 33 104 37 160c21 21 38 39 52 64c50 38 111 68 181 48c29 -9 56 -35 81 -52z" />
    <glyph glyph-name="section" unicode="&#xa7;" horiz-adv-x="475" 
d="M509 817c-1 -29 6 -67 -25 -94c-24 -14 -46 -40 -74 -29c-68 27 34 141 -40 169c-41 2 -80 -13 -111 -50c-43 -92 43 -145 82 -198c48 -65 137 -147 68 -257c-19 -31 -49 -52 -80 -69c-16 2 -32 -2 -41 -10c-4 -54 57 -66 49 -123c-8 -51 -27 -85 -58 -128
c-58 -57 -139 -57 -202 -48c-54 21 -114 70 -97 141c10 15 10 35 23 46c24 27 61 26 83 14c59 -33 -50 -128 30 -149c31 -8 71 -7 103 18c21 17 29 46 32 65c-28 83 -93 149 -154 210c-28 49 -59 103 -28 174c30 48 83 83 132 98c22 33 -28 18 -14 47c-30 36 -39 90 -13 144
c22 48 68 97 121 118c50 21 102 24 144 4c35 -16 60 -54 70 -93zM366 391c-23 46 -46 100 -81 131c-28 19 -62 39 -109 27c-29 -15 -53 -44 -49 -73c42 -68 77 -181 192 -151c26 10 46 37 47 66z" />
    <glyph glyph-name="bullet" unicode="&#x2022;" horiz-adv-x="2237" 
d="M2347 880c-14 -50 -22 -103 -28 -157c15 -13 18 -31 3 -46l-44 -74c-35 20 -68 46 -102 69c-1 10 0 19 -5 28c-32 -20 -52 -52 -78 -78c-33 30 -71 57 -109 80c23 48 17 103 23 156c-3 13 -20 28 -3 41l63 91c36 -22 66 -58 101 -82c-17 -41 -17 -90 -25 -136
c12 -10 23 -28 36 -23c-1 44 24 103 -1 148l96 68l6 -3zM1975 913c-17 -74 -29 -153 -30 -233c-28 -34 -51 -87 -102 -90c-53 -15 -107 -26 -161 -37c-3 4 -4 7 -4 11c33 17 72 26 94 62c9 20 24 45 14 70c-31 -21 -57 -49 -83 -76c-37 21 -69 54 -101 82
c20 122 17 255 24 383l5 6c53 -7 104 0 155 -3c1 -57 -14 -116 -13 -171l3 -5c26 28 45 59 68 88c44 -28 84 -62 131 -87zM1588 767l-51 -136c-41 22 -79 50 -121 73c14 126 8 265 12 392c53 -2 105 1 156 6l3 -3l-19 -311zM1990 460c-3 1 -6 0 -7 -2c-3 -8 -7 -16 -6 -24
c4 -25 0 -49 0 -74c0 -13 2 -28 -8 -40c1 3 3 7 -1 10c-13 -18 -14 -40 -18 -61c-2 -15 -1 -30 -7 -44c-14 -31 -10 -66 -26 -95c-5 -7 -14 -9 -14 -20c-10 7 -10 22 -20 27c-6 4 -12 8 -20 10c5 12 -8 14 -14 19c-5 4 -9 14 -7 20c18 40 34 78 45 120c0 2 6 3 6 5
c21 53 22 109 28 164c34 16 18 62 36 88c2 3 14 7 21 1c13 -8 9 -25 10 -36c3 -22 11 -46 2 -68zM1668 442l2 -1l-3 1c2 -2 2 -3 3 -3c0 3 -1 3 -2 3zM1672 427c-1 -1 -2 -1 -3 -1c1 0 2 -1 2 -3c-2 1 -3 1 -2 3s1 3 2 4c2 -1 2 -2 1 -3zM1667 413c-2 1 -6 1 -5 3
c0 1 3 0 4 -2zM1668 406c0 -1 -1 0 -1 3h1c1 -1 1 -3 0 -3zM1365 943c-10 -52 -12 -106 -14 -160c16 -12 21 -29 7 -45l-36 -78c-37 17 -72 39 -108 59c-3 10 -3 20 -8 28c-30 -23 -46 -57 -70 -85c-35 26 -76 49 -116 70c19 49 7 103 9 156c-5 13 -23 27 -8 41l54 96
c39 -18 72 -50 108 -72c-13 -42 -8 -91 -12 -137c13 -9 26 -26 38 -20c-5 44 15 105 -14 147l89 77l6 -2zM1811 506c-22 -35 -82 -32 -125 -49c-12 -5 -21 -18 -32 -29c-7 -8 11 -16 1 -26c-3 -2 6 -4 10 -5c-1 -1 -4 -1 -4 -2c0 -3 3 -5 7 -6c-11 0 3 -8 -3 -9
c-3 -1 -8 2 -12 2c-7 -1 -8 -5 -1 -8c2 1 4 1 7 0c2 0 3 -1 5 -1c-1 -1 -1 -2 -1 -3l-4 4c-3 1 -5 1 -8 -2c3 -25 20 -47 39 -67c4 -5 8 -14 18 -13c0 -4 -4 -7 2 -11c24 -13 49 -28 57 -47c8 -17 0 -39 -15 -54c-25 -26 -41 -55 -60 -85c-5 -7 -17 -12 -29 -13
c-44 -5 -85 -23 -129 -17c-49 6 -104 64 -62 92c17 12 50 -10 79 -6c1 1 4 -4 6 -7c6 9 17 4 28 4c4 0 6 2 6 6c2 -3 4 -6 8 -5c6 1 12 3 18 2c-1 -1 -4 -1 -4 -2c0 -3 3 -6 7 -6c7 1 5 6 7 9c11 -4 21 -11 29 -3c1 2 -2 5 -7 5l11 5c3 -11 -18 -16 -1 -24c6 -2 14 0 21 -1
s7 9 16 9c-12 16 19 32 -5 38c-6 1 -19 -5 -25 -13c-16 13 -25 -15 -41 -1c7 5 20 2 24 9c2 4 -10 3 -10 9c-4 -1 -7 -2 -6 -6c-5 5 -14 11 -9 16c14 11 37 13 45 29c7 15 1 31 -13 44c-13 12 -19 28 -35 36c-6 3 -17 -2 -20 3c-20 31 -47 52 -65 83c-3 5 -5 14 -6 21
c-7 50 45 77 93 89c38 9 88 -11 114 13c13 11 35 24 54 22c15 -2 23 -25 20 -29zM1911 29c-11 -11 -22 8 -35 6c-2 -1 -7 -3 -7 -4c0 -7 7 -10 13 -11c-1 -2 0 -4 1 -7s-2 -5 -4 -4c-6 1 -10 10 -19 4c5 -4 1 -9 0 -13l-6 2c2 2 1 5 -1 6c-6 4 -13 4 -17 -2
c-3 -3 3 -8 -1 -13c-3 -4 -8 -2 -9 0c-4 7 5 23 -8 21c-9 -2 -5 -23 -17 -14c-7 6 5 9 6 14c1 9 -11 11 -15 12c-11 2 -12 -21 -26 -20c-1 0 -2 4 -5 4c5 11 20 11 23 20c4 9 -4 13 -12 19c-5 3 11 6 10 15c-1 2 -2 5 -6 4c-7 0 -13 -8 -20 -3c-1 0 1 3 1 5c7 -2 14 -2 20 2
l-4 7c11 6 17 10 16 22c6 -2 13 -3 16 3c1 1 -2 4 -5 4c1 2 1 5 2 6c8 3 12 -13 21 -5c3 2 1 7 0 10c-3 4 -6 12 -3 12c12 0 1 -18 10 -24c3 -1 9 -3 8 1c0 3 -1 8 1 9c18 10 22 -8 21 -21c2 1 4 2 4 5c3 -1 7 -1 9 -3c3 -1 4 -4 2 -6s-5 -3 -5 -6c1 -3 3 -7 5 -7
c5 0 10 9 17 4c3 -1 4 -4 2 -6c-8 -5 -22 -7 -15 -19c5 4 13 6 16 1c4 -8 -8 -7 -14 -6c-2 1 -5 -2 -4 -5c3 -15 22 -5 32 -12c2 -2 4 -4 2 -7zM1369 520c-1 0 -2 1 -1 3zM1354 522c-1 -1 -2 -1 -3 0s1 2 2 1zM1343 523c1 0 1 -1 0 -3c-1 0 -3 1 0 3zM1316 527
c-2 0 -4 1 -1 3c1 0 1 -2 1 -3zM1457 504c-17 -11 -25 -30 -35 -42c-32 -39 -90 -28 -138 -12c-14 5 -34 3 -38 21c-1 4 2 5 4 6c3 3 1 6 -1 8c-5 2 -10 1 -13 4c-13 11 -24 30 -13 41c12 14 39 13 56 -3c5 -5 -1 7 4 8c-2 -6 4 -8 5 -12c3 1 5 3 5 6c1 -3 3 -6 5 -8
c3 -3 5 -1 8 1c-1 -4 -4 -9 1 -11c2 0 5 2 5 6c1 -3 3 -7 5 -8s5 2 5 5c1 -3 3 -5 6 -5c2 1 3 1 4 3c0 -2 1 -4 3 -4c5 -2 10 1 15 3l-2 4c4 2 2 -2 2 -4s1 -3 4 -1c3 1 4 2 4 4c0 -2 0 -4 3 -6c3 5 10 0 14 7c3 6 -3 -8 5 -4c6 3 5 7 5 11c-2 1 -2 4 -1 6c-1 -2 0 -4 2 -7
c9 -2 12 9 18 13c1 -1 1 -4 2 -4c6 0 5 8 7 8c11 3 24 2 34 -5c11 -8 23 -19 10 -29zM1752 39c1 -3 -2 -5 -5 -5c-1 0 -2 2 -2 3c1 2 5 4 7 2zM1732 5c-1 -5 -6 -2 -9 -1c2 3 -3 7 8 7c8 0 2 -5 1 -6zM1597 180c-7 -2 -15 -2 -23 -2c-4 0 -8 0 -13 -1c-17 -3 -36 -5 -49 -16
c-8 11 8 18 10 26c1 3 2 4 6 2c-2 -3 0 -7 2 -6c15 2 30 -3 44 -5c8 1 16 1 23 2zM993 941c-11 -75 -16 -155 -11 -235c-24 -36 -43 -90 -94 -98c-51 -19 -104 -35 -157 -50c-4 3 -5 7 -5 10c32 20 70 32 89 70c7 21 20 47 8 71c-30 -23 -53 -54 -76 -83
c-39 18 -73 48 -108 73c10 124 -5 256 -9 384l5 7c54 -3 104 8 155 10c6 -57 -5 -117 1 -172l3 -4c24 29 40 61 61 93c47 -24 89 -55 138 -76zM1457 271c5 -13 -10 -22 -19 -32c-3 -3 2 -13 0 -21c-1 -5 -10 1 -11 -4c0 -3 2 -7 5 -8c2 -1 5 3 8 4c-10 -6 -12 -18 -3 -28
c-3 2 -7 0 -7 -2c0 -5 11 -8 9 -13c-11 -23 -38 -20 -57 -22c-33 -3 -67 -6 -102 -7c-36 -1 -74 -23 -104 -10c-19 9 -12 43 -28 65c-14 19 -9 45 -9 65c-1 34 1 70 13 105c2 8 0 18 1 25c8 37 13 76 32 109c3 4 19 20 27 4c14 -33 -3 -67 5 -100c57 -9 112 -30 171 -21
c1 0 4 -4 1 -7c-2 -2 -6 -2 -5 -6c1 -3 4 -5 2 -7c-5 -6 -11 -14 -18 -13c-18 1 -36 4 -53 2c-20 -2 -14 -38 -30 -37c-25 0 -62 4 -71 35c-1 2 -6 1 -7 -2c-4 -18 -8 -39 3 -53c8 -10 25 -12 38 -19c23 -13 52 -12 79 -20c-2 -3 -1 -6 1 -7c3 0 5 2 5 6c6 -4 -2 -14 4 -15
c3 0 4 1 5 4s1 6 2 8c2 -2 -1 -6 -2 -9c0 -1 0 -1 2 -1c10 2 12 -9 17 -8c10 3 21 1 31 6c-2 2 -4 5 -2 8c1 -3 3 -6 6 -5c12 8 12 27 21 32c11 6 33 18 40 -1zM603 743l-50 -118l-11 -1c-40 22 -80 42 -122 56c-12 10 -2 21 -2 33c-9 51 -3 105 -9 155c-7 8 -17 7 -25 7
c-3 28 -12 56 1 77c9 0 20 1 20 10c1 25 -8 55 4 72c49 16 101 26 147 48l8 -8c-1 -37 1 -71 7 -109c6 -10 20 1 26 -8l3 -72c-7 -12 -28 3 -29 -16c11 -42 -14 -103 32 -126zM1096 539c7 -33 -5 -65 -16 -96c-9 -28 4 -63 -6 -89c-21 -51 -25 -105 -49 -154
c-8 -18 -20 -49 -34 -46c-58 13 -65 87 -113 119c20 35 -13 64 -21 100c-9 38 -27 76 -6 111c2 3 14 3 18 0c38 -33 41 -88 75 -123c22 21 32 50 58 71c8 7 9 20 15 26c27 27 19 65 46 87c7 6 30 8 33 -6zM843 130c-14 -20 -44 -13 -67 -13c-8 0 -7 13 -11 18
c-22 31 -48 58 -53 97c-1 5 -7 11 -10 17c-17 33 -21 70 -21 107c0 50 -29 119 19 149c20 13 41 -25 46 -46c19 -76 21 -153 63 -222c21 -34 58 -70 34 -107zM373 726c-42 -87 -129 -113 -218 -110c-73 3 -154 46 -186 117l-18 100c21 39 23 97 76 109c13 5 22 16 34 20
c-1 -54 4 -110 37 -150l20 -17l4 3c-10 59 -28 114 -45 169l2 7c46 30 93 62 141 92c37 -24 83 -21 126 -22c5 -33 -10 -66 -1 -101c-7 -11 -26 4 -24 -14c5 -52 4 -110 15 -168c6 -11 15 2 23 6c3 5 8 8 12 9c-2 -17 4 -32 2 -50zM683 82c-21 -9 -48 25 -69 4
c-7 -7 5 -33 -6 -34c-25 -4 -52 -15 -79 -1c-22 11 -51 5 -67 -12c-20 -20 -43 -39 -64 -23c-42 34 -35 102 -41 158c0 3 4 19 15 15c8 42 -2 83 3 126c6 53 3 106 19 155c5 18 30 28 37 14c19 -34 41 -63 48 -104c9 -53 -8 -104 1 -156c66 12 141 12 190 -51
c2 -3 0 -11 2 -13c19 -22 40 -66 11 -78zM1792 754c-4 34 15 68 -1 97c-8 3 -17 15 -24 8c-2 -30 -10 -67 -1 -96c9 -3 17 -16 26 -9zM823 767c-6 34 10 69 -8 97c-9 2 -18 14 -25 6c0 -30 -4 -68 8 -96c8 -2 18 -15 25 -7zM296 747c-5 59 -14 117 -21 176
c4 17 -14 21 -24 14l11 -139c-18 -21 -49 -27 -72 -44l1 -4c30 -15 67 -15 101 -8z" />
    <glyph glyph-name="paragraph" unicode="&#xb6;" horiz-adv-x="594" 
d="M620 925c32 -6 10 -48 0 -71c-34 -27 -89 9 -116 -45c-42 -179 -92 -366 -147 -547c7 -62 -34 -135 -37 -193c6 -25 -3 -60 -19 -87c-19 -25 -45 -14 -64 -14c-31 31 19 78 27 116c80 245 126 494 188 739c-2 19 -21 23 -35 27c-27 -2 -60 9 -82 -27l-24 -66
c-49 -247 -158 -505 -184 -756c-7 -21 -28 -27 -46 -33c-55 24 2 105 10 153c45 123 74 243 102 366c-17 52 -98 60 -85 131c-10 33 1 83 16 116c11 79 87 131 152 164c112 37 229 25 344 27z" />
    <glyph glyph-name="acute" unicode="&#xb4;" horiz-adv-x="284" 
d="M261 695c54 -49 -34 -73 -85 -92c-56 -21 -82 -68 -119 -43c-29 20 39 42 69 80c24 31 78 106 135 55z" />
    <glyph glyph-name="dieresis" unicode="&#xa8;" horiz-adv-x="353" 
d="M353 511c11 -24 -6 -43 -16 -61c-15 -15 -37 -21 -56 -13c-14 16 -43 10 -43 34c-9 14 6 31 6 48c16 15 34 24 56 27c21 -3 43 -13 53 -35zM183 513c11 -24 -6 -43 -16 -61c-15 -15 -37 -21 -56 -13c-13 16 -43 10 -43 34c-9 14 6 31 6 48c16 15 34 24 56 27
c21 -3 43 -13 53 -35z" />
    <glyph glyph-name="AE" unicode="&#xc6;" horiz-adv-x="1103" 
d="M1124 719c-2 -28 19 -57 -4 -75c-44 0 -62 47 -93 70c-71 31 -171 21 -243 7c-36 -73 -51 -153 -84 -227c-15 -34 13 -56 42 -54c93 7 208 -10 247 98c8 10 21 21 33 12c15 -50 -21 -95 -41 -139c-12 -41 -4 -106 -52 -116c-29 29 12 75 -23 102c-62 20 -141 20 -206 14
c-41 -33 -39 -97 -60 -145c-2 -56 -75 -121 -10 -168c118 4 253 -11 351 60c19 -9 14 17 31 18c31 3 37 52 75 38c0 -35 -9 -65 -36 -87c9 -32 -24 -44 -37 -67c-203 -4 -397 4 -590 6c-4 7 -10 9 -8 17c21 27 62 4 83 33c35 65 50 139 75 210c2 10 -11 19 -19 21
c-68 -17 -137 25 -201 -15c-52 -54 -92 -95 -140 -153c-6 -32 7 -59 32 -75c25 -17 68 4 85 -25l-9 -15c-93 -10 -189 2 -282 2c-8 9 -17 19 -8 27c12 27 46 23 66 42c74 46 112 125 181 172c33 69 96 104 145 168c55 73 127 129 177 206c-6 15 -9 31 -23 44
c-52 14 -106 4 -158 8c-4 8 -10 15 -6 25l14 17c96 6 183 -15 277 -5c39 -10 89 3 135 5c83 -9 168 6 247 0l21 -27c-5 -15 8 -21 16 -29zM667 683h-10c-81 -89 -150 -176 -233 -268c-10 -8 -10 -27 4 -33c59 0 90 -4 146 2c43 21 33 73 56 106c-4 71 54 123 37 193z" />
    <glyph glyph-name="ordfeminine" unicode="&#xaa;" horiz-adv-x="460" 
d="M498 467c-5 -57 -47 -118 -103 -148c-23 -7 -54 -4 -60 23c-1 8 4 22 -10 24c-38 -37 -82 -72 -141 -52c-56 28 -74 90 -68 146c8 14 8 30 12 46c16 27 19 59 43 83c9 35 55 56 76 86c36 16 78 47 120 21c17 -26 52 -19 66 7c16 -2 37 5 49 -7c-26 -81 -45 -166 -68 -248
c-14 -14 -12 -33 -19 -51c-2 -12 7 -19 16 -28c24 6 46 34 59 55c8 14 12 36 28 43zM183 89c13 -30 -8 -54 -21 -76c-18 -19 -46 -26 -70 -17c-16 21 -53 13 -53 43c-11 18 7 38 7 61c20 18 42 29 70 33c26 -4 54 -17 67 -44zM355 652c-16 11 -32 20 -51 16
c-19 -5 -33 -23 -47 -37c-38 -70 -68 -146 -59 -230c7 -25 28 -51 55 -52c25 3 46 17 60 40c28 82 94 172 42 263z" />
    <glyph glyph-name="ordmasculine" unicode="&#xba;" horiz-adv-x="460" 
d="M450 506c-27 -79 -89 -143 -166 -176c-38 -4 -87 -11 -117 19c-5 17 -26 28 -35 43c-17 95 20 182 75 252c52 65 158 114 231 50c51 -44 31 -133 12 -188zM183 89c13 -30 -8 -54 -21 -76c-18 -19 -46 -26 -70 -17c-16 21 -53 13 -53 43c-11 18 7 38 7 61
c20 18 42 29 70 33c26 -4 54 -17 67 -44zM387 663c-12 23 -38 23 -63 23c-40 -2 -57 -44 -82 -70c-21 -70 -63 -144 -36 -220c11 -33 50 -32 80 -35c63 23 79 92 98 148c1 51 26 109 3 154z" />
    <glyph glyph-name="ae" unicode="&#xe6;" horiz-adv-x="618" 
d="M641 436c16 -39 2 -85 -27 -116c-85 -46 -168 -100 -254 -149c-6 -34 5 -63 23 -86c67 -58 110 40 168 52c11 -6 9 -23 3 -29c-54 -46 -100 -99 -171 -110c-62 -16 -62 77 -116 65c-40 -40 -87 -65 -143 -65c-38 15 -69 48 -81 87c-13 123 18 246 130 310
c117 91 293 110 437 71zM551 343c0 23 15 47 -4 66c-23 25 -52 5 -79 5c-60 -46 -83 -125 -83 -198c61 31 121 67 166 127zM423 428c-115 21 -208 -64 -268 -156c-25 -66 -54 -145 4 -205c21 -15 50 -13 71 4c39 19 58 60 56 104c-5 89 53 158 108 220c7 15 31 19 29 33z
" />
    <glyph glyph-name="florin" unicode="&#x192;" horiz-adv-x="882" 
d="M895 758c27 -22 -14 -54 -14 -83c-21 -54 -19 -120 -50 -172c-19 -40 0 -96 -34 -131c-18 -58 -24 -106 -37 -168c-33 -21 -6 -67 -29 -94c2 -12 10 -22 21 -33c45 15 48 69 79 98c2 16 10 33 23 41c14 0 18 -23 10 -33c-35 -58 -58 -118 -123 -158c-27 0 -52 0 -70 15
c-31 50 7 95 14 143c12 75 52 148 46 220l-19 19h-143c-37 -48 -33 -116 -48 -172c-18 -48 -23 -100 -41 -146c12 -56 -52 -81 -46 -135c-23 -37 -44 -79 -81 -108c-42 -8 -85 -54 -127 -14c-12 8 -33 18 -31 37c-12 35 23 39 42 52c50 4 106 -83 141 -4c46 29 8 77 31 116
c6 62 27 110 33 172c7 65 44 123 38 189c-13 21 -29 -6 -46 9c-39 -13 -108 29 -137 -23c-17 -52 -13 -114 -33 -164c-23 -110 -46 -222 -83 -326c-23 -27 -42 -50 -75 -71c-33 -8 -75 -4 -85 33c-2 19 0 36 10 50c19 9 40 29 60 11c7 -15 23 -25 38 -29
c33 91 25 187 47 284c7 30 19 60 23 94c0 45 31 76 29 122c-27 33 -89 -8 -85 52c27 23 90 -15 108 31c15 112 73 249 200 276c47 11 103 5 126 -45c-6 -11 -6 -29 0 -42c79 102 200 87 318 87zM793 634c-4 33 -41 35 -60 60c-25 25 -58 2 -85 -6c-44 -67 -71 -146 -64 -229
l139 4c70 23 31 121 70 171zM563 661c-63 -46 -83 50 -144 45c-39 -22 -45 -64 -62 -97c-8 -50 -33 -96 -23 -146h137c36 9 23 52 42 75c17 40 35 87 50 123z" />
    <glyph glyph-name="nbspace" unicode="&#xa0;" horiz-adv-x="280" 
 />
    <glyph glyph-name="Agrave" unicode="&#xc0;" horiz-adv-x="789" 
d="M796 748c-37 -25 -64 22 -120 43c-50 19 -138 43 -84 92c56 50 110 -24 135 -55c30 -38 97 -60 69 -80zM765 698c-15 -54 -20 -108 -34 -158c-22 -83 -18 -183 -45 -268c-2 -73 -27 -143 -23 -214c16 -50 89 6 93 -48l-23 -14h-263c-13 4 -7 16 -9 25c31 12 69 8 102 18
c25 29 12 64 21 94c9 31 16 70 23 106c-4 10 -15 16 -23 25c-98 -21 -233 37 -295 -63l-94 -112c-12 -43 34 -46 57 -60c14 -4 31 6 41 -8c4 -11 -6 -15 -10 -23c-46 0 -94 -17 -135 0c-48 10 -108 -40 -135 16c8 11 8 27 23 38c68 -2 108 56 153 93c31 38 77 69 108 114
c27 9 27 38 48 54c81 67 133 160 214 221c39 60 98 114 137 174c19 11 58 17 69 -10zM644 559c-23 6 -39 -15 -52 -30c-52 -83 -137 -137 -183 -224c59 -25 123 0 187 -8c19 19 25 48 23 79c6 31 0 68 19 93c-13 36 21 63 6 90z" />
    <glyph glyph-name="Atilde" unicode="&#xc3;" horiz-adv-x="789" 
d="M889 870c97 38 -24 -111 -98 -104c-29 3 -74 31 -89 55c-5 -1 -10 -2 -15 -4c-57 -21 -83 -68 -120 -43c-28 20 39 42 69 80c24 31 78 55 135 4c20 -18 10 -31 26 -37c21 -8 64 38 92 49zM765 698c-15 -54 -20 -108 -34 -158c-22 -83 -18 -183 -45 -268
c-2 -73 -27 -143 -23 -214c16 -50 89 6 93 -48l-23 -14h-263c-13 4 -7 16 -9 25c31 12 69 8 102 18c25 29 12 64 21 94c9 31 16 70 23 106c-4 10 -15 16 -23 25c-98 -21 -233 37 -295 -63l-94 -112c-12 -43 34 -46 57 -60c14 -4 31 6 41 -8c4 -11 -6 -15 -10 -23
c-46 0 -94 -17 -135 0c-48 10 -108 -40 -135 16c8 11 8 27 23 38c68 -2 108 56 153 93c31 38 77 69 108 114c27 9 27 38 48 54c81 67 133 160 214 221c39 60 98 114 137 174c19 11 58 17 69 -10zM644 559c-23 6 -39 -15 -52 -30c-52 -83 -137 -137 -183 -224
c59 -25 123 0 187 -8c19 19 25 48 23 79c6 31 0 68 19 93c-13 36 21 63 6 90z" />
    <glyph glyph-name="Otilde" unicode="&#xd5;" horiz-adv-x="686" 
d="M689 860c97 38 -24 -111 -98 -104c-29 3 -74 31 -89 55c-5 -1 -10 -2 -15 -4c-57 -21 -83 -68 -120 -43c-28 20 39 42 69 80c24 31 78 55 135 4c20 -18 10 -31 26 -37c21 -8 64 38 92 49zM720 411c-4 -95 -47 -176 -99 -253c-34 -31 -54 -79 -102 -94
c-46 -60 -123 -52 -183 -79c-85 0 -166 9 -228 65c-63 75 -81 168 -61 264c7 70 38 140 79 199c77 109 189 199 322 220c56 -21 125 15 169 -37c78 -67 130 -179 103 -285zM639 444c-6 59 1 122 -33 167c-26 34 -56 56 -91 76c-46 -2 -96 11 -133 -24
c-112 -40 -168 -158 -218 -252c-19 -60 -29 -110 -38 -174c9 -85 30 -191 127 -214c115 -27 216 39 280 131c11 31 42 56 46 89c42 56 42 135 60 201z" />
    <glyph glyph-name="OE" unicode="&#x152;" horiz-adv-x="1066" 
d="M1087 669c2 -15 -8 -23 -23 -25c-35 33 -79 74 -126 85c-75 16 -146 19 -220 -4c-32 -15 -11 -52 -34 -71c0 -68 -47 -127 -31 -195c62 -23 137 -2 200 -2c47 14 66 66 99 99l23 -4c-2 -52 -17 -109 -41 -160c-9 -31 -7 -78 -44 -89c-10 40 -6 94 -52 112
c-69 -6 -135 27 -199 0c-40 -60 -44 -135 -67 -201c4 -35 -27 -65 0 -94l23 -18c154 0 314 -19 413 114c15 2 25 21 38 8c14 -19 -7 -41 -11 -64c-29 -29 -33 -69 -66 -94c-83 4 -175 -8 -243 13l-79 -13l-411 4c-40 21 -87 18 -121 50c-78 74 -95 185 -70 287
c29 120 101 235 209 307c61 25 123 44 191 56c67 3 144 -6 216 7c115 -11 219 4 327 12l58 -12c8 -42 41 -63 41 -108zM595 687c-56 77 -162 23 -243 27c-125 -68 -191 -201 -214 -330c8 -62 -17 -142 23 -201c51 -76 149 -71 230 -75c65 17 84 87 111 135
c-3 56 29 100 33 154c25 95 56 187 60 290z" />
    <glyph glyph-name="oe" unicode="&#x153;" horiz-adv-x="707" 
d="M733 428c11 -33 9 -73 -6 -104c-73 -56 -154 -87 -237 -120c-14 -11 -31 -27 -48 -19c67 58 219 83 198 206c-17 21 -44 45 -75 31c-54 -4 -73 -58 -108 -94c-15 -49 -52 -99 -33 -153c-15 -25 -21 -63 -9 -90c23 -27 54 -40 88 -31c43 12 77 52 112 75
c12 4 23 -4 25 -14c-21 -52 -81 -71 -123 -104c-48 -15 -93 -23 -139 4c-29 2 -21 56 -56 43c-50 -43 -118 -68 -183 -47c-53 17 -83 68 -99 116c2 145 87 291 226 347c44 4 110 14 139 -38l37 -51c75 49 156 122 254 85zM349 409c-4 9 -14 16 -23 19
c-52 22 -89 -14 -122 -48c-23 -37 -40 -79 -52 -120c-34 -64 -38 -145 2 -208c16 -14 37 -18 60 -16c58 22 106 89 112 153c35 63 53 152 23 220z" />
    <glyph glyph-name="endash" unicode="&#x2013;" horiz-adv-x="631" 
d="M594 224c-21 -27 -58 -16 -83 -16c-144 16 -272 0 -422 0c-14 16 -31 37 -19 60c34 43 104 -4 150 12h365c11 -21 13 -35 9 -56z" />
    <glyph glyph-name="emdash" unicode="&#x2014;" horiz-adv-x="1127" 
d="M1090 265c0 -23 -15 -43 -35 -56c-42 -17 -88 4 -131 4c-281 0 -592 9 -862 4c-19 11 -13 36 -9 48l23 19c322 2 625 -4 939 8c25 -6 58 -4 75 -27z" />
    <glyph glyph-name="quotedblleft" unicode="&#x201c;" horiz-adv-x="415" 
d="M390 807c4 -54 -63 -61 -92 -90c-27 -35 17 -50 27 -79c8 -33 -11 -59 -37 -72c-19 -10 -44 -14 -65 -7c-35 13 -27 50 -39 75c0 89 95 139 164 173c15 0 29 16 42 0zM239 812c4 -54 -63 -50 -92 -79c-27 -35 17 -60 27 -89c9 -34 -11 -60 -37 -73
c-19 -10 -44 -14 -65 -6c-35 13 -27 50 -39 75c0 89 96 139 164 172c15 0 29 17 42 0z" />
    <glyph glyph-name="quotedblright" unicode="&#x201d;" horiz-adv-x="417" 
d="M412 777c16 -69 -25 -146 -85 -183c-45 0 -91 -77 -124 -23c25 48 97 42 120 96c19 60 -98 70 -23 126c29 29 99 42 112 -16zM258 777c15 -69 -25 -146 -85 -183c-46 0 -92 -77 -125 -23c25 48 98 29 120 83c19 60 -97 83 -22 139c29 29 98 42 112 -16z" />
    <glyph glyph-name="quoteleft" unicode="&#x2018;" horiz-adv-x="245" 
d="M239 812c4 -54 -63 -50 -92 -79c-27 -35 17 -60 27 -89c9 -34 -11 -60 -37 -73c-19 -10 -44 -14 -65 -6c-35 13 -27 50 -39 75c0 89 96 139 164 172c15 0 29 17 42 0z" />
    <glyph glyph-name="quoteright" unicode="&#x2019;" horiz-adv-x="280" 
d="M258 777c15 -69 -25 -146 -85 -183c-46 0 -92 -77 -125 -23c25 48 98 29 120 83c19 60 -97 83 -22 139c29 29 98 42 112 -16z" />
    <glyph glyph-name="fi" unicode="&#xfb01;" horiz-adv-x="626" 
d="M623 748c18 -32 -13 -57 -38 -67c-45 -19 -74 27 -112 40c-10 16 -29 18 -43 12c-65 -48 -77 -131 -92 -206c25 -43 81 -8 121 -31c43 9 77 17 122 9c9 -52 -29 -96 -25 -150c-20 -69 -52 -133 -64 -206c2 -10 12 -14 19 -22c41 10 47 101 105 60c-2 -40 -39 -56 -56 -89
c-29 -28 -64 -61 -110 -42c-20 12 -37 35 -39 60c19 98 44 202 77 299c2 19 2 46 -21 48c-48 -14 -100 15 -143 -10c-58 -150 -52 -326 -94 -482c-35 -36 -21 -94 -70 -116c-34 -23 -63 -7 -98 0c-25 8 -25 37 -37 56c4 22 8 49 33 56c31 20 75 -29 97 14
c9 77 -6 175 34 243c6 81 47 150 50 229c-30 22 -75 -19 -94 22c-4 32 29 38 52 44c21 -4 54 -10 64 19c22 62 40 133 90 176c45 75 130 90 212 75c24 -2 43 -27 60 -41z" />
    <glyph glyph-name="fl" unicode="&#xfb02;" horiz-adv-x="594" 
d="M632 801c-2 -43 -29 -81 -29 -122c-42 -98 -54 -220 -93 -322c-26 -66 -48 -141 -38 -214c40 -25 48 31 75 50c21 20 17 60 48 70c-7 -72 -56 -152 -127 -187c-18 -9 -42 0 -56 11c-37 58 4 130 14 191c11 64 48 124 38 187c-46 23 -79 4 -131 14c-46 -2 -39 -51 -48 -81
c-31 -105 -37 -218 -70 -322c4 -37 -19 -72 -27 -108c-17 -37 -54 -66 -90 -83c-27 -2 -52 2 -64 27c-19 15 -10 46 -6 67c16 14 41 18 62 12c12 -8 21 -18 35 -18c38 18 2 56 19 85c-4 147 60 272 75 407c-27 23 -112 -21 -87 50c37 27 97 -29 116 33
c19 110 89 232 205 262c36 22 67 -15 104 4c27 0 58 14 75 -13zM518 708c-42 25 -91 84 -131 23c-33 -51 -55 -110 -64 -164c-14 -85 74 -23 120 -52c31 -2 44 27 52 52c2 43 25 93 23 141z" />
    <glyph glyph-name="Acircumflex" unicode="&#xc2;" horiz-adv-x="789" 
d="M910 759c-37 -25 -64 22 -120 43c-12 5 -27 10 -41 15c-41 -16 -134 -77 -161 -58c-29 20 39 42 69 80c9 13 25 31 42 48l7 7c14 13 29 18 43 17c36 2 72 -46 92 -72c30 -38 97 -60 69 -80zM765 698c-15 -54 -20 -108 -34 -158c-22 -83 -18 -183 -45 -268
c-2 -73 -27 -143 -23 -214c16 -50 89 6 93 -48l-23 -14h-263c-13 4 -7 16 -9 25c31 12 69 8 102 18c25 29 12 64 21 94c9 31 16 70 23 106c-4 10 -15 16 -23 25c-98 -21 -233 37 -295 -63l-94 -112c-12 -43 34 -46 57 -60c14 -4 31 6 41 -8c4 -11 -6 -15 -10 -23
c-46 0 -94 -17 -135 0c-48 10 -108 -40 -135 16c8 11 8 27 23 38c68 -2 108 56 153 93c31 38 77 69 108 114c27 9 27 38 48 54c81 67 133 160 214 221c39 60 98 114 137 174c19 11 58 17 69 -10zM644 559c-23 6 -39 -15 -52 -30c-52 -83 -137 -137 -183 -224
c59 -25 123 0 187 -8c19 19 25 48 23 79c6 31 0 68 19 93c-13 36 21 63 6 90z" />
    <glyph glyph-name="Ecircumflex" unicode="&#xca;" horiz-adv-x="731" 
d="M665 731c-37 -25 -63 22 -120 43c-12 5 -27 10 -41 15c-41 -16 -133 -77 -161 -58c-28 20 39 42 69 80c10 13 26 31 42 48l7 7c15 13 29 18 43 17c36 2 72 -46 92 -72c30 -38 97 -60 69 -80zM758 592c-7 -17 -3 -46 -27 -35c-73 103 -198 108 -314 101
c-62 -68 -77 -160 -104 -243c-8 -14 -17 -33 -8 -47l10 -13c112 11 251 -35 297 94l21 18c25 -8 8 -31 8 -47c-23 -69 -41 -138 -70 -202h-13c-2 37 -4 81 -39 104l-214 8c-33 -10 -27 -50 -42 -75c-21 -70 -50 -143 -48 -218c17 -16 42 -12 63 -18c133 10 278 -17 378 83
c27 -2 31 41 60 25c8 -21 -10 -44 -23 -63c-14 -2 -19 -12 -25 -22c-6 -19 -21 -38 -37 -48c-204 -9 -393 0 -596 2c-2 6 -4 12 -2 19c23 31 85 -15 93 41c19 58 33 116 58 172c-2 44 38 84 31 127c23 50 30 106 52 158c2 50 46 110 -8 145c-21 -6 -48 -6 -66 9
c-7 12 10 20 18 25c164 0 335 4 505 -5c29 -24 19 -66 42 -95z" />
    <glyph glyph-name="Aacute" unicode="&#xc1;" horiz-adv-x="789" 
d="M838 897c54 -49 -34 -73 -84 -92c-56 -20 -83 -68 -120 -43c-28 20 39 42 69 80c24 32 79 106 135 55zM765 698c-15 -54 -20 -108 -34 -158c-22 -83 -18 -183 -45 -268c-2 -73 -27 -143 -23 -214c16 -50 89 6 93 -48l-23 -14h-263c-13 4 -7 16 -9 25c31 12 69 8 102 18
c25 29 12 64 21 94c9 31 16 70 23 106c-4 10 -15 16 -23 25c-98 -21 -233 37 -295 -63l-94 -112c-12 -43 34 -46 57 -60c14 -4 31 6 41 -8c4 -11 -6 -15 -10 -23c-46 0 -94 -17 -135 0c-48 10 -108 -40 -135 16c8 11 8 27 23 38c68 -2 108 56 153 93c31 38 77 69 108 114
c27 9 27 38 48 54c81 67 133 160 214 221c39 60 98 114 137 174c19 11 58 17 69 -10zM644 559c-23 6 -39 -15 -52 -30c-52 -83 -137 -137 -183 -224c59 -25 123 0 187 -8c19 19 25 48 23 79c6 31 0 68 19 93c-13 36 21 63 6 90z" />
    <glyph glyph-name="Edieresis" unicode="&#xcb;" horiz-adv-x="731" 
d="M646 811c11 -24 -5 -43 -16 -61c-15 -14 -37 -20 -56 -13c-13 16 -43 10 -43 34c-9 15 6 31 6 49c16 15 34 23 56 26c21 -3 43 -13 53 -35zM476 813c11 -24 -5 -43 -16 -61c-15 -14 -37 -20 -56 -13c-13 16 -43 10 -43 34c-9 15 6 31 6 49c16 15 34 23 56 26
c21 -3 43 -13 53 -35zM758 592c-7 -17 -3 -46 -27 -35c-73 103 -198 108 -314 101c-62 -68 -77 -160 -104 -243c-8 -14 -17 -33 -8 -47l10 -13c112 11 251 -35 297 94l21 18c25 -8 8 -31 8 -47c-23 -69 -41 -138 -70 -202h-13c-2 37 -4 81 -39 104l-214 8
c-33 -10 -27 -50 -42 -75c-21 -70 -50 -143 -48 -218c17 -16 42 -12 63 -18c133 10 278 -17 378 83c27 -2 31 41 60 25c8 -21 -10 -44 -23 -63c-14 -2 -19 -12 -25 -22c-6 -19 -21 -38 -37 -48c-204 -9 -393 0 -596 2c-2 6 -4 12 -2 19c23 31 85 -15 93 41
c19 58 33 116 58 172c-2 44 38 84 31 127c23 50 30 106 52 158c2 50 46 110 -8 145c-21 -6 -48 -6 -66 9c-7 12 10 20 18 25c164 0 335 4 505 -5c29 -24 19 -66 42 -95z" />
    <glyph glyph-name="Egrave" unicode="&#xc8;" horiz-adv-x="731" 
d="M587 728c-36 -25 -63 22 -119 43c-50 19 -138 43 -84 92c56 51 110 -24 135 -55c29 -38 97 -60 68 -80zM758 592c-7 -17 -3 -46 -27 -35c-73 103 -198 108 -314 101c-62 -68 -77 -160 -104 -243c-8 -14 -17 -33 -8 -47l10 -13c112 11 251 -35 297 94l21 18
c25 -8 8 -31 8 -47c-23 -69 -41 -138 -70 -202h-13c-2 37 -4 81 -39 104l-214 8c-33 -10 -27 -50 -42 -75c-21 -70 -50 -143 -48 -218c17 -16 42 -12 63 -18c133 10 278 -17 378 83c27 -2 31 41 60 25c8 -21 -10 -44 -23 -63c-14 -2 -19 -12 -25 -22c-6 -19 -21 -38 -37 -48
c-204 -9 -393 0 -596 2c-2 6 -4 12 -2 19c23 31 85 -15 93 41c19 58 33 116 58 172c-2 44 38 84 31 127c23 50 30 106 52 158c2 50 46 110 -8 145c-21 -6 -48 -6 -66 9c-7 12 10 20 18 25c164 0 335 4 505 -5c29 -24 19 -66 42 -95z" />
    <glyph glyph-name="Iacute" unicode="&#xcd;" horiz-adv-x="442" 
d="M501 879c54 -48 -35 -72 -85 -91c-56 -21 -83 -69 -119 -43c-29 19 39 41 68 80c25 31 79 105 136 54zM473 696c-31 -25 -79 -11 -97 -56c-34 -81 -46 -171 -71 -254c-33 -70 -40 -149 -69 -222c13 -48 -56 -93 0 -133l69 -4v-12c-77 -17 -187 -3 -266 -7l-10 11
c29 25 87 10 104 56c8 37 22 68 22 108c40 108 56 222 100 326c13 48 21 100 31 149c-16 29 -52 19 -79 27c-10 19 15 19 23 29c81 -16 170 19 243 -8v-10z" />
    <glyph glyph-name="Icircumflex" unicode="&#xce;" horiz-adv-x="442" 
d="M512 735c-37 -25 -63 23 -120 44c-12 4 -27 9 -41 15c-40 -16 -133 -78 -161 -59c-28 20 39 42 69 80c10 13 26 32 42 48c2 3 5 5 7 7c15 13 29 18 43 17c37 2 72 -46 92 -72c30 -38 97 -60 69 -80zM473 696c-31 -25 -79 -11 -97 -56c-34 -81 -46 -171 -71 -254
c-33 -70 -40 -149 -69 -222c13 -48 -56 -93 0 -133l69 -4v-12c-77 -17 -187 -3 -266 -7l-10 11c29 25 87 10 104 56c8 37 22 68 22 108c40 108 56 222 100 326c13 48 21 100 31 149c-16 29 -52 19 -79 27c-10 19 15 19 23 29c81 -16 170 19 243 -8v-10z" />
    <glyph glyph-name="Idieresis" unicode="&#xcf;" horiz-adv-x="442" 
d="M508 831c11 -24 -5 -43 -16 -61c-15 -14 -37 -20 -56 -13c-13 16 -43 10 -43 34c-9 15 6 31 6 49c16 15 34 23 56 26c21 -3 43 -13 53 -35zM338 833c11 -24 -5 -43 -16 -61c-15 -14 -37 -20 -56 -13c-13 16 -43 10 -43 34c-9 15 6 31 6 49c16 15 34 23 56 26
c21 -3 43 -13 53 -35zM473 696c-31 -25 -79 -11 -97 -56c-34 -81 -46 -171 -71 -254c-33 -70 -40 -149 -69 -222c13 -48 -56 -93 0 -133l69 -4v-12c-77 -17 -187 -3 -266 -7l-10 11c29 25 87 10 104 56c8 37 22 68 22 108c40 108 56 222 100 326c13 48 21 100 31 149
c-16 29 -52 19 -79 27c-10 19 15 19 23 29c81 -16 170 19 243 -8v-10z" />
    <glyph glyph-name="Igrave" unicode="&#xcc;" horiz-adv-x="442" 
d="M481 749c-37 -25 -63 23 -120 43c-50 19 -138 43 -84 92c57 51 111 -23 135 -55c30 -38 97 -60 69 -80zM473 696c-31 -25 -79 -11 -97 -56c-34 -81 -46 -171 -71 -254c-33 -70 -40 -149 -69 -222c13 -48 -56 -93 0 -133l69 -4v-12c-77 -17 -187 -3 -266 -7l-10 11
c29 25 87 10 104 56c8 37 22 68 22 108c40 108 56 222 100 326c13 48 21 100 31 149c-16 29 -52 19 -79 27c-10 19 15 19 23 29c81 -16 170 19 243 -8v-10z" />
    <glyph glyph-name="Oacute" unicode="&#xd3;" horiz-adv-x="686" 
d="M642 891c54 -48 -34 -73 -84 -91c-56 -21 -83 -69 -120 -43c-28 19 39 41 69 79c25 32 79 106 135 55zM720 411c-4 -95 -47 -176 -99 -253c-34 -31 -54 -79 -102 -94c-46 -60 -123 -52 -183 -79c-85 0 -166 9 -228 65c-63 75 -81 168 -61 264c7 70 38 140 79 199
c77 109 189 199 322 220c56 -21 125 15 169 -37c78 -67 130 -179 103 -285zM639 444c-6 59 1 122 -33 167c-26 34 -56 56 -91 76c-46 -2 -96 11 -133 -24c-112 -40 -168 -158 -218 -252c-19 -60 -29 -110 -38 -174c9 -85 30 -191 127 -214c115 -27 216 39 280 131
c11 31 42 56 46 89c42 56 42 135 60 201z" />
    <glyph glyph-name="Ocircumflex" unicode="&#xd4;" horiz-adv-x="686" 
d="M677 746c-37 -26 -63 22 -120 43c-12 4 -27 9 -41 15c-41 -16 -133 -77 -161 -58s39 41 69 80c10 12 26 31 42 48c2 2 4 4 7 6c15 13 29 18 43 18c36 1 72 -46 92 -72c30 -39 97 -61 69 -80zM720 411c-4 -95 -47 -176 -99 -253c-34 -31 -54 -79 -102 -94
c-46 -60 -123 -52 -183 -79c-85 0 -166 9 -228 65c-63 75 -81 168 -61 264c7 70 38 140 79 199c77 109 189 199 322 220c56 -21 125 15 169 -37c78 -67 130 -179 103 -285zM639 444c-6 59 1 122 -33 167c-26 34 -56 56 -91 76c-46 -2 -96 11 -133 -24
c-112 -40 -168 -158 -218 -252c-19 -60 -29 -110 -38 -174c9 -85 30 -191 127 -214c115 -27 216 39 280 131c11 31 42 56 46 89c42 56 42 135 60 201z" />
    <glyph glyph-name="Ograve" unicode="&#xd2;" horiz-adv-x="686" 
d="M607 758c-36 -26 -63 22 -119 43c-50 18 -139 43 -84 91c56 51 110 -23 135 -55c29 -38 97 -60 68 -79zM720 411c-4 -95 -47 -176 -99 -253c-34 -31 -54 -79 -102 -94c-46 -60 -123 -52 -183 -79c-85 0 -166 9 -228 65c-63 75 -81 168 -61 264c7 70 38 140 79 199
c77 109 189 199 322 220c56 -21 125 15 169 -37c78 -67 130 -179 103 -285zM639 444c-6 59 1 122 -33 167c-26 34 -56 56 -91 76c-46 -2 -96 11 -133 -24c-112 -40 -168 -158 -218 -252c-19 -60 -29 -110 -38 -174c9 -85 30 -191 127 -214c115 -27 216 39 280 131
c11 31 42 56 46 89c42 56 42 135 60 201z" />
    <glyph glyph-name="Uacute" unicode="&#xda;" horiz-adv-x="719" 
d="M591 884c54 -49 -34 -73 -84 -92c-57 -21 -83 -68 -120 -43c-28 20 39 42 69 80c24 31 79 106 135 55zM770 696c-106 -54 -115 -175 -146 -272c-8 -56 -10 -112 -41 -158v-27c-27 -87 -85 -175 -169 -227c-24 7 -41 -9 -62 -16c-79 -27 -162 2 -237 19
c-37 33 -77 78 -81 130c-4 56 5 119 23 169c9 54 40 101 44 157c12 40 19 81 41 117c-10 33 40 79 -14 97c-27 13 -50 -29 -69 7c-6 31 34 18 50 27c73 -7 150 10 224 0c11 -7 15 -21 7 -32c-42 -6 -99 -8 -112 -62c-29 -113 -57 -224 -94 -332c-6 -56 -27 -121 -6 -177
s79 -89 135 -97c108 -7 205 70 253 168c23 60 46 120 52 187c21 37 36 79 46 120c5 21 29 40 14 63c19 20 11 58 9 83c-23 14 -44 50 -79 41c-13 6 -15 21 -9 29c48 17 111 0 158 15c17 -17 71 8 63 -29z" />
    <glyph glyph-name="Ucircumflex" unicode="&#xdb;" horiz-adv-x="719" 
d="M612 755c-37 -25 -63 22 -119 43c-13 5 -28 10 -42 15c-40 -15 -133 -77 -161 -58c-28 20 39 42 69 80c10 13 26 31 43 48c1 2 4 4 6 7c15 13 29 18 43 17c37 2 72 -46 92 -72c30 -38 97 -60 69 -80zM770 696c-106 -54 -115 -175 -146 -272c-8 -56 -10 -112 -41 -158v-27
c-27 -87 -85 -175 -169 -227c-24 7 -41 -9 -62 -16c-79 -27 -162 2 -237 19c-37 33 -77 78 -81 130c-4 56 5 119 23 169c9 54 40 101 44 157c12 40 19 81 41 117c-10 33 40 79 -14 97c-27 13 -50 -29 -69 7c-6 31 34 18 50 27c73 -7 150 10 224 0c11 -7 15 -21 7 -32
c-42 -6 -99 -8 -112 -62c-29 -113 -57 -224 -94 -332c-6 -56 -27 -121 -6 -177s79 -89 135 -97c108 -7 205 70 253 168c23 60 46 120 52 187c21 37 36 79 46 120c5 21 29 40 14 63c19 20 11 58 9 83c-23 14 -44 50 -79 41c-13 6 -15 21 -9 29c48 17 111 0 158 15
c17 -17 71 8 63 -29z" />
    <glyph glyph-name="Ugrave" unicode="&#xd9;" horiz-adv-x="719" 
d="M537 742c-36 -25 -63 23 -119 43c-50 19 -139 43 -85 92c57 51 111 -23 136 -55c29 -38 97 -60 68 -80zM770 696c-106 -54 -115 -175 -146 -272c-8 -56 -10 -112 -41 -158v-27c-27 -87 -85 -175 -169 -227c-24 7 -41 -9 -62 -16c-79 -27 -162 2 -237 19
c-37 33 -77 78 -81 130c-4 56 5 119 23 169c9 54 40 101 44 157c12 40 19 81 41 117c-10 33 40 79 -14 97c-27 13 -50 -29 -69 7c-6 31 34 18 50 27c73 -7 150 10 224 0c11 -7 15 -21 7 -32c-42 -6 -99 -8 -112 -62c-29 -113 -57 -224 -94 -332c-6 -56 -27 -121 -6 -177
s79 -89 135 -97c108 -7 205 70 253 168c23 60 46 120 52 187c21 37 36 79 46 120c5 21 29 40 14 63c19 20 11 58 9 83c-23 14 -44 50 -79 41c-13 6 -15 21 -9 29c48 17 111 0 158 15c17 -17 71 8 63 -29z" />
    <glyph glyph-name="dotlessi" unicode="&#x131;" horiz-adv-x="311" 
d="M290 171c4 -66 -46 -118 -83 -172c-21 -17 -48 -17 -71 -9c-40 27 -37 73 -31 113c14 39 29 78 31 124c21 40 25 87 37 131c-6 12 -18 23 -33 19c-37 -38 -60 -85 -93 -117c-11 46 45 63 47 108c27 32 56 75 102 75c21 0 50 -12 52 -37c-10 -87 -30 -172 -52 -254
c-7 -28 -27 -70 2 -89c38 -12 40 35 60 48c3 23 23 39 32 60z" />
  </font>
</defs>
</svg>
