<?xml version="1.0" standalone="no"?>
<!DOCTYPE svg PUBLIC "-//W3C//DTD SVG 1.1//EN" "http://www.w3.org/Graphics/SVG/1.1/DTD/svg11.dtd" >
<svg xmlns="http://www.w3.org/2000/svg" width="100%" height="100%">
<metadata>
Created by FontXChange 20110222 at Sat Oct 19 13:52:22 2013
 By Gahlord Dewald
(c)2001 by Andrew Leman.  www.ahleman.com  www.cthulhlives.org
</metadata>
<defs>
<font id="Telegram-HPLHS" horiz-adv-x="650" >
  <font-face 
    font-family="Telegram"
    font-weight="400"
    font-stretch="normal"
    units-per-em="1000"
    panose-1="2 0 5 3 0 0 0 0 0 0"
    ascent="800"
    descent="-200"
    x-height="800"
    cap-height="795"
    bbox="-3 -182.254 1841 1114"
    underline-thickness="20"
    underline-position="-133"
    stemh="93.701"
    stemv="95.280"
    unicode-range="U+0020-2212"
  />
    <missing-glyph />
    <glyph glyph-name="NUL" 
 />
    <glyph glyph-name="Eth" unicode="&#xd0;" 
 />
    <glyph glyph-name="eth" unicode="&#xf0;" 
 />
    <glyph glyph-name="Lslash" unicode="&#x141;" 
 />
    <glyph glyph-name="lslash" unicode="&#x142;" 
 />
    <glyph glyph-name="HT" 
 />
    <glyph glyph-name="LF" 
 />
    <glyph glyph-name="Thorn" unicode="&#xde;" 
 />
    <glyph glyph-name="thorn" unicode="&#xfe;" 
 />
    <glyph glyph-name="CR" 
 />
    <glyph glyph-name="DLE" 
 />
    <glyph glyph-name="DC1" 
 />
    <glyph glyph-name="DC3" 
 />
    <glyph glyph-name="DC4" 
 />
    <glyph glyph-name="onehalf" unicode="&#xbd;" 
 />
    <glyph glyph-name="onequarter" unicode="&#xbc;" 
 />
    <glyph glyph-name="onesuperior" unicode="&#xb9;" 
 />
    <glyph glyph-name="threequarters" unicode="&#xbe;" 
 />
    <glyph glyph-name="threesuperior" unicode="&#xb3;" 
 />
    <glyph glyph-name="twosuperior" unicode="&#xb2;" 
 />
    <glyph glyph-name="brokenbar" unicode="&#xa6;" 
 />
    <glyph glyph-name="minus" unicode="&#x2212;" 
 />
    <glyph glyph-name="multiply" unicode="&#xd7;" 
 />
    <glyph glyph-name="RS" 
 />
    <glyph glyph-name="US" 
 />
    <glyph glyph-name="space" unicode=" " 
 />
    <glyph glyph-name="exclam" unicode="!" 
d="M402 607c-5 -8 -5 -17 -5 -26l-31 -5c16 -18 33 -38 33 -63c0 -19 -4 -38 -5 -56c-7 -8 -9 -20 -9 -30c5 -7 11 -15 12 -24l-34 -18h22c1 -6 2 -13 6 -18c-9 -12 -14 -24 -21 -37c16 -13 12 -11 12 -31c0 -9 1 -18 5 -26c-14 -10 -24 -20 -20 -38c-7 -5 -13 -11 -18 -18
c-17 0 -22 -2 -38 -8c0 22 -4 43 -26 53c3 3 5 7 6 11l6 5c4 9 7 18 7 27c0 23 -14 33 -28 47l33 34l-26 -10c-1 15 -9 26 -19 37c6 7 8 17 7 27h1c2 22 3 45 3 68c0 28 -5 56 -5 83c0 13 4 20 12 29v18c0 17 -12 33 -11 48v9c3 3 7 7 11 10v16c41 42 37 77 58 77
c10 0 17 -5 24 -11l8 -3c3 -4 7 -7 12 -10c6 -27 16 -51 16 -79l-1 -11c-5 -9 -7 -19 -7 -30c0 -16 3 -33 10 -47zM318 -7h-27c-28 19 -93 86 -21 94c-2 7 -5 24 -9 19c3 4 5 8 6 12l-7 -7c18 5 33 15 53 19c1 3 4 5 7 6c13 -13 28 -11 44 -10c8 -6 18 -7 27 -9l3 12l-20 -5
l14 -18c0 3 -1 7 -4 10c1 -14 3 -22 11 -34l15 -4l-7 5c5 -6 7 -16 13 -22c0 -4 5 -11 5 -13c0 -26 -80 -56 -103 -55z" />
    <glyph glyph-name="quotedbl" unicode="&#x22;" 
d="M471 708c-19 -14 -14 -45 -21 -69c0 -1 2 -3 5 -3c-19 -27 0 -68 -5 -104c-12 -2 -17 -11 -19 -21c11 -58 -82 -61 -90 23c0 0 -6 118 -14 204c26 6 15 43 39 50c11 22 38 7 62 12l7 -12c15 -3 10 -31 30 -34c-6 0 -6 -9 -6 -12c-4 -19 20 -14 12 -34zM307 724
c-8 -86 -7 -186 -7 -186c16 -89 -56 -84 -85 -27c-2 10 6 25 -6 27c-5 36 9 23 -10 50c3 0 5 2 5 4c-7 24 -7 102 -26 116c-3 6 23 77 36 80l6 12c24 -5 52 10 62 -12c24 -7 19 -41 25 -64z" />
    <glyph glyph-name="numbersign" unicode="#" 
d="M596 479c-2 -18 -7 -29 -23 -34c-2 -6 -1 -6 -2 -6c-1 -1 -5 0 -7 0h-7c-10 0 -19 -2 -26 -10c-1 -1 -2 -1 -10 -2c-2 -8 -3 -10 -3 -12c-1 -1 -1 -2 -1 -3c-8 -7 -13 -17 -15 -26c-10 -7 -11 -17 -3 -26l2 -3c7 -15 7 -18 6 -27c-1 -3 -2 -6 -5 -20c18 -7 28 -12 36 -17
c1 -4 3 -8 4 -11c2 -4 5 -8 6 -12c2 -3 1 -6 -9 -13c3 -18 1 -25 -3 -31c-5 -9 -11 -16 -14 -26c-4 -4 -10 -6 -18 -7c-11 -1 -22 0 -46 2l-2 -21c4 -3 8 -5 9 -10s-1 -12 -2 -18c-2 -15 -6 -33 2 -48c-1 -20 -14 -61 -19 -75c-7 -4 -24 -15 -32 -14c-5 7 -14 8 -22 8h-3
c-7 5 -15 6 -23 7c-4 1 -7 0 -8 2c-2 6 -2 13 -2 23v14c0 6 -1 11 -2 18c-3 4 -4 5 -5 6c-2 1 -4 3 -5 5c-1 1 -1 1 -1 3c7 17 11 36 24 51c7 8 8 18 10 28c1 2 1 4 3 9l-6 10l7 13c-26 8 -38 14 -50 16c-14 3 -29 3 -42 -8c-12 -1 -23 0 -45 6c-2 -13 -4 -18 -5 -22
c-2 -1 -5 -2 -7 -3c-5 -9 -8 -15 -4 -25l1 -3c-5 -2 -11 -5 -16 -8c-8 -4 -17 -10 -26 -24c6 -8 7 -11 7 -15c1 -5 1 -11 1 -17c0 -10 1 -21 6 -30c-7 -5 -15 -9 -21 -15c-6 -8 -10 -18 -3 -29c-7 10 -23 -9 -28 -14c-2 -2 -3 -3 -5 -4c-14 2 -28 -4 -42 -8
c-6 -2 -9 -4 -12 -2c3 9 6 27 6 27c0 9 -3 23 -19 28v3h3c6 3 11 7 13 14h1c1 1 2 3 3 4c1 0 2 1 4 3c15 24 12 39 4 52c-3 4 -8 10 -9 15c2 1 4 3 5 4c14 23 11 35 6 45c-2 3 -4 8 -5 11c3 2 7 6 25 26h-27l-3 3l-2 1l-1 1c-8 4 -13 4 -13 4c-4 5 -11 9 -18 6
c-2 3 -5 6 -9 7c-1 9 3 19 11 24h6c4 0 11 0 17 4c3 1 7 2 14 2c8 0 16 0 35 2c0 21 0 30 4 40l27 32c19 51 7 63 17 119h-55c-1 3 -4 4 -6 6c-7 3 -8 3 -8 3c-1 5 -3 10 -5 14c-3 7 -6 13 -9 19c-2 6 -2 11 8 14c16 4 29 4 41 15c17 -1 33 0 61 2c-4 32 -4 49 15 66l5 19
c2 1 3 2 4 3c0 0 1 1 13 10c-17 14 -17 18 -17 22s2 8 3 12l2 8c2 1 3 2 5 4l1 1c1 1 2 2 6 5l4 17c8 4 10 12 12 19c0 3 1 5 1 6c0 2 1 4 10 19c-10 2 -11 1 -12 2h1c1 4 2 7 3 11c20 5 38 15 57 22c21 7 32 6 40 -8l6 -3c2 -4 5 -8 8 -10c-1 -12 -1 -24 -1 -37
c-1 -15 -2 -29 -10 -57c-14 -18 -17 -46 -18 -63c0 -3 1 -7 3 -10l-1 -2c-7 -5 -10 -14 -15 -37h20c4 -4 10 -6 15 -6v-1c35 -4 59 -1 91 4c4 19 4 33 -2 44v5c10 25 18 52 15 71c7 7 7 17 9 26c0 3 1 5 5 13l-3 5c4 3 8 7 12 11c7 7 15 16 17 29c10 4 13 13 15 17
c1 2 2 5 3 6c25 7 34 1 40 -5c8 -8 13 -20 18 -30c-4 -25 -6 -55 -11 -83c-6 -29 -14 -50 -32 -63c-6 -15 -4 -25 1 -40l10 -2c5 -7 12 -12 20 -17c0 -5 2 -11 6 -15c1 -1 2 -2 3 -4l4 -3c1 -15 4 -35 3 -53zM425 447c-27 3 -30 19 -43 19c-8 -1 -31 -16 -39 -21
c-7 5 -16 7 -26 7l-8 -12c1 0 1 1 1 2l-8 -11c-3 -2 -5 -5 -7 -9c-6 -12 -9 -23 -10 -33c-1 -9 0 -18 0 -26c1 -14 2 -23 -21 -45c10 -9 10 -9 15 -15c8 1 10 1 12 1c7 0 14 -2 21 1c10 -7 22 -5 30 -3c18 3 19 5 38 0c5 8 7 9 15 10c6 18 11 29 19 39l-5 14l1 5
c10 7 12 17 2 25z" />
    <glyph glyph-name="dollar" unicode="$" 
d="M405 715c-4 -2 -8 -4 -8 -10c-9 4 -7 -7 -16 -3c1 2 -2 4 -4 3c-1 0 -5 1 -6 -1c-5 1 -18 3 -24 11c1 4 -2 5 -4 8c-13 48 14 51 -4 83c8 1 -2 16 8 17c3 2 7 8 12 9c6 4 6 -4 8 -6c8 2 14 8 18 14c10 3 7 -8 12 -9c-1 -14 6 -21 6 -35c2 -39 -10 -2 -2 -40
c3 -4 4 -7 4 -12c-7 -2 -1 -12 -5 -16c6 -3 4 -7 5 -13zM300 718c-3 -11 -14 -13 -19 -19c-16 -3 -27 2 -36 14c-2 18 -1 41 -6 49v21h2c-1 20 6 32 16 43c6 -1 8 -5 12 -8c3 7 13 7 20 7c9 -22 12 -57 11 -84h-2c-2 -7 -4 -19 2 -23zM511 274c-45 -23 4 -11 -25 -41v-3
c-1 -16 -1 -34 -15 -46c-3 -6 -7 -12 -16 -25c-26 4 -20 -5 -37 -15c-6 -3 -12 -5 -20 -6c-20 -10 -42 -11 -63 -17c-11 -13 -32 -12 -65 5c-4 1 -10 3 -22 8h-1c-6 2 -11 5 -16 9c-17 9 -29 20 -40 33c-20 22 -26 0 -43 31c4 24 1 19 -3 40c-10 13 -9 31 -6 44
c17 10 29 34 50 27l10 -27c0 1 3 2 3 3c11 -12 9 -16 16 -27v0c-4 1 -6 1 -8 5c11 -3 18 -9 21 -21c0 -2 1 -5 2 -8c24 -2 35 -19 53 -32c13 1 26 -1 39 0c15 0 20 2 30 16c23 -8 10 -3 26 10v1c6 6 12 11 19 16c1 6 7 15 12 19c1 -1 1 -3 1 -4l8 17c-1 -1 -2 -1 -4 -2
c0 6 -1 12 -1 18c-8 9 -10 19 -16 29c-13 4 -18 14 -24 25c-4 3 -7 5 -10 7l7 -6c-27 -7 -33 14 -44 9c-14 3 -17 6 -28 14c-21 12 -19 10 -18 6c-3 1 -11 3 -16 9h-8l-14 8l2 -2h-3l-4 1c-11 1 -20 4 -26 12c-17 9 -25 26 -30 39c-2 23 -35 24 -34 68c5 20 -1 42 14 60l1 2
c1 4 4 9 5 13l17 15c-2 -1 -4 -2 -10 -2h-2c0 -4 1 -2 2 0l3 3c1 3 3 5 5 7c16 20 14 19 11 19c-3 -6 10 8 17 13l5 4c6 4 15 10 27 10l13 16c26 -8 29 7 53 7c23 -4 47 11 66 -14l3 -2c48 -22 27 -19 35 -21c8 -6 32 -10 38 -11c-6 -37 14 -24 16 -53c14 -16 4 -26 21 -41
c-2 -29 5 -49 -22 -70h-14l-12 5l1 -1c-15 2 -31 2 -37 21c-3 5 -4 11 -6 16c-11 18 -11 28 -11 28c19 8 10 5 -17 33l-6 7h-16v3l-28 2v4c-19 3 -42 6 -57 -16c-12 1 -12 1 -13 1l-3 -1l-1 -5c-4 -8 -7 -16 -13 -22c-1 3 -1 3 1 6l-6 7c-3 0 -7 2 -8 3l9 -35
c-2 -1 -3 -2 -4 -4l2 -1c6 -27 17 -13 29 -4c-17 -1 -10 -29 -9 -40c15 0 30 3 41 -12c37 -16 39 -17 72 -12c11 -10 30 -35 45 -33l17 -10c-1 0 -2 1 -2 2l5 -1c9 -2 17 -6 22 -11c5 0 16 -3 25 -17v-12c7 -3 14 2 17 -25l4 -7c-14 -28 -9 -16 2 -16c5 -10 4 -8 12 -44
c2 3 -1 -12 2 -11zM411 -16c-4 -2 -8 -4 -8 -10c-9 4 -7 -7 -16 -3c1 2 -2 4 -4 3c-1 0 -5 1 -6 -1c-5 1 -18 3 -24 11c1 4 -2 5 -4 8c-13 47 14 51 -4 83c8 1 -2 16 8 17c3 2 7 8 12 9c6 4 6 -4 9 -6c7 2 13 8 17 13c10 4 7 -7 12 -8c-1 -14 6 -21 6 -35
c2 -39 -9 -2 -1 -40c2 -4 3 -7 3 -12c-7 -2 -1 -12 -5 -16c6 -3 4 -7 5 -13zM306 -13c-3 -11 -13 -13 -19 -20c-16 -2 -27 3 -36 15c-2 18 -1 41 -6 49v20h2c-1 21 6 33 16 44c6 -1 8 -5 12 -8c3 7 13 7 20 7c9 -22 12 -57 11 -84h-2c-2 -7 -3 -19 2 -23z" />
    <glyph glyph-name="percent" unicode="%" 
d="M488 779c-7 -33 -4 -64 -17 -97h4l-3 -8c-19 -14 -23 -44 -25 -60c0 -7 8 -2 2 -10l-3 -9c-15 -6 -7 -33 -27 -37c9 -20 -23 -61 -11 -80l-3 -10c-12 -1 -8 -15 -13 -23c0 -5 9 -2 2 -10c2 -12 -11 -9 -14 -17c-27 -42 6 -65 -31 -97l-24 -72c-6 0 -9 -8 -10 -11
c3 -10 4 -29 -8 -44c-2 2 -5 -1 -7 -1c-4 -12 6 -12 -1 -25c-10 -5 -32 -15 -38 -23c9 -14 -4 -49 10 -61c-6 -13 -43 -20 -28 -40l-2 -8c-19 3 11 -20 -3 -25c-25 5 -60 -25 -66 1c5 17 15 42 -2 44c-12 -4 -6 8 -6 15c-1 11 19 6 17 20c3 -2 6 3 10 6c25 36 -10 41 -2 66
c3 -2 7 5 11 6c15 25 -8 32 -2 52c18 3 15 25 23 38h2c23 32 5 49 25 82h1c23 55 43 111 52 162c9 9 23 12 24 30c2 24 -10 57 21 84l3 8l4 14c3 -2 6 1 8 3c-16 13 -5 30 1 50c3 -2 6 3 11 7l6 18c2 0 1 2 0 4l-82 8l-15 -12l1 -8l17 -9l-19 -36l1 -4l12 -21l-11 -15l5 -7
l-12 -26l-1 -2l3 -13l-14 -39l-20 -16l-5 -4l-2 -28h-42l-1 -11h-18l-22 -7h-13l-10 12l-3 4h-13l-10 22l-3 22l-12 21l-3 47l-9 13l7 23l14 13l-3 6l1 10l-6 10l20 20l2 29l36 30l22 13l15 13l27 -7l15 -20v-1h18l2 19l16 24l48 -1l20 -15c19 1 59 2 61 9c36 5 57 39 78 0
c12 2 2 -15 17 -8zM572 246l-20 -37v-2l13 -22l-10 -15l3 -6l-12 -29l2 -11l-14 -41l-20 -16l-3 -3l-2 -29h-40l-1 -11h-21l-21 -7h-16l-10 13l-2 2h-13l-11 25l-3 21l-12 21l-3 45l-8 13l7 26l12 11l-2 3l1 10l-7 12l21 21l2 28l36 30l22 13l15 14l34 -7l11 -21h17
c26 -8 36 -15 36 -42zM226 572l-5 58l-4 42l1 31l-4 2l-12 8l2 8l-12 -1l-15 -9l-23 -18l2 -16l-14 -76l16 -37l22 -23l19 32l15 9zM497 236l-13 6l-18 12l1 5l-4 -1l-13 -7l-20 -16l2 -14l-13 -73l14 -33l22 -23l34 29z" />
    <glyph glyph-name="ampersand" unicode="&#x26;" 
d="M579 82c0 -8 -7 -18 -13 -20c-18 -7 -41 -22 -65 -33c-11 -5 -36 -3 -41 -3c-14 0 -43 -2 -54 11c0 3 4 7 5 9c9 5 20 10 26 10c9 0 5 -10 23 2c2 6 -2 6 -4 7c-10 6 -30 17 -43 31c9 9 16 13 25 20c-3 7 -30 12 -37 12c-8 0 -13 -1 -18 -5c3 -7 10 -18 19 -23
c-7 -17 -39 -20 -59 -33c0 -16 20 -18 32 -29c-12 -21 -38 -8 -48 -16c-19 -14 -25 -41 -40 -65c-47 11 -36 18 -66 18c-6 0 -22 -3 -29 -3s-9 2 -13 3c-3 22 -32 29 -38 42c-6 14 -14 34 -25 50c-3 7 -20 18 -25 31c-6 14 7 29 4 43c-2 7 -24 20 -24 27s22 54 22 61
c0 6 -11 36 -11 43c0 6 2 18 4 26c7 5 18 10 23 19c2 4 -2 11 2 17c2 7 16 9 20 19c5 13 1 29 1 42c11 12 22 12 40 14c16 -5 25 16 34 25c11 11 43 13 43 38c0 15 -37 56 -37 60c-4 7 -3 20 -9 30c-2 6 -13 16 -13 22c0 7 14 21 22 29c1 5 -2 10 -2 16c5 14 2 43 12 65
c4 7 20 9 27 10c22 6 56 -7 78 13c2 18 -27 18 -38 23c2 4 11 8 18 8s31 -4 49 -8c0 -9 -9 -19 -9 -25c0 -7 14 -18 14 -25c0 -23 -23 -23 -29 -23c-7 0 -23 5 -30 5c-18 0 -26 -47 -26 -52c0 -7 15 -27 15 -34c0 -6 -15 -26 -15 -33c0 -21 24 -38 36 -38c9 0 65 62 74 67
c6 2 15 7 20 11c5 3 11 5 11 12c0 8 -27 20 -33 33c-3 5 -7 20 -12 30v20c5 6 16 13 21 13c13 0 29 -9 33 -27c2 -2 0 -9 2 -13c7 -13 25 -27 25 -34c0 -5 -29 -36 -29 -43s18 -34 18 -40c0 -38 -52 -32 -56 -48c-1 -8 4 -24 -2 -33c-9 -16 -16 -36 -28 -52
c-6 -4 -24 -7 -31 -7s-29 7 -36 7c-16 0 -29 -5 -31 -27c-1 -4 -3 -7 -5 -9c-2 -5 2 -11 0 -16c-4 -6 -11 -9 -14 -15c-4 -3 -2 -14 -6 -23c-2 -5 -11 -11 -14 -16c-10 -16 -20 -43 -20 -51c0 -14 22 -32 22 -41c0 -18 -18 -29 -17 -52c11 -7 25 -9 33 -20
c5 -7 2 -29 21 -29c8 0 31 7 38 7s18 -1 27 -1s24 -4 38 12c-5 16 -14 4 -22 29h26c7 0 28 -9 36 -9c5 0 7 2 18 9v5c-13 18 -42 9 -62 18c0 8 9 18 9 26c0 5 -18 37 -21 50c-4 9 0 25 -2 36c-11 7 -23 14 -34 25c0 0 -2 4 0 7c12 24 -2 15 -2 22c0 27 -4 40 31 40
c12 0 19 0 30 -11c0 0 0 -4 2 -7c2 -6 -2 -13 0 -22c13 -9 34 -27 41 -27c6 0 27 22 33 32c2 6 2 17 3 20c9 9 24 18 31 18c16 0 65 -38 65 -50c0 -18 -56 -34 -63 -34c-6 0 -18 5 -27 5c-25 0 -34 -9 -34 -31c0 -21 10 -39 14 -68c4 -11 11 -25 23 -47c9 -14 31 -20 47 -30
c6 -4 9 -15 16 -18c15 -8 35 -11 51 -22c5 -4 9 -9 9 -14zM325 494c-7 2 -13 5 -20 5c-5 0 -29 -5 -29 -20c0 -7 13 -19 18 -19c9 0 29 23 31 34zM161 136c15 16 -2 18 -5 19c-7 -3 -6 -14 -2 -19h7zM210 60l-7 9c-6 4 -29 -2 -29 -13c0 -5 7 -9 14 -9s16 8 22 13zM190 26
c2 2 -2 7 -4 11c-3 -4 -3 -9 4 -11z" />
    <glyph glyph-name="quotesingle" unicode="'" 
d="M396 708c-19 -14 -14 -45 -21 -69c0 -1 2 -3 5 -3c-18 -27 0 -68 -5 -104c-12 -2 -17 -11 -18 -21c10 -58 -82 -61 -91 23c0 0 -6 118 -14 204c26 6 16 43 40 50c10 22 37 7 61 12l7 -12c15 -3 10 -31 31 -34c-7 0 -7 -9 -7 -12c-4 -19 20 -14 12 -34z" />
    <glyph glyph-name="parenleft" unicode="(" 
d="M419 815c-9 -8 -22 -17 -17 -34c-23 -8 -9 -39 -32 -46l-3 -42c-8 -3 -8 -14 -8 -23c-6 -12 -12 -23 -14 -39c-6 0 -6 -4 -6 -7c6 -11 12 -28 6 -42c-12 -6 -2 -25 -9 -34v-34c-3 2 -6 -1 -5 -4v-10c-6 -9 -12 -27 -6 -41c18 0 8 -19 11 -29c-3 -3 -11 -2 -11 -10
c0 -3 -2 -9 3 -10c6 -10 -3 -33 8 -39c-6 -17 -19 -34 -8 -55c5 -22 9 -47 25 -62c-8 -15 -19 -29 -22 -46c0 -22 37 -29 22 -48c6 -5 14 -2 21 -3v-25c-6 -10 -10 -29 -4 -44c30 -3 18 -43 41 -53c5 -14 5 -40 -11 -41l-3 -3c7 -5 11 -19 5 -28c-9 -9 -35 8 -35 -14
c-2 5 -10 6 -17 6c-3 8 -14 8 -22 8c5 3 2 17 11 20c-28 9 -11 45 -36 55c-1 5 2 11 -3 14h-3c19 16 -12 16 -6 36c2 9 -14 10 -8 24c3 0 5 2 7 3c0 14 -10 17 -7 31c3 0 5 2 7 3c-13 5 0 25 -13 33c-7 33 -3 77 -24 103v8c10 1 3 15 6 23c-3 12 -30 21 -14 32
c-6 25 -12 58 -6 86c3 0 4 2 6 3c1 3 -3 6 -6 6h-8v19c11 11 0 40 19 45c1 18 -5 35 -11 52c3 -2 7 3 6 6c9 14 8 39 8 60c30 14 13 65 30 90v21c3 -1 7 3 7 6v8c1 0 3 2 4 3c-11 3 -3 17 -4 25c6 1 9 11 7 17c10 10 5 34 14 44v8c22 -1 14 33 39 28c9 -2 10 14 24 9
c2 -11 16 -3 23 -6c2 1 3 3 3 6c27 -14 5 -49 19 -69z" />
    <glyph glyph-name="parenright" unicode=")" 
d="M417 320c-8 -6 -11 -20 -10 -32c-7 -8 -7 -25 -10 -34c-5 -8 -25 -11 -14 -25h3c-5 -14 -22 -15 -31 -27c12 0 19 -20 28 -7h6c1 -10 -3 -20 -11 -24c-12 3 -14 -6 -20 -11c14 -26 -17 -28 6 -48c0 -7 -15 -18 -6 -29c9 -5 17 -9 14 -23c-20 0 -11 -32 -25 -39
c-1 -10 -10 -20 -3 -30h6c-12 -16 -29 -25 -50 -28c-2 -9 -7 -17 -19 -14c-5 14 -32 -5 -26 20c-37 5 -11 45 -19 72c20 5 6 38 22 47c32 18 26 64 59 78c6 14 -16 9 -8 25l14 8c-8 9 -26 9 -23 27c26 11 21 43 23 67c-13 0 -2 12 -10 16c2 8 4 14 4 24c10 3 1 20 7 27
c-9 3 -7 13 -7 22c6 3 9 14 7 21c-1 3 -3 8 -7 7v7h3c3 13 6 34 -3 42c15 12 -5 21 -8 31c1 14 20 18 14 38c-11 9 -19 20 -23 31c6 20 17 37 24 55c2 14 -18 8 -21 17c7 48 -23 70 -28 111c-6 11 -11 26 -25 28c-6 15 0 34 -6 49c9 23 -31 47 3 56c2 7 17 -2 17 9h11
c0 -3 1 -5 3 -6c11 -2 8 9 19 6c6 -11 6 -25 23 -20c-2 -5 0 -9 4 -8c13 5 11 -10 17 -9v-25c-9 -10 17 -24 11 -46c14 -15 -3 -51 14 -65c-8 -30 28 -38 26 -69h2c-2 -4 -8 -12 -5 -21c32 -16 -6 -62 21 -80c-1 -14 -20 -30 -4 -45c10 -10 -2 -34 11 -42v-9
c-11 -2 -3 -15 -7 -25c2 -1 4 -3 7 -3c-31 -7 4 -32 -3 -41c-5 -5 -5 -31 0 -43c4 0 1 -8 3 -13zM341 202v10h-4c0 -10 -16 2 -14 -10h18z" />
    <glyph glyph-name="asterisk" unicode="*" 
d="M475 633c0 -3 -1 -4 -3 -6c-13 -1 -19 -15 -31 -19c-2 -4 -8 -6 -13 -6c-9 0 -12 10 -21 10c-7 0 -29 -6 -29 -14c0 -13 9 -23 19 -30h2c9 0 14 -9 18 -16l-1 -3c0 -10 7 -18 7 -28c0 -7 -7 -10 -12 -11c-5 -9 -14 -11 -23 -11c-19 0 -19 27 -37 29c1 1 2 4 2 6
c0 9 -10 15 -15 22h-9c-4 0 -10 -2 -12 -5c1 -5 1 -9 1 -13c0 -11 -3 -22 -9 -31h-3c-14 0 -14 -22 -31 -15c-6 -2 -10 -7 -17 -7s-7 15 -7 20c0 12 2 25 5 36c3 3 9 41 24 27l7 6v4c0 11 -22 17 -31 17s-13 -12 -22 -12c-11 0 -29 2 -44 2l-8 1v4c0 9 -6 16 -6 25
c0 4 17 27 20 28c3 6 8 13 15 16c19 -18 26 1 47 -10l1 10c-24 2 -5 37 -31 35l1 7c0 8 -3 17 -9 23c6 15 25 18 32 33c10 0 21 -2 27 -12h2c6 0 9 -6 12 -10c-1 -2 -2 -4 -2 -6c0 -6 9 -9 13 -11l12 1c1 -4 4 -7 9 -7c19 0 26 2 26 22c0 4 -5 7 -5 12c0 12 31 8 38 28
c5 -4 10 -7 14 -12v-3c0 -10 4 -19 7 -27c-4 -12 -16 -21 -14 -34c-5 -4 -13 -5 -11 -13l-6 -8c0 -4 -1 -7 -1 -10c0 -6 8 -12 11 -16h2c8 0 10 11 17 11h2c5 -4 10 -8 16 -8c4 0 8 4 11 6c6 5 17 3 23 7c12 -3 14 -12 14 -22c0 -5 6 -8 6 -12zM330 695c0 6 -6 9 -10 9
c-9 0 -10 -7 -10 -14c0 -5 8 -8 12 -8c4 4 8 7 8 13zM324 652c-1 2 -3 4 -5 4v-1v-6h2s2 2 3 3zM367 649c0 3 -3 5 -5 5s-4 -1 -6 -1c-1 0 -2 0 -3 1c-2 -2 -3 -5 -7 -4c-1 -3 -4 -6 -8 -6s-8 2 -11 2s-6 -1 -8 -3c0 -9 -13 -11 -13 -19c0 -2 1 -3 2 -4c6 -2 7 -12 15 -12
s10 10 11 16c1 7 9 6 14 6h3c7 4 16 10 16 19z" />
    <glyph glyph-name="plus" unicode="+" 
d="M550 284c-3 -13 -15 -1 -19 -14c-9 0 -9 6 -14 0l-20 -4l-7 8c-10 5 -10 -2 -18 -7c0 -5 -20 10 -23 9l-3 -20c-9 4 -25 19 -36 14l-18 -12c-10 10 -27 -10 -41 -7l3 -30l-6 -59c15 -20 -1 7 10 -74c-14 2 -10 -25 -18 -28c-19 1 -48 -14 -56 8c0 31 -10 57 -13 86
c8 25 -7 37 10 58c-4 5 -9 22 -10 37c-44 -2 -82 -7 -148 0c1 14 -16 13 -19 20c2 19 -14 49 8 57c31 0 62 25 88 0c25 -8 36 20 56 3c5 4 23 10 39 10c2 21 2 41 5 66c-9 26 7 30 6 60c-1 17 1 6 3 26l26 9c12 -3 13 -11 26 -15c0 -9 11 -6 17 -10l-9 -27l6 -2
c-5 -9 -5 -23 0 -31c4 0 1 -8 3 -11h-3c-5 -9 -5 -24 0 -35h3c-9 -9 -6 -28 -9 -42h-4v-6c26 2 49 13 80 10c27 9 38 -6 67 -5c18 0 18 -22 38 -24v-18z" />
    <glyph glyph-name="comma" unicode="," 
d="M420 83c-2 1 -5 -2 -4 -4c7 -9 7 -23 0 -32c6 -11 -6 -8 -9 -14l2 -2c-4 -5 -12 -6 -12 -13c8 -8 4 -11 -1 -17c-26 -19 -6 -29 -32 -67c-12 -17 -27 -34 -39 -47c-3 -9 -24 -17 -44 -19c-18 -2 -6 20 -26 26c-2 15 5 12 6 30c20 14 40 14 54 33l12 35l1 1
c-14 0 -27 1 -40 1c1 2 -2 5 -4 4c-7 -1 -11 4 -17 5c0 3 0 6 -4 6c-6 -2 -6 1 -8 6c-1 3 -5 1 -7 2c2 9 -13 3 -7 14c-17 5 -11 21 -12 35c17 13 -3 48 26 53c-3 9 8 13 5 23c16 3 26 15 43 19c4 7 21 9 30 5c4 -15 22 -3 34 -9c1 -7 13 -3 11 -12c20 -4 9 -20 17 -34
c9 3 9 -5 12 -7c1 -10 6 -18 13 -21z" />
    <glyph glyph-name="hyphen" unicode="-" 
d="M584 374c-2 -19 14 -49 -8 -57c-31 0 -63 -25 -88 0c-25 8 -36 -20 -56 -3c-31 -23 -28 13 -61 -1l-21 -3c2 3 -3 4 -6 7c-22 5 -25 -22 -47 -7c2 3 -3 4 -6 7h-11v3c-42 10 -71 -12 -113 -7c-27 -10 -38 5 -67 4c-18 0 -18 22 -38 24v19c3 12 17 22 20 34
c10 0 7 11 11 17h29v-3c9 -4 23 -4 31 0c0 5 8 2 11 3v-3c9 -4 23 -4 34 0v3c10 -9 29 -6 43 -9v0v-3c106 -14 216 6 324 -5c-1 -14 16 -12 19 -20z" />
    <glyph glyph-name="period" unicode="." 
d="M420 83c-2 1 -5 -2 -4 -4c7 -9 7 -23 0 -32c7 -14 -11 -6 -9 -18c-11 0 -15 -12 -27 -12c-16 -30 -58 -23 -92 -23c1 2 -2 5 -4 4c-7 -1 -11 4 -17 5c0 3 0 6 -4 6c-6 -2 -6 1 -8 6c-1 3 -5 1 -7 2c2 9 -13 3 -7 14c-17 5 -11 21 -12 35c17 13 -3 48 26 53
c-3 9 8 13 5 23c16 3 26 15 43 19c4 7 21 9 30 5c4 -15 22 -3 34 -9c1 -7 13 -3 11 -12c20 -4 9 -20 17 -34c9 3 9 -5 12 -7c1 -11 6 -18 13 -21z" />
    <glyph glyph-name="slash" unicode="/" 
d="M482 777c-5 -33 0 -63 -10 -97h3l-2 -8c-18 -13 -19 -43 -20 -60c-1 -7 8 -2 2 -10l-2 -8c-15 -7 -5 -34 -24 -37c9 -20 -20 -62 -6 -80l-3 -10c-12 -2 -7 -15 -11 -24c1 -5 9 -2 3 -10c3 -11 -11 -8 -13 -16c-24 -42 10 -66 -25 -97l-18 -72c-7 0 -9 -9 -10 -12
c4 -10 6 -28 -4 -43c-3 1 -6 -2 -8 -2c-3 -12 7 -12 1 -25c-10 -5 -30 -15 -36 -23c10 -13 -1 -49 14 -61c-5 -13 -42 -20 -25 -40l-2 -8c-20 3 -27 -18 -40 -23c-25 5 -58 -25 -66 1c4 17 12 42 -6 44c-11 -4 -6 8 -6 15c-2 11 19 6 15 20c3 -2 6 3 10 6
c23 36 -13 41 -6 66c3 -2 6 5 10 6c13 25 -10 32 -5 52c17 3 13 25 20 38h1c22 32 3 49 20 82h1c20 55 36 111 40 162c9 9 23 12 23 30c1 24 -14 57 15 84l6 22c3 -2 5 1 7 3c-16 13 -7 30 -2 50c3 -2 6 3 10 7l5 18c12 2 8 17 13 27c-10 3 1 20 2 30c36 5 88 50 111 12
c12 1 3 -15 18 -9z" />
    <glyph glyph-name="zero" unicode="0" 
d="M592 335c-5 -4 -13 -4 -15 -12c-3 -20 29 -22 10 -37c-32 0 -1 -45 -28 -49c-5 -23 1 -58 -17 -72c-18 7 -27 -12 -40 -8c0 11 -2 23 10 27h12c-2 18 16 60 -16 63c-8 -5 -6 5 -10 9v8c-11 -1 -33 12 -1 15v-1c6 -7 16 -4 27 -4l8 9c-5 3 -7 5 -5 11c0 16 35 17 17 37h-9
v15c5 0 7 6 7 9c-13 22 -3 45 -7 74c7 -2 7 7 7 12c-3 13 -22 18 -18 38h-7c12 19 -2 42 -5 61c1 8 22 16 5 25c-35 8 2 77 -54 69c-2 15 -10 22 -18 30c-19 0 -7 23 -31 18c5 19 -18 12 -23 19c-25 8 -72 -10 -71 30c-10 -7 -15 -22 -30 -18c-8 -14 9 -42 -15 -42
c-25 -1 -20 -34 -45 -34c-21 -8 -21 -34 -31 -52c-38 -27 -33 -87 -33 -139c-9 -9 -19 -16 -15 -32c0 -17 30 -31 6 -46c-1 -28 4 -52 7 -75h2c-9 -22 -9 -61 0 -83c-2 0 -4 -1 -5 -3c11 -2 -2 -27 18 -23c14 -31 29 -63 51 -86v-8c-4 1 -7 -4 -5 -7c5 -12 -9 -12 -14 -17
c-28 8 -33 29 -42 54c-7 13 -33 -4 -33 15c-17 7 -16 33 -36 37v12c4 -2 4 1 5 3c4 13 -8 15 -15 23c-8 5 -17 2 -17 16c2 15 -11 15 -6 30c11 0 15 10 22 15c1 22 -58 27 -19 45c0 15 10 22 12 37c3 -1 5 0 7 2c-19 8 -11 33 -26 44l4 30c11 0 1 15 8 20c-3 10 -10 2 -17 3
v9c9 6 5 27 15 33c-28 46 16 88 0 133c14 2 17 10 27 15c0 3 12 9 4 14c-7 0 -4 8 -4 15c4 0 12 -2 12 5v10c19 13 37 18 37 47v10c25 -10 29 15 39 23c13 0 37 4 52 -3c-2 -2 0 -3 1 -5c5 12 26 2 34 8c-10 4 -8 21 -15 26c12 1 13 8 27 5c6 -17 10 6 22 3
c13 -4 30 -3 45 -3c0 -4 2 -5 3 -5c5 10 24 3 36 5c5 -12 21 -7 33 -9c-2 -3 3 -8 7 -6c8 0 20 -10 23 -19c11 -28 49 -23 52 -60c14 -14 17 -47 46 -51c-4 -12 3 -28 15 -27c7 -23 -3 -55 8 -74c-11 -1 -3 -15 -5 -23c24 -12 -8 -42 15 -54c-3 -10 -13 -22 -10 -37
c24 -8 19 -45 15 -69c-3 0 -5 -1 -5 -3c10 -8 4 -17 5 -30zM497 78c-17 0 -19 -14 -34 -12c3 -27 -17 -35 -30 -45c-29 6 -25 -36 -56 -15c2 6 -6 5 -11 5c-12 -5 -22 -5 -36 -9c-3 5 -10 2 -15 4c0 1 -1 3 -3 5c-7 -5 -12 -7 -22 -5v1c-12 7 -27 4 -39 4
c-11 5 -26 13 -30 26c17 -1 12 21 20 26c47 8 93 -4 135 8c-2 -3 0 -5 1 -5c9 10 36 0 37 20c15 12 29 14 52 12l2 7c10 -9 39 -4 29 -27zM214 728v15h-5c-6 -3 -6 -5 -6 -12c5 2 6 -5 11 -3z" />
    <glyph glyph-name="one" unicode="1" 
d="M447 755c-8 -47 0 -90 -8 -133h-1c-11 -29 9 -76 -17 -94c2 -16 8 -22 9 -36c6 2 8 -6 13 -4c9 -18 -2 -38 -4 -57h-1c-15 -31 10 -45 1 -78h-1c-8 -12 -4 -29 -4 -43c-4 2 -5 -2 -7 -2c-6 -13 11 -7 11 -16h5c11 -27 -23 -18 -16 -43c-4 1 -6 -2 -6 -4
c18 -9 -6 -16 -3 -32c4 -20 -9 -51 9 -62c-18 -12 7 -18 3 -36c24 -1 9 -32 9 -48c-10 -2 -3 -17 -5 -26c-13 -23 -38 -32 -65 -41c-11 18 -45 14 -49 38v20c4 0 4 1 6 3v9h4c5 11 3 27 3 40h4c0 22 11 34 16 52c-23 15 5 45 -13 65c15 27 -18 32 -7 61h4
c-2 20 18 53 -11 62v9c4 -2 9 3 7 7c0 3 2 11 -3 12h-4l16 17c-3 10 -12 10 -9 27c13 -2 2 12 9 16c0 12 -14 12 -9 29c16 7 9 28 20 38c-2 1 -4 5 -7 3c7 4 7 15 7 24c-13 3 -9 21 -13 32c6 7 8 16 6 25c5 0 7 6 7 11c0 16 -20 18 -23 32h-10v2c-45 34 -75 -54 -93 15
c-20 3 -13 25 -24 34c6 34 40 22 53 49c28 9 50 34 77 48c-2 13 7 18 20 20c27 9 54 -2 81 -4c5 -10 11 -25 13 -41z" />
    <glyph glyph-name="two" unicode="2" 
d="M580 604c-33 -15 8 -76 -40 -84c2 -13 8 -19 18 -25c-3 -7 -23 -2 -18 -19c-20 -8 -32 -30 -54 -38c0 -14 -17 -14 -27 -12c-21 -8 -18 -42 -43 -45c-9 -12 -20 -19 -30 -27c-12 -5 -22 -10 -36 -14c-3 -6 -5 -8 -11 -11c-17 1 -17 -14 -34 -9c-3 -25 -54 0 -37 -40
c-17 -18 -74 7 -57 -45c-7 -7 -13 -22 -7 -32c4 -7 10 -3 16 -3c-17 -26 -58 -12 -76 -37c0 -12 -27 -22 -8 -39h3v-10c-12 5 -18 -3 -15 -15c-2 -13 12 -17 15 -27c-3 2 -5 -2 -7 -3c-3 -9 7 -9 12 -9h10c-2 -3 2 -5 3 -6c17 3 14 33 36 30c0 -2 1 -3 3 -5c3 0 10 -4 12 3
v5c48 12 62 -27 97 -33c20 -4 10 23 20 28c22 0 49 10 74 2l8 15c19 -39 88 15 94 -32c4 -7 10 -3 15 -3c5 5 2 13 4 20c13 5 20 -5 23 -15c2 1 4 3 4 6h8v-8c-3 0 -5 -2 -5 -3c3 -12 -12 -14 -10 -25h-5v-27c-27 13 -54 0 -74 -12c2 3 -2 5 -2 7c-16 -7 -18 -17 -33 -4v4
c-45 -7 -67 23 -116 8c-8 -2 -15 -20 -30 -15v3c-15 4 -39 5 -50 -3v3c-31 2 -61 9 -88 5c0 4 -3 9 -6 7c-14 -5 -24 -12 -34 0c-12 0 -18 5 -23 12c0 32 -4 60 15 82c-14 0 -10 17 -7 23c8 -1 15 4 22 7c7 15 -20 12 -7 27c14 16 10 43 27 54c31 19 10 74 55 79
c15 3 27 15 42 18c2 15 27 7 19 27c21 12 33 38 65 37c12 35 49 40 79 53c-7 32 23 36 27 61c10 8 20 11 15 27c12 6 3 28 18 33c-28 22 12 49 -11 71c-12 18 -16 48 -46 50c-8 8 -18 20 -27 30c-31 12 -43 -33 -63 0c-5 0 0 -8 -7 -5h-8c-5 7 -19 10 -31 8c0 4 -1 5 -3 7
c-3 -12 -28 -2 -23 -22c-22 -8 -44 -21 -61 -33v-9c-3 0 -5 -1 -7 -3c6 -10 17 -17 31 -18l-9 -12c2 7 -3 12 -10 8c-15 4 -15 -15 -32 -8c-1 -9 -8 -9 -15 -9c-6 -8 -3 -21 -3 -30l15 -10c5 4 2 10 3 15c-1 4 -6 4 -10 4v6c32 14 15 -23 37 -25c17 7 35 -13 45 7v8
c9 -18 -8 -58 21 -65c6 -32 -32 -25 -42 -44h-36c0 4 -3 9 -6 7c-12 -5 -12 8 -19 12c5 15 -8 18 -11 27c-19 1 -29 8 -37 21c1 5 5 9 3 15c-12 12 -22 22 -18 42c13 0 1 14 10 19c6 23 23 30 20 60c11 14 32 20 28 46c19 5 41 11 54 26c7 2 22 -3 18 10v9c17 0 27 10 39 15
l136 7l3 8c2 -5 10 -7 19 -7c-2 -1 1 -3 3 -5l12 5c-4 -28 42 -1 38 -32h10c12 -13 34 -10 42 -28c15 -10 49 5 54 -17c-3 -8 -17 -10 -12 -25c7 -3 10 -12 22 -8v-12c-3 0 -5 -2 -7 -3c-3 -9 7 -9 9 -12h6v-19c-3 2 -8 -3 -6 -6c-9 -21 23 -7 13 -27zM253 220
c3 -17 -17 -14 -18 -27c-14 8 3 23 -2 37c-2 -9 12 -10 20 -10z" />
    <glyph glyph-name="three" unicode="3" 
d="M555 734c-5 -15 -14 -31 -29 -33c-24 -7 -37 -33 -64 -31c4 -31 -44 -13 -29 -51c-15 2 -8 -13 -17 -17c4 -14 -16 -11 -9 -27c-4 -13 -20 -15 -20 -33c-4 2 -5 -2 -7 -4v-9h-2c-7 -9 -4 -22 -4 -33c4 -20 33 0 26 -25c-2 -13 -8 -19 -20 -21c-57 24 -31 -45 -85 -29
c6 -16 -10 -9 -16 -15c-31 -3 -33 -32 -73 -22c-4 13 -18 21 -13 39c4 -2 7 4 5 7c-5 30 41 15 24 46c2 4 9 11 17 16c29 -7 29 19 46 28c-4 15 10 16 16 26c20 12 41 27 46 53c4 20 31 25 47 38c-9 24 15 26 17 40c9 8 20 4 33 9c-24 8 -39 30 -70 21l-11 11
c-42 -13 -84 25 -121 -8l-23 -3c1 3 -2 5 -4 7c-13 -15 -48 0 -62 -13c2 2 -2 4 -4 6c-16 -6 -5 20 -22 20c-2 5 2 13 -4 16h-3c13 8 2 27 11 40c6 9 25 6 33 17c13 -18 45 -9 66 -7c0 1 3 3 1 7c11 2 19 -17 33 -11c-1 -4 4 -7 8 -6c16 0 18 10 36 6c-2 -4 2 -6 4 -6
c9 11 35 4 51 6v-4c9 -5 24 -2 33 -2c0 -3 2 -5 4 -7c42 7 80 13 126 20v4h6c0 -4 0 -9 3 -11c15 7 15 -11 13 -20c0 -15 11 -18 7 -35zM618 249c-6 -33 -42 -40 -46 -75c-4 0 -6 -2 -7 -4v-11c-10 -9 -8 -31 -30 -25c-7 -24 -14 -44 -24 -66c-31 16 -25 -26 -45 -33v-24
c-4 2 -8 -2 -6 -5c-3 -13 -13 -21 -24 -28c0 7 -5 7 -9 7c-20 -5 -36 -20 -40 -42c-2 6 -11 8 -20 6c-2 -26 -18 -39 -37 -50c-14 2 -18 -12 -29 -20c-44 15 -59 -23 -95 -29c-13 -26 -61 -5 -90 -16c-15 -8 -35 0 -35 20c-22 0 -31 -30 -49 -8l2 50c20 3 49 -9 53 20
c0 5 9 4 13 4c1 -13 18 -4 27 -8c11 13 46 0 46 28c13 2 15 9 29 5c0 -2 2 -3 4 -5c24 -4 22 36 49 25c28 35 110 4 112 61c27 2 27 33 60 33c2 14 9 23 22 29c6 -9 19 -13 30 -11c5 4 0 13 -2 16h-4c13 28 11 59 49 61c4 7 13 11 10 22c0 5 -10 2 -6 7v9c4 -2 6 6 9 8
c-3 5 -3 16 -13 16h-7c11 22 18 44 20 73c4 -2 6 0 8 2v11c1 -2 3 2 5 4c-7 13 -13 25 -20 42c2 18 -26 7 -22 29c-6 4 -9 9 -17 7c4 15 -10 13 -10 26c-15 7 -35 17 -50 28c-18 13 -5 33 -9 54c15 8 40 15 59 8c0 -4 1 -6 3 -8h11c0 -12 17 -1 22 -9c20 -36 70 -29 73 -78
c-2 -10 17 -8 9 -21c-3 0 -5 -1 -5 -3c4 -22 26 -29 26 -53v-6c-15 2 -8 -13 -17 -16c17 -8 -4 -37 17 -40c3 -8 -17 -15 0 -17z" />
    <glyph glyph-name="four" unicode="4" 
d="M564 242c-10 -14 -13 -37 -40 -31c-24 2 -56 11 -73 -9c-10 0 -26 3 -23 -13c-2 -5 3 -8 6 -11h1v-7c-1 0 -3 -1 -4 -3c0 -3 -3 -9 3 -10h1c-7 -12 -6 -27 -1 -44c7 3 10 -4 10 -10c0 -3 -3 -9 3 -10c4 0 1 -8 1 -12c-1 1 -3 -2 -4 -2c10 -7 3 -25 4 -38
c-13 -17 -24 -34 -44 -42c-14 -5 -17 7 -24 10c-1 5 2 12 -3 17h-9c6 27 -21 38 -7 67c12 4 -2 28 16 28c5 10 2 24 3 36c0 10 -24 6 -12 20c14 -1 12 14 12 23c2 6 -3 12 -9 13h-34c0 2 -2 3 -3 5h-8c-1 10 -14 1 -19 9c-13 -5 -24 -15 -34 0h-40c-3 8 -17 2 -25 4
c-12 0 -14 -21 -32 -13c-9 16 -12 -6 -23 -3v-2c-12 14 -45 -6 -50 15c-7 9 -14 4 -17 16c17 9 -17 54 17 57c23 2 23 30 41 37c-5 36 34 45 32 77c3 -1 6 3 5 6c3 18 34 17 35 40c1 11 -13 12 -8 24c13 6 11 24 8 36c20 6 17 31 32 37c6 3 3 9 3 13c-14 2 -11 17 -18 21
c-6 21 9 26 7 43c5 0 6 5 6 8c-1 4 2 9 -3 12c-7 10 20 25 3 40v7c6 9 11 27 5 40c-11 6 -3 24 -5 35c15 0 22 10 28 22c23 -10 55 -19 60 -49c-10 -2 -3 -15 -6 -24c-10 -4 -2 -22 -7 -31v-40h-3c3 -27 -17 -40 -14 -60c5 0 3 -9 3 -13c-4 0 -6 -5 -6 -8c2 -4 -1 -8 3 -11
h3c-1 -6 -3 -18 -13 -21c9 -64 -43 -85 -60 -134c6 -27 -28 -30 -23 -57c-14 -16 -17 -37 -27 -56c-9 4 -11 -5 -14 -10c3 -20 27 -8 41 -11c5 5 10 6 19 6c3 -15 24 -7 34 -6c-3 -9 7 -6 10 -10c8 4 23 -2 23 10c35 -6 67 6 83 33c-3 3 -7 3 -12 4c6 3 11 23 0 24
c-1 3 -3 7 -7 6c7 6 3 27 16 30l3 3c-4 7 -16 12 -12 26c3 -1 8 2 6 5c0 3 2 9 -3 10h-3c9 6 6 20 6 30c-13 21 -7 57 -6 83c11 3 5 17 6 24c6 5 8 17 16 19h45c0 -10 12 -1 16 -8l-3 -105h-1c-6 -26 0 -50 -6 -77c-13 -7 3 -13 6 -24c4 0 1 -7 1 -10c-7 -6 -4 -24 -13 -30
c-6 -24 19 -19 27 -30c1 -7 10 -8 16 -7c5 6 17 9 27 7c1 -11 13 -7 22 -7c-1 7 12 -3 15 -3c16 -9 12 -24 22 -36z" />
    <glyph glyph-name="five" unicode="5" 
d="M586 283c-13 4 0 -16 -15 -9c-5 -13 -1 -29 -1 -43c-4 1 -6 -2 -8 -4c2 -2 4 -4 8 -2c1 -16 -22 -14 -27 -23c3 -24 -1 -43 -22 -49c-33 -9 -18 -49 -49 -58c2 -22 -23 -18 -27 -36c-24 -13 -16 -45 -42 -56c-5 -26 -29 -42 -43 -58c-25 0 -25 -24 -51 -20
c-7 -16 -25 -23 -32 -29c-20 13 -24 -13 -44 -7c-12 -33 -57 -9 -70 -38h-76c-2 11 -2 22 -5 32l-15 -14c-5 2 -7 22 -5 36c21 29 74 11 86 53c6 0 11 -2 15 3c3 0 7 0 12 1c19 3 48 16 62 32c42 0 36 52 81 41c17 26 73 13 65 60c17 0 24 9 33 18l-7 16c14 2 20 9 27 20
c9 9 13 20 16 36c-2 20 29 13 33 33c5 13 2 31 3 45c2 0 4 2 6 4v9c5 -2 7 5 11 7c1 23 -22 33 1 45c6 2 11 -2 15 4c3 9 -7 9 -11 12h-5c-22 28 48 40 -4 53c-4 14 -20 23 -24 40c-19 0 -32 7 -45 18c-2 -11 -16 -4 -25 -6c0 4 -4 8 -7 6c-17 -4 -13 29 -33 14
c-18 -2 -25 -22 -49 -14c0 7 -9 7 -12 7c-20 5 -13 -20 -24 -24c-9 13 -32 6 -49 8v0c-41 -22 -70 -89 -130 -49c4 29 -11 41 -5 72c2 -2 7 2 5 6c-9 10 -5 29 -5 45c5 0 7 5 5 11c-7 12 -2 27 -12 38c-9 23 -10 27 0 48c5 11 1 26 7 37c2 0 3 1 5 3c-12 15 -3 44 -5 65
c13 6 5 29 25 29v7c20 4 38 18 62 13v-4c9 -5 20 -1 29 -3c-2 -2 3 -7 7 -6h9c0 -3 0 -9 3 -10c11 7 6 27 17 32c45 -11 65 36 101 11h16c2 -13 16 -4 26 -7c1 12 18 3 27 7c-2 -4 1 -5 3 -7c0 12 17 3 26 7c0 -4 1 -5 3 -7c9 12 33 3 49 7c0 -9 9 -11 16 -11
c-7 -18 13 -14 6 -32c-2 1 -8 -2 -6 -6c0 -14 -21 -18 -20 -36c-18 -2 -30 5 -41 -7c-49 14 -103 0 -150 0c-18 7 -4 29 -27 27c1 3 -2 3 -2 5c-6 0 -11 4 -15 -2c-25 2 -34 -16 -57 -23c-15 0 -31 0 -33 -13c-3 -16 -7 -39 4 -52h3v-9c-5 0 -7 -6 -11 -7
c-1 -15 2 -29 11 -37c-12 -5 -5 -23 -7 -36c4 -25 20 -43 20 -74c16 7 27 20 49 24l-8 9c58 -13 66 41 118 40c11 -19 42 -8 61 -11c4 7 18 14 28 7c-2 -6 3 -7 9 -7c3 1 10 -2 12 3v4c24 -24 78 -16 69 -69c-5 -31 45 -2 32 -40c51 -28 11 -104 24 -155z" />
    <glyph glyph-name="six" unicode="6" 
d="M602 266c-5 2 -7 -5 -12 -3c-9 -9 1 -16 1 -25c7 0 4 -10 4 -15l-9 -9c7 -11 26 -24 5 -31c-17 -13 -1 -42 -28 -48c2 -17 -12 -19 -12 -35c-9 -12 -5 -40 -28 -38c-15 -30 -52 -44 -89 -51c2 -24 -33 -14 -47 -12c2 7 -7 7 -12 7c-4 -2 -11 2 -12 -3v-4h-9
c0 4 -4 9 -7 7c-16 0 -18 -10 -35 -7c-21 14 -44 26 -75 26c-9 13 -16 25 -28 32c-23 0 -44 17 -54 33c-11 -4 -11 9 -16 10c-4 13 -2 34 -16 37h-8c-6 46 -41 73 -32 124c11 19 -5 46 5 68c6 25 -8 51 14 60v7c-15 0 -54 15 -54 -13c-3 6 -7 28 7 28h18c8 -17 12 7 26 4
c-18 56 59 57 36 115c7 7 4 18 4 26c5 -1 7 4 7 9v11c3 -2 3 0 5 1c-7 16 16 9 16 19c12 -3 10 11 10 16c14 23 6 67 44 67c-12 45 44 50 51 85c5 -2 7 4 5 9v9c16 14 42 17 45 42v0c21 8 30 27 53 34v0c5 10 14 13 23 15c10 3 20 6 24 19c26 0 40 24 59 31
c14 23 67 28 82 7c21 -16 16 -26 11 -51c-18 -15 -49 -12 -58 -34c-36 3 -47 -20 -75 -28c-3 -23 -23 -21 -31 -37c-11 0 -26 2 -25 -14v-5c-24 -9 -45 -20 -54 -44c7 -33 -30 -33 -38 -58c3 -43 -54 -47 -44 -94c-3 2 -5 -2 -5 -3c-7 -11 -14 -30 -14 -48c-2 2 -4 -1 -5 -1
v-11c-7 2 -13 0 -16 -5c7 -12 -7 -39 16 -35c8 -10 19 5 34 5c13 5 23 16 41 14v-3c12 -6 29 -6 40 0v3h10c4 -14 20 -2 28 -10c30 12 46 -7 72 -9c0 -5 5 -7 10 -7h9c14 -12 37 -16 42 -37c19 0 24 -15 40 -19c-2 -24 26 -28 28 -51c7 -17 -2 -50 19 -62c6 -2 2 -13 4 -20z
M558 242c0 12 2 24 -10 28v-4c-13 0 -25 -14 -35 0c-4 18 17 6 19 13c2 12 12 40 0 57c-5 0 -14 -4 -19 4c-9 13 -32 8 -40 21c-14 7 -25 12 -35 19c-11 -2 -21 3 -25 9c12 38 -35 17 -43 31c-28 -10 -76 0 -95 -21c-16 -2 -21 -16 -38 -12c3 -37 -28 -35 -47 -51
c-4 -15 -4 -36 -13 -47v-10c-17 -21 4 -67 20 -96c-4 -13 -7 -16 -11 -27c4 -8 18 -8 26 -12c18 -8 42 -9 53 -28c26 7 30 -25 43 -23c25 5 62 7 74 -12c-4 18 2 37 19 39h-4c-5 1 -3 8 -3 12c0 7 7 5 12 5c4 -9 25 -3 16 -21c12 -5 35 -5 42 5c40 -12 31 35 68 35l7 -8
c-5 14 9 15 12 24l-12 11c-9 8 2 20 3 31c-15 7 13 19 16 28z" />
    <glyph glyph-name="seven" unicode="7" 
d="M582 703c-15 -2 -17 -17 -24 -30v-12c-3 2 -8 -3 -7 -7c0 -12 -27 -22 -17 -35c-5 -12 -24 -13 -22 -30c-16 -10 -26 -24 -34 -41c-12 -13 -26 -23 -31 -42c0 -20 -34 -13 -28 -33c-3 1 -5 -24 -18 -20c-7 -19 -18 -42 -21 -61c-3 0 -5 -2 -7 -3v-9c-12 -6 0 -37 -22 -33
c7 -30 -26 -39 -28 -64h-3c-3 -14 -7 -37 3 -45c-1 -16 -22 -22 -24 -37c-8 -7 -34 3 -25 -17c15 -5 19 -25 13 -41c-18 -5 7 -6 2 -18l-2 -45c-6 1 -17 0 -13 -9c-4 -15 25 -17 7 -30c-28 -12 -14 -42 -12 -67c1 -5 8 -2 5 -9v-8c-2 0 -4 -2 -5 -3c5 -7 7 -12 5 -22
c-10 -10 0 -41 -21 -46c-12 -11 -13 -25 -31 -33c4 13 -18 13 -15 30h-15c-7 12 -23 15 -31 29c-2 5 1 11 -4 15h-8c-7 15 3 27 17 32c7 23 -2 58 19 70v9c10 3 7 18 12 27v33c12 -5 13 9 13 15c-1 4 2 10 -3 12c7 7 21 34 15 55c4 -1 7 4 6 5c-6 16 14 9 15 22l3 84
c16 -1 9 17 19 19c-1 1 -3 3 -7 3c2 15 24 17 19 37c5 -2 7 5 12 2c-7 17 14 28 7 49c3 0 5 1 7 3c0 17 22 23 17 45c5 0 10 -1 14 4c1 20 24 35 24 57c3 15 29 3 24 23c5 15 20 26 25 41c7 17 11 42 35 48c0 17 29 12 30 32c-3 12 18 10 6 22h-9c0 3 -2 5 -3 7
c-2 -14 -24 0 -24 -14c-9 -1 -29 -5 -29 10c-43 2 -103 12 -136 -10c-31 31 -92 9 -132 7v3c-24 5 -56 -1 -65 24c-5 15 -1 32 -19 40v9c23 22 54 23 81 38l7 10c22 -52 99 2 128 -37c14 4 26 -8 31 7c55 -22 122 4 182 -10c1 -10 17 -3 25 -5c7 12 28 3 43 5
c2 -10 16 -3 24 -5c-2 -18 16 -35 0 -52z" />
    <glyph glyph-name="eight" unicode="8" 
d="M604 226c-6 -12 -8 -29 -23 -34v-5c-9 3 -10 -7 -10 -14c1 -15 -40 -17 -16 -35v-1c3 -11 -3 -15 -8 -21c-17 6 -12 -16 -22 -19c-1 -4 -3 -7 -5 -10c-8 -11 -26 -14 -38 -22c-29 0 -5 -50 -42 -34c-24 -34 -75 0 -104 -26c-19 9 -24 -13 -46 -5c0 3 -3 7 -7 5
c-15 5 -12 -10 -27 -5c-5 19 -35 -2 -41 19c-23 -7 -37 13 -47 23c0 6 0 11 -2 15c-2 6 -6 10 -13 9c-14 -1 -21 2 -26 10c0 5 -2 9 -4 13c-3 7 -8 13 -1 23c-7 7 -17 4 -26 4c2 6 0 11 -5 15h-3c7 2 3 13 8 19c-52 0 2 61 -49 57v10c2 0 4 0 5 1c2 1 3 3 2 5
c2 8 -3 13 -8 15c1 15 -7 35 3 46c1 1 3 2 5 3c3 15 -12 12 -7 27c36 2 -5 45 29 50c5 3 2 10 2 15c13 0 1 13 10 19c17 3 39 11 42 30c16 -3 34 2 38 15c-4 24 -34 28 -26 58c-12 10 -12 26 -23 38c3 8 1 14 -2 19c-5 7 -13 13 -9 26c-3 9 -17 14 -12 31c4 -2 6 0 7 2v4
c2 8 14 15 9 26c1 7 5 14 9 20c5 7 10 14 13 21c12 15 41 17 36 49c44 5 57 46 105 39v9c27 -14 25 29 51 10v-3c22 -10 62 7 74 -13c1 -1 2 -4 2 -6c38 10 41 -27 73 -24c2 -18 22 -20 29 -37h5c5 -21 21 -36 27 -59c0 -1 0 -1 1 -2c17 -5 6 -31 10 -46c-5 2 -7 -5 -7 -9
c2 -3 -2 -10 3 -12h4c-17 -8 -10 -39 -26 -49c5 -17 -18 -18 -15 -37c-3 2 -5 -4 -9 -5v-14c-3 2 -8 -2 -6 -5c0 -15 -24 -19 -16 -41c19 -8 29 -37 50 -20c12 -4 15 -21 30 -19v-19c-3 2 -5 -1 -5 -3c2 -17 29 -12 32 -27c7 -10 11 -26 22 -31v-88zM474 584
c-5 12 -19 19 -14 40c-7 10 -20 6 -32 11c1 12 -7 29 5 34c-5 2 -9 16 -15 12c-4 7 -17 7 -16 19h-8c-4 -2 -9 3 -7 7h-8v-4c-4 -5 -11 -3 -16 -3c-27 -31 -34 22 -64 12c-12 -9 -24 -9 -39 -12c-7 -12 -26 -14 -41 -19c-9 -12 12 -42 -12 -46c-9 -6 -31 -3 -31 -20
c0 -5 0 -14 -6 -14c-7 -20 10 -18 22 -27c0 -12 1 -23 -4 -34h-3v-8c12 -2 3 -24 19 -19c18 2 47 -13 67 -30c2 13 23 0 24 11c4 -22 34 -8 50 -11c8 20 44 10 57 22c2 -2 4 -4 4 -7c7 0 13 2 18 -4c12 0 12 12 16 19c22 -2 18 26 27 38h-4c-34 11 12 18 11 33zM547 146v7
c-26 7 -2 49 -22 61c27 12 -16 31 10 39c17 12 -9 21 -10 31l6 7h-3c14 39 -42 25 -31 66c-20 -7 -3 20 -22 18c9 41 -44 12 -62 26v2h-130c-10 1 -12 10 -18 15c-19 -27 -61 3 -82 -24l6 -14l3 -5c-9 -3 -17 -6 -28 -5c-5 -6 -15 -10 -11 -22c-2 -1 -4 -3 -7 -3v-9
c0 -5 -5 -6 -9 -6c-8 -16 5 -46 -18 -50c6 -15 0 -34 -7 -46v-8c3 0 5 -2 7 -3c1 -14 -4 -26 -11 -34l19 -16l-8 -15c5 -3 5 -17 18 -12c10 -3 9 -19 9 -30c8 3 15 -4 22 -6c22 0 30 -23 27 -44c12 5 20 16 20 31c2 -10 11 -12 16 -17c-2 -2 -2 -5 -5 -4v-10
c22 4 51 -5 66 7c5 0 13 0 13 -7c33 7 68 -10 94 4c2 18 25 3 29 18c30 -6 34 24 61 24c3 0 12 2 12 -5l8 12l-8 8l8 11c14 3 24 3 38 8z" />
    <glyph glyph-name="nine" unicode="9" 
d="M590 537l-2 -23c-3 2 -8 -2 -7 -6c-5 -17 20 -16 7 -32c-10 -3 -16 -18 -16 -28c6 -17 -12 -11 -10 -24c23 -46 -29 -64 -17 -109c-10 4 -9 -11 -9 -16v-11c-3 2 -8 -2 -7 -5c-3 -20 -28 -27 -19 -56c-31 -3 -22 29 -18 49c1 0 3 1 5 3c-18 7 2 32 -21 36
c-6 -13 -24 -4 -36 -7c-2 12 -18 3 -27 7c-15 -7 -34 -13 -45 -27c-38 14 -62 -17 -93 -2c-12 6 -38 -2 -36 18l-36 4c2 3 -2 5 -2 7c-12 4 -19 20 -30 29c-22 5 -49 10 -50 39c-13 4 -4 29 -20 29c-9 16 -34 28 -23 53c-4 4 -6 9 -9 8c5 1 7 10 5 19c-11 4 -2 25 -16 29
l4 74c5 0 7 5 7 10v9c7 0 5 9 5 13v11c13 -2 13 12 20 16c9 14 18 28 27 44c23 8 16 47 48 45c13 24 41 22 61 40c38 -20 61 32 109 9c8 18 34 7 52 10c18 -7 24 -26 42 -32v-7c43 5 43 -41 77 -45c0 -28 39 -28 30 -64c47 -18 22 -86 50 -117zM468 109
c-7 -15 -10 -30 -28 -32c-11 -2 -18 7 -29 9c11 10 25 23 18 44v11c7 11 11 29 27 34l12 -2v-64zM411 34c-30 -11 -20 -54 -48 -65c-8 -2 -4 -9 -4 -13c7 4 0 -17 -7 -19c-13 -9 -25 -20 -38 -29c-10 -7 -27 -11 -27 -29c-35 4 -52 -21 -84 -19c-3 -9 -20 -11 -18 -25
c-52 27 -88 -60 -107 12l-16 22c44 -11 34 48 80 32c18 11 32 34 61 30c7 17 38 6 40 29c10 13 32 14 41 32c12 2 23 8 32 13c4 16 25 21 27 39c7 20 55 -5 41 34c-5 -25 36 -14 27 -44zM510 480c9 9 -2 21 -2 28c-4 15 -7 29 -7 42c12 5 16 30 9 45c-27 -9 -18 28 -38 30
c2 0 4 4 5 2c-7 11 -28 19 -37 30s-34 11 -27 29c7 4 11 -7 14 -7v11c-7 7 -25 -4 -27 8c-32 11 -75 -10 -100 9c-14 -9 -45 -5 -61 -16c0 -25 -29 -21 -41 -34c2 -32 -40 -28 -43 -55c-34 -29 27 -42 0 -72c-11 -34 8 -58 23 -81c7 -23 36 -28 36 -53l41 -8
c2 -25 40 -5 56 -16v-3h37c6 3 22 14 24 -2c32 -7 53 7 71 25c0 7 -2 17 6 20c26 11 25 -16 28 -29v9c-1 7 4 13 11 9c2 9 -5 25 5 27c-14 27 31 34 11 48c2 2 4 4 6 4z" />
    <glyph glyph-name="colon" unicode=":" 
d="M420 404c-2 1 -5 -2 -4 -5c7 -8 7 -23 0 -31c7 -14 -11 -6 -9 -18c-11 0 -15 -13 -27 -13c-16 -29 -58 -23 -92 -23c1 2 -2 5 -4 4c-7 -1 -11 5 -17 6c0 3 0 6 -4 6c-6 -2 -6 1 -8 5c-1 3 -5 1 -7 2c2 10 -13 4 -7 15c-17 4 -11 21 -12 35c17 12 -3 48 26 52
c-3 10 8 14 5 24c16 3 26 14 43 18c4 8 21 10 30 6c4 -15 22 -3 34 -10c1 -6 13 -2 11 -11c20 -5 9 -20 17 -34c9 3 9 -5 12 -7c1 -11 6 -18 13 -21zM420 83c-2 1 -5 -2 -4 -4c7 -9 7 -23 0 -32c7 -14 -11 -6 -9 -18c-11 0 -15 -12 -27 -12c-16 -30 -58 -23 -92 -23
c1 2 -2 5 -4 4c-7 -1 -11 4 -17 5c0 3 0 6 -4 6c-6 -2 -6 1 -8 6c-1 3 -5 1 -7 2c2 9 -13 3 -7 14c-17 5 -11 21 -12 35c17 13 -3 48 26 53c-3 9 8 13 5 23c16 3 26 15 43 19c4 7 21 9 30 5c4 -15 22 -3 34 -9c1 -7 13 -3 11 -12c20 -4 9 -20 17 -34c9 3 9 -5 12 -7
c1 -11 6 -18 13 -21z" />
    <glyph glyph-name="semicolon" unicode=";" 
d="M420 404c-2 1 -5 -2 -4 -5c7 -8 7 -23 0 -31c7 -14 -11 -6 -9 -18c-11 0 -15 -13 -27 -13c-16 -29 -58 -23 -92 -23c1 2 -2 5 -4 4c-7 -1 -11 5 -17 6c0 3 0 6 -4 6c-6 -2 -6 1 -8 5c-1 3 -5 1 -7 2c2 10 -13 4 -7 15c-17 4 -11 21 -12 35c17 12 -3 48 26 52
c-3 10 8 14 5 24c16 3 26 14 43 18c4 8 21 10 30 6c4 -15 22 -3 34 -10c1 -6 13 -2 11 -11c20 -5 9 -20 17 -34c9 3 9 -5 12 -7c1 -11 6 -18 13 -21zM420 83c-2 1 -5 -2 -4 -4c7 -9 7 -23 0 -32c6 -11 -6 -8 -9 -14l2 -2c-4 -5 -12 -6 -12 -13c8 -8 4 -11 -1 -17
c-26 -19 -6 -29 -32 -67c-12 -17 -27 -34 -39 -47c-3 -9 -24 -17 -44 -19c-18 -2 -6 20 -26 26c-2 15 5 12 6 30c20 14 40 14 54 33l12 35l1 1c-14 0 -27 1 -40 1c1 2 -2 5 -4 4c-7 -1 -11 4 -17 5c0 3 0 6 -4 6c-6 -2 -6 1 -8 6c-1 3 -5 1 -7 2c2 9 -13 3 -7 14
c-17 5 -11 21 -12 35c17 13 -3 48 26 53c-3 9 8 13 5 23c16 3 26 15 43 19c4 7 21 9 30 5c4 -15 22 -3 34 -9c1 -7 13 -3 11 -12c20 -4 9 -20 17 -34c9 3 9 -5 12 -7c1 -10 6 -18 13 -21z" />
    <glyph glyph-name="less" unicode="&#x3c;" 
d="M477 538c-8 -8 -21 -19 -8 -27l-70 -75l3 -1c-2 -10 -14 -1 -18 -7c-9 4 -12 -7 -19 -11c3 -5 1 -12 -6 -17l-17 2c-41 -40 -99 -39 -52 -66l26 -27c-19 -7 5 -20 -1 -29l26 -10c1 -9 -4 -16 3 -26c4 -12 20 0 23 -16c27 10 11 -54 33 -51c2 -2 3 -7 9 -6l2 1
c1 -11 28 -3 38 -12c-6 -8 12 -20 1 -27c-16 -16 31 -34 -3 -47c14 -7 -5 -12 -4 -16c-34 18 -81 -7 -98 37c-10 -2 -12 10 -18 15c9 5 -6 9 -3 15l-22 27c3 2 3 3 4 5c-4 2 -4 7 -9 6l-3 -1c-6 9 10 20 -7 30l2 1c-6 27 -37 29 -48 55c-26 -1 -37 18 -48 36
c17 15 -11 30 -20 45c-5 2 24 35 22 39c14 3 25 13 35 23c0 -2 7 -1 8 1c2 2 8 5 4 9l23 25c8 -5 11 8 18 12c-3 22 41 39 40 60c30 15 45 40 72 64c28 -7 57 12 78 -19z" />
    <glyph glyph-name="equal" unicode="=" 
d="M499 473c-2 -11 -10 -15 -14 -23c12 -4 12 -22 11 -35c-43 -17 -94 -25 -150 -25c0 -5 -8 -2 -15 -3v3c-51 14 -89 -13 -137 -11v3c-11 3 -34 6 -40 -3c-19 4 -24 24 -35 33c-5 29 5 48 25 64c44 5 80 14 128 14c39 10 80 -8 112 15h37v-3c37 1 57 -12 78 -29zM531 192
c6 -18 -13 -12 -14 -21c-26 2 -39 -10 -64 -11c-69 -4 -155 0 -224 -15c-6 -4 -11 -6 -21 -6c-3 13 -20 2 -28 10c-5 -12 -13 -8 -23 -10c-5 8 -8 14 -17 14c6 16 -13 13 -7 29c3 -2 8 3 7 6c-2 4 1 10 -4 12c2 9 7 32 21 43c7 -2 8 3 15 6c33 10 89 19 126 3
c8 5 19 15 32 15v-3c59 1 92 -16 140 11c4 -15 29 3 32 -15c3 -4 15 -12 16 -20c7 -12 -8 -12 -11 -16c3 -13 14 -24 24 -32z" />
    <glyph glyph-name="greater" unicode="&#x3e;" 
d="M472 338c6 -2 -19 -52 -17 -56c-13 -3 -21 -18 -31 -28c0 2 -7 1 -7 -2c-2 -2 -9 -4 -5 -8l-23 -25c-7 5 -11 -8 -17 -12c2 -23 -42 -40 -41 -60c-30 -15 -44 -41 -72 -64c-28 7 -57 -12 -78 19l-4 17c8 8 21 19 9 27l69 64l-3 2c2 10 14 1 18 7c10 -4 13 17 19 21
c-3 5 -1 12 6 17l17 -2c41 40 96 44 48 71l-26 27c20 7 -5 20 1 29l-26 10c-1 9 5 16 -3 26c-4 11 -20 0 -23 16c-27 -10 -11 54 -33 50c-2 2 -3 8 -9 6h-1c-2 11 -9 6 -19 15c6 7 -32 17 -20 24c16 16 -40 5 -8 48c-14 7 15 11 14 15c34 -18 82 7 98 -37
c10 2 13 -10 18 -15c-9 -5 6 -9 3 -15l22 -27c-2 -2 -3 -3 -3 -5c3 -2 4 -7 9 -6l2 1c6 -9 -10 -21 8 -30l-3 -1c7 -27 37 -29 49 -55c26 1 25 -14 36 -33c-17 -14 17 -16 26 -31z" />
    <glyph glyph-name="question" unicode="?" 
d="M396 83l-4 -4c4 -5 5 -11 5 -16c0 -6 -1 -11 -5 -16c1 -2 2 -3 2 -5c0 -6 -13 -3 -11 -13c-11 0 -16 -12 -26 -12c-13 -22 -39 -24 -61 -24l-32 1l-4 4h-2c-5 -1 -10 4 -15 5l-4 6h-2c-4 0 -4 3 -6 6l-7 2v1c0 8 -12 3 -7 13c-10 3 -12 9 -12 18v17c18 13 -3 49 26 53v3
c0 7 7 12 5 20c15 3 27 15 43 19c3 6 12 7 19 7c3 0 8 -1 11 -2c3 -11 16 -7 24 -7c3 0 7 -2 10 -2c1 -7 14 -3 11 -12c20 -4 10 -21 17 -34l3 1c13 0 5 -22 22 -29zM557 653c0 -13 -2 -25 -2 -37c0 -15 2 -30 13 -41c-3 -21 -25 -37 -31 -65c-3 -14 -27 -20 -23 -48
c-28 -31 -54 -63 -90 -85h-2c-35 1 -30 -36 -51 -36c-6 0 -13 2 -18 4c-10 -19 -14 -41 -31 -55c-3 -5 -5 -12 -5 -18c0 -8 3 -15 7 -21l-1 -9c-16 -1 -33 -3 -49 -3c-10 0 -29 0 -38 4c3 11 10 19 14 28c4 13 14 88 27 89c14 20 33 33 48 52l4 -1c17 -1 28 12 39 23v7
c22 5 56 4 56 35c18 12 36 21 40 44c14 3 28 41 28 53c4 3 7 7 7 12c0 6 -7 12 -10 17l18 23c-20 29 -45 11 -42 28c-10 19 -25 29 -47 29c-7 0 -10 -1 -15 -5h-1c-3 0 -10 5 -15 5c-7 9 -20 11 -31 11c-10 0 -20 -1 -30 0c-10 -11 -20 -16 -34 -16l-6 5
c-24 -2 -35 -25 -59 -29v-10c-5 -3 -7 -8 -7 -13l-1 -3l2 1l-5 -6v-5c-1 -9 4 -17 7 -25l13 -5v-1c0 -2 8 -9 10 -10c8 -20 9 -41 21 -61c-7 -3 -13 -9 -15 -16c-16 -14 -31 -19 -51 -19c-15 0 -33 2 -44 12c-9 22 -25 50 -51 54c-15 22 -24 48 -24 75c0 8 1 17 3 25
c16 20 33 19 35 51c31 44 107 101 159 101c16 0 29 -5 44 -1c9 -3 19 -2 28 -2l10 4c5 -5 13 -5 20 -5c22 -37 75 -4 96 -45c2 1 4 2 6 2c4 0 1 -5 1 -6v-3c-1 -23 19 -23 36 -28c2 -2 2 -10 2 -12h11c1 -6 -1 -13 -1 -20c0 -16 7 -28 25 -29z" />
    <glyph glyph-name="A" unicode="A" 
d="M574 42c5 -5 6 -27 -2 -30c-17 -14 -54 0 -71 -12c2 5 -5 7 -8 5c-27 3 -10 49 -27 64c5 40 -22 67 -13 109c3 -2 5 1 7 3c-9 20 -31 29 -31 54c4 -2 7 3 7 7v8c-12 5 -27 2 -40 3c-2 12 -15 4 -24 5c-6 -10 -25 -3 -37 -5v4c-33 10 -78 5 -109 -4c2 4 -1 4 -1 5
c-9 -5 -15 -16 -14 -30c-1 2 -3 -2 -5 -2c12 -3 4 -18 5 -28c-6 -7 -20 -8 -16 -24l11 -11c-3 0 -5 -2 -6 -4c-2 -8 -12 -21 -12 -33c-4 1 -5 -2 -7 -4c0 -20 29 -21 25 -45c-3 0 -10 4 -11 -2v-10c-29 -6 -21 -52 -56 -57v-3c-13 7 -30 18 -50 18c0 4 -2 6 -3 7h-11v12
c7 -2 7 7 7 12v8c5 0 7 5 7 10c-2 3 2 10 -3 12h-4v8c4 0 5 2 7 4v10c17 10 3 38 12 57c26 11 25 53 23 80c22 30 47 59 37 109c17 2 3 20 12 27c43 17 1 74 23 106c4 0 5 1 7 3c-8 3 -8 18 0 22c8 0 5 7 12 8c-15 14 3 24 6 40c4 -1 4 0 5 2v10c7 -1 7 4 7 9v10
c17 11 3 42 12 60c3 -2 5 0 7 2c1 15 21 30 5 45c21 17 -9 69 30 74c8 13 18 20 30 30c23 -3 55 7 70 -10c4 -17 16 -32 24 -49c-2 -23 -12 -65 15 -72c-2 -7 -3 -15 -3 -23c-10 -12 20 -22 10 -46c-4 2 -9 -3 -7 -6c2 -4 -2 -10 3 -12c7 -22 10 -45 22 -67l-3 -20
c-4 1 -9 -4 -7 -7c-2 -15 12 -18 19 -27c5 -8 23 -13 11 -27c-5 0 -7 -5 -5 -10c-6 -13 10 -8 9 -20c-7 -22 -4 -53 21 -57v-10c-6 2 -6 -5 -6 -8c0 -4 -2 -10 3 -12h3v-10c-15 -7 9 -15 9 -24c-7 0 -7 -8 -7 -11c5 -22 27 -27 30 -49c-5 0 -6 -5 -5 -10
c4 -37 27 -54 27 -96c5 -10 2 -33 19 -36c-21 -14 11 -21 5 -39zM418 332c-14 -12 -12 8 -26 5c-3 15 11 14 19 19c3 16 -3 33 -5 45c-7 2 -3 8 -3 12c6 25 -12 40 -16 60c-1 5 0 10 5 10c-8 27 -18 55 -15 87h-8c-8 12 -10 32 -8 51h-10c-14 0 -36 0 -34 15
c-13 -14 0 -32 0 -47c2 -15 -24 -15 -24 -29c2 -18 -3 -38 -23 -38c0 -49 3 -116 -28 -148c18 -12 0 -47 21 -55c12 -2 12 16 27 13c3 -2 3 -7 3 -10c16 0 14 -12 31 -3c5 0 13 1 11 -5c9 1 24 -5 26 5c8 -2 23 6 26 -5h16c3 6 21 1 15 18zM332 340c5 -8 -5 -6 -8 -8h-7
c2 3 15 2 15 8z" />
    <glyph glyph-name="B" unicode="B" 
d="M601 220c-12 -7 -2 -30 -15 -35v-43c-9 2 -17 0 -18 -8c-5 -8 -20 -18 -19 -30c-21 0 -10 -36 -38 -26c0 -22 -23 -23 -29 -37c-33 4 -53 -20 -78 -33l-205 4c0 3 -2 5 -3 6c-12 -3 -14 -8 -27 -6c2 3 -3 8 -6 6c-15 2 -15 -13 -30 -11l-15 -7c-8 8 -25 8 -38 12
c-17 11 -38 18 -30 51c7 16 20 29 37 38c18 9 43 18 41 44c-10 9 -18 14 -15 30c2 15 20 18 15 40c0 13 -10 16 -7 31c12 0 2 14 10 18l-3 52h-7v67c5 -1 7 4 10 7c5 22 -25 25 -10 48c2 13 23 15 15 35l-15 11c10 5 5 22 10 30c-13 33 12 73 -10 99c-3 12 9 15 12 20
c15 -3 6 13 13 18c-2 18 -8 32 -18 40c6 43 -61 45 -45 91c12 25 45 5 63 6c23 14 61 -14 79 12h10c0 -12 15 -3 23 -5c2 0 4 2 4 5h8v-3c43 -4 91 -4 134 0v3c18 -17 46 -21 69 -35c7 -33 38 -34 50 -59c7 1 10 -12 15 -13c0 -25 15 -43 21 -65c18 -3 18 -15 18 -33
c-11 0 -4 -18 -18 -12c-8 -8 4 -24 -10 -26c-5 -12 -1 -26 -1 -40c-18 4 -18 -11 -37 -5c0 2 -1 4 -3 5h-8v12c11 -2 11 11 18 15c7 21 -18 15 -15 30c3 -2 5 5 8 6c2 17 -38 30 -6 37c6 1 3 8 3 11c0 18 -20 30 -26 48c-17 -5 -22 10 -27 17c2 6 -3 9 -6 14
c-9 -1 -9 4 -12 10c-8 -1 -20 -5 -33 -3c-5 35 -58 3 -68 30c-3 -10 -5 -22 -18 -22c-23 17 -61 7 -93 10c-8 17 -13 -6 -26 -3c-8 -3 -10 -15 -18 -22c31 -9 -5 -46 6 -76c25 -14 2 -46 9 -66c-17 -15 -5 -48 -9 -71c-5 0 -6 -5 -6 -10v-8c-4 0 -5 -2 -5 -3
c-3 -7 1 -13 8 -15c7 6 15 0 22 -3c-7 -10 6 -14 14 -12c4 2 9 -2 12 3v9h12c0 -5 5 -7 8 -5c5 0 10 -4 13 3c-2 5 8 2 12 2c1 -10 15 -4 23 -5c0 11 13 1 18 8c58 -3 117 3 160 30c-6 14 14 10 15 14c13 4 33 4 37 -8c-2 -20 -52 0 -30 -33c-15 -3 -7 -15 -18 -23
c6 -20 28 -28 33 -45c24 -6 29 -24 53 -28c5 -43 29 -71 33 -115c-4 1 -5 -2 -7 -4c-3 -13 12 -11 7 -26zM530 246h-4c0 28 -10 50 -23 66c-15 28 -31 57 -63 67c-1 0 -3 1 -3 4h-15c-5 -4 -18 -3 -18 -18c-2 2 -3 4 -3 7h-9c-3 3 -5 7 -6 11c-13 4 -20 -6 -30 -11
c-2 2 -3 3 -2 7c-13 0 -28 -4 -39 1v3l-124 4l-7 -4c-3 -21 3 -33 18 -44c-1 -12 -13 -12 -18 -20c-3 -35 5 -61 23 -78c-1 -13 -10 -23 -16 -33c6 -10 -4 -29 8 -36c-2 -8 5 -23 -7 -27v-41h43c2 -6 15 2 15 -8l42 2c38 18 95 -15 122 21c0 -2 3 -3 1 -7h29
c6 19 38 14 38 37c18 3 21 15 33 26v10c-2 2 3 7 5 5v40c0 8 14 5 10 16z" />
    <glyph glyph-name="C" unicode="C" 
d="M608 710c-5 -6 -2 -15 -4 -21c-6 -9 -10 -20 -23 -24c-7 -28 -20 -43 -45 -58c0 -18 -33 -8 -36 -27h-12c8 10 -17 12 0 15c-7 29 -48 27 -33 70c-22 7 -25 34 -53 30c1 24 -34 22 -45 30h-10c1 2 -2 3 -2 5c-3 -5 -7 -7 -13 -5h-9v2c-20 3 -50 10 -63 -5
c-5 -10 -16 -18 -20 -27c-13 0 -20 -13 -25 -18c9 -20 -11 -27 -18 -37c-10 -6 -23 -10 -27 -23c-4 -15 0 -40 -15 -45c-1 -20 -18 -18 -30 -30c12 -16 -11 -38 10 -48c0 -12 -10 -15 -18 -22v-30h-3c-2 -23 -10 -58 6 -74c2 -14 17 -24 20 -35v-10h-3
c-10 -37 13 -57 30 -80c-5 -20 13 -25 15 -40c-2 2 -3 -2 -5 -2c-3 -16 25 -15 15 -36c3 -22 37 0 33 -24c38 0 47 -41 92 -30c21 9 58 -6 60 24c21 13 71 -19 66 26c15 -1 13 19 22 22c-12 30 15 25 23 42c32 8 33 -15 60 -19c-2 -23 15 -31 8 -56c-3 -12 -16 -19 -16 -30
c-7 -25 -39 -22 -40 -48c-20 5 -39 -5 -45 -20c-14 -15 -24 -32 -42 -40c-13 10 -31 6 -51 6c-9 -5 -14 -15 -27 -15l-20 -3c0 5 -5 7 -10 7c-13 1 -27 21 -42 5c-33 -4 -28 41 -66 33c-22 8 -13 45 -45 38c-8 13 -18 25 -15 45c-17 10 -13 28 -27 40c-13 28 -39 52 -29 93
c-10 15 -15 32 -27 47c-7 5 -2 20 -12 21v9c19 10 -1 43 19 51c8 22 -24 13 -14 37c12 -2 12 10 19 15c-20 16 24 36 -9 50c-5 13 17 6 9 21c8 5 8 22 11 30c-5 33 30 37 22 72c8 3 21 3 23 15c-13 30 22 35 22 60c10 11 16 25 23 38c22 15 53 15 67 36c16 -6 14 10 29 9
c5 6 2 13 12 15c13 5 40 -9 40 13h27c1 -12 15 -5 23 -7c10 -16 46 2 51 -21c15 -4 30 -10 42 -20c13 -4 15 -19 30 -19c0 -3 2 -5 3 -6h9v-2c8 -6 18 -3 26 -3c15 8 19 33 45 23c7 -8 22 -8 33 -12v-8c-3 0 -5 -2 -5 -3c0 -3 -3 -10 2 -12h7z" />
    <glyph glyph-name="D" unicode="D" 
d="M602 433c-24 -9 -5 -34 -15 -52c-4 0 -5 -2 -7 -4c0 -3 2 -5 3 -5l-3 -3c3 -5 8 -2 7 -10v-8h-4c-15 -31 19 -52 -5 -76c-5 -23 9 -49 -13 -60c22 -9 -14 -19 7 -27c-4 0 -5 -2 -7 -4c0 -21 -35 -15 -27 -45c-12 0 -2 -12 -8 -15c-27 -28 -44 -64 -83 -75
c-3 -17 -18 -15 -26 -24c-26 7 -34 -12 -52 -15c-24 -7 -56 2 -76 -10c-10 8 -30 8 -45 12c-15 8 -39 17 -57 3v-3c-9 18 -12 -9 -27 0c-2 11 -15 5 -23 6c-22 -6 -56 -11 -76 -6c-5 3 -5 17 -13 18v0c-12 27 10 42 15 64c3 0 5 2 6 3v9c9 -5 21 -2 31 -4c1 15 21 25 6 37
c7 2 5 14 5 22c-11 0 -3 15 -5 23h2c7 21 0 44 -2 61c7 -2 14 3 15 8c-6 19 12 52 -15 52c-1 7 5 14 12 12c3 8 3 22 -3 27h-4c26 42 -8 72 0 119c17 12 7 38 10 60c2 -1 4 0 5 2c-5 7 -6 12 -5 22h2c7 10 3 23 3 37c-10 3 -8 18 -8 30c14 2 22 15 19 32c-2 5 1 10 -4 13
c-15 14 10 74 -37 50c0 12 -10 16 -15 22v64c25 10 61 3 91 5v-3l67 -2c-2 -7 7 -7 12 -7h8c0 -3 2 -5 3 -6c4 1 10 -2 12 3c0 5 8 3 13 3v-3c24 2 54 -15 73 3h8c0 -3 2 -5 3 -6c4 1 10 -2 12 3v3h10c14 -6 27 -17 35 -27c5 -11 19 -1 26 -10v-1c10 -7 23 -4 35 -4
c-2 -3 3 -8 6 -6h9c10 -17 17 -32 18 -54c12 -27 39 -55 39 -76c15 -3 -3 -28 15 -26c12 -24 5 -47 7 -76c-5 0 -7 -5 -7 -10c17 -20 -8 -57 22 -65zM523 453c2 13 -12 23 -15 33c2 2 3 4 7 4c0 15 -2 27 -7 38c2 2 3 4 7 4c-16 21 6 73 -31 82c0 28 -32 27 -48 38
c5 16 -14 12 -9 27h-6c-10 4 -24 10 -19 25c-10 0 -15 -1 -20 -6c-2 1 -5 3 -3 6l-86 2c-2 3 -7 5 -5 10c-10 0 -22 -3 -30 3v2h-15c-10 -13 -42 5 -49 -15c-3 -12 7 -20 4 -32c-9 -12 3 -30 -10 -37v-8c5 -13 16 -35 10 -44l-4 -72c-1 -32 17 -50 7 -80h-3v-59
c11 -5 13 -10 15 -23c-2 -4 -7 -4 -10 -4v-8c1 -5 0 -10 -5 -10v-27c-4 -10 -22 -3 -16 -19c14 -8 24 -23 21 -45c-9 -2 -4 -23 -21 -17c4 -33 -6 -60 -3 -94h7c-2 -33 48 -10 50 -41c34 -17 20 30 52 20c2 -4 7 -5 5 -9h10c7 -1 9 0 12 5c2 -1 3 -1 3 -5c7 0 15 -1 19 -6
v10c12 10 32 3 47 5c27 10 36 41 63 45s34 32 49 49c25 11 -12 31 8 48c4 44 -6 96 11 133c-4 8 5 23 -7 27c10 10 5 35 15 45z" />
    <glyph glyph-name="E" unicode="E" 
d="M547 754c-3 0 -5 -2 -6 -4v-8c-6 0 -7 -5 -6 -10v-9c-20 -7 -34 -8 -49 7c-14 2 -16 -7 -22 -14c-40 -5 -81 -2 -123 0c-40 2 -81 3 -120 -5c2 4 -4 7 -5 5c-17 -3 -31 -15 -38 -31v0c-7 -16 14 -17 7 -35c-3 0 -5 -2 -7 -4c12 -31 4 -77 7 -114c-12 -2 -5 -16 -7 -24
c-3 0 -5 -2 -7 -4c2 -3 -1 -10 4 -12h3v-8c-5 0 -7 -5 -7 -10c2 -4 -1 -11 4 -12c15 -9 41 -18 65 -9c1 5 12 2 18 2v-2c24 -5 52 -3 71 -7h6c27 2 52 11 77 16c19 -9 35 -31 43 -50c-5 -12 -15 -22 -15 -39c-24 -2 -35 -19 -62 -12v0c-7 12 -26 0 -37 8
c-50 7 -103 2 -154 0c-12 -13 -19 -34 -24 -53c3 -2 6 -5 8 -8c16 -20 21 -48 14 -77h-3v0c-18 -26 20 -50 -11 -65c1 -2 2 -3 2 -5c9 -24 0 -61 32 -69h53c-3 -15 18 -8 19 -18c5 3 2 8 2 11c22 4 48 -5 62 7c10 -22 18 2 41 -7c-2 -1 1 -3 3 -5c14 2 19 7 32 9
c7 10 28 7 38 3c-3 -15 17 -8 19 -18v0c7 15 22 12 39 11h10c11 -15 4 -47 6 -66c-12 -2 -23 -9 -31 -19c-75 -3 -163 -2 -231 7v-4c0 12 -22 18 -27 6c-4 -19 -23 -2 -35 -6c2 4 -1 4 -3 6c-10 -2 -14 -9 -27 -6v0c-4 24 -38 2 -46 21c-9 0 -12 5 -16 14c0 13 -10 17 -5 32
c3 5 10 2 15 7c4 20 -27 8 -15 34h5c5 15 -8 24 -12 36c5 0 7 5 7 10v9c3 -2 5 3 9 7v18c5 -1 6 4 6 9c-1 3 2 10 -3 12c-29 39 29 68 -3 104c5 12 15 26 12 38c-4 22 -18 37 -12 65c5 15 22 22 15 46c-9 5 -21 10 -15 24c12 2 1 19 8 26c-12 1 -8 18 -17 23c3 9 15 7 17 19
c-2 11 -14 9 -8 21c12 1 3 17 6 25c-6 4 -13 16 -6 24h3c2 21 10 52 -7 65c4 16 -12 12 -5 28c7 8 9 18 17 27c-2 15 19 22 22 34c38 10 84 -10 108 19h53v-3c22 -12 27 12 51 3c0 -7 9 -7 12 -7c23 12 58 5 87 7v-3c11 -6 26 -6 36 0c0 5 9 3 14 3v-3c9 -9 33 5 33 -12
c-7 -17 13 -14 6 -31z" />
    <glyph glyph-name="F" unicode="F" 
d="M581 722c-16 -15 -25 -36 -50 -38c-6 5 -9 14 -21 15c-18 -10 -36 -6 -51 -15v4c-9 5 -20 1 -30 1c2 5 -3 7 -5 10c-20 0 -35 -11 -41 -25c-7 15 -10 28 -25 33c-17 -6 -43 -11 -65 -5c0 5 -5 7 -9 5c-4 0 -10 4 -12 -3c-20 -5 -36 -2 -60 -2c-1 9 -8 14 -18 12v0
c-13 -3 -21 -3 -29 -15c11 -1 3 -16 6 -25c-13 -10 -13 -31 -11 -49c-7 0 -7 -5 -7 -10c2 -17 8 -13 7 -32h-4c-5 -14 -3 -33 -3 -47c-3 0 -5 -2 -7 -4c7 -6 15 -10 14 -21v0c-7 -2 -14 -5 -19 -9c9 -13 7 -34 24 -41c26 2 47 -5 69 5v-2c46 -13 78 10 127 2c2 2 4 3 4 7
c3 -12 21 -4 33 -7c1 1 1 2 2 2c1 3 -1 6 6 5c16 0 15 -23 33 -23c-3 -30 7 -65 -22 -75c-16 -3 -39 -21 -52 0c-32 4 -75 -10 -93 12c-25 6 -31 -13 -56 -7c1 5 -4 7 -7 10c-10 -3 -19 -2 -28 -1c-12 1 -23 2 -35 -6c7 -3 7 -16 19 -11c-22 -22 -7 -47 -4 -73
c1 -8 1 -17 -1 -26c-4 1 -5 -2 -7 -2v-10c-3 2 -5 -1 -7 -3c7 -17 12 -38 14 -60c-9 -8 3 -26 8 -41c18 -5 0 -38 15 -48v-8c-4 0 -5 -2 -7 -3v-9c-2 0 -3 -1 -5 -3c-3 -8 5 -8 8 -12h7l-3 -26c-4 0 -5 -2 -7 -3c-2 -14 -18 -20 -20 -33c-15 -4 -18 -17 -36 -12
c-3 8 -17 10 -27 8c0 9 2 18 -3 25h-5c3 18 -25 23 -6 38v0c-12 15 -16 39 -7 60c7 16 16 26 7 44c3 0 5 2 6 4v8h2c-3 34 23 68 0 99c-15 28 18 45 6 74c-5 22 25 45 -3 61c-11 37 37 41 10 73l-10 12c13 23 -13 61 12 79c8 18 -17 20 -9 30c10 -3 7 10 15 10
c4 15 -15 15 -11 26c6 0 5 7 5 12c1 16 -12 18 -12 33c17 11 7 38 27 44c6 5 3 12 3 19c5 -2 7 3 7 8v10c13 -5 11 10 26 5c0 -3 2 -5 3 -5c12 -3 9 13 18 15l45 -4v-3c41 -10 61 10 106 3v-3c21 -15 38 18 51 -6c18 -9 30 3 41 13c32 -5 57 6 86 1c4 7 7 7 14 7
c14 -15 19 -38 46 -33c6 -20 26 -18 18 -45z" />
    <glyph glyph-name="G" unicode="G" 
d="M600 545c-27 5 -57 -35 -75 0c-8 5 -9 14 -9 24c-1 14 -1 28 -16 31c0 5 3 14 -2 19c-12 15 5 60 -30 56c2 28 -37 17 -48 33h-10c1 2 -2 4 -2 5c-11 4 -21 15 -36 12c-4 12 -19 5 -27 7c0 3 -2 5 -3 6c-24 -28 -67 -10 -97 -28c-7 -10 -8 -25 -20 -31
c-33 8 -17 -32 -33 -40v-9c-3 0 -5 -1 -7 -3v-8h-8c-7 -22 10 -60 -22 -67c22 -45 -38 -23 -16 -68c-7 -7 -14 -22 -7 -33c0 -5 8 -2 7 -7c-2 -13 -27 -23 -14 -35c-3 -7 -16 -8 -11 -22c3 -3 15 -3 11 -11v-10c-5 1 -6 -4 -5 -9v-8c-3 0 -5 -2 -6 -3c26 -4 -2 -45 25 -48
c1 -30 20 -54 26 -82c12 -17 2 -53 34 -53l1 -12c23 -17 38 -30 63 -40c-5 -16 14 -8 19 -16c43 11 106 -17 134 23c15 -4 37 3 37 18c0 18 28 12 30 30c5 -2 7 3 5 8c0 4 3 10 -3 12h-2v7c15 5 5 26 12 38c16 8 11 30 30 40c-9 12 -7 37 -25 41c-35 8 -54 -13 -90 -6v0
c1 6 -4 6 -9 6c-18 5 -34 -34 -44 -6c-9 10 -42 5 -34 30c-3 6 7 13 4 21c18 9 33 30 56 24c2 -10 17 -4 25 -5c5 1 0 8 8 5h9c0 -5 5 -7 10 -5h8v-4c10 -5 25 -1 37 -3v-3c10 -4 25 -4 35 0c20 11 31 -9 55 -5c-5 -19 5 -25 15 -34c-12 -44 11 -89 -10 -123
c11 -10 5 -31 6 -48c-3 2 -5 -2 -6 -2c11 -20 3 -53 18 -69v-9c-12 -11 -7 -41 -20 -51c-7 -5 -3 -12 -3 -19c-24 -20 -37 14 -52 19c7 3 7 13 7 21c3 -1 3 2 5 4c-15 3 -17 51 -42 20c10 -25 -22 -19 -23 -35c-49 3 -87 -43 -150 -30c-25 5 -62 -14 -75 15
c-10 0 -18 13 -33 8v0c-7 22 -25 18 -42 27v0c-11 26 -45 41 -51 71v0c-35 30 -20 77 -35 120c-10 12 8 45 -15 48c0 25 0 53 -14 70c7 10 14 30 19 42c6 6 -9 20 -12 35c-10 23 18 31 18 51v63c5 14 14 30 19 45c10 4 3 19 5 27c5 12 15 22 25 30v12c5 0 8 6 11 10
c-1 38 47 31 50 68c15 -5 18 8 28 11v7c12 12 45 -5 39 23c18 0 38 -1 48 12h30c3 -8 15 -8 23 -8c17 -4 35 -3 50 -6c10 -2 19 -6 25 -16c30 7 33 -20 55 -27c5 -11 10 -33 30 -33c3 -21 37 -13 30 -41c-2 -15 28 -17 8 -34c15 -10 10 -33 34 -38c-7 -23 16 -32 15 -52z
" />
    <glyph glyph-name="H" unicode="H" 
d="M570 601c-5 -9 -22 -12 -18 -31c-9 -7 -14 -20 -12 -36c12 -1 17 -8 25 -13c-6 -14 -37 -9 -25 -32c2 -6 -2 -11 3 -14h4v-9c-4 0 -5 -1 -7 -3c12 -7 2 -31 10 -43c2 -6 9 -34 -7 -34c-10 -12 7 -13 9 -20c-2 -27 6 -53 7 -75c0 -15 -23 -34 -9 -61c-2 -17 15 -50 -3 -63
c0 -7 -4 -14 3 -16h2c-22 -5 -9 -35 -12 -52c7 -10 10 -26 22 -31c26 -15 7 -31 -3 -46c-21 5 -40 -25 -50 4v8c-15 9 -46 -5 -51 12c0 14 9 17 15 25c9 -3 9 6 12 9c-3 20 -17 22 -25 37v21c3 0 5 2 7 3c-4 -1 0 21 6 26s2 13 2 20c-17 9 -7 34 -5 50c5 0 7 5 5 8v10
c4 -1 5 2 7 4c2 15 -31 20 -7 35v28c4 -2 9 3 7 7c-7 15 -24 27 -12 49c-8 24 -34 5 -53 15c2 12 -7 19 -18 21c-19 -11 -43 -14 -63 -21c-2 4 1 10 -4 12h-10c2 5 -3 7 -9 7c-13 -5 -23 -7 -37 -10c-12 -17 -36 -5 -61 -9c-16 36 -21 -17 -48 -3c-3 -17 -10 -46 5 -55
c10 -29 -30 -12 -19 -41c-3 2 -5 -3 -8 -5c0 -20 10 -29 15 -44c-10 -7 16 -19 9 -36c-2 2 -7 -3 -5 -6c-4 -14 10 -16 5 -31c-16 -12 -9 -43 -5 -61c10 -2 3 -22 20 -16c-10 -1 -19 -6 -20 -18c-4 -14 12 -12 5 -28c-16 -10 -16 -27 -33 -39c-1 -8 -17 4 -15 -10h-7
c5 14 -8 14 -12 19c-18 0 -23 12 -27 25l2 24c3 -2 8 3 7 7c-6 12 -7 24 -7 39c8 0 5 7 13 9c-3 8 -8 8 -6 18c22 24 -4 60 8 89c12 1 5 17 7 25c-2 2 -3 4 -7 4c7 10 14 30 7 46c-7 8 -20 12 -15 30c29 0 10 33 15 48c-10 7 -5 27 -15 34c1 17 22 22 18 43c7 0 6 8 6 13
c-2 14 -28 24 -9 39c0 5 2 12 -3 16h-4v6h7c7 17 -36 38 -3 48c5 4 3 10 3 15c-26 17 24 38 -7 57c9 3 14 18 7 27c-10 0 -9 13 -9 22c12 14 14 41 9 61c0 4 -9 0 -7 5c-5 16 17 9 19 19c15 0 19 10 34 7c2 -7 7 -17 19 -14c0 -3 -4 -8 3 -12h2c-7 -5 -12 -18 -5 -27
c1 -5 8 -2 5 -8v-11c-9 -6 -9 -29 -12 -34h3v-5c-3 0 -5 -1 -7 -3c12 -7 6 -24 7 -38l-12 -12c34 -8 -3 -49 21 -64c-29 -5 -19 -44 -21 -70c17 -24 36 -41 74 -34c3 5 5 7 11 7h11v-4c22 -13 27 12 51 4v-4c54 -5 117 -8 168 -3c4 26 19 41 12 71c12 14 8 34 7 55
c0 3 2 10 -3 12h-4c5 17 19 48 0 61v10c4 -1 5 0 7 2c-3 22 -17 37 -12 65c5 0 7 5 5 10v8c12 2 5 16 7 24c19 -1 14 17 27 19c24 3 46 0 53 -20v-31c-9 -10 -12 -32 -7 -46h7c15 -36 -19 -53 -7 -87c9 2 9 -13 15 -15zM106 49v11h-7z" />
    <glyph glyph-name="I" unicode="I" 
d="M394 145c-7 -14 -10 -37 -8 -51c-10 -5 -3 -28 -18 -30c-25 -8 3 -54 -35 -49c7 -15 -13 -10 -15 -15c-16 38 -74 38 -57 94c-10 3 -3 18 -5 26c5 0 6 3 6 6c0 4 -1 9 2 12v41c3 0 5 2 7 3c-2 4 1 10 -4 12h-3c2 13 23 16 15 36h3c13 33 -11 51 -3 85
c-23 14 -18 40 -15 66c25 7 12 38 15 59c-3 5 -10 2 -15 5c8 12 10 28 10 45c2 -2 7 3 5 6c0 3 3 10 -3 12l-2 39c10 0 3 15 5 23c-10 11 -9 27 -9 43c1 16 3 33 -6 43c12 34 3 69 7 110c28 9 36 47 77 29l16 -15c0 -13 -1 -32 15 -32l4 -119h2h1c6 -11 -10 -10 -8 -18v0
c-12 -1 -5 -15 -7 -23c7 -3 10 -11 8 -21l-15 -8c-1 -66 -11 -133 10 -189l4 -43c-22 3 -10 -25 -22 -31l15 -25c-5 -10 -15 -15 -15 -29c-5 -15 17 -12 8 -30c30 -5 4 -48 25 -56c0 -3 -3 -10 3 -11h2z" />
    <glyph glyph-name="J" unicode="J" 
d="M575 756c-16 -3 -6 -32 -21 -37c7 -26 21 -46 15 -79c-19 0 -15 -23 -15 -39c12 0 -2 -21 15 -16c-3 -21 -38 -47 -7 -63c2 -7 -3 -14 -7 -16c-5 -1 -1 -8 -1 -12c0 -2 1 -3 5 -3c-19 -43 0 -95 -16 -139c5 -4 7 -6 7 -13c-5 -14 -16 -23 -16 -42c-2 -10 2 -21 13 -24
c1 3 -7 -8 -4 -13c2 -2 4 -5 7 -3v-11c-12 -2 -3 -16 -7 -24c-3 0 -5 -2 -5 -4c0 -16 24 -37 2 -47c-6 -18 -15 -25 -16 -44c-6 0 -7 -6 -6 -9c0 -20 -26 -18 -26 -35c-25 -6 -7 -48 -37 -44c-17 -14 -44 -27 -60 -39c-59 -7 -112 0 -168 0c1 4 -4 7 -6 7
c-19 5 -33 12 -54 18c-4 14 -9 24 -16 35c-21 10 -51 17 -56 42c-23 2 -6 37 -20 47c7 6 6 20 6 32c-7 19 -12 49 -6 76c4 15 28 17 37 24c9 -12 32 -1 46 -8c-14 -30 9 -48 16 -71c16 2 3 -23 21 -16v-15c-7 1 -5 -7 -5 -13c0 -3 -4 -10 1 -12h7c-3 -21 6 -30 16 -42
c14 -9 39 -9 56 -13c23 -28 55 4 90 -3c12 3 25 17 32 30c7 5 28 0 21 17c23 23 49 46 51 83c3 0 5 2 7 4c2 15 -30 28 -11 43c4 16 -10 16 -5 32c11 0 5 16 19 11c6 10 2 24 2 37l-21 15c26 16 -14 60 21 67c0 21 -28 30 0 44c-2 28 -33 34 -21 71c4 -2 4 1 5 3l-5 9v0
c12 0 2 12 9 16v0l-4 205c6 13 23 7 20 25c3 -12 19 -12 31 -12c6 1 2 8 7 7c14 -7 36 -25 48 -39h9z" />
    <glyph glyph-name="K" unicode="K" 
d="M595 34c-11 -10 -48 11 -36 -22c1 -2 3 -3 5 -2v-10h-16c-3 10 -19 7 -27 12c3 15 -16 21 -16 38c-13 -5 -12 10 -20 8c5 24 -9 33 -14 54h-12c0 3 3 10 -3 12h-6c16 32 -34 27 -22 56c3 -1 5 0 7 2c-12 29 -52 29 -50 69c-29 -4 -10 29 -15 43l8 10c-17 5 -25 20 -39 31
c-12 19 -12 55 -43 55c-21 -5 -53 -12 -62 -35c-9 4 -12 -5 -19 -3c10 -40 -38 -17 -38 -48c-3 -16 11 -45 -12 -46c-5 -13 -5 -28 0 -38c6 0 4 -9 4 -12h-4c-10 -64 7 -119 11 -177c-19 7 -9 -16 -16 -21l-77 2c7 17 -15 9 -15 19c3 26 -23 31 -14 58c19 -1 17 16 26 23
l3 101c2 0 3 2 5 3c0 4 4 11 -3 12c3 30 -17 48 -17 76c15 0 30 7 36 20c-18 19 -6 50 -21 69v9c3 -2 5 3 9 7c-4 20 10 58 -12 73v16c8 -4 8 7 12 8c6 38 -24 54 -9 91c3 -1 5 4 9 6c-2 12 5 25 -7 34h-5l3 38c2 -2 7 2 5 5c-10 17 -12 46 -5 69c21 13 17 49 51 49
c0 -25 18 -31 28 -49c3 -6 9 -4 14 -4v-22c-21 3 -14 -23 -23 -31c2 -2 4 -4 7 -2v-10c-5 2 -7 -4 -10 -5c-3 -23 29 -38 0 -54c0 -17 -2 -39 12 -49l-2 -52c-12 -2 -5 -17 -7 -26c2 -5 9 -1 7 -8c-2 -10 -19 -17 -22 -28c3 -10 17 -13 12 -29c-5 -2 -9 -2 -12 -5
c0 -3 -2 -10 3 -12c18 3 7 -22 19 -26v-5c-8 -3 -24 5 -26 -7c0 -5 0 -13 7 -12c18 0 16 19 36 12c23 4 7 36 35 35c13 13 7 44 31 46c8 14 19 34 41 31c8 19 32 36 20 55c-1 10 4 10 11 12c15 5 12 26 32 26c12 15 45 17 42 46c5 7 15 8 12 20c27 9 25 59 65 54
c5 3 2 10 3 15c12 12 7 35 31 40v10c12 -3 5 10 12 15c-3 12 7 16 12 21c23 -2 53 7 59 -17c8 0 10 -12 12 -16c0 -17 6 -36 -9 -41c-12 -19 -24 -42 -50 -51c-26 -10 -32 -40 -55 -54c12 -25 -27 -13 -22 -34c-15 -5 -36 -14 -36 -36c-7 0 -7 -5 -7 -10
c-5 -16 -29 -17 -38 -35c-12 -8 -44 7 -43 -17c-1 -24 -5 -58 11 -77c7 -17 49 10 43 -26c6 -5 -4 -27 8 -31c9 -12 -8 -41 19 -36c10 -8 3 -34 19 -41c0 -3 -2 -7 3 -8c14 -2 21 -21 33 -26c14 -29 17 -55 50 -71c1 -22 22 -18 27 -37c29 -28 60 -48 47 -102zM332 285h-17
l12 15c0 -8 10 -5 5 -15z" />
    <glyph glyph-name="L" unicode="L" 
d="M577 43c0 -23 -34 -18 -47 -28c-1 -11 -18 -1 -22 -8c-20 2 -51 10 -62 -6c-24 -7 -32 29 -65 13c0 -7 -9 -3 -14 -3c1 3 -2 3 -3 4h-8v4c-17 3 -44 6 -55 -4c0 4 -2 5 -4 7c-6 -11 -22 -3 -35 -7c1 4 -2 5 -2 7c-11 0 -11 -10 -24 -7c1 4 -2 5 -3 7
c-30 -5 -55 -15 -89 -15c-2 -11 -17 -3 -25 -6c-11 16 -24 27 -22 53c-20 15 -29 41 -21 70c6 6 16 9 11 22c-3 13 -16 18 -11 36c5 0 6 5 11 3c2 42 -2 57 3 102c-9 5 -18 13 -14 29c37 12 16 55 17 84c1 5 -11 15 -3 21c18 14 -8 21 0 41h3c10 24 -8 44 -3 63v10
c3 -2 8 3 7 5c-4 22 -20 40 -21 64c11 2 17 7 21 18c-12 15 -4 31 -7 52h3c0 24 12 53 -3 73c10 13 13 29 24 40c17 -2 28 15 44 13c-1 -3 2 -8 5 -6h10v0c-7 -17 8 -22 14 -30c-1 -66 0 -145 8 -207h-1h-2l-5 -51c-3 1 -8 -4 -6 -7c11 -11 3 -37 6 -55c-8 3 -9 -6 -9 -11v0
v-10c-4 2 -5 -2 -5 -2c0 -4 8 -1 5 -6c-5 -15 -13 -23 -15 -40c-10 -4 -3 -18 -8 -25c18 -6 18 -22 18 -43c-7 -5 -26 -12 -15 -26c28 5 5 -29 20 -34v-10h-4c-8 -28 4 -55 4 -81c-4 0 -5 -2 -5 -3v-8c-7 0 -7 -5 -7 -10c0 -11 4 -18 15 -23c34 -6 73 13 95 -6
c41 13 86 0 130 11c7 -4 14 -6 21 -6c30 -2 62 20 85 -5h31h8c15 -21 -9 -60 26 -63z" />
    <glyph glyph-name="M" unicode="M" 
d="M609 102c12 -25 -6 -47 -8 -72c-3 0 -5 -2 -7 -3c2 -12 -8 -15 -17 -22c-15 5 -33 5 -43 13h-8c6 14 -10 12 -15 17h-15c5 18 -14 52 15 52c11 10 -9 5 -7 15h-8v27c3 0 5 1 6 3c-1 18 25 28 12 52c-5 6 -17 8 -12 23c9 7 25 15 15 30c-15 7 15 37 -10 49
c-3 11 -16 15 -11 33c5 0 8 2 11 5c-5 18 35 18 12 37v8c3 0 5 2 7 3v9c11 1 3 16 6 25c-1 2 -3 3 -6 3c8 5 5 22 6 32c-1 2 -3 5 -6 3v10c3 -1 5 0 6 2c-1 18 -23 28 -25 45c7 8 10 28 22 30c5 7 2 17 3 25c-15 19 -26 -7 -43 5c-5 -8 -2 -22 -2 -32c-3 0 -8 -3 -6 -6
c0 -4 -2 -10 3 -12c5 0 2 -8 3 -12c-18 7 -23 -10 -30 -18c0 -8 -1 -20 9 -22c-2 -15 -34 -20 -15 -35v-10c-12 0 -2 -13 -9 -18c-3 -9 2 -14 5 -20h4c-4 -9 -17 -19 -12 -34c-3 0 -5 -1 -7 -3c12 -3 4 -18 7 -27c-8 -11 -8 -30 -22 -36c2 3 -2 5 -3 6c-4 0 -9 2 -12 -3v-3
c-12 15 -38 13 -50 30c-8 1 -13 10 -18 15l20 -12c25 2 10 42 40 37c-14 5 -9 20 -22 26c0 19 15 25 10 46c18 -5 8 16 17 23c-20 22 13 27 6 48c12 2 4 17 7 25c10 9 2 39 24 39c3 13 -9 17 -16 22c0 10 12 1 16 8v27c11 1 1 18 8 25c2 15 -2 41 3 60c4 -2 5 0 7 1v10
c5 -1 7 4 5 9v10c8 8 8 27 13 42l35 33c20 -5 55 12 57 -18c34 1 12 -35 22 -52c2 -12 -15 -7 -9 -20c-3 0 -5 -2 -6 -4c27 -20 13 -60 11 -93c-3 0 -5 -2 -5 -3c0 -19 27 -49 0 -64c-6 -25 9 -35 9 -60v-90c-19 -12 3 -29 -4 -50c12 -5 2 -19 11 -25l1 -39h-1
c-5 -8 -5 -23 0 -33c5 0 1 -10 1 -15c-12 0 -1 -14 -8 -19c-5 -21 8 -45 8 -65c-1 0 -3 -1 -5 -3c15 -8 -8 -47 20 -45zM414 192c-14 5 -17 -7 -24 -15c2 -25 7 -52 12 -72c-5 -1 -8 -3 -12 -6v-9c-3 0 -5 -1 -6 -3c0 -7 1 -15 10 -12h8c-5 -12 -11 -28 -18 -40
c-17 -27 -54 -27 -84 -35c-13 7 -31 7 -33 27c-2 5 -9 1 -12 3c-2 27 7 64 -18 75h-5c1 9 -9 27 8 24h8c2 25 -25 35 -20 70c5 26 -18 38 -15 62h4c1 35 -5 63 -7 100c-23 8 -13 48 -38 57c0 16 26 36 0 51v9c1 0 3 1 5 3c0 12 -5 18 -12 27c3 0 5 1 7 3
c-7 12 -12 27 -15 42c6 18 0 40 -7 57c-15 0 -38 3 -42 -15c2 -34 -5 -87 5 -126c-1 0 -3 -1 -5 -3c12 -5 2 -15 0 -25c-13 -30 14 -70 -12 -92c12 -13 36 -8 31 -30c-4 0 -5 -2 -7 -3c0 -12 -15 -17 -19 -30c-6 -7 -8 -12 -11 -22c3 -5 10 -2 15 -3c-4 -10 -27 -20 -9 -32
c5 -7 24 -2 17 -15v-10c-1 1 -3 -2 -5 -4c15 -11 20 -31 19 -56c-4 1 -5 -2 -7 -4v-8c-3 0 -5 -2 -7 -3c5 -14 5 -22 15 -30v-66c-13 2 -6 -11 -15 -15c5 -11 -5 -13 -8 -18c-19 23 -50 0 -57 35c-7 15 2 43 -10 59c3 -2 5 0 7 1v10c11 2 3 15 6 24c-5 11 -18 18 -13 36
c12 2 5 15 7 24c-2 1 -4 3 -7 3c37 15 7 62 25 94c3 -2 3 1 5 3c-15 12 -8 43 -5 62c3 0 3 1 5 3c3 8 -2 13 -8 15l3 30c5 0 7 5 5 10c-7 10 -12 30 -5 45c-13 17 0 39 0 60c3 7 17 7 12 20c-4 10 -17 12 -12 27c15 9 -8 12 -7 25v84l-11 10c11 1 3 16 6 26c7 10 12 31 5 46
c9 26 32 31 49 45v-4c7 -5 18 -1 27 -3c0 -7 8 -5 11 -5h10c-1 -5 4 -7 5 -10c9 0 22 2 22 -8c-7 -27 -3 -49 12 -64c-4 0 -5 -2 -5 -3v-9h-4c-5 -11 -5 -28 0 -40c-11 -21 37 -30 4 -45c0 -15 21 -20 23 -35c-3 0 -5 -1 -7 -3c29 -10 20 -54 30 -75c-10 -10 -3 -34 -5 -52
c29 -12 12 -44 30 -65v-7c-3 2 -5 -2 -6 -3c11 -5 6 -19 22 -24c6 -3 -4 -15 8 -15c-15 -26 3 -51 7 -78c-15 3 -10 -14 -15 -20c16 -5 20 -15 26 -29c-6 -16 10 -15 9 -30c13 -1 21 4 30 10c-14 35 26 40 13 76c13 3 22 16 42 11c1 -5 1 -8 5 -11h10c5 -19 -10 -19 -12 -31
c15 -5 20 -16 17 -33zM517 598h-21v-8c11 -5 13 8 21 8z" />
    <glyph glyph-name="N" unicode="N" 
d="M559 30c-3 0 -5 -1 -7 -3v-9c-15 -10 -41 2 -48 -18c-30 -7 -42 10 -69 12c-7 6 -12 22 -25 23c12 49 -17 76 -20 116c-14 8 -39 3 -34 27c7 8 24 6 22 23c-3 7 -8 2 -7 10v9c5 -2 7 3 9 6c0 4 1 7 -2 9h-10c2 3 -2 5 -3 7c-12 0 -10 28 -27 30c-5 3 -24 1 -19 15
c10 10 20 17 19 33c0 20 -22 24 -27 42c7 29 -25 29 -18 61c-5 1 -2 11 -4 18c4 -2 9 2 7 5c0 10 7 17 8 27c32 13 15 -32 37 -35v-10c-3 1 -5 -2 -7 -2c14 -5 2 -25 11 -34c1 4 -7 -6 -4 -11c2 -7 9 -4 12 -4c0 -11 12 -3 15 -10c3 -25 30 -32 25 -65
c24 -12 -13 -52 20 -55c5 -32 22 -63 52 -73c17 9 4 34 12 49c7 0 7 7 7 12v10c1 -2 3 0 5 2c-20 40 -14 115 -9 157c-10 56 4 121 -10 181h-1c0 2 10 7 1 12h-1c10 5 3 22 5 34c-2 5 -9 1 -5 8v10c10 -2 1 12 8 15c2 19 -15 22 -8 42c6 7 10 20 8 34c3 -2 7 3 7 5v10
c1 -2 3 1 5 3c-12 0 1 20 -12 20c2 15 27 9 30 22c10 -3 15 -13 22 -22c0 -23 22 -25 20 -50h3c-11 -5 -3 -22 -6 -34c13 -1 0 -20 13 -21c2 -9 -3 -9 -10 -12c-12 -25 -2 -59 3 -82h-6c1 -26 -2 -56 -2 -84h-3c-4 -20 -10 -51 5 -64c1 -3 -2 -10 3 -12
c-3 -15 -17 -38 -12 -63c7 -11 14 -27 7 -42c-3 0 -5 -2 -7 -4c12 -6 4 -27 7 -38c-3 -10 -24 -4 -15 -22l2 -3c-7 -24 30 -39 13 -69c-12 -2 -5 -15 -7 -24c12 -6 15 -16 22 -25c-18 -13 -18 -50 -13 -75c6 -7 17 -10 13 -24zM311 501c-7 -16 -32 -8 -45 -6
c-20 15 -9 52 -30 63v6c3 1 10 -2 11 3c9 25 -45 17 -18 42c-12 10 -32 5 -30 25c3 -2 8 3 6 5c5 13 -8 13 -11 18c-9 4 -14 -3 -16 -8v-15c-3 0 -5 -2 -6 -3c10 -19 5 -62 6 -88c-3 0 -5 -1 -6 -3v-8c-4 0 -7 -4 -5 -7c0 -3 -4 -10 1 -12h4c-19 -15 10 -22 0 -42
c-5 0 -7 -5 -5 -10c1 -13 22 -27 1 -38c-10 -31 7 -51 10 -76c-5 -2 -10 -3 -11 -7c3 -13 17 -21 11 -41h-3c-5 -9 -2 -22 -3 -34c-4 2 -7 -3 -5 -5c0 -5 -4 -10 1 -13c-3 -29 21 -41 19 -69h3c-8 -20 -8 -59 0 -79c-15 -20 -1 -70 -38 -76c-7 0 -15 4 -19 -3v-2
c-12 12 -33 19 -42 36v10c2 -2 4 0 5 1c-5 7 -6 12 -5 22c5 0 7 5 5 9c4 15 -10 15 -5 30c7 0 5 8 5 13c-5 10 9 9 10 15l9 77c11 2 3 17 6 26c2 -2 7 3 5 5c2 30 -26 50 -11 85h3c3 27 0 50 19 69c-5 10 -16 5 -22 7c-4 18 5 30 15 38c7 10 -9 10 -4 25c12 0 4 15 7 24
c-3 5 -8 2 -7 8v10c4 -1 6 2 7 4c5 21 -35 25 -12 47v28c2 -2 4 0 5 2c4 15 -13 15 -11 28c3 -1 5 0 6 2v10c5 -2 7 3 5 8c4 14 -11 16 -11 26c10 5 23 5 22 20c-21 10 -2 40 -16 52c4 10 9 23 24 27c18 -4 32 40 39 3c16 -3 40 -5 45 -22c-14 -50 37 -52 28 -102
c9 -14 22 -22 17 -39c-2 0 -3 -1 -5 -3c-3 -15 17 -9 19 -19c-12 -40 18 -48 20 -83c5 -2 3 -11 3 -16z" />
    <glyph glyph-name="O" unicode="O" 
d="M591 336c-12 -12 -10 -37 -10 -58c-4 2 -5 -2 -5 -3c-6 -14 -19 -23 -19 -43v-9h-4c-8 -24 2 -48 4 -68c-17 8 -7 -16 -19 -16c-16 -21 -31 -55 -47 -74c-12 0 -15 -10 -22 -15c-10 -12 -26 -28 -46 -24c-7 -7 -24 -12 -31 -19l-5 5c-2 -2 -4 -2 -4 -5h-8
c-4 12 -19 3 -29 5c-12 -3 -19 -17 -40 -12c0 3 -2 5 -3 7c-5 -8 -15 -7 -25 -6c-5 0 -11 0 -15 -1c-2 12 -17 3 -26 7c-8 5 -24 13 -36 15c-34 7 -36 48 -65 66c0 0 0 1 -1 1c-8 13 -20 30 -26 45c-14 17 -11 43 -28 58v0l-3 21c5 0 7 5 5 10c-10 17 -2 52 -17 67
c5 34 -12 76 0 103c-2 15 0 28 -1 40c0 8 -2 15 -6 22c8 3 8 15 8 24c4 0 6 2 7 3c5 12 -9 9 -8 19l1 40h4c-9 44 27 56 31 92c-7 30 38 26 22 62c12 2 12 14 21 19c10 22 27 31 46 40c10 3 7 20 15 22c35 -15 38 27 73 12c17 20 44 18 72 15c11 -1 22 -3 32 -3
c0 -5 5 -7 9 -5c41 -9 65 -45 99 -62c6 -2 9 -3 16 -3c3 -6 3 -13 3 -19c-1 -16 -5 -31 16 -35c-11 -22 17 -22 12 -43c-2 -30 29 -37 22 -73c9 -5 5 -26 16 -31c-2 -2 -12 -9 -4 -12h4c-12 -11 -6 -31 -7 -47c7 -5 10 -15 22 -15v-41c-5 1 -7 -4 -10 -5
c-5 -21 12 -35 10 -50c-7 0 -7 -5 -7 -9c0 -5 -2 -10 4 -14h3zM534 235c-8 23 -20 41 -24 65c2 2 4 4 5 4c-5 20 14 43 -5 55c-8 20 12 24 21 31c7 13 -9 20 -12 31c-16 27 15 39 12 58h-9c-5 3 -1 9 -3 12c-17 14 -4 45 -12 62c-7 5 -19 5 -22 14c1 0 3 3 6 1
c7 33 -37 41 -22 84c-27 0 -19 35 -46 31c-9 5 -12 14 -16 24c-17 4 -25 17 -43 19c-15 19 -29 -8 -49 0c-6 -27 -52 5 -52 -31c-32 12 -32 -19 -53 -24c-36 -7 -5 -65 -36 -74c-5 -18 -4 -41 -26 -44v-79h-5v-14c-14 -10 -5 -27 -15 -36c-4 -12 15 -12 12 -27
c0 -6 -2 -11 -7 -11c-9 -31 17 -44 3 -74h-3c-7 -25 13 -34 15 -53c-2 -1 -3 -3 -5 -1v0c-12 -28 26 -25 17 -47c2 -20 10 -29 16 -46c24 0 17 -23 30 -31c0 -22 42 -19 45 -41c55 -12 107 -2 163 -9v-3c5 15 23 15 24 34c4 5 17 -3 14 9c10 1 2 22 17 18v25
c12 22 38 29 41 56c5 5 11 16 24 12z" />
    <glyph glyph-name="P" unicode="P" 
d="M573 602c-3 -30 13 -83 -18 -96c-15 -22 -15 -50 -45 -60c3 -10 -5 -12 -12 -12c-17 -8 -15 -23 -37 -27c-6 -18 -29 -16 -48 -24c-33 -4 -60 -17 -98 -12v3c-10 5 -22 2 -33 4c-10 -5 -15 -17 -33 -12c-7 3 -7 17 -20 12c-2 5 -7 6 -12 6c-5 -1 -12 -2 -17 -1
c-1 -10 -15 -4 -23 -5c0 6 -8 5 -12 5c-13 6 -11 -9 -15 -15c-1 -14 12 -15 12 -30l12 -2c-5 -15 -17 -25 -20 -40c8 -10 8 -32 11 -45h-3c-2 -20 -10 -50 7 -63c10 -18 8 -48 8 -75c2 -2 3 -3 7 -2v-10c-4 2 -5 -1 -7 -3c0 -3 -2 -8 3 -12c5 2 2 -8 4 -11c-4 0 -5 -2 -7 -3
c12 -4 3 -20 7 -30c-10 -5 -7 -25 -15 -30v0c-17 -5 -38 -5 -55 -9v0l-3 -3c-12 0 3 22 -15 18c-2 19 -20 27 -17 49h-3c16 41 5 104 8 151c3 7 18 8 12 22c6 13 -10 34 -9 59h-3v9c5 0 7 5 7 10c-7 13 10 10 8 20v114c-12 4 -8 14 -8 24c5 13 15 38 3 55c-7 -2 -3 8 -3 11
h3v0c13 60 -5 130 15 183c-8 38 33 30 46 57c9 0 19 -4 25 3c27 -2 64 15 87 -3c13 6 33 6 45 18c26 -2 45 -23 75 -15c0 5 8 2 11 2v-2c9 -7 20 -3 30 -3c0 -5 5 -7 10 -7c35 7 14 -47 53 -35c22 -10 2 -55 42 -45c18 -18 28 -45 33 -70c-3 2 -8 -3 -6 -5
c-5 -13 8 -13 13 -18zM485 557l-2 20c-3 37 -12 62 -22 90c-18 3 -24 13 -38 22c-20 58 -86 10 -133 33c-15 -2 -21 -10 -35 -12c-5 -1 -10 0 -10 5c-31 7 -43 -11 -75 -5c-3 -10 2 -26 -8 -30c0 -13 2 -26 -3 -36h-4c9 -30 12 -64 10 -97h-3c10 -20 -20 -16 -8 -38
c6 0 11 -3 16 -7c2 -8 -1 -18 -8 -20c7 -10 21 -13 27 -25c3 -6 16 4 15 -8c23 -7 28 10 48 8c28 4 60 -6 83 10c55 -18 73 29 115 30c3 7 23 9 20 20c0 5 1 10 6 10c5 10 -1 25 9 30z" />
    <glyph glyph-name="Q" unicode="Q" 
d="M589 -89c-11 5 -9 -8 -9 -15v-9l-69 -7c2 14 2 31 -16 31h-12c5 21 -10 50 4 57c1 23 -33 16 -24 40c3 7 17 7 12 19c-21 12 -49 3 -73 7c-12 -38 -48 -11 -64 -42c-33 -8 -41 35 -77 19c-11 4 -16 21 -30 9v-2c-14 2 -22 18 -36 21v12c3 0 3 2 5 3c-3 11 -15 11 -21 19
h-15v32c19 -9 41 5 59 0c-4 -16 3 -32 15 -35h85c0 12 14 10 20 7c7 -12 26 -4 38 -7v-3c7 -6 19 -2 28 -2c-2 -4 2 -5 3 -7c11 7 26 12 32 24c-6 23 -14 45 -35 54c3 36 -41 7 -55 24c-14 -5 -12 12 -19 10c-5 17 26 14 12 35c-12 -6 -17 -19 -35 -14c-5 21 -3 50 11 60
c12 -3 43 7 48 -10v-12l29 -4c-19 -26 25 -17 25 -36c13 9 12 -2 22 -7v-8c-3 0 -5 -2 -7 -4v-10c-3 2 -5 -2 -7 -2c4 -15 17 -21 19 -38c12 7 21 23 31 31l4 31c12 2 3 16 7 24c6 12 8 30 24 35v10c10 12 3 42 19 52c-12 16 -14 41 -35 43c-5 28 34 26 24 57
c-4 16 -26 28 -24 47c7 5 21 -4 24 8c-7 16 2 35 -5 50l-3 28c3 0 5 2 7 3c-11 13 -7 35 -23 44c5 22 -15 26 -12 46c-7 11 -10 31 -31 28c9 21 -14 26 -22 31h-19c1 3 -2 9 -6 7c-17 0 -17 24 -34 24c0 3 -2 5 -4 7c0 -14 -18 0 -18 -12c-2 14 -25 19 -37 12
c-14 -16 -58 7 -57 -24c-24 -2 -36 -23 -62 -26v-5c-5 1 -10 -4 -8 -11c-6 -10 -16 -26 -7 -39c1 -2 3 -4 7 -4c0 -24 -44 -3 -44 -31v-9c-3 0 -5 -1 -7 -3v-10c-3 0 -6 1 -8 -2v-10c-5 -13 -17 -37 -4 -52c6 -2 2 -14 4 -19h-7c-5 -17 15 -64 -19 -62c-2 -9 5 -12 7 -19h3
c-5 -2 -7 -11 -7 -19c21 3 26 -18 31 -28c-13 0 -18 -21 -24 -31c2 -3 6 -3 9 -3c-2 -14 -29 -28 -5 -40c14 0 12 -10 12 -23c-4 2 -9 -3 -7 -5c0 -5 0 -14 7 -14c8 -1 19 -12 34 -8v-12c-10 17 -17 -5 -26 -11c-3 -19 25 -36 -3 -46l-2 -2c7 -7 9 -17 21 -19v-15
c-16 -4 -22 1 -31 12c2 19 -5 29 -12 43v10c3 -2 7 2 7 5c-4 23 -38 11 -26 43c5 2 12 -1 15 4c6 12 -6 14 -15 12c-10 -3 -10 9 -16 10c14 21 -10 40 -5 68c-27 7 -2 31 -10 50c12 1 3 17 7 26c3 -2 3 0 5 1c2 18 -26 23 -12 45c8 2 17 7 22 12c-1 4 2 11 -3 12h-4v9
c12 0 2 14 11 19c8 26 -21 72 12 85c-2 5 2 12 -4 15c-10 9 6 14 7 21c12 10 24 15 24 38c21 14 23 41 35 62c9 2 22 -5 24 7v8c4 0 5 2 7 4c-3 12 7 15 12 21c10 10 36 6 47 15v10c12 -3 15 6 22 9h95c10 -21 36 -21 60 -28v-3c9 -5 23 -2 33 -3v-9c-5 0 -7 -5 -5 -9
c0 -5 -2 -13 5 -13c5 1 11 -2 14 3v3c16 -3 28 -15 43 -24c-10 -22 24 -10 12 -34c40 -11 15 -67 35 -90l12 -14c-4 2 -5 -2 -7 -2c22 -20 -19 -36 3 -60c4 -5 4 -21 13 -24c-33 -21 -2 -55 -2 -86h2c-19 -23 0 -56 -9 -85h-4c-13 -29 18 -53 -3 -74c2 -19 -16 -21 -9 -42
c-7 -12 -10 -26 -24 -36v-10c-8 -14 -17 -28 -26 -43c-20 -4 4 -38 -20 -37c-7 -5 -4 -13 -4 -19c16 -27 42 -36 59 -62c5 -19 52 -24 34 -46c-7 -21 12 -21 6 -42z" />
    <glyph glyph-name="R" unicode="R" 
d="M576 573c-21 -15 -14 -65 -46 -72c-28 -13 24 -38 -18 -40c-7 -5 -10 -12 -9 -20c-3 -2 -7 -4 -10 -7c-18 -13 -34 -31 -45 -45c2 -19 25 -27 22 -50c18 -7 13 -31 27 -44c18 -12 12 -42 30 -54c5 -30 -5 -68 23 -82c2 -24 17 -49 23 -73c3 -11 4 -22 1 -32
c-3 -8 -8 -16 -17 -24c0 -25 -22 -15 -38 -18c0 3 -2 5 -4 6v0c-13 -1 -13 14 -22 21c14 6 10 21 4 33c-22 -3 -17 18 -30 25c3 29 -5 45 -15 66c11 13 3 38 6 57c-5 6 -18 6 -13 18c3 0 5 2 7 3c0 22 -24 29 -27 49c-15 20 -35 33 -30 65h-16c2 4 -3 9 -6 7
c-7 2 -14 -3 -15 -8v-4c-10 17 -32 19 -42 35c-4 0 -10 4 -12 -1l-42 -7v-3h-10c2 3 -2 5 -3 6h-9v4c-11 5 -26 1 -38 1c-24 -6 -24 -33 -44 -41c7 -9 0 -21 15 -21v-10c-1 2 -3 -1 -5 -3c17 -12 -15 -35 9 -47c-4 -5 -4 -13 -4 -18c-1 0 -3 -2 -5 -4c10 -16 7 -38 5 -60
c-5 0 -6 -5 -5 -8c14 -22 -1 -39 4 -61c13 -23 -4 -57 1 -82c-8 -12 -15 -23 -35 -18l-12 -12c-16 12 -25 22 -45 30c-2 4 2 10 -3 12h-4c12 7 2 28 9 40c12 0 5 15 7 24c3 0 5 1 6 3c0 18 -28 35 -6 50v19h3c3 10 3 25 0 33h-3c3 22 30 40 11 67c2 54 -15 82 4 133
c-5 3 -7 7 -8 11c-6 21 15 51 -14 61c-2 13 18 15 15 30v38c10 15 6 34 3 52l-3 27c5 14 17 37 3 52c-5 0 -1 10 -3 15c10 3 10 17 10 27c10 3 3 18 5 27c12 1 5 15 10 22c25 3 55 0 64 26c20 5 13 -21 35 -11c0 -5 5 -7 10 -7c12 12 37 3 57 7c2 -12 15 -4 23 -7
c19 2 44 25 57 3c5 -5 15 -1 22 -3c10 -8 29 -8 42 -8c25 -12 44 -39 70 -49c-1 -20 11 -30 24 -39c25 2 0 -33 22 -36c11 -7 -2 -29 11 -37c0 -15 11 -25 16 -39zM488 543c18 36 -23 47 -6 82c-7 12 -24 15 -19 35h-8c-17 2 -19 24 -34 25c-3 -1 -8 2 -6 5
c-20 -6 -17 14 -31 19c-10 0 -15 0 -20 -7c-1 2 -5 4 -3 7c-8 0 -17 0 -18 7c-15 3 -19 -7 -34 -7c-2 -2 -7 3 -5 7l-42 1v4l-58 3c-14 -13 -11 -43 -24 -54c-8 -6 3 -21 -8 -21v-76h8c7 0 7 -8 7 -12c0 -3 -4 -8 -7 -6c-2 -7 -8 -27 -3 -24c0 -8 3 -22 -5 -25
c11 -8 0 -33 8 -47h8c2 -1 5 -3 4 -7c17 -3 45 11 48 -11c7 3 7 17 19 11c7 0 5 -8 8 -11c19 -9 12 17 30 11c2 -1 4 -3 4 -6h8c3 1 8 -2 7 -5c18 -12 20 8 33 11c14 6 14 -8 20 -11c31 -2 49 22 64 42c17 -2 22 13 34 18c3 13 -14 5 -19 12c7 18 31 12 40 30z" />
    <glyph glyph-name="S" unicode="S" 
d="M591 255c-5 -2 -5 -13 -15 -10c0 3 -2 5 -3 7c-15 -4 -20 -27 -22 -34c3 -15 10 -46 -12 -50c-6 -23 4 -60 -20 -70c-1 -8 -10 -20 -15 -26c-43 6 -41 -35 -81 -34c-29 -16 -74 -18 -109 -30c-3 -11 -27 -15 -38 -8c0 30 -35 15 -52 23c-10 10 -27 7 -35 19
c-37 11 -48 48 -82 60c5 20 -18 11 -26 18c13 27 -14 43 -12 65c-13 10 -15 27 -10 45c27 -5 13 30 42 22c-14 -22 28 -32 21 -60c7 -15 22 -5 24 -19c3 -11 5 -30 18 -33c42 -2 57 -33 87 -50c38 7 100 -12 123 20c37 -12 32 27 57 30v7c12 10 27 15 33 30
c-5 15 17 13 10 30c25 6 5 36 12 60c-23 11 -20 46 -42 56c-26 2 -20 55 -60 37v3c-31 -8 -33 27 -63 15c-20 4 -24 27 -49 17c-3 17 -28 5 -26 25h-30c-10 17 -44 2 -49 23c-21 5 -31 24 -38 42c-5 42 -53 45 -52 90c7 27 -1 63 19 78c1 10 10 22 11 34c4 0 5 1 7 3
c2 15 20 20 17 38c3 0 5 2 6 4v8c29 2 35 32 69 25l18 20c28 -8 45 15 70 15c27 -5 70 13 84 -15c16 -8 40 -13 38 -42c5 -5 13 -1 18 -3c5 3 2 8 10 7c9 -7 25 -9 39 -12c-7 -37 36 -38 26 -70c25 -12 14 -43 34 -60c-2 -25 5 -50 -15 -65h-12c-12 12 -43 0 -48 20
c-9 17 -7 33 -24 40v15c2 -2 4 2 5 3c-6 39 -33 59 -56 84h-9v3l-43 3v2c-40 8 -105 15 -129 -17c-11 2 -20 -5 -30 -6c-6 -10 -11 -29 -18 -39c-5 -6 -15 -11 -12 -25c2 -1 4 -3 7 -3c-12 -7 -22 -23 -22 -35h9c0 -3 1 -5 3 -7h10c-7 -5 -8 -16 -7 -26c32 1 14 -39 27 -54
c25 -11 58 10 67 -18c18 -3 38 -7 56 -10c-1 -2 2 -3 4 -5h8c0 -3 2 -5 3 -7h9c0 -3 1 -5 3 -5c7 10 25 4 37 5c20 -18 42 -51 80 -48c8 -17 35 -7 43 -27c7 -6 22 4 30 -8v-10c-3 2 -5 -2 -6 -2c11 -15 33 -20 33 -43l8 -15c-3 2 -5 -2 -5 -2c7 -11 7 -36 24 -43
c1 2 3 3 3 7h5c-2 -5 3 -9 7 -12h3zM101 263c-2 -5 -9 -1 -12 -3v13z" />
    <glyph glyph-name="T" unicode="T" 
d="M559 713c-4 -1 -7 -3 -11 -5c-8 -5 -16 -11 -31 -7c-13 -15 -18 -41 -48 -33c-1 33 -46 20 -59 45c-17 3 -25 -5 -35 -15c-5 -10 -7 -20 -7 -33c-3 1 -5 -2 -5 -2c2 -8 7 -8 5 -18c-7 0 -5 -9 -5 -12c0 -5 -3 -10 2 -13h3c-7 -2 -5 -13 -5 -20l17 -12
c-5 -8 -12 -23 -17 -29v-19c-3 0 -5 -1 -7 -3c-1 -8 4 -13 9 -15c-4 -20 36 -45 0 -53c-12 -27 11 -38 3 -66c-7 0 -5 -9 -5 -12v-10c-11 -1 -5 -15 -7 -23c14 0 -1 -18 12 -18l-5 -5c7 -9 17 -27 8 -40c-1 -8 -25 -7 -11 -20c22 -20 -35 -48 3 -73c0 -3 -3 -8 2 -11h3
c-7 -2 -5 -14 -5 -20c0 -2 2 -5 5 -4v-10h-3c-12 -36 25 -58 3 -94c-3 2 -7 -3 -5 -7v-8c-3 2 -8 -3 -7 -7c0 -3 -1 -10 4 -11h3v-8c-8 -2 -18 1 -25 -4c2 -11 -5 -16 -15 -18c-25 6 -75 -13 -73 24c0 3 1 8 2 12c-10 4 -3 27 -18 27c35 12 20 70 25 101c1 0 3 2 5 3
c-2 29 -22 62 -5 93c10 0 15 8 20 17v0c0 21 -14 30 -9 51h4c3 17 6 45 -4 56v10h4c11 39 -12 60 -4 102c4 -2 5 3 9 4c-1 3 -1 6 -1 9c-2 58 16 118 -8 166c-12 4 0 28 -14 32c-1 0 -2 1 -4 1c-7 -2 -16 1 -21 -4v-3h-9v3c-23 9 -46 -3 -66 -3c-2 12 -15 3 -23 7
c-2 11 -17 0 -22 8l-20 23h4c3 18 1 35 16 43c40 -18 58 47 81 2l183 -2c6 -5 6 -18 20 -13c0 -7 8 -5 13 -5c3 0 8 -3 11 3l34 2v-2c6 -6 19 -3 29 -3c5 22 37 8 57 12c8 -17 18 -27 18 -48c2 -2 8 -10 2 -15z" />
    <glyph glyph-name="U" unicode="U" 
d="M558 721c-8 -3 -12 -7 -14 -11c-8 -18 19 -44 -5 -62c19 -42 -38 -56 0 -84c-1 -10 -17 -12 -12 -26c21 0 16 -26 12 -36c-3 0 -5 -2 -7 -4c-3 -15 13 -12 7 -28c-14 6 -10 -10 -15 -15c-4 -30 40 -48 7 -66c-7 -4 -4 -9 -4 -13c2 -7 9 -3 12 -3v-23c-3 2 -8 -3 -7 -5
v-10h-1c-20 -42 18 -56 21 -91c1 -23 -14 -28 -13 -51c-3 2 -5 -1 -7 -3c4 -11 9 -14 7 -28c-24 -5 -5 -37 -15 -52c-6 0 -11 -2 -9 -7v-9c-5 -2 -11 2 -14 -3c-10 -6 -45 -4 -37 -32c-5 -5 -17 -3 -19 -10c4 -26 -40 -9 -35 -37c-19 -3 -45 -3 -59 -12c0 12 -14 0 -19 9
c-14 1 -14 -16 -31 -9c1 2 -2 3 -4 5c-10 -2 -14 -8 -28 -5c-10 9 -29 9 -43 12c5 12 -9 14 -16 12h-9c-8 11 -36 2 -26 28c-22 19 -50 23 -52 58c-17 -4 -9 15 -19 17v58c5 -2 7 3 5 8c3 9 -2 14 -9 16h-7v12c4 0 6 2 7 4c-7 31 -14 71 -7 106c4 -2 9 4 7 7
c-12 16 -3 31 -7 54c9 0 11 9 11 16c-2 3 -7 1 -11 1c-5 14 9 16 14 23l2 4c-7 22 -12 55 -5 83c7 18 -19 12 -11 30c4 -2 6 0 7 2c-21 15 14 20 4 41c5 -1 7 4 5 9c5 14 -10 12 -9 26l4 127h3v0c7 14 -7 42 12 46c27 1 47 -4 63 -16c19 -21 -12 -37 4 -61
c-2 -10 15 -33 -4 -40c-7 -11 -14 -30 -7 -44c4 -10 4 -17 12 -22c-10 -4 -19 -18 -15 -32c-2 2 -7 -3 -6 -5c7 -14 13 -36 6 -54h-2c-7 -10 -4 -24 -4 -38c-3 0 -8 2 -10 -2c5 -14 9 -24 16 -35v0c-2 -12 -21 -14 -16 -31c-3 -18 17 -14 10 -31c16 -4 18 -16 21 -27
c-17 7 -10 -15 -21 -17c0 -5 -3 -10 4 -14c9 -7 -4 -12 -7 -21c5 -21 7 -47 -7 -59c-10 -63 45 -82 45 -139c4 -6 14 -11 25 -9c-2 -4 1 -5 3 -7h9v-2c9 -7 19 -3 28 -3c2 -13 19 -2 26 -11c31 4 85 -9 99 23c14 9 46 -7 46 19c6 19 22 33 17 59c16 -2 14 16 14 25
c-2 5 2 10 -4 14c9 34 -31 64 -3 95v16c3 0 5 2 7 4c-4 12 -19 13 -14 31h3c6 12 2 28 4 42c3 -2 5 0 7 1c-12 7 -5 27 -7 39h3c2 24 13 68 -10 82c23 3 9 34 14 52c-18 12 -14 26 -14 47c23 3 9 31 14 47c-6 3 -8 9 -8 15c1 7 2 14 1 20c9 16 23 33 9 50c10 16 29 21 45 32
c-2 -12 12 -2 16 -9c20 -11 21 -42 27 -63z" />
    <glyph glyph-name="V" unicode="V" 
d="M457 667h-23v9c14 2 16 -4 23 -9zM581 741c-14 -7 -9 -22 -22 -27c5 -16 19 -23 13 -45c-24 -3 -6 -36 -15 -52c-16 5 -16 -8 -23 -12c0 -17 4 -39 -15 -45c-9 6 -9 -5 -12 -8c-19 -33 50 -45 0 -59c2 -12 -21 -27 -4 -41c0 -4 13 -14 4 -21c-7 -5 -7 -21 -7 -31
c2 -2 3 -3 7 -3c-9 -13 -7 -31 -26 -38v-62c-3 1 -5 -4 -9 -6v-15c-5 0 -6 -5 -6 -10v-9c-9 -14 -6 -35 -25 -43c0 -12 11 -12 7 -26c-27 -22 -8 -71 -41 -93c3 -17 7 -35 10 -48c-7 0 -8 -6 -7 -11v-8c-10 -4 -19 -12 -19 -26h-12v3c-22 4 -55 11 -70 -5
c-21 -2 -19 14 -31 21c5 5 1 15 1 22c-19 -2 -17 24 -20 28c10 3 3 13 5 22c-11 4 -24 9 -17 24c3 -1 5 4 8 7c-2 4 -7 2 -8 2c-9 48 -28 84 -38 131c-6 10 -18 15 -12 34c-13 16 -28 28 -26 50c12 0 5 16 7 25c-7 13 -12 27 -16 43c14 31 -24 44 -9 62
c-12 31 -27 67 -34 103c2 26 -22 40 -16 71l-31 24c16 5 9 28 6 38c-18 12 -18 46 -12 69c8 7 22 10 34 12c-2 -4 2 -5 3 -7c4 2 11 -2 13 3v4c13 -4 18 -19 27 -28c-24 -24 17 -24 23 -41h8c2 -9 -14 -21 -21 -28c18 -17 9 -46 25 -65c-4 -7 -14 -10 -9 -21
c5 -7 14 -15 24 -15c2 -12 -9 -16 -19 -23c26 -5 26 -41 50 -50c7 -8 4 -26 -8 -24c-6 -15 -9 -43 1 -53c14 7 12 -11 19 -9c2 -31 23 -59 19 -97c19 -37 12 -91 31 -131h7v-15h-7c-8 -12 0 -31 12 -33c-7 -5 -22 -15 -12 -29c21 5 14 -23 31 -21c-1 -12 12 -12 16 -19
c17 -3 22 5 31 16c7 26 -16 55 7 74c-18 0 -9 26 -7 34l22 12c-3 6 -8 2 -7 11v8c5 0 7 6 7 9c5 14 -8 14 -14 19h-8c-7 21 14 22 24 31c-14 28 12 38 15 59h4c3 17 7 44 -4 57c21 1 25 17 23 36c-2 5 -9 1 -7 7c9 17 22 32 15 55c16 2 7 19 11 29c-2 0 -4 4 -7 2
c0 7 7 14 12 14c5 7 5 20 -2 27h-3c3 12 29 0 24 21c12 10 2 40 19 46v30c3 -2 5 0 7 1c2 21 -23 13 -23 32c2 3 25 6 23 22c7 14 7 38 12 53c7 7 24 -3 27 9c18 3 21 -5 35 -9c7 -15 22 -29 12 -50z" />
    <glyph glyph-name="W" unicode="W" 
d="M602 606c-21 -2 -26 -21 -38 -31c7 -15 -7 -41 0 -69c2 -5 9 -1 7 -8c-2 -14 -21 -22 -26 -34c-1 -19 -36 -42 -5 -59c0 -15 -22 -34 0 -43v-26c-7 4 -8 -3 -14 -5c12 -25 -1 -20 -5 -41c-3 -5 -8 -14 -7 -24c12 -2 4 -17 7 -26c-8 -5 -24 -10 -19 -27c2 -4 7 -4 9 -4
v-20c-10 -4 -26 5 -33 -7c4 -24 9 -45 18 -65h-2c-17 -26 5 -57 -7 -86c-12 0 -2 -12 -9 -16c-20 0 -31 -10 -46 -15c-2 34 -50 -5 -46 34c-7 7 -12 7 -11 19c7 -3 12 2 11 9v8c5 0 7 6 5 11c8 31 -36 25 -35 51c11 7 33 -2 30 19c5 16 -16 14 -16 22c0 7 19 -1 16 12
c-14 2 -17 12 -26 19c12 12 50 -3 31 31c-2 -2 -4 -3 -4 -7c-8 -5 -6 16 -8 11c12 8 -10 5 -4 17c21 -2 31 26 47 7c-5 -24 8 -31 12 -50h46c4 20 5 50 -8 65h-7c5 7 3 19 3 28c5 0 7 5 7 10c-2 3 2 8 -3 12h-4c7 2 7 14 7 20h3c2 19 7 37 6 57c12 0 1 16 10 21v34
c2 0 3 2 5 4v8h3l7 69h2c7 15 0 34 19 39c-7 11 -16 23 -12 35c3 0 5 1 7 3c-24 17 -9 26 -4 46c5 4 2 11 4 16l-4 3s21 23 0 28h-3c-2 13 22 15 15 34c16 5 23 19 35 31c34 -3 22 -46 34 -69c-26 -15 -10 -56 -10 -80c0 -9 13 -9 10 -21zM422 364c1 -17 -29 -29 -9 -46
c-19 -9 -24 -24 -26 -47c-15 4 -15 21 -27 26c5 12 -12 15 -16 19c2 29 -1 69 -8 94c3 0 7 0 8 4c0 3 2 10 -3 12h-5c-4 10 -4 26 8 29c7 -2 18 0 12 9c0 3 4 10 -1 12c-14 6 -28 15 -45 18c-8 -12 -14 -24 -12 -42c7 -4 14 -18 7 -26c-3 1 -5 -2 -7 -2c2 -10 10 -7 16 -14
c6 5 1 14 6 19h9c12 -27 -21 -14 -24 -31c-9 -8 -38 -15 -22 -39c1 -2 3 -4 7 -4c5 -12 -12 -10 -11 -19c-20 -10 -10 -42 -15 -65c-2 2 -4 -1 -5 -1c0 -6 -4 -11 3 -14h2c-11 -7 -7 -31 -2 -43h5l-3 -21h-2c-2 -17 -15 -53 12 -56v-21c-7 -3 -19 5 -19 -7
c2 -12 -7 -15 -12 -22c7 -10 10 -28 12 -43c-14 -4 -29 -9 -31 -21v-10l-62 3c0 23 -30 18 -15 43c3 0 5 2 7 4c-9 20 -9 51 -34 55c-6 7 -6 13 -16 13v6h5c0 -4 0 -7 4 -9c10 19 19 34 15 62c-20 3 -14 24 -15 43c3 0 5 1 7 3c-14 5 -2 16 0 24l15 12c-12 14 -10 33 -26 45
c0 3 4 8 -1 12h-4c4 3 14 14 5 20c0 33 -31 43 -24 81c17 10 7 38 9 57c-17 12 -5 32 -16 48c16 12 9 34 4 50c3 25 -19 41 -9 68c-27 14 2 62 -26 74v12h4c5 9 2 21 3 31c9 14 12 31 31 31c4 -15 29 -7 38 -21c15 -10 5 -31 9 -49c-4 0 -6 -2 -7 -4c12 -15 10 -46 10 -65
c12 -5 -3 -34 21 -34c0 -11 -21 -21 -9 -31h9c5 -21 -30 -50 0 -67c-9 -23 31 -31 3 -47c-5 -15 7 -18 16 -25c-13 -2 -2 -18 -9 -24c14 -23 -19 -59 15 -66c-10 -5 -5 -22 -6 -34c-4 2 -6 -2 -6 -2c0 -17 23 -20 16 -44c8 -12 26 5 32 10c0 3 4 10 -1 12h-4v9
c11 8 -8 18 -7 34c-5 2 -1 10 -3 15c9 9 29 7 26 28c1 10 12 22 8 38c4 0 5 1 7 3c-20 14 24 21 9 46c10 7 5 24 19 31c1 7 -4 12 -7 19h-2c3 12 17 10 24 24l-3 23c12 10 25 -11 37 5c-12 0 -13 15 -27 10c5 14 -10 12 -15 17c10 4 3 19 5 29c-2 0 -4 4 -5 2
c-2 22 32 14 20 38c2 15 -15 46 4 55c-2 7 1 13 -4 19h-3c8 19 29 22 53 25c8 -13 21 -22 22 -41l2 -27c-10 -2 -3 -16 -5 -24c10 0 2 -19 12 -19c-7 -4 -2 -19 -12 -23c5 -12 12 -20 19 -36c1 -3 -26 -15 -7 -22c-4 0 -5 -2 -7 -3c2 -4 -2 -11 3 -12h4
c5 -14 -23 -11 -12 -28c17 -2 29 -8 36 -19c-2 -13 2 -27 10 -34c-7 -12 -14 -34 -7 -52c17 0 2 -20 16 -22v-8c-4 0 -5 -2 -5 -4v-10c-16 3 -9 -17 -19 -17c12 -2 15 -9 24 -14z" />
    <glyph glyph-name="X" unicode="X" 
d="M570 59c-12 -24 45 -56 -7 -54c-1 -12 -17 -3 -24 -5c-3 9 -9 12 -16 16c4 3 13 24 -3 24c-19 -7 -24 10 -31 19c0 10 22 2 15 19c-36 14 -20 57 -58 71c-4 22 -32 31 -39 40c4 8 4 22 13 26c-11 17 -45 17 -40 46c10 2 3 16 5 25c-24 14 -14 53 -43 62
c-14 0 -40 5 -40 -16v-27c-12 0 -4 -12 -11 -16c-8 -5 -19 -12 -15 -28c2 -1 3 -3 7 -3v-9c-5 0 -7 -5 -7 -10c7 -14 -14 -9 -16 -19c5 -2 -5 7 -12 3c-15 -15 7 -43 -19 -50l-21 -8v-23c-17 7 -12 -16 -22 -17l-4 -26c-5 0 -12 3 -15 -4c-2 -5 -18 -12 -21 -21
c0 -12 10 -12 5 -26c-14 -17 -29 -24 -48 -32c-19 1 -21 24 -38 31v24c5 9 13 16 19 24c29 31 62 61 65 113c21 2 25 21 37 31l3 26c7 9 12 19 23 28c31 5 -12 48 24 50c9 0 21 9 19 21c-2 1 -3 3 -7 3c-7 33 38 0 38 28c19 -5 2 21 19 19c-1 2 -3 3 -7 3l12 21
c-19 5 -5 30 -24 31c-19 23 -40 30 -53 61h-9c-16 14 -14 38 -31 48c-7 19 -12 40 -28 51c17 67 -57 69 -45 128c-16 1 -17 14 -16 27c7 2 21 4 16 16c33 5 48 -5 73 -19v-9c-4 0 -6 -1 -7 -3c10 -31 41 -43 53 -75h6c12 -10 12 -24 22 -34c-10 -23 33 -19 9 -37
c10 -15 5 -45 15 -60c-1 2 -3 -2 -5 -2c2 -17 19 -28 21 -45c9 -2 16 -9 26 -5c3 22 43 15 31 50c9 23 50 16 40 52c28 9 5 43 35 47c-1 4 -1 7 -1 10c0 11 3 18 13 24c10 -3 8 9 12 12c-4 13 -26 0 -17 20c15 12 50 10 43 43c15 14 52 28 78 12c19 -14 -14 -33 -11 -59
c-5 -16 -33 -10 -31 -35c-10 -3 -2 -24 -9 -32c-8 -7 -6 -23 -19 -26c-6 -16 4 -47 -20 -47c-18 3 -28 -16 -31 -28v-7c-20 2 -6 -19 -14 -28v-8c-2 0 -4 -2 -6 -4c2 -27 -36 -17 -34 -46c-12 -7 -28 -11 -35 -23c26 -10 30 -40 50 -55c-12 -26 26 -14 13 -40
c19 -9 15 -38 38 -42c0 -20 19 -19 19 -36l15 -14c-10 -9 -8 -22 -3 -36c7 -2 12 -11 19 -16c8 -26 15 -57 36 -73c2 -17 -5 -43 7 -55c12 5 12 -9 19 -12z" />
    <glyph glyph-name="Y" unicode="Y" 
d="M576 785c-10 -21 22 -61 -15 -65c5 -22 -19 -17 -16 -39c-10 0 -11 -12 -17 -18c4 -26 -30 -29 -30 -53c-9 -2 -24 -3 -19 -17c-1 -15 -20 -18 -12 -37c-1 -31 -45 -20 -40 -54c-5 -5 -14 -16 -12 -26c-4 2 -5 -1 -7 -3c7 -15 -12 -5 -12 -15c-5 -14 -13 -22 -27 -27
l4 -67h3c-12 -3 -5 -18 -7 -28c0 -16 26 -38 4 -48c-14 -29 22 -30 18 -56c-7 -12 -15 -22 -15 -39c8 -10 19 -17 24 -27c-7 -12 -12 -22 -19 -34v-15c-3 0 -5 -2 -5 -3c5 -22 34 -48 5 -68c-2 -22 -19 -34 -34 -46h-24c-1 12 -17 5 -23 7l-4 -4c7 11 -13 19 -12 34
c0 31 -13 53 -13 85h-5c-7 22 27 20 15 46h3c4 63 7 129 -3 183h5c14 35 -10 57 -15 86c-34 10 -32 51 -58 73c-27 7 -8 53 -39 54c10 22 -18 22 -10 44c-10 12 -29 11 -30 31c-29 12 -17 47 -33 69c-13 -1 -15 4 -22 9c4 7 9 15 7 25c-15 4 -5 24 -15 27c7 11 8 23 20 31
c20 -5 56 14 61 -15h10c7 -12 34 -4 33 -24c-4 -7 -9 -17 -9 -29c22 -15 34 -37 39 -63c15 7 9 -15 19 -15c-2 -37 39 -47 37 -83c22 -17 12 -56 36 -73c13 -3 15 7 22 16c-7 11 10 10 8 18c19 5 14 24 31 32c-9 26 17 19 18 38c19 -2 9 18 15 27c-3 12 14 15 11 27
c1 0 3 2 5 3c7 19 13 43 37 49c0 23 29 29 20 58c-5 5 -13 3 -20 3c2 6 -5 7 -7 9c0 14 19 0 19 14c29 -19 58 5 88 5c2 -4 -2 -11 3 -12h9z" />
    <glyph glyph-name="Z" unicode="Z" 
d="M549 80c5 -18 2 -42 -10 -52v-16c-39 -7 -59 -17 -90 5c-4 0 -9 2 -9 -1v-7c-14 8 -28 -6 -35 -9v2c-19 7 -43 0 -62 7c-2 5 2 12 -4 15c-3 0 -5 -1 -7 -3v-9c-10 -3 -6 19 -20 12c-5 16 -26 12 -38 4v-4c-7 4 -14 7 -16 19l-9 -10c-20 -4 -12 21 -31 15
c-7 -3 -7 -17 -19 -12l-3 -24c-19 -5 -19 36 -37 12c-15 2 -39 23 -53 7v9c3 0 5 2 7 3c0 4 -2 4 -4 5h-10c5 20 12 37 22 47c5 35 28 49 28 82h10c0 -4 -3 -11 2 -12c4 0 5 1 7 3v9c3 0 5 1 7 3c-2 5 -9 0 -7 7v9c14 12 24 20 24 43h7c7 28 -3 66 31 73v15c4 -1 6 0 7 2
c5 16 12 28 18 45c8 7 36 7 26 31c3 -2 3 0 5 2c-2 2 -2 5 -5 3c12 14 26 30 24 54c41 -9 12 35 26 55c5 0 7 6 5 11v9c12 5 26 19 31 31c2 15 38 5 23 27c-6 2 -4 11 -4 16c12 7 26 21 16 38l-4 4c4 13 18 5 26 12c-8 34 31 27 28 59c-76 20 -159 0 -241 6
c-19 16 -53 6 -81 9c2 4 -2 5 -2 7c-12 -3 -15 9 -22 16c3 -2 5 0 7 1c-4 16 19 11 15 30h24c-1 -4 2 -5 4 -7c14 15 17 7 34 3c9 2 6 -19 16 -7c23 -5 47 25 64 0l7 -20c2 8 7 12 12 17c16 9 37 10 50 19c-1 -3 2 -5 4 -5h9v-4c10 -5 26 -5 34 0c24 6 59 2 87 4
c0 -7 8 -7 14 -7c13 0 17 10 33 7c3 -28 12 -63 -9 -78c-9 -42 -47 -52 -40 -101c-21 -19 -40 -46 -31 -86c-38 -17 -28 -62 -61 -82c2 -34 -36 -31 -36 -62c-11 -12 -19 -22 -28 -34c-7 -14 -14 -25 -19 -40c-10 -14 -22 -28 -22 -51c-21 -15 -21 -50 -47 -58l-5 -47
c-4 0 -6 -2 -7 -4c0 -13 -18 -17 -19 -31v-34c-4 0 -6 -2 -6 -4c16 -15 37 5 56 -5c3 -16 7 5 15 2l28 -2c0 -7 5 -7 11 -7h8c-1 -3 2 -5 4 -7c14 -3 12 12 27 7c-1 -3 2 -5 4 -7c12 -3 5 12 12 16h194zM426 589c-10 -19 9 -56 -16 -59l-12 -16c2 -1 4 33 26 33
c2 16 -12 16 -7 31zM395 500c-11 6 -7 -5 -16 -5c-1 -27 -19 -38 -24 -59h3c13 21 25 44 37 64z" />
    <glyph glyph-name="bracketleft" unicode="[" 
d="M457 770c-2 1 -6 -3 -5 -5c2 -3 -1 -7 3 -9c-1 -7 -5 -23 -16 -32c-5 1 -6 -2 -10 -5c-63 -18 -68 18 -110 -6c-1 2 -2 4 -3 4l2 -88h4c6 -11 -10 -10 -9 -18c-11 -1 -5 -15 -6 -23c6 -3 10 -11 8 -21l-15 -8c-1 -66 -11 -133 10 -189l3 -43c-21 3 -9 -25 -21 -31l15 -25
c-5 -10 -15 -15 -15 -29c-5 -15 16 -12 8 -30c30 -5 -19 -54 2 -62c0 -4 -3 -10 4 -12h1c-6 -13 -10 -36 -8 -51c-10 -5 19 -21 5 -23c-25 -8 3 -54 -35 -49c7 -15 -13 -10 -15 -15c-16 38 -74 38 -57 94c-10 3 -4 18 -5 26c11 0 1 13 8 18v41c3 0 5 2 7 3c-2 4 1 10 -4 12
h-3c2 13 23 16 15 36h3c13 33 -11 51 -3 85c-23 14 -18 40 -15 66c25 7 12 38 15 59c-3 5 -10 2 -15 5c8 12 10 28 10 45c2 -2 6 3 5 6c0 3 3 10 -3 12l-2 39c10 0 3 15 5 23c-20 21 1 66 -15 86c12 34 3 69 7 110c28 9 36 47 77 29l5 -4c16 0 25 7 43 8c51 3 2 -13 54 -2
c4 4 8 5 15 5c2 -10 16 -1 22 -7c51 -54 9 6 16 7c4 -6 6 -11 13 -11c-4 -12 10 -10 5 -21zM431 45c-1 -6 -6 -8 -8 -12c7 -3 7 -13 6 -20c-21 -9 -56 -12 -84 -11v2c-6 2 -19 4 -23 -2c-10 3 -13 14 -19 19c-3 16 -18 34 -7 43c19 2 63 -6 70 -1h21v-2c20 1 32 -6 44 -16z
" />
    <glyph glyph-name="backslash" unicode="\" 
d="M488 58c-30 -2 -34 -22 -33 -33c0 -9 2 -17 4 -25c-1 0 -4 2 -7 3c-15 4 -29 9 -45 8l-1 2c-4 3 -7 6 -10 9c-4 4 -10 8 -17 11c3 14 -8 26 -16 31c-4 3 -8 5 -12 8c4 8 5 18 6 28v17c1 5 2 7 9 15c-13 19 -25 26 -45 35c3 7 3 13 1 20l-16 11c3 -1 5 -1 7 -1l-2 1
c-4 9 -5 20 0 31c-3 9 -5 18 -14 24l-20 72c-17 15 -17 23 -16 37c0 8 1 17 0 27c0 11 -4 22 -11 34c-3 7 -8 11 -14 14h-1l-1 7c-4 -2 -14 -5 -5 -16c3 1 5 3 7 6s4 7 4 14c-2 4 -2 5 -2 6c0 3 0 6 -1 8c-1 6 -3 13 -10 18c4 12 1 28 -4 45c-2 7 -5 15 -6 21
c-1 7 0 9 10 29c-25 4 -23 7 -24 9c-2 10 -4 19 -13 27c2 3 2 6 2 10c-1 22 -3 46 -18 64c-9 29 -10 43 -11 57c0 12 0 24 -1 36c3 3 6 7 8 11l7 4c6 9 15 11 37 4c20 -7 38 -17 59 -22l3 -9c2 1 4 1 5 2l-8 -19c2 -2 3 -9 3 -12c1 -5 4 -14 13 -19l4 -17c5 -3 6 -4 6 -4
l6 -6l3 -7c1 -4 2 -7 2 -11c1 -4 0 -6 -20 -22c17 -12 17 -12 17 -13c1 0 2 -2 4 -3l5 -18c15 -13 18 -24 18 -36c0 -16 -3 -31 -3 -43c0 -15 7 -26 20 -35l4 -3l2 -1c6 -53 24 -110 48 -176h3c3 -9 3 -17 3 -27c0 -14 1 -29 18 -54l1 -3c1 -4 1 -9 3 -13c1 -7 5 -16 14 -22
l-1 -2l-3 -6c-5 -10 -10 -24 1 -43l8 -7c1 -1 0 -1 1 -2c-1 -1 -2 -4 -3 -6c-2 -2 -3 -4 -5 -7c-9 -13 -13 -30 5 -56c3 -2 3 -3 4 -3l3 -3c2 -8 9 -12 17 -15v-4c1 -1 1 -2 1 -3c11 -3 13 3 13 11z" />
    <glyph glyph-name="bracketright" unicode="]" 
d="M458 120c-1 -8 5 -23 -5 -26c17 -56 -41 -56 -57 -94c-2 5 -22 0 -15 15c-7 -1 -12 0 -15 2c-4 -6 -9 -11 -17 -13c-5 7 -21 4 -29 2v-2c-36 -2 -81 2 -108 13c-1 10 -1 22 8 26c-3 6 -9 8 -10 16c15 13 30 22 56 21v2h27c6 -5 35 -1 60 1c0 2 0 3 -2 4c2 15 -2 38 -8 51
h1c7 2 4 8 4 12c21 8 -28 57 2 62c-8 18 13 15 8 30c0 14 -10 19 -15 29l15 25c-12 6 0 34 -21 31l3 43c21 56 11 123 10 189l-15 8c-2 10 2 18 8 21c-1 8 5 22 -6 23c1 8 -15 7 -9 18h4l2 88c-1 0 -2 -2 -3 -4c-42 24 -47 -12 -110 6c-4 3 -5 6 -10 5c-11 9 -15 25 -16 32
c4 2 1 6 3 9c1 2 -3 6 -5 5c-5 11 9 9 5 21c7 0 9 5 13 11c12 -2 36 -10 38 0c7 0 11 -1 15 -5c52 -11 3 5 54 2c18 -1 27 -8 43 -8l5 4c41 18 49 -20 77 -29c4 -41 -5 -76 7 -110c-16 -20 5 -65 -15 -86c2 -8 -5 -23 5 -23l-2 -39c-6 -2 -3 -9 -3 -12c-1 -3 3 -8 5 -6
c0 -17 2 -33 10 -45c-5 -3 -12 0 -15 -5c3 -21 -10 -52 15 -59c3 -26 8 -52 -15 -66c8 -34 -16 -52 -3 -85h3c-8 -20 13 -23 15 -36h-3c-5 -2 -2 -8 -4 -12c2 -1 4 -3 7 -3v-41c7 -5 -3 -18 8 -18z" />
    <glyph glyph-name="asciicircum" unicode="^" 
d="M449 884c40 -40 -11 -82 -35 -51c-6 3 -9 16 -16 11c-26 29 -44 24 -60 38c-7 4 -14 9 -21 14c-33 -20 -28 -6 -63 -30c-7 5 -32 -32 -38 -36c-24 -31 -75 10 -34 51c0 0 57 56 97 99c1 0 2 -1 3 -1c7 7 13 12 23 9c8 4 15 1 22 -3c30 7 98 -78 122 -101z" />
    <glyph glyph-name="underscore" unicode="_" 
d="M649 -60c-1 -19 14 -49 -8 -56c-31 0 -62 -26 -87 0c-26 7 -37 -21 -57 -4c-31 -23 -28 13 -61 -1l-20 -3c1 3 -4 4 -7 8c-22 4 -155 -22 -177 -8c2 3 -3 4 -6 8h-11v3c-43 9 -71 -13 -113 -8c-27 -10 -38 6 -67 5c-18 -1 -18 22 -38 23v19c3 12 17 22 20 34
c10 0 7 11 11 18h28v-4c10 -4 158 -9 166 -4c0 4 8 1 11 3v-3c9 -5 23 -5 34 0v3c10 -9 29 -6 43 -9v-4c106 -14 212 11 320 0c-1 -14 16 -12 19 -20z" />
    <glyph glyph-name="grave" unicode="`" 
d="M427 920c-8 -9 -7 -19 -2 -28c45 -39 -25 -99 -84 -39c0 0 -79 88 -140 150c17 20 -15 43 0 63c-6 24 25 29 40 48l13 -5c14 7 27 -17 45 -7c-5 -4 0 -11 2 -14c10 -16 25 3 31 -19c-6 -22 18 -43 27 -66c1 -1 4 -1 7 1c2 -33 43 -53 61 -84z" />
    <glyph glyph-name="a" unicode="a" 
d="M574 42c5 -5 6 -27 -2 -30c-17 -14 -54 0 -71 -12c2 5 -5 7 -8 5c-27 3 -10 49 -27 64c5 40 -22 67 -13 109c3 -2 5 1 7 3c-9 20 -31 29 -31 54c4 -2 7 3 7 7v8c-12 5 -27 2 -40 3c-2 12 -15 4 -24 5c-6 -10 -25 -3 -37 -5v4c-33 10 -78 5 -109 -4c2 4 -1 4 -1 5
c-9 -5 -15 -16 -14 -30c-1 2 -3 -2 -5 -2c12 -3 4 -18 5 -28c-6 -7 -20 -8 -16 -24l11 -11c-3 0 -5 -2 -6 -4c-2 -8 -12 -21 -12 -33c-4 1 -5 -2 -7 -4c0 -20 29 -21 25 -45c-3 0 -10 4 -11 -2v-10c-29 -6 -21 -52 -56 -57v-3c-13 7 -30 18 -50 18c0 4 -2 6 -3 7h-11v12
c7 -2 7 7 7 12v8c5 0 7 5 7 10c-2 3 2 10 -3 12h-4v8c4 0 5 2 7 4v10c17 10 3 38 12 57c26 11 25 53 23 80c22 30 47 59 37 109c17 2 3 20 12 27c43 17 1 74 23 106c4 0 5 1 7 3c-8 3 -8 18 0 22c8 0 5 7 12 8c-15 14 3 24 6 40c4 -1 4 0 5 2v10c7 -1 7 4 7 9v10
c17 11 3 42 12 60c3 -2 5 0 7 2c1 15 21 30 5 45c21 17 -9 69 30 74c8 13 18 20 30 30c23 -3 55 7 70 -10c4 -17 16 -32 24 -49c-2 -23 -12 -65 15 -72c-2 -7 -3 -15 -3 -23c-10 -12 20 -22 10 -46c-4 2 -9 -3 -7 -6c2 -4 -2 -10 3 -12c7 -22 10 -45 22 -67l-3 -20
c-4 1 -9 -4 -7 -7c-2 -15 12 -18 19 -27c5 -8 23 -13 11 -27c-5 0 -7 -5 -5 -10c-6 -13 10 -8 9 -20c-7 -22 -4 -53 21 -57v-10c-6 2 -6 -5 -6 -8c0 -4 -2 -10 3 -12h3v-10c-15 -7 9 -15 9 -24c-7 0 -7 -8 -7 -11c5 -22 27 -27 30 -49c-5 0 -6 -5 -5 -10
c4 -37 27 -54 27 -96c5 -10 2 -33 19 -36c-21 -14 11 -21 5 -39zM418 332c-14 -12 -12 8 -26 5c-3 15 11 14 19 19c3 16 -3 33 -5 45c-7 2 -3 8 -3 12c6 25 -12 40 -16 60c-1 5 0 10 5 10c-8 27 -18 55 -15 87h-8c-8 12 -10 32 -8 51h-10c-14 0 -36 0 -34 15
c-13 -14 0 -32 0 -47c2 -15 -24 -15 -24 -29c2 -18 -3 -38 -23 -38c0 -49 3 -116 -28 -148c18 -12 0 -47 21 -55c12 -2 12 16 27 13c3 -2 3 -7 3 -10c16 0 14 -12 31 -3c5 0 13 1 11 -5c9 1 24 -5 26 5c8 -2 23 6 26 -5h16c3 6 21 1 15 18zM332 340c5 -8 -5 -6 -8 -8h-7
c2 3 15 2 15 8z" />
    <glyph glyph-name="b" unicode="b" 
d="M601 220c-12 -7 -2 -30 -15 -35v-43c-9 2 -17 0 -18 -8c-5 -8 -20 -18 -19 -30c-21 0 -10 -36 -38 -26c0 -22 -23 -23 -29 -37c-33 4 -53 -20 -78 -33l-205 4c0 3 -2 5 -3 6c-12 -3 -14 -8 -27 -6c2 3 -3 8 -6 6c-11 1 -14 -6 -20 -9c-3 -2 -6 -3 -10 -2l-15 -7
c-8 8 -25 8 -38 12c-17 11 -38 18 -30 51c7 16 20 29 37 38c18 9 43 18 41 44c-10 9 -18 14 -15 30c2 15 20 18 15 40c0 13 -10 16 -7 31c12 0 2 14 10 18l-3 52h-7v67c5 -1 7 4 10 7c5 22 -25 25 -10 48c2 13 23 15 15 35l-15 11c10 5 5 22 10 30c-13 33 12 73 -10 99
c-3 12 9 15 12 20c15 -3 6 13 13 18c-2 18 -8 32 -18 40c6 43 -61 45 -45 91c12 25 45 5 63 6c23 14 61 -14 79 12h10c0 -12 15 -3 23 -5c2 0 4 2 4 5h8v-3c43 -4 91 -4 134 0v3c18 -17 46 -21 69 -35c7 -33 38 -34 50 -59c7 1 10 -12 15 -13c0 -25 15 -43 21 -65
c18 -3 18 -15 18 -33v0c-11 0 -4 -18 -18 -12c-8 -8 4 -24 -10 -26c-5 -12 -1 -26 -1 -40c-18 4 -18 -11 -37 -5c0 2 -1 4 -3 5h-8v12c11 -2 11 11 18 15c7 21 -18 15 -15 30c3 -2 5 5 8 6c2 17 -38 30 -6 37c6 1 3 8 3 11c0 18 -20 30 -26 48c-17 -5 -22 10 -27 17v0
c2 6 -3 9 -6 14c-9 -1 -9 4 -12 10c-8 -1 -20 -5 -33 -3c-5 35 -58 3 -68 30c-3 -10 -5 -22 -18 -22c-23 17 -61 7 -93 10c-8 17 -13 -6 -26 -3c-8 -3 -10 -15 -18 -22c31 -9 -5 -46 6 -76c25 -14 2 -46 9 -66c-17 -15 -5 -48 -9 -71c-5 0 -6 -5 -6 -10v-8c-4 0 -5 -2 -5 -3
c-3 -7 1 -13 8 -15c7 6 15 0 22 -3c-7 -10 6 -14 14 -12c4 2 9 -2 12 3v9h12c0 -5 5 -7 8 -5c5 0 10 -4 13 3c-2 5 8 2 12 2c1 -10 15 -4 23 -5c0 11 13 1 18 8c58 -3 117 3 160 30c-6 14 14 10 15 14c13 4 33 4 37 -8c-2 -20 -52 0 -30 -33c-15 -3 -7 -15 -18 -23
c6 -20 28 -28 33 -45c24 -6 29 -24 53 -28c5 -43 29 -71 33 -115c-4 1 -5 -2 -7 -4c-3 -13 12 -11 7 -26zM530 246h-4c0 28 -10 50 -23 66c-15 28 -31 57 -63 67c-1 0 -3 1 -3 4h-15c-5 -4 -18 -3 -18 -18c-2 2 -3 4 -3 7h-9c-3 3 -5 7 -6 11v0c-13 4 -20 -6 -30 -11
c-2 2 -3 3 -2 7c-13 0 -28 -4 -39 1v3l-124 4l-7 -4c-3 -21 3 -33 18 -44c-1 -12 -13 -12 -18 -20c-3 -35 5 -61 23 -78c-1 -13 -10 -23 -16 -33c6 -10 -4 -29 8 -36c-2 -8 5 -23 -7 -27v-41h43c2 -6 15 2 15 -8l42 2c38 18 95 -15 122 21c0 -2 3 -3 1 -7h29
c6 19 38 14 38 37c18 3 21 15 33 26v10c-2 2 3 7 5 5v40c0 8 14 5 10 16z" />
    <glyph glyph-name="c" unicode="c" 
d="M608 710c-5 -6 -2 -15 -4 -21c-6 -9 -10 -20 -23 -24c-7 -28 -20 -43 -45 -58c0 -18 -33 -8 -36 -27h-12c8 10 -17 12 0 15c-7 29 -48 27 -33 70c-22 7 -25 34 -53 30c1 24 -34 22 -45 30h-10c1 2 -2 3 -2 5c-3 -5 -7 -7 -13 -5h-9v2c-20 3 -50 10 -63 -5
c-5 -10 -16 -18 -20 -27c-13 0 -20 -13 -25 -18c9 -20 -11 -27 -18 -37c-10 -6 -23 -10 -27 -23c-4 -15 0 -40 -15 -45c-1 -20 -18 -18 -30 -30c12 -16 -11 -38 10 -48c0 -12 -10 -15 -18 -22v-30h-3c-2 -23 -10 -58 6 -74c2 -14 17 -24 20 -35v-10h-3
c-10 -37 13 -57 30 -80c-5 -20 13 -25 15 -40c-2 2 -3 -2 -5 -2c-3 -16 25 -15 15 -36c3 -22 37 0 33 -24c38 0 47 -41 92 -30c21 9 58 -6 60 24c21 13 71 -19 66 26c15 -1 13 19 22 22c-12 30 15 25 23 42c32 8 33 -15 60 -19c-2 -23 15 -31 8 -56c-3 -12 -16 -19 -16 -30
c-7 -25 -39 -22 -40 -48c-20 5 -39 -5 -45 -20c-14 -15 -24 -32 -42 -40c-13 10 -31 6 -51 6c-9 -5 -14 -15 -27 -15l-20 -3c0 5 -5 7 -10 7c-13 1 -27 21 -42 5c-33 -4 -28 41 -66 33c-22 8 -13 45 -45 38c-8 13 -18 25 -15 45c-17 10 -13 28 -27 40c-13 28 -39 52 -29 93
c-10 15 -15 32 -27 47c-7 5 -2 20 -12 21v9c19 10 -1 43 19 51c8 22 -24 13 -14 37c12 -2 12 10 19 15c-20 16 24 36 -9 50c-5 13 17 6 9 21c8 5 8 22 11 30c-5 33 30 37 22 72c8 3 21 3 23 15c-13 30 22 35 22 60c10 11 16 25 23 38c22 15 53 15 67 36c16 -6 14 10 29 9
c5 6 2 13 12 15c13 5 40 -9 40 13h27c1 -12 15 -5 23 -7c10 -16 46 2 51 -21c15 -4 30 -10 42 -20c13 -4 15 -19 30 -19c0 -3 2 -5 3 -6h9v-2c8 -6 18 -3 26 -3c15 8 19 33 45 23c7 -8 22 -8 33 -12v-8c-3 0 -5 -2 -5 -3c0 -3 -3 -10 2 -12h7z" />
    <glyph glyph-name="d" unicode="d" 
d="M602 433c-24 -9 -5 -34 -15 -52c-4 0 -5 -2 -7 -4c0 -3 2 -5 3 -5l-3 -3c3 -5 8 -2 7 -10v-8h-4c-15 -31 19 -52 -5 -76c-5 -23 9 -49 -13 -60c22 -9 -14 -19 7 -27c-4 0 -5 -2 -7 -4c0 -21 -35 -15 -27 -45c-12 0 -2 -12 -8 -15c-27 -28 -44 -64 -83 -75
c-3 -17 -18 -15 -26 -24c-26 7 -34 -12 -52 -15c-24 -7 -56 2 -76 -10c-10 8 -30 8 -45 12c-15 8 -39 17 -57 3v-3c-9 18 -12 -9 -27 0c-2 11 -15 5 -23 6c-22 -6 -56 -11 -76 -6c-5 3 -5 17 -13 18c-12 27 10 42 15 64c3 0 5 2 6 3v9c9 -5 21 -2 31 -4c1 15 21 25 6 37
c7 2 5 14 5 22c-11 0 -3 15 -5 23h2c7 21 0 44 -2 61c7 -2 14 3 15 8c-6 19 12 52 -15 52c-1 7 5 14 12 12c3 8 3 22 -3 27h-4v0c26 42 -8 72 0 119c17 12 7 38 10 60c2 -1 4 0 5 2c-5 7 -6 12 -5 22h2c7 10 3 23 3 37c-10 3 -8 18 -8 30c14 2 22 15 19 32c-2 5 1 10 -4 13
c-15 14 10 74 -37 50c0 12 -10 16 -15 22v64c25 10 61 3 91 5v-3l67 -2c-2 -7 7 -7 12 -7h8c0 -3 2 -5 3 -6c4 1 10 -2 12 3c0 5 8 3 13 3v-3c24 2 54 -15 73 3h8c0 -3 2 -5 3 -6c4 1 10 -2 12 3v3h10c14 -6 27 -17 35 -27c5 -11 19 -1 26 -10v-1c10 -7 23 -4 35 -4
c-2 -3 3 -8 6 -6h9c10 -17 17 -32 18 -54c12 -27 39 -55 39 -76c15 -3 -3 -28 15 -26c12 -24 5 -47 7 -76c-5 0 -7 -5 -7 -10c17 -20 -8 -57 22 -65zM523 453c2 13 -12 23 -15 33c2 2 3 4 7 4c0 15 -2 27 -7 38c2 2 3 4 7 4c-16 21 6 73 -31 82c0 28 -32 27 -48 38
c5 16 -14 12 -9 27h-6c-10 4 -24 10 -19 25c-10 0 -15 -1 -20 -6c-2 1 -5 3 -3 6l-86 2c-2 3 -7 5 -5 10c-10 0 -22 -3 -30 3v2h-15c-10 -13 -42 5 -49 -15c-3 -12 7 -20 4 -32c-9 -12 3 -30 -10 -37v-8c5 -13 16 -35 10 -44l-4 -72c-1 -32 17 -50 7 -80h-3v-59
c11 -5 13 -10 15 -23c-2 -4 -7 -4 -10 -4v-8c1 -5 0 -10 -5 -10v-27c-4 -10 -22 -3 -16 -19c14 -8 24 -23 21 -45c-9 -2 -4 -23 -21 -17c4 -33 -6 -60 -3 -94h7c-2 -33 48 -10 50 -41c34 -17 20 30 52 20c2 -4 7 -5 5 -9h10c7 -1 9 0 12 5c2 -1 3 -1 3 -5c7 0 15 -1 19 -6
v10c12 10 32 3 47 5c27 10 36 41 63 45s34 32 49 49c25 11 -12 31 8 48c4 44 -6 96 11 133c-4 8 5 23 -7 27c10 10 5 35 15 45z" />
    <glyph glyph-name="e" unicode="e" 
d="M547 754c-3 0 -5 -2 -6 -4v-8c-6 0 -7 -5 -6 -10v-9c-20 -7 -34 -8 -49 7c-14 2 -16 -7 -22 -14c-77 -10 -163 10 -243 -5c2 4 -4 7 -5 5c-17 -3 -31 -15 -38 -31s14 -17 7 -35c-3 0 -5 -2 -7 -4c12 -31 4 -77 7 -114c-12 -2 -5 -16 -7 -24c-3 0 -5 -2 -7 -4
c2 -3 -1 -10 4 -12h3v-8c-5 0 -7 -5 -7 -10c2 -4 -1 -11 4 -12c15 -9 41 -18 65 -9c1 5 12 2 18 2v-2c24 -5 52 -3 71 -7c29 0 56 10 83 16c19 -9 35 -31 43 -50c-5 -12 -15 -22 -15 -39c-24 -2 -35 -19 -62 -12c-7 12 -26 0 -37 8c-50 7 -103 2 -154 0
c-12 -13 -19 -34 -24 -53c22 -19 31 -51 22 -85h-3c-18 -26 20 -50 -11 -65c12 -24 0 -65 34 -74h53c-3 -15 18 -8 19 -18c5 3 2 8 2 11c22 4 48 -5 62 7c10 -22 18 2 41 -7c-2 -1 1 -3 3 -5c14 2 19 7 32 9c7 10 28 7 38 3c-3 -15 17 -8 19 -18c8 18 29 10 49 11
c11 -15 4 -47 6 -66c-12 -2 -23 -9 -31 -19c-75 -3 -163 -2 -231 7v-4c0 12 -22 18 -27 6c-4 -19 -23 -2 -35 -6c2 4 -1 4 -3 6c-10 -2 -14 -9 -27 -6c-4 24 -38 2 -46 21c-9 0 -12 5 -16 14c0 13 -10 17 -5 32c3 5 10 2 15 7c4 20 -27 8 -15 34h5c5 15 -8 24 -12 36
c5 0 7 5 7 10v9c3 -2 5 3 9 7v18c5 -1 6 4 6 9c-1 3 2 10 -3 12c-29 39 29 68 -3 104c5 12 15 26 12 38c-4 22 -18 37 -12 65c5 15 22 22 15 46c-9 5 -21 10 -15 24c12 2 1 19 8 26c-12 1 -8 18 -17 23c3 9 15 7 17 19c-2 11 -14 9 -8 21c12 1 3 17 6 25c-6 4 -13 16 -6 24
h3c2 21 10 52 -7 65c4 16 -12 12 -5 28c7 8 9 18 17 27c-2 15 19 22 22 34c38 10 84 -10 108 19h53v-3c22 -12 27 12 51 3c0 -7 9 -7 12 -7c23 12 58 5 87 7v-3c11 -6 26 -6 36 0c0 5 9 3 14 3v-3c9 -9 33 5 33 -12c-7 -17 13 -14 6 -31z" />
    <glyph glyph-name="f" unicode="f" 
d="M581 722c-16 -15 -25 -36 -50 -38c-6 5 -9 14 -21 15c-18 -10 -36 -6 -51 -15v4c-9 5 -20 1 -30 1c2 5 -3 7 -5 10c-20 0 -35 -11 -41 -25c-7 15 -10 28 -25 33c-17 -6 -43 -11 -65 -5c0 5 -5 7 -9 5c-4 0 -10 4 -12 -3c-20 -5 -36 -2 -60 -2c-1 9 -8 14 -18 12
c-13 -3 -21 -3 -29 -15c11 -1 3 -16 6 -25c-13 -10 -13 -31 -11 -49c-7 0 -7 -5 -7 -10c2 -17 8 -13 7 -32h-4c-5 -14 -3 -33 -3 -47c-3 0 -5 -2 -7 -4c7 -6 15 -10 14 -21c-7 -2 -14 -5 -19 -9c9 -13 7 -34 24 -41c26 2 47 -5 69 5v-2c46 -13 78 10 127 2c2 2 4 3 4 7
c3 -12 21 -4 33 -7c5 3 0 8 8 7c16 0 15 -23 33 -23c-3 -30 7 -65 -22 -75c-16 -3 -39 -21 -52 0c-32 4 -75 -10 -93 12c-25 6 -31 -13 -56 -7c1 5 -4 7 -7 10c-23 -7 -41 7 -63 -7c7 -3 7 -16 19 -11c-29 -30 6 -63 -5 -99c-4 1 -5 -2 -7 -2v0v-10c-3 2 -5 -1 -7 -3
c7 -17 12 -38 14 -60c-9 -8 3 -26 8 -41c18 -5 0 -38 15 -48v-8c-4 0 -5 -2 -7 -3v-9c-2 0 -3 -1 -5 -3c-3 -8 5 -8 8 -12h7l-3 -26c-4 0 -5 -2 -7 -3c-2 -14 -18 -20 -20 -33c-15 -4 -18 -17 -36 -12c-3 8 -17 10 -27 8c0 9 2 18 -3 25h-5c3 18 -25 23 -6 38
c-12 15 -16 39 -7 60c7 16 16 26 7 44c3 0 5 2 6 4v8h2c-3 34 23 68 0 99c-15 28 18 45 6 74c-5 22 25 45 -3 61c-11 37 37 41 10 73l-10 12c13 23 -13 61 12 79c8 18 -17 20 -9 30c10 -3 7 10 15 10c4 15 -15 15 -11 26c6 0 5 7 5 12c1 16 -12 18 -12 33v0
c17 11 7 38 27 44c6 5 3 12 3 19c5 -2 7 3 7 8v10c13 -5 11 10 26 5c0 -3 2 -5 3 -5c12 -3 9 13 18 15l45 -4v-3c41 -10 61 10 106 3v-3c21 -15 38 18 51 -6c18 -9 30 3 41 13c32 -5 57 6 86 1c4 7 7 7 14 7c14 -15 19 -38 46 -33c6 -20 26 -18 18 -45z" />
    <glyph glyph-name="g" unicode="g" 
d="M600 545c-27 5 -57 -35 -75 0c-19 12 1 50 -25 55c0 5 3 14 -2 19c-12 15 5 60 -30 56c2 28 -37 17 -48 33h-10c1 2 -2 4 -2 5c-11 4 -21 15 -36 12c-4 12 -19 5 -27 7c0 3 -2 5 -3 6c-24 -28 -67 -10 -97 -28c-7 -10 -8 -25 -20 -31c-33 8 -17 -32 -33 -40v-9
c-3 0 -5 -1 -7 -3v-8h-8c-7 -22 10 -60 -22 -67c22 -45 -38 -23 -16 -68c-7 -7 -14 -22 -7 -33c0 -5 8 -2 7 -7c-2 -13 -27 -23 -14 -35c-3 -7 -16 -8 -11 -22c3 -3 15 -3 11 -11v-10c-5 1 -6 -4 -5 -9v-8c-3 0 -5 -2 -6 -3c26 -4 -2 -45 25 -48c1 -30 20 -54 26 -82
c12 -17 2 -53 34 -53l1 -12c23 -17 38 -30 63 -40c-5 -16 14 -8 19 -16c43 11 106 -17 134 23c15 -4 37 3 37 18c0 18 28 12 30 30c5 -2 7 3 5 8c0 4 3 10 -3 12h-2v7c15 5 5 26 12 38c16 8 11 30 30 40c-9 12 -7 37 -25 41c-35 8 -54 -13 -90 -6c1 6 -4 6 -9 6
c-18 5 -34 -34 -44 -6c-9 10 -42 5 -34 30c-3 6 7 13 4 21c18 9 33 30 56 24c2 -10 17 -4 25 -5c5 1 0 8 8 5h9c0 -5 5 -7 10 -5h8v-4c10 -5 25 -1 37 -3v-3c10 -4 25 -4 35 0c20 11 31 -9 55 -5c-5 -19 5 -25 15 -34c-12 -44 11 -89 -10 -123c11 -10 5 -31 6 -48
c-3 2 -5 -2 -6 -2c11 -20 3 -53 18 -69v-9c-12 -11 -7 -41 -20 -51c-7 -5 -3 -12 -3 -19c-24 -20 -37 14 -52 19c7 3 7 13 7 21c3 -1 3 2 5 4c-15 3 -17 51 -42 20c10 -25 -22 -19 -23 -35c-49 3 -87 -43 -150 -30c-25 5 -62 -14 -75 15c-10 0 -18 13 -33 8
c-7 22 -25 18 -42 27c-11 26 -45 41 -51 71c-35 30 -20 77 -35 120c-10 12 8 45 -15 48c0 25 0 53 -14 70c7 10 14 30 19 42c6 6 -9 20 -12 35c-10 23 18 31 18 51v63c5 14 14 30 19 45c10 4 3 19 5 27c5 12 15 22 25 30v12c5 0 8 6 11 10c-1 38 47 31 50 68
c15 -5 18 8 28 11v7c12 12 45 -5 39 23c18 0 38 -1 48 12h30c3 -8 15 -8 23 -8c29 -7 60 1 75 -22c30 7 33 -20 55 -27c5 -11 10 -33 30 -33c3 -21 37 -13 30 -41c-2 -15 28 -17 8 -34c15 -10 10 -33 34 -38c-7 -23 16 -32 15 -52z" />
    <glyph glyph-name="h" unicode="h" 
d="M570 601c-5 -9 -22 -12 -18 -31c-9 -7 -14 -20 -12 -36c12 -1 17 -8 25 -13c-6 -14 -37 -9 -25 -32c2 -6 -2 -11 3 -14h4v-9c-4 0 -5 -1 -7 -3c12 -7 2 -31 10 -43c2 -6 9 -34 -7 -34c-10 -12 7 -13 9 -20c-2 -27 6 -53 7 -75c0 -15 -23 -34 -9 -61c-2 -17 15 -50 -3 -63
c0 -7 -4 -14 3 -16h2c-22 -5 -9 -35 -12 -52c7 -10 10 -26 22 -31c26 -15 7 -31 -3 -46c-21 5 -40 -25 -50 4v8c-15 9 -46 -5 -51 12c0 14 9 17 15 25c9 -3 9 6 12 9c-3 20 -17 22 -25 37v21c3 0 5 2 7 3c-4 -1 0 21 6 26s2 13 2 20c-17 9 -7 34 -5 50c5 0 7 5 5 8v10
c4 -1 5 2 7 4c2 15 -31 20 -7 35v28c4 -2 9 3 7 7c-7 15 -24 27 -12 49c-8 24 -34 5 -53 15c2 12 -7 19 -18 21c-19 -11 -43 -14 -63 -21c-2 4 1 10 -4 12h-10c2 5 -3 7 -9 7c-13 -5 -23 -7 -37 -10c-12 -17 -36 -5 -61 -9c-16 36 -21 -17 -48 -3c-3 -17 -10 -46 5 -55
c10 -29 -30 -12 -19 -41c-3 2 -5 -3 -8 -5c0 -20 10 -29 15 -44c-10 -7 16 -19 9 -36c-2 2 -7 -3 -5 -6c-4 -14 10 -16 5 -31c-16 -12 -9 -43 -5 -61c10 -2 3 -22 20 -16c-10 -1 -19 -6 -20 -18c-4 -14 12 -12 5 -28c-16 -10 -16 -27 -33 -39c-1 -8 -17 4 -15 -10h-7
c5 14 -8 14 -12 19c-18 0 -23 12 -27 25l2 24c3 -2 8 3 7 7c-6 12 -7 24 -7 39c8 0 5 7 13 9c-3 8 -8 8 -6 18c22 24 -4 60 8 89c12 1 5 17 7 25c-2 2 -3 4 -7 4c7 10 14 30 7 46c-7 8 -20 12 -15 30c29 0 10 33 15 48c-10 7 -5 27 -15 34c1 17 22 22 18 43c7 0 6 8 6 13
c-2 14 -28 24 -9 39c0 5 2 12 -3 16h-4v6h7c7 17 -36 38 -3 48c5 4 3 10 3 15c-26 17 24 38 -7 57c9 3 14 18 7 27c-10 0 -9 13 -9 22c12 14 14 41 9 61c0 4 -9 0 -7 5c-5 16 17 9 19 19c15 0 19 10 34 7c2 -7 7 -17 19 -14c0 -3 -4 -8 3 -12h2c-7 -5 -12 -18 -5 -27
c1 -5 8 -2 5 -8v-11c-9 -6 -9 -29 -12 -34h3v-5c-3 0 -5 -1 -7 -3c12 -7 6 -24 7 -38l-12 -12c34 -8 -3 -49 21 -64c-29 -5 -19 -44 -21 -70c17 -24 36 -41 74 -34c3 5 5 7 11 7h11v-4c22 -13 27 12 51 4v-4c54 -5 117 -8 168 -3c4 26 19 41 12 71c12 14 8 34 7 55
c0 3 2 10 -3 12h-4c5 17 19 48 0 61v10c4 -1 5 0 7 2c-3 22 -17 37 -12 65c5 0 7 5 5 10v8c12 2 5 16 7 24c19 -1 14 17 27 19c24 3 46 0 53 -20v-31c-9 -10 -12 -32 -7 -46h7c15 -36 -19 -53 -7 -87c9 2 9 -13 15 -15zM106 49v11h-7z" />
    <glyph glyph-name="i" unicode="i" 
d="M394 145c-7 -14 -10 -37 -8 -51c-10 -5 -3 -28 -18 -30c-25 -8 3 -54 -35 -49c7 -15 -13 -10 -15 -15c-16 38 -74 38 -57 94c-10 3 -3 18 -5 26c11 0 2 13 8 18v41c3 0 5 2 7 3c-2 4 1 10 -4 12h-3c2 13 23 16 15 36h3c13 33 -11 51 -3 85c-23 14 -18 40 -15 66
c25 7 12 38 15 59c-3 5 -10 2 -15 5c8 12 10 28 10 45c2 -2 7 3 5 6c0 3 3 10 -3 12l-2 39c10 0 3 15 5 23c-20 21 2 66 -15 86c12 34 3 69 7 110c28 9 36 47 77 29l16 -15c0 -13 -1 -32 15 -32l4 -119h3c6 -11 -10 -10 -8 -18c-12 -1 -5 -15 -7 -23c7 -3 10 -11 8 -21
l-15 -8c-1 -66 -11 -133 10 -189l4 -43c-22 3 -10 -25 -22 -31l15 -25c-5 -10 -15 -15 -15 -29c-5 -15 17 -12 8 -30c30 -5 4 -48 25 -56c0 -3 -3 -10 3 -11h2z" />
    <glyph glyph-name="j" unicode="j" 
d="M575 756c-16 -3 -6 -32 -21 -37c7 -26 21 -46 15 -79c-19 0 -15 -23 -15 -39c12 0 -2 -21 15 -16c-3 -21 -38 -47 -7 -63c2 -7 -3 -14 -7 -16c-5 -1 -1 -8 -1 -12c0 -2 1 -3 5 -3c-19 -43 0 -95 -16 -139c5 -4 7 -6 7 -13c-5 -14 -16 -23 -16 -42c-2 -10 2 -21 13 -24
c1 3 -7 -8 -4 -13c2 -2 4 -5 7 -3v-11c-12 -2 -3 -16 -7 -24c-3 0 -5 -2 -5 -4c0 -16 24 -37 2 -47c-6 -18 -15 -25 -16 -44c-6 0 -7 -6 -6 -9c0 -20 -26 -18 -26 -35c-25 -6 -7 -48 -37 -44c-17 -14 -44 -27 -60 -39c-59 -7 -112 0 -168 0c1 4 -4 7 -6 7
c-19 5 -33 12 -54 18c-4 14 -9 24 -16 35c-21 10 -51 17 -56 42c-23 2 -6 37 -20 47c7 6 6 20 6 32c-7 19 -12 49 -6 76c4 15 28 17 37 24c9 -12 32 -1 46 -8c-14 -30 9 -48 16 -71c16 2 3 -23 21 -16v-15c-7 1 -5 -7 -5 -13c0 -3 -4 -10 1 -12h7c-3 -21 6 -30 16 -42
c14 -9 39 -9 56 -13c23 -28 55 4 90 -3c12 3 25 17 32 30c7 5 28 0 21 17c23 23 49 46 51 83c3 0 5 2 7 4c2 15 -30 28 -11 43c4 16 -10 16 -5 32c11 0 5 16 19 11c6 10 2 24 2 37l-21 15c26 16 -14 60 21 67c0 21 -28 30 0 44c-2 28 -33 34 -21 71c4 -2 4 1 5 3l-5 9
c12 0 2 12 9 16l-4 205c6 13 23 7 20 25c3 -12 19 -12 31 -12c6 1 2 8 7 7c14 -7 36 -25 48 -39h9z" />
    <glyph glyph-name="k" unicode="k" 
d="M595 34c-11 -10 -48 11 -36 -22c1 -2 3 -3 5 -2v-10h-16c-3 10 -19 7 -27 12c3 15 -16 21 -16 38c-13 -5 -12 10 -20 8c5 24 -9 33 -14 54h-12c0 3 3 10 -3 12h-6c16 32 -34 27 -22 56c3 -1 5 0 7 2c-12 29 -52 29 -50 69c-29 -4 -10 29 -15 43l8 10c-17 5 -25 20 -39 31
c-12 19 -12 55 -43 55c-21 -5 -53 -12 -62 -35c-9 4 -12 -5 -19 -3c10 -40 -38 -17 -38 -48c-3 -16 11 -45 -12 -46c-5 -13 -5 -28 0 -38c6 0 4 -9 4 -12h-4c-10 -64 7 -119 11 -177c-19 7 -9 -16 -16 -21l-77 2c7 17 -15 9 -15 19c3 26 -23 31 -14 58c19 -1 17 16 26 23
l3 101c2 0 3 2 5 3c0 4 4 11 -3 12c3 30 -17 48 -17 76c15 0 30 7 36 20c-18 19 -6 50 -21 69v9c3 -2 5 3 9 7c-4 20 10 58 -12 73v16c8 -4 8 7 12 8c6 38 -24 54 -9 91c3 -1 5 4 9 6c-2 12 5 25 -7 34h-5l3 38c2 -2 7 2 5 5c-10 17 -12 46 -5 69c21 13 17 49 51 49
c0 -25 18 -31 28 -49c3 -6 9 -4 14 -4v-22c-21 3 -14 -23 -23 -31c2 -2 4 -4 7 -2v-10c-5 2 -7 -4 -10 -5c-3 -23 29 -38 0 -54c0 -17 -2 -39 12 -49l-2 -52c-12 -2 -5 -17 -7 -26c2 -5 9 -1 7 -8c-2 -10 -19 -17 -22 -28c3 -10 17 -13 12 -29c-5 -2 -9 -2 -12 -5
c0 -3 -2 -10 3 -12c18 3 7 -22 19 -26v-5c-8 -3 -24 5 -26 -7c0 -5 0 -13 7 -12c18 0 16 19 36 12c23 4 7 36 35 35c13 13 7 44 31 46c8 14 19 34 41 31c8 19 32 36 20 55c-1 10 4 10 11 12c15 5 12 26 32 26c12 15 45 17 42 46c5 7 15 8 12 20c27 9 25 59 65 54
c5 3 2 10 3 15c12 12 7 35 31 40v10c12 -3 5 10 12 15c-3 12 7 16 12 21c23 -2 53 7 59 -17c8 0 10 -12 12 -16c0 -17 6 -36 -9 -41c-12 -19 -24 -42 -50 -51c-26 -10 -32 -40 -55 -54c12 -25 -27 -13 -22 -34c-15 -5 -36 -14 -36 -36c-7 0 -7 -5 -7 -10
c-5 -16 -29 -17 -38 -35c-12 -8 -44 7 -43 -17c-1 -24 -5 -58 11 -77c7 -17 49 10 43 -26c6 -5 -4 -27 8 -31c9 -12 -8 -41 19 -36c10 -8 3 -34 19 -41c0 -3 -2 -7 3 -8c14 -2 21 -21 33 -26c14 -29 17 -55 50 -71c1 -22 22 -18 27 -37c29 -28 60 -48 47 -102zM332 285h-17
l12 15c0 -8 10 -5 5 -15z" />
    <glyph glyph-name="l" unicode="l" 
d="M577 43c0 -23 -34 -18 -47 -28c-1 -11 -18 -1 -22 -8c-20 2 -51 10 -62 -6c-24 -7 -32 29 -65 13c0 -7 -9 -3 -14 -3c1 3 -2 3 -3 4h-8v4c-17 3 -44 6 -55 -4c0 4 -2 5 -4 7c-6 -11 -22 -3 -35 -7c1 4 -2 5 -2 7c-11 0 -11 -10 -24 -7c1 4 -2 5 -3 7
c-30 -5 -55 -15 -89 -15c-2 -11 -17 -3 -25 -6c-11 16 -24 27 -22 53c-20 15 -29 41 -21 70c6 6 16 9 11 22c-3 13 -16 18 -11 36c5 0 6 5 11 3c2 42 -2 57 3 102c-9 5 -18 13 -14 29c37 12 16 55 17 84c1 5 -11 15 -3 21c18 14 -8 21 0 41h3c10 24 -8 44 -3 63v10
c3 -2 8 3 7 5c-4 22 -20 40 -21 64c11 2 17 7 21 18c-12 15 -4 31 -7 52h3c0 24 12 53 -3 73c10 13 13 29 24 40c17 -2 28 15 44 13c-1 -3 2 -8 5 -6h10c-7 -17 8 -22 14 -30c-1 -66 0 -145 8 -207h-3l-5 -51c-3 1 -8 -4 -6 -7c11 -11 3 -37 6 -55c-8 3 -9 -6 -9 -11v-10
c-4 2 -5 -2 -5 -2c0 -4 8 -1 5 -6c-5 -15 -13 -23 -15 -40c-10 -4 -3 -18 -8 -25c18 -6 18 -22 18 -43c-7 -5 -26 -12 -15 -26c28 5 5 -29 20 -34v-10h-4c-8 -28 4 -55 4 -81c-4 0 -5 -2 -5 -3v-8c-7 0 -7 -5 -7 -10c0 -11 4 -18 15 -23c34 -6 73 13 95 -6
c41 13 86 0 130 11c35 -21 77 20 106 -11h39c15 -21 -9 -60 26 -63z" />
    <glyph glyph-name="m" unicode="m" 
d="M609 102c12 -25 -6 -47 -8 -72c-3 0 -5 -2 -7 -3c2 -12 -8 -15 -17 -22c-15 5 -33 5 -43 13h-8c6 14 -10 12 -15 17h-15c5 18 -14 52 15 52c11 10 -9 5 -7 15h-8v27c3 0 5 1 6 3c-1 18 25 28 12 52c-5 6 -17 8 -12 23c9 7 25 15 15 30c-15 7 15 37 -10 49
c-3 11 -16 15 -11 33c5 0 8 2 11 5c-5 18 35 18 12 37v8c3 0 5 2 7 3v9c11 1 3 16 6 25c-1 2 -3 3 -6 3c8 5 5 22 6 32c-1 2 -3 5 -6 3v10c3 -1 5 0 6 2c-1 18 -23 28 -25 45c7 8 10 28 22 30c5 7 2 17 3 25c-15 19 -26 -7 -43 5c-5 -8 -2 -22 -2 -32c-3 0 -8 -3 -6 -6
c0 -4 -2 -10 3 -12c5 0 2 -8 3 -12c-18 7 -23 -10 -30 -18c0 -8 -1 -20 9 -22c-2 -15 -34 -20 -15 -35v-10c-12 0 -2 -13 -9 -18c-3 -9 2 -14 5 -20h4c-4 -9 -17 -19 -12 -34c-3 0 -5 -1 -7 -3c12 -3 4 -18 7 -27c-8 -11 -8 -30 -22 -36c2 3 -2 5 -3 6c-4 0 -9 2 -12 -3v-3
c-12 15 -38 13 -50 30c-8 1 -13 10 -18 15l20 -12c25 2 10 42 40 37c-14 5 -9 20 -22 26c0 19 15 25 10 46c18 -5 8 16 17 23c-20 22 13 27 6 48c12 2 4 17 7 25c10 9 2 39 24 39c3 13 -9 17 -16 22c0 10 12 1 16 8v27c11 1 1 18 8 25c2 15 -2 41 3 60c4 -2 5 0 7 1v10
c5 -1 7 4 5 9v10c8 8 8 27 13 42l35 33c20 -5 55 12 57 -18c34 1 12 -35 22 -52c2 -12 -15 -7 -9 -20c-3 0 -5 -2 -6 -4c27 -20 13 -60 11 -93c-3 0 -5 -2 -5 -3c0 -19 27 -49 0 -64c-6 -25 9 -35 9 -60v-90c-19 -12 3 -29 -4 -50c12 -5 2 -19 11 -25l1 -39h-1
c-5 -8 -5 -23 0 -33c5 0 1 -10 1 -15c-12 0 -1 -14 -8 -19c-5 -21 8 -45 8 -65c-1 0 -3 -1 -5 -3c15 -8 -8 -47 20 -45zM414 192c-14 5 -17 -7 -24 -15c2 -25 7 -52 12 -72c-5 -1 -8 -3 -12 -6v-9c-3 0 -5 -1 -6 -3c0 -7 1 -15 10 -12h8c-5 -12 -11 -28 -18 -40
c-17 -27 -54 -27 -84 -35c-13 7 -31 7 -33 27c-2 5 -9 1 -12 3c-2 27 7 64 -18 75h-5c1 9 -9 27 8 24h8c2 25 -25 35 -20 70c5 26 -18 38 -15 62h4c1 35 -5 63 -7 100c-23 8 -13 48 -38 57c0 16 26 36 0 51v9c1 0 3 1 5 3c0 12 -5 18 -12 27c3 0 5 1 7 3
c-7 12 -12 27 -15 42c6 18 0 40 -7 57c-15 0 -38 3 -42 -15c2 -34 -5 -87 5 -126c-1 0 -3 -1 -5 -3c12 -5 2 -15 0 -25c-13 -30 14 -70 -12 -92c12 -13 36 -8 31 -30c-4 0 -5 -2 -7 -3c0 -12 -15 -17 -19 -30c-6 -7 -8 -12 -11 -22c3 -5 10 -2 15 -3c-4 -10 -27 -20 -9 -32
c5 -7 24 -2 17 -15v-10c-1 1 -3 -2 -5 -4c15 -11 20 -31 19 -56c-4 1 -5 -2 -7 -4v-8c-3 0 -5 -2 -7 -3c5 -14 5 -22 15 -30v-66c-13 2 -6 -11 -15 -15c5 -11 -5 -13 -8 -18c-19 23 -50 0 -57 35c-7 15 2 43 -10 59c3 -2 5 0 7 1v10c11 2 3 15 6 24c-5 11 -18 18 -13 36
c12 2 5 15 7 24c-2 1 -4 3 -7 3c37 15 7 62 25 94c3 -2 3 1 5 3c-15 12 -8 43 -5 62c3 0 3 1 5 3c3 8 -2 13 -8 15l3 30c5 0 7 5 5 10c-7 10 -12 30 -5 45c-13 17 0 39 0 60c3 7 17 7 12 20c-4 10 -17 12 -12 27c15 9 -8 12 -7 25v84l-11 10c11 1 3 16 6 26c7 10 12 31 5 46
c9 26 32 31 49 45v-4c7 -5 18 -1 27 -3c0 -7 8 -5 11 -5h10c-1 -5 4 -7 5 -10c9 0 22 2 22 -8c-7 -27 -3 -49 12 -64c-4 0 -5 -2 -5 -3v-9h-4c-5 -11 -5 -28 0 -40c-11 -21 37 -30 4 -45c0 -15 21 -20 23 -35c-3 0 -5 -1 -7 -3c29 -10 20 -54 30 -75c-10 -10 -3 -34 -5 -52
c29 -12 12 -44 30 -65v-7c-3 2 -5 -2 -6 -3c11 -5 6 -19 22 -24c6 -3 -4 -15 8 -15c-15 -26 3 -51 7 -78c-15 3 -10 -14 -15 -20c16 -5 20 -15 26 -29c-6 -16 10 -15 9 -30c13 -1 21 4 30 10c-14 35 26 40 13 76c13 3 22 16 42 11c1 -5 1 -8 5 -11h10c5 -19 -10 -19 -12 -31
c15 -5 20 -16 17 -33zM517 598h-21v-8c11 -5 13 8 21 8z" />
    <glyph glyph-name="n" unicode="n" 
d="M559 30c-3 0 -5 -1 -7 -3v-9c-15 -10 -41 2 -48 -18c-30 -7 -42 10 -69 12c-7 6 -12 22 -25 23c12 49 -17 76 -20 116c-14 8 -39 3 -34 27c7 8 24 6 22 23c-3 7 -8 2 -7 10v9c5 -2 7 3 9 6c0 4 1 7 -2 9h-10c2 3 -2 5 -3 7c-12 0 -10 28 -27 30c-5 3 -24 1 -19 15
c10 10 20 17 19 33c0 20 -22 24 -27 42c7 29 -25 29 -18 61c-5 1 -2 11 -4 18c4 -2 9 2 7 5c0 10 7 17 8 27c32 13 15 -32 37 -35v-10c-3 1 -5 -2 -7 -2c14 -5 2 -25 11 -34c1 4 -7 -6 -4 -11c2 -7 9 -4 12 -4c0 -11 12 -3 15 -10c3 -25 30 -32 25 -65
c24 -12 -13 -52 20 -55c5 -32 22 -63 52 -73c17 9 4 34 12 49c7 0 7 7 7 12v10c1 -2 3 0 5 2c-20 40 -14 115 -9 157c-10 56 4 121 -10 181h-1c0 2 10 7 1 12h-1c10 5 3 22 5 34c-2 5 -9 1 -5 8v10c10 -2 1 12 8 15c2 19 -15 22 -8 42c6 7 10 20 8 34c3 -2 7 3 7 5v10
c1 -2 3 1 5 3c-12 0 1 20 -12 20c2 15 27 9 30 22c10 -3 15 -13 22 -22c0 -23 22 -25 20 -50h3c-11 -5 -3 -22 -6 -34c13 -1 0 -20 13 -21c2 -9 -3 -9 -10 -12c-12 -25 -2 -59 3 -82h-6c1 -26 -2 -56 -2 -84h-3c-4 -20 -10 -51 5 -64c1 -3 -2 -10 3 -12
c-3 -15 -17 -38 -12 -63c7 -11 14 -27 7 -42c-3 0 -5 -2 -7 -4c12 -6 4 -27 7 -38c-3 -10 -24 -4 -15 -22l2 -3c-7 -24 30 -39 13 -69c-12 -2 -5 -15 -7 -24c12 -6 15 -16 22 -25c-18 -13 -18 -50 -13 -75c6 -7 17 -10 13 -24zM311 501c-7 -16 -32 -8 -45 -6
c-20 15 -9 52 -30 63v6c3 1 10 -2 11 3c9 25 -45 17 -18 42c-12 10 -32 5 -30 25c3 -2 8 3 6 5c5 13 -8 13 -11 18c-9 4 -14 -3 -16 -8v-15c-3 0 -5 -2 -6 -3c10 -19 5 -62 6 -88c-3 0 -5 -1 -6 -3v-8c-4 0 -7 -4 -5 -7c0 -3 -4 -10 1 -12h4c-19 -15 10 -22 0 -42
c-5 0 -7 -5 -5 -10c1 -13 22 -27 1 -38c-10 -31 7 -51 10 -76c-5 -2 -10 -3 -11 -7c3 -13 17 -21 11 -41h-3c-5 -9 -2 -22 -3 -34c-4 2 -7 -3 -5 -5c0 -5 -4 -10 1 -13c-3 -29 21 -41 19 -69h3c-8 -20 -8 -59 0 -79c-15 -20 -1 -70 -38 -76c-7 0 -15 4 -19 -3v-2
c-12 12 -33 19 -42 36v10c2 -2 4 0 5 1c-5 7 -6 12 -5 22c5 0 7 5 5 9c4 15 -10 15 -5 30c7 0 5 8 5 13c-5 10 9 9 10 15l9 77c11 2 3 17 6 26c2 -2 7 3 5 5c2 30 -26 50 -11 85h3c3 27 0 50 19 69c-5 10 -16 5 -22 7c-4 18 5 30 15 38c7 10 -9 10 -4 25c12 0 4 15 7 24
c-3 5 -8 2 -7 8v10c4 -1 6 2 7 4c5 21 -35 25 -12 47v28c2 -2 4 0 5 2c4 15 -13 15 -11 28c3 -1 5 0 6 2v10c5 -2 7 3 5 8c4 14 -11 16 -11 26c10 5 23 5 22 20c-21 10 -2 40 -16 52c4 10 9 23 24 27c18 -4 32 40 39 3c16 -3 40 -5 45 -22c-14 -50 37 -52 28 -102
c9 -14 22 -22 17 -39c-2 0 -3 -1 -5 -3c-3 -15 17 -9 19 -19c-12 -40 18 -48 20 -83c5 -2 3 -11 3 -16z" />
    <glyph glyph-name="o" unicode="o" 
d="M591 336c-12 -12 -10 -37 -10 -58c-4 2 -5 -2 -5 -3c-6 -14 -19 -23 -19 -43v-9h-4c-8 -24 2 -48 4 -68c-17 8 -7 -16 -19 -16c-16 -21 -31 -55 -47 -74c-12 0 -15 -10 -22 -15c-10 -12 -26 -28 -46 -24c-7 -7 -24 -12 -31 -19l-5 5c-2 -2 -4 -2 -4 -5h-8
c-4 12 -19 3 -29 5c-12 -3 -19 -17 -40 -12c0 3 -2 5 -3 7c-7 -12 -28 -4 -40 -7c-2 12 -17 3 -26 7c-8 5 -24 13 -36 15c-34 7 -36 48 -65 66c-8 13 -21 30 -27 46c-14 17 -11 43 -28 58l-3 21c5 0 7 5 5 10c-10 17 -2 52 -17 67c5 34 -12 76 0 103c-4 24 5 43 -7 62
c8 3 8 15 8 24c4 0 6 2 7 3c5 12 -9 9 -8 19l1 40h4c-9 44 27 56 31 92c-7 30 38 26 22 62c12 2 12 14 21 19c10 22 27 31 46 40c10 3 7 20 15 22c35 -15 38 27 73 12c24 27 67 14 104 12c0 -5 5 -7 9 -5c41 -9 65 -45 99 -62c6 -2 9 -3 16 -3c10 -19 -10 -48 19 -54
c-11 -22 17 -22 12 -43c-2 -30 29 -37 22 -73c9 -5 5 -26 16 -31c-2 -2 -12 -9 -4 -12h4c-12 -11 -6 -31 -7 -47c7 -5 10 -15 22 -15v-41c-5 1 -7 -4 -10 -5c-5 -21 12 -35 10 -50c-7 0 -7 -5 -7 -9c0 -5 -2 -10 4 -14h3zM534 235c-8 23 -20 41 -24 65c2 2 4 4 5 4
c-5 20 14 43 -5 55c-8 20 12 24 21 31c7 13 -9 20 -12 31c-16 27 15 39 12 58h-9c-5 3 -1 9 -3 12c-17 14 -4 45 -12 62c-7 5 -19 5 -22 14c1 0 3 3 6 1c7 33 -37 41 -22 84c-27 0 -19 35 -46 31c-9 5 -12 14 -16 24c-17 4 -25 17 -43 19v0c-15 19 -29 -8 -49 0
c-6 -27 -52 5 -52 -31c-32 12 -32 -19 -53 -24c-36 -7 -5 -65 -36 -74c-5 -18 -4 -41 -26 -44v-79h-5v-14c-14 -10 -5 -27 -15 -36c-4 -12 15 -12 12 -27c0 -6 -2 -11 -7 -11c-9 -31 17 -44 3 -74h-3c-7 -25 13 -34 15 -53c-2 -1 -3 -3 -5 -1c-12 -28 26 -25 17 -47
c2 -20 10 -29 16 -46c24 0 17 -23 30 -31c0 -22 42 -19 45 -41c55 -12 107 -2 163 -9v-3c5 15 23 15 24 34c4 5 17 -3 14 9c10 1 2 22 17 18v25c12 22 38 29 41 56c5 5 11 16 24 12z" />
    <glyph glyph-name="p" unicode="p" 
d="M573 602c-3 -30 13 -83 -18 -96c-15 -22 -15 -50 -45 -60c3 -10 -5 -12 -12 -12c-17 -8 -15 -23 -37 -27c-6 -18 -29 -16 -48 -24c-33 -4 -60 -17 -98 -12v3c-10 5 -22 2 -33 4c-10 -5 -15 -17 -33 -12c-7 3 -7 17 -20 12c-4 11 -19 3 -29 5c-1 -10 -15 -4 -23 -5
c0 6 -8 5 -12 5c-13 6 -11 -9 -15 -15c-1 -14 12 -15 12 -30l12 -2c-5 -15 -17 -25 -20 -40c8 -10 8 -32 11 -45h-3c-2 -20 -10 -50 7 -63c10 -18 8 -48 8 -75c2 -2 3 -3 7 -2v-10c-4 2 -5 -1 -7 -3c0 -3 -2 -8 3 -12c5 2 2 -8 4 -11c-4 0 -5 -2 -7 -3c12 -4 3 -20 7 -30
c-10 -5 -7 -25 -15 -30c-17 -5 -38 -5 -55 -9l-3 -3c-12 0 3 22 -15 18c-2 19 -20 27 -17 49h-3c16 41 5 104 8 151c3 7 18 8 12 22c6 13 -10 34 -9 59h-3v9c5 0 7 5 7 10c-7 13 10 10 8 20v114c-12 4 -8 14 -8 24c5 13 15 38 3 55c-7 -2 -3 8 -3 11h3c13 60 -5 130 15 183
c-8 38 33 30 46 57c9 0 19 -4 25 3c27 -2 64 15 87 -3c13 6 33 6 45 18c26 -2 45 -23 75 -15c0 5 8 2 11 2v-2c9 -7 20 -3 30 -3c0 -5 5 -7 10 -7c35 7 14 -47 53 -35c22 -10 2 -55 42 -45c18 -18 28 -45 33 -70c-3 2 -8 -3 -6 -5c-5 -13 8 -13 13 -18zM485 557l-2 20
c-3 37 -12 62 -22 90c-18 3 -24 13 -38 22c-11 33 -38 31 -67 28c-22 -2 -46 -5 -66 5c-15 -2 -21 -10 -35 -12c-5 -1 -10 0 -10 5c-31 7 -43 -11 -75 -5c-3 -10 2 -26 -8 -30c0 -13 2 -26 -3 -36h-4c9 -30 12 -64 10 -97h-3c10 -20 -20 -16 -8 -38c6 0 11 -3 16 -7
c2 -8 -1 -18 -8 -20c7 -10 21 -13 27 -25c3 -6 16 4 15 -8c23 -7 28 10 48 8c28 4 60 -6 83 10c55 -18 73 29 115 30c3 7 23 9 20 20c0 5 1 10 6 10c5 10 -1 25 9 30z" />
    <glyph glyph-name="q" unicode="q" 
d="M589 -89c-11 5 -9 -8 -9 -15v-9l-69 -7c2 14 2 31 -16 31h-12c5 21 -10 50 4 57c1 23 -33 16 -24 40c3 7 17 7 12 19c-21 12 -49 3 -73 7c-12 -38 -48 -11 -64 -42c-33 -8 -41 35 -77 19c-11 4 -16 21 -30 9v-2c-14 2 -22 18 -36 21v12c3 0 3 2 5 3c-3 11 -15 11 -21 19
h-15v32c19 -9 41 5 59 0c-4 -16 3 -32 15 -35h85c0 12 14 10 20 7c7 -12 26 -4 38 -7v-3c7 -6 19 -2 28 -2c-2 -4 2 -5 3 -7c11 7 26 12 32 24c-6 23 -14 45 -35 54c3 36 -41 7 -55 24c-14 -5 -12 12 -19 10c-5 17 26 14 12 35c-12 -6 -17 -19 -35 -14c-5 21 -3 50 11 60
c12 -3 43 7 48 -10v-12l29 -4c-19 -26 25 -17 25 -36c13 9 12 -2 22 -7v-8c-3 0 -5 -2 -7 -4v-10c-3 2 -5 -2 -7 -2c4 -15 17 -21 19 -38c12 7 21 23 31 31l4 31c12 2 3 16 7 24c6 12 8 30 24 35v10c10 12 3 42 19 52c-12 16 -14 41 -35 43c-5 28 34 26 24 57
c-4 16 -26 28 -24 47c7 5 21 -4 24 8c-7 16 2 35 -5 50l-3 28c3 0 5 2 7 3c-11 13 -7 35 -23 44c5 22 -15 26 -12 46c-7 11 -10 31 -31 28c9 21 -14 26 -22 31h-19c1 3 -2 9 -6 7c-17 0 -17 24 -34 24c0 3 -2 5 -4 7c0 -14 -18 0 -18 -12c-2 14 -25 19 -37 12
c-14 -16 -58 7 -57 -24c-24 -2 -36 -23 -62 -26v-5c-5 1 -10 -4 -8 -11c-6 -10 -16 -26 -7 -39c1 -2 3 -4 7 -4c0 -24 -44 -3 -44 -31v-9c-3 0 -5 -1 -7 -3v-10c-3 0 -6 1 -8 -2v-10c-5 -13 -17 -37 -4 -52c6 -2 2 -14 4 -19h-7c-5 -17 15 -64 -19 -62c-2 -9 5 -12 7 -19h3
c-5 -2 -7 -11 -7 -19c21 3 26 -18 31 -28c-13 0 -18 -21 -24 -31c2 -3 6 -3 9 -3c-2 -14 -29 -28 -5 -40c14 0 12 -10 12 -23c-4 2 -9 -3 -7 -5c0 -5 0 -14 7 -14c8 -1 19 -12 34 -8v-12c-10 17 -17 -5 -26 -11c-3 -19 25 -36 -3 -46l-2 -2c7 -7 9 -17 21 -19v-15
c-16 -4 -22 1 -31 12c2 19 -5 29 -12 43v10c3 -2 7 2 7 5c-4 23 -38 11 -26 43c5 2 12 -1 15 4c6 12 -6 14 -15 12c-10 -3 -10 9 -16 10c14 21 -10 40 -5 68c-27 7 -2 31 -10 50c12 1 3 17 7 26c3 -2 3 0 5 1c2 18 -26 23 -12 45c8 2 17 7 22 12c-1 4 2 11 -3 12h-4v9
c12 0 2 14 11 19c8 26 -21 72 12 85c-2 5 2 12 -4 15c-10 9 6 14 7 21c12 10 24 15 24 38c21 14 23 41 35 62c9 2 22 -5 24 7v8c4 0 5 2 7 4c-3 12 7 15 12 21c10 10 36 6 47 15v10c12 -3 15 6 22 9h95c10 -21 36 -21 60 -28v-3c9 -5 23 -2 33 -3v-9c-5 0 -7 -5 -5 -9
c0 -5 -2 -13 5 -13c5 1 11 -2 14 3v3c16 -3 28 -15 43 -24c-10 -22 24 -10 12 -34c40 -11 15 -67 35 -90l12 -14c-4 2 -5 -2 -7 -2c22 -20 -19 -36 3 -60c4 -5 4 -21 13 -24c-33 -21 -2 -55 -2 -86h2c-19 -23 0 -56 -9 -85h-4c-13 -29 18 -53 -3 -74c2 -19 -16 -21 -9 -42
c-7 -12 -10 -26 -24 -36v-10c-8 -14 -17 -28 -26 -43c-20 -4 4 -38 -20 -37c-7 -5 -4 -13 -4 -19c16 -27 42 -36 59 -62c5 -19 52 -24 34 -46c-7 -21 12 -21 6 -42z" />
    <glyph glyph-name="r" unicode="r" 
d="M576 573c-21 -15 -14 -65 -46 -72c-28 -13 24 -38 -18 -40c-7 -5 -10 -12 -9 -20c-21 -12 -41 -35 -55 -52c2 -19 25 -27 22 -50c18 -7 13 -31 27 -44c18 -12 12 -42 30 -54c5 -30 -5 -68 23 -82c4 -45 51 -92 7 -129c0 -25 -22 -15 -38 -18c0 3 -2 5 -4 6
c-13 -1 -13 14 -22 21c14 6 10 21 4 33c-22 -3 -17 18 -30 25c3 29 -5 45 -15 66c11 13 3 38 6 57c-5 6 -18 6 -13 18c3 0 5 2 7 3c0 22 -24 29 -27 49c-15 20 -35 33 -30 65h-16c2 4 -3 9 -6 7c-7 2 -14 -3 -15 -8v-4c-10 17 -32 19 -42 35c-4 0 -10 4 -12 -1l-42 -7v-3
h-10c2 3 -2 5 -3 6h-9v4c-11 5 -26 1 -38 1c-24 -6 -24 -33 -44 -41c7 -9 0 -21 15 -21v-10c-1 2 -3 -1 -5 -3c17 -12 -15 -35 9 -47c-4 -5 -4 -13 -4 -18c-1 0 -3 -2 -5 -4c10 -16 7 -38 5 -60c-5 0 -6 -5 -5 -8c14 -22 -1 -39 4 -61c13 -23 -4 -57 1 -82
c-8 -12 -15 -23 -35 -18l-12 -12c-16 12 -25 22 -45 30c-2 4 2 10 -3 12h-4c12 7 2 28 9 40c12 0 5 15 7 24c3 0 5 1 6 3c0 18 -28 35 -6 50v19h3c3 10 3 25 0 33h-3c3 22 30 40 11 67c2 54 -15 82 4 133c-26 18 13 60 -22 72c-2 13 18 15 15 30v38c10 15 6 34 3 52l-3 27
c5 14 17 37 3 52c-5 0 -1 10 -3 15c10 3 10 17 10 27c10 3 3 18 5 27c12 1 5 15 10 22c25 3 55 0 64 26c20 5 13 -21 35 -11c0 -5 5 -7 10 -7c12 12 37 3 57 7c2 -12 15 -4 23 -7c19 2 44 25 57 3c5 -5 15 -1 22 -3c10 -8 29 -8 42 -8c25 -12 44 -39 70 -49
c-1 -20 11 -30 24 -39c25 2 0 -33 22 -36c11 -7 -2 -29 11 -37c0 -15 11 -25 16 -39zM488 543c18 36 -23 47 -6 82c-7 12 -24 15 -19 35h-8c-17 2 -19 24 -34 25c-3 -1 -8 2 -6 5c-20 -6 -17 14 -31 19c-10 0 -15 0 -20 -7c-1 2 -5 4 -3 7c-8 0 -17 0 -18 7
c-15 3 -19 -7 -34 -7c-2 -2 -7 3 -5 7l-42 1v4l-58 3c-14 -13 -11 -43 -24 -54c-8 -6 3 -21 -8 -21v-76h8c7 0 7 -8 7 -12c0 -3 -4 -8 -7 -6c-2 -7 -8 -27 -3 -24c0 -8 3 -22 -5 -25c11 -8 0 -33 8 -47h8c2 -1 5 -3 4 -7c17 -3 45 11 48 -11c7 3 7 17 19 11c7 0 5 -8 8 -11
c19 -9 12 17 30 11c2 -1 4 -3 4 -6h8c3 1 8 -2 7 -5c18 -12 20 8 33 11c14 6 14 -8 20 -11c31 -2 49 22 64 42c17 -2 22 13 34 18c3 13 -14 5 -19 12c7 18 31 12 40 30z" />
    <glyph glyph-name="s" unicode="s" 
d="M591 255c-5 -2 -5 -13 -15 -10c0 3 -2 5 -3 7c-15 -4 -20 -27 -22 -34c3 -15 10 -46 -12 -50c-6 -23 4 -60 -20 -70c-1 -8 -10 -20 -15 -26c-43 6 -41 -35 -81 -34c-29 -16 -74 -18 -109 -30c-3 -11 -27 -15 -38 -8c0 30 -35 15 -52 23c-10 10 -27 7 -35 19
c-37 11 -48 48 -82 60c5 20 -18 11 -26 18c13 27 -14 43 -12 65c-13 10 -15 27 -10 45c27 -5 13 30 42 22c-14 -22 28 -32 21 -60c7 -15 22 -5 24 -19c3 -11 5 -30 18 -33c42 -2 57 -33 87 -50c38 7 100 -12 123 20c37 -12 32 27 57 30v7c12 10 27 15 33 30
c-5 15 17 13 10 30c25 6 5 36 12 60c-23 11 -20 46 -42 56c-26 2 -20 55 -60 37v3c-31 -8 -33 27 -63 15c-20 4 -24 27 -49 17c-3 17 -28 5 -26 25h-30c-10 17 -44 2 -49 23c-21 5 -31 24 -38 42c-5 42 -53 45 -52 90c7 27 -1 63 19 78c1 10 10 22 11 34c4 0 5 1 7 3
c2 15 20 20 17 38c3 0 5 2 6 4v8c29 2 35 32 69 25l18 20c28 -8 45 15 70 15c27 -5 70 13 84 -15c16 -8 40 -13 38 -42c5 -5 13 -1 18 -3c5 3 2 8 10 7c9 -7 25 -9 39 -12c-7 -37 36 -38 26 -70c25 -12 14 -43 34 -60c-2 -25 5 -50 -15 -65h-12c-12 12 -43 0 -48 20
c-9 17 -7 33 -24 40v15c2 -2 4 2 5 3c-6 39 -33 59 -56 84h-9v3l-43 3v2c-40 8 -105 15 -129 -17c-11 2 -20 -5 -30 -6c-6 -10 -11 -29 -18 -39c-5 -6 -15 -11 -12 -25c2 -1 4 -3 7 -3c-12 -7 -22 -23 -22 -35h9c0 -3 1 -5 3 -7h10c-7 -5 -8 -16 -7 -26c32 1 14 -39 27 -54
c25 -11 58 10 67 -18c18 -3 38 -7 56 -10c-1 -2 2 -3 4 -5h8c0 -3 2 -5 3 -7h9c0 -3 1 -5 3 -5c7 10 25 4 37 5c20 -18 42 -51 80 -48c8 -17 35 -7 43 -27c7 -6 22 4 30 -8v-10c-3 2 -5 -2 -6 -2c11 -15 33 -20 33 -43l8 -15c-3 2 -5 -2 -5 -2c7 -11 7 -36 24 -43
c1 2 3 3 3 7h5c-2 -5 3 -9 7 -12h3zM101 263c-2 -5 -9 -1 -12 -3v13z" />
    <glyph glyph-name="t" unicode="t" 
d="M559 713c-14 -4 -22 -17 -42 -12c-13 -15 -18 -41 -48 -33c-1 33 -46 20 -59 45c-17 3 -25 -5 -35 -15c-5 -10 -7 -20 -7 -33c-3 1 -5 -2 -5 -2c2 -8 7 -8 5 -18c-7 0 -5 -9 -5 -12c0 -5 -3 -10 2 -13h3c-7 -2 -5 -13 -5 -20l17 -12c-5 -8 -12 -23 -17 -29v-19
c-3 0 -5 -1 -7 -3c-1 -8 4 -13 9 -15c-4 -20 36 -45 0 -53c-12 -27 11 -38 3 -66c-7 0 -5 -9 -5 -12v-10c-11 -1 -5 -15 -7 -23c14 0 -1 -18 12 -18l-5 -5c7 -9 17 -27 8 -40c-1 -8 -25 -7 -11 -20c22 -20 -35 -48 3 -73c0 -3 -3 -8 2 -11h3c-7 -2 -5 -14 -5 -20
c0 -2 2 -5 5 -4v-10h-3c-12 -36 25 -58 3 -94c-3 2 -7 -3 -5 -7v-8c-3 2 -8 -3 -7 -7c0 -3 -1 -10 4 -11h3v-8v0c-7 -2 -16 1 -23 -3c0 0 -1 0 -2 -1c2 -11 -5 -16 -15 -18v0c-28 7 -86 -17 -71 36c-10 4 -3 27 -18 27c35 12 20 70 25 101c1 0 3 2 5 3c-2 29 -22 62 -5 93
c10 0 15 8 20 17c0 21 -14 30 -9 51h4c3 17 6 45 -4 56v10h4c11 39 -12 60 -4 102c4 -2 5 3 9 4c-5 60 16 125 -9 175c-13 4 2 33 -18 33c-7 -2 -16 1 -21 -4v-3h-9v3c-23 9 -46 -3 -66 -3c-2 12 -15 3 -23 7c-2 11 -17 0 -22 8l-20 23h4c3 18 1 35 16 43c40 -18 58 47 81 2
l183 -2c6 -5 6 -18 20 -13c0 -7 8 -5 13 -5c3 0 8 -3 11 3l34 2v-2c6 -6 19 -3 29 -3c5 22 37 8 57 12c8 -17 18 -27 18 -48c2 -2 8 -10 2 -15z" />
    <glyph glyph-name="u" unicode="u" 
d="M558 721c-40 -15 11 -50 -19 -73c19 -42 -38 -56 0 -84c-1 -10 -17 -12 -12 -26c21 0 16 -26 12 -36c-3 0 -5 -2 -7 -4c-3 -15 13 -12 7 -28c-14 6 -10 -10 -15 -15c-4 -30 40 -48 7 -66c-7 -4 -4 -9 -4 -13c2 -7 9 -3 12 -3v-23c-3 2 -8 -3 -7 -5v-10h-1
c-20 -42 18 -56 21 -91c1 -23 -14 -28 -13 -51c-3 2 -5 -1 -7 -3c4 -11 9 -14 7 -28c-24 -5 -5 -37 -15 -52c-6 0 -11 -2 -9 -7v-9c-5 -2 -11 2 -14 -3c-10 -6 -45 -4 -37 -32c-5 -5 -17 -3 -19 -10c4 -26 -40 -9 -35 -37c-19 -3 -45 -3 -59 -12c0 12 -14 0 -19 9
c-14 1 -14 -16 -31 -9c1 2 -2 3 -4 5c-10 -2 -14 -8 -28 -5c-10 9 -29 9 -43 12c5 12 -9 14 -16 12h-9c-8 11 -36 2 -26 28c-22 19 -50 23 -52 58c-17 -4 -9 15 -19 17v58c5 -2 7 3 5 8c3 9 -2 14 -9 16h-7v12c4 0 6 2 7 4c-7 31 -14 71 -7 106c4 -2 9 4 7 7
c-12 16 -3 31 -7 54c9 0 11 9 11 16c-2 3 -7 1 -11 1c-5 14 9 16 14 23l2 4c-7 22 -12 55 -5 83c7 18 -19 12 -11 30c4 -2 6 0 7 2c-21 15 14 20 4 41c5 -1 7 4 5 9c5 14 -10 12 -9 26l4 127h3c7 14 -7 42 12 46c27 1 47 -4 63 -16c19 -21 -12 -37 4 -61
c-2 -10 15 -33 -4 -40c-7 -11 -14 -30 -7 -44c4 -10 4 -17 12 -22c-10 -4 -19 -18 -15 -32c-2 2 -7 -3 -6 -5c7 -14 13 -36 6 -54h-2c-7 -10 -4 -24 -4 -38c-3 0 -8 2 -10 -2c5 -14 9 -24 16 -35c-2 -12 -21 -14 -16 -31c-3 -18 17 -14 10 -31c16 -4 18 -16 21 -27
c-17 7 -10 -15 -21 -17c0 -5 -3 -10 4 -14c9 -7 -4 -12 -7 -21c5 -21 7 -47 -7 -59c-10 -63 45 -82 45 -139c4 -6 14 -11 25 -9c-2 -4 1 -5 3 -7h9v-2c9 -7 19 -3 28 -3c2 -13 19 -2 26 -11c31 4 85 -9 99 23c14 9 46 -7 46 19c6 19 22 33 17 59c16 -2 14 16 14 25
c-2 5 2 10 -4 14c9 34 -31 64 -3 95v16c3 0 5 2 7 4c-4 12 -19 13 -14 31h3c6 12 2 28 4 42c3 -2 5 0 7 1c-12 7 -5 27 -7 39h3c2 24 13 68 -10 82c23 3 9 34 14 52c-18 12 -14 26 -14 47c23 3 9 31 14 47c-12 5 -5 23 -7 35c9 16 23 33 9 50c10 16 29 21 45 32
c-2 -12 12 -2 16 -9c20 -11 21 -42 27 -63z" />
    <glyph glyph-name="v" unicode="v" 
d="M457 667h-23v9c14 2 16 -4 23 -9zM581 741c-14 -7 -9 -22 -22 -27c5 -16 19 -23 13 -45c-24 -3 -6 -36 -15 -52c-16 5 -16 -8 -23 -12c0 -17 4 -39 -15 -45c-9 6 -9 -5 -12 -8c-19 -33 50 -45 0 -59c2 -12 -21 -27 -4 -41c0 -4 13 -14 4 -21c-7 -5 -7 -21 -7 -31
c2 -2 3 -3 7 -3c-9 -13 -7 -31 -26 -38v-62c-3 1 -5 -4 -9 -6v-15c-5 0 -6 -5 -6 -10v-9c-9 -14 -6 -35 -25 -43c0 -12 11 -12 7 -26c-27 -22 -8 -71 -41 -93c3 -17 7 -35 10 -48c-7 0 -8 -6 -7 -11v-8c-10 -4 -19 -12 -19 -26h-12v3c-22 4 -55 11 -70 -5
c-21 -2 -19 14 -31 21c5 5 1 15 1 22c-19 -2 -17 24 -20 28c10 3 3 13 5 22c-11 4 -24 9 -17 24c3 -1 5 4 8 7c-2 4 -7 2 -8 2c-9 48 -28 84 -38 131c-6 10 -18 15 -12 34c-13 16 -28 28 -26 50c12 0 5 16 7 25c-7 13 -12 27 -16 43c14 31 -24 44 -9 62
c-12 31 -27 67 -34 103c2 26 -22 40 -16 71l-31 24c16 5 9 28 6 38c-18 12 -18 46 -12 69c8 7 22 10 34 12c-2 -4 2 -5 3 -7c4 2 11 -2 13 3v4c13 -4 18 -19 27 -28c-24 -24 17 -24 23 -41h8c2 -9 -14 -21 -21 -28c18 -17 9 -46 25 -65c-4 -7 -14 -10 -9 -21
c5 -7 14 -15 24 -15c2 -12 -9 -16 -19 -23c26 -5 26 -41 50 -50c7 -8 4 -26 -8 -24c-6 -15 -9 -43 1 -53c14 7 12 -11 19 -9c2 -31 23 -59 19 -97c19 -37 12 -91 31 -131h7v-15h-7c-8 -12 0 -31 12 -33c-7 -5 -22 -15 -12 -29c21 5 14 -23 31 -21c-1 -12 12 -12 16 -19
c17 -3 22 5 31 16c7 26 -16 55 7 74c-18 0 -9 26 -7 34l22 12c-3 6 -8 2 -7 11v8c5 0 7 6 7 9c5 14 -8 14 -14 19h-8c-7 21 14 22 24 31c-14 28 12 38 15 59h4c3 17 7 44 -4 57c21 1 25 17 23 36c-2 5 -9 1 -7 7c9 17 22 32 15 55c16 2 7 19 11 29c-2 0 -4 4 -7 2
c0 7 7 14 12 14c5 7 5 20 -2 27h-3c3 12 29 0 24 21c12 10 2 40 19 46v30c3 -2 5 0 7 1c2 21 -23 13 -23 32c2 3 25 6 23 22c7 14 7 38 12 53c7 7 24 -3 27 9c18 3 21 -5 35 -9c7 -15 22 -29 12 -50z" />
    <glyph glyph-name="w" unicode="w" 
d="M602 606c-21 -2 -26 -21 -38 -31c7 -15 -7 -41 0 -69c2 -5 9 -1 7 -8c-2 -14 -21 -22 -26 -34c-1 -19 -36 -42 -5 -59c0 -15 -22 -34 0 -43v-26c-7 4 -8 -3 -14 -5c12 -25 -1 -20 -5 -41c-3 -5 -8 -14 -7 -24c12 -2 4 -17 7 -26c-8 -5 -24 -10 -19 -27c2 -4 7 -4 9 -4
v-20c-10 -4 -26 5 -33 -7c4 -24 9 -45 18 -65h-2c-17 -26 5 -57 -7 -86c-12 0 -2 -12 -9 -16c-20 0 -31 -10 -46 -15c-2 34 -50 -5 -46 34c-7 7 -12 7 -11 19c7 -3 12 2 11 9v8c5 0 7 6 5 11c8 31 -36 25 -35 51c11 7 33 -2 30 19c5 16 -16 14 -16 22c0 7 19 -1 16 12
c-14 2 -17 12 -26 19c12 12 50 -3 31 31c-2 -2 -4 -3 -4 -7c-8 -5 -6 16 -8 11c12 8 -10 5 -4 17c21 -2 31 26 47 7c-5 -24 8 -31 12 -50h46c4 20 5 50 -8 65h-7c5 7 3 19 3 28c5 0 7 5 7 10c-2 3 2 8 -3 12h-4c7 2 7 14 7 20h3c2 19 7 37 6 57c12 0 1 16 10 21v34
c2 0 3 2 5 4v8h3l7 69h2c7 15 0 34 19 39c-7 11 -16 23 -12 35c3 0 5 1 7 3c-24 17 -9 26 -4 46c5 4 2 11 4 16l-4 3s21 23 0 28h-3c-2 13 22 15 15 34c16 5 23 19 35 31c34 -3 22 -46 34 -69c-26 -15 -10 -56 -10 -80c0 -9 13 -9 10 -21zM422 364c1 -17 -29 -29 -9 -46
c-19 -9 -24 -24 -26 -47c-15 4 -15 21 -27 26c5 12 -12 15 -16 19c2 29 -1 69 -8 94c3 0 7 0 8 4c0 3 2 10 -3 12h-5c-4 10 -4 26 8 29c7 -2 18 0 12 9c0 3 4 10 -1 12c-14 6 -28 15 -45 18c-8 -12 -14 -24 -12 -42c7 -4 14 -18 7 -26c-3 1 -5 -2 -7 -2c2 -10 10 -7 16 -14
c6 5 1 14 6 19h9c12 -27 -21 -14 -24 -31c-9 -8 -38 -15 -22 -39c1 -2 3 -4 7 -4c5 -12 -12 -10 -11 -19c-20 -10 -10 -42 -15 -65c-2 2 -4 -1 -5 -1c0 -6 -4 -11 3 -14h2c-11 -7 -7 -31 -2 -43h5l-3 -21h-2c-2 -17 -15 -53 12 -56v-21c-7 -3 -19 5 -19 -7
c2 -12 -7 -15 -12 -22c7 -10 10 -28 12 -43c-14 -4 -29 -9 -31 -21v-10l-62 3c0 23 -30 18 -15 43c3 0 5 2 7 4c-9 20 -9 51 -34 55c-6 7 -6 13 -16 13v6h5c0 -4 0 -7 4 -9c10 19 19 34 15 62c-20 3 -14 24 -15 43c3 0 5 1 7 3c-14 5 -2 16 0 24l15 12c-12 14 -10 33 -26 45
c0 3 4 8 -1 12h-4c4 3 14 14 5 20c0 33 -31 43 -24 81c17 10 7 38 9 57c-17 12 -5 32 -16 48c16 12 9 34 4 50c3 25 -19 41 -9 68c-27 14 2 62 -26 74v12h4c5 9 2 21 3 31c9 14 12 31 31 31c4 -15 29 -7 38 -21c15 -10 5 -31 9 -49c-4 0 -6 -2 -7 -4c12 -15 10 -46 10 -65
c12 -5 -3 -34 21 -34c0 -11 -21 -21 -9 -31h9c5 -21 -30 -50 0 -67c-9 -23 31 -31 3 -47c-5 -15 7 -18 16 -25c-13 -2 -2 -18 -9 -24c14 -23 -19 -59 15 -66c-10 -5 -5 -22 -6 -34c-4 2 -6 -2 -6 -2c0 -17 23 -20 16 -44c8 -12 26 5 32 10c0 3 4 10 -1 12h-4v9
c11 8 -8 18 -7 34c-5 2 -1 10 -3 15c9 9 29 7 26 28c1 10 12 22 8 38c4 0 5 1 7 3c-20 14 24 21 9 46c10 7 5 24 19 31c1 7 -4 12 -7 19h-2c3 12 17 10 24 24l-3 23c12 10 25 -11 37 5c-12 0 -13 15 -27 10c5 14 -10 12 -15 17c10 4 3 19 5 29c-2 0 -4 4 -5 2
c-2 22 32 14 20 38c2 15 -15 46 4 55c-2 7 1 13 -4 19h-3c8 19 29 22 53 25c8 -13 21 -22 22 -41l2 -27c-10 -2 -3 -16 -5 -24c10 0 2 -19 12 -19c-7 -4 -2 -19 -12 -23c5 -12 12 -20 19 -36c1 -3 -26 -15 -7 -22c-4 0 -5 -2 -7 -3c2 -4 -2 -11 3 -12h4
c5 -14 -23 -11 -12 -28c17 -2 29 -8 36 -19c-2 -13 2 -27 10 -34c-7 -12 -14 -34 -7 -52c17 0 2 -20 16 -22v-8c-4 0 -5 -2 -5 -4v-10c-16 3 -9 -17 -19 -17c12 -2 15 -9 24 -14z" />
    <glyph glyph-name="x" unicode="x" 
d="M570 59c-12 -24 45 -56 -7 -54c-1 -12 -17 -3 -24 -5c-3 9 -9 12 -16 16c4 3 13 24 -3 24c-19 -7 -24 10 -31 19c0 10 22 2 15 19c-36 14 -20 57 -58 71c-4 22 -32 31 -39 40c4 8 4 22 13 26c-11 17 -45 17 -40 46c10 2 3 16 5 25c-24 14 -14 53 -43 62
c-14 0 -40 5 -40 -16v-27c-12 0 -4 -12 -11 -16c-8 -5 -19 -12 -15 -28c2 -1 3 -3 7 -3v-9c-5 0 -7 -5 -7 -10c7 -14 -14 -9 -16 -19c5 -2 -5 7 -12 3c-15 -15 7 -43 -19 -50l-21 -8v-23c-17 7 -12 -16 -22 -17l-4 -26c-5 0 -12 3 -15 -4c-2 -5 -18 -12 -21 -21
c0 -12 10 -12 5 -26c-14 -17 -29 -24 -48 -32c-19 1 -21 24 -38 31v24c5 9 13 16 19 24c29 31 62 61 65 113c21 2 25 21 37 31l3 26c7 9 12 19 23 28c31 5 -12 48 24 50c9 0 21 9 19 21c-2 1 -3 3 -7 3c-7 33 38 0 38 28c19 -5 2 21 19 19c-1 2 -3 3 -7 3l12 21
c-19 5 -5 30 -24 31c-19 23 -40 30 -53 61h-9c-16 14 -14 38 -31 48c-7 19 -12 40 -28 51c9 35 -7 53 -23 70c-14 15 -28 30 -22 58c-16 1 -17 14 -16 27c7 2 21 4 16 16c33 5 48 -5 73 -19v-9c-4 0 -6 -1 -7 -3c10 -31 41 -43 53 -75h6c12 -10 12 -24 22 -34
c-10 -23 33 -19 9 -37c10 -15 5 -45 15 -60c-1 2 -3 -2 -5 -2c2 -17 19 -28 21 -45c9 -2 16 -9 26 -5v0c3 22 43 15 31 50c9 23 50 16 40 52c28 9 5 43 35 47c-2 17 0 26 12 34c10 -3 8 9 12 12c-4 13 -26 0 -17 20c15 12 50 10 43 43c15 14 52 28 78 12
c19 -14 -14 -33 -11 -59v0c-5 -16 -33 -10 -31 -35c-10 -3 -2 -24 -9 -32c-8 -7 -6 -23 -19 -26c-6 -16 4 -47 -20 -47c-18 3 -28 -16 -31 -28v-7c-20 2 -6 -19 -14 -28v-8c-2 0 -4 -2 -6 -4c2 -27 -36 -17 -34 -46c-12 -7 -28 -11 -35 -23c26 -10 30 -40 50 -55
c-12 -26 26 -14 13 -40c19 -9 15 -38 38 -42c0 -20 19 -19 19 -36l15 -14c-10 -9 -8 -22 -3 -36c7 -2 12 -11 19 -16c8 -26 15 -57 36 -73c2 -17 -5 -43 7 -55c12 5 12 -9 19 -12z" />
    <glyph glyph-name="y" unicode="y" 
d="M576 785c-10 -21 22 -61 -15 -65c5 -22 -19 -17 -16 -39c-10 0 -11 -12 -17 -18c4 -26 -30 -29 -30 -53c-9 -2 -24 -3 -19 -17c-1 -15 -20 -18 -12 -37c-1 -31 -45 -20 -40 -54c-5 -5 -14 -16 -12 -26c-4 2 -5 -1 -7 -3c7 -15 -12 -5 -12 -15c-5 -14 -13 -22 -27 -27
l4 -67h3c-12 -3 -5 -18 -7 -28c0 -16 26 -38 4 -48c-14 -29 22 -30 18 -56c-7 -12 -15 -22 -15 -39c8 -10 19 -17 24 -27c-7 -12 -12 -22 -19 -34v-15c-3 0 -5 -2 -5 -3c5 -22 34 -48 5 -68c-2 -22 -19 -34 -34 -46h-24c-1 12 -17 5 -23 7l-4 -4c7 11 -13 19 -12 34
c0 31 -13 53 -13 85h-5v0c-7 22 27 20 15 46h3c4 63 7 129 -3 183h5c14 35 -10 57 -15 86c-34 10 -32 51 -58 73c-27 7 -8 53 -39 54c10 22 -18 22 -10 44c-10 12 -29 11 -30 31c-12 5 -17 14 -20 24c-4 15 -4 32 -13 45c-13 -1 -15 4 -22 9c4 7 9 15 7 25
c-15 4 -5 24 -15 27c7 11 8 23 20 31c20 -5 56 14 61 -15h10c7 -12 34 -4 33 -24c-4 -7 -9 -17 -9 -29c22 -15 34 -37 39 -63c15 7 9 -15 19 -15c-2 -37 39 -47 37 -83c22 -17 12 -56 36 -73c13 -3 15 7 22 16c-7 11 10 10 8 18c19 5 14 24 31 32c-9 26 17 19 18 38
c19 -2 9 18 15 27c-3 12 14 15 11 27c1 0 3 2 5 3c7 19 13 43 37 49c0 23 29 29 20 58c-5 5 -13 3 -20 3c2 6 -5 7 -7 9c0 14 19 0 19 14c29 -19 58 5 88 5c2 -4 -2 -11 3 -12h9z" />
    <glyph glyph-name="z" unicode="z" 
d="M549 80c5 -18 2 -42 -10 -52v-16c-39 -7 -59 -17 -90 5c-4 0 -9 2 -9 -1v-7c-14 8 -28 -6 -35 -9v2c-19 7 -43 0 -62 7c-2 5 2 12 -4 15c-3 0 -5 -1 -7 -3v-9c-10 -3 -6 19 -20 12c-5 16 -26 12 -38 4v-4c-7 4 -14 7 -16 19l-9 -10c-20 -4 -12 21 -31 15
c-7 -3 -7 -17 -19 -12l-3 -24c-19 -5 -19 36 -37 12c-15 2 -39 23 -53 7v9c3 0 5 2 7 3c0 4 -2 4 -4 5h-10c5 20 12 37 22 47c5 35 28 49 28 82h10c0 -4 -3 -11 2 -12c4 0 5 1 7 3v9c3 0 5 1 7 3c-2 5 -9 0 -7 7v9c14 12 24 20 24 43h7c7 28 -3 66 31 73v15c4 -1 6 0 7 2
c5 16 12 28 18 45c8 7 36 7 26 31c3 -2 3 0 5 2c-2 2 -2 5 -5 3c12 14 26 30 24 54c41 -9 12 35 26 55c5 0 7 6 5 11v9c12 5 26 19 31 31c2 15 38 5 23 27c-6 2 -4 11 -4 16c12 7 26 21 16 38l-4 4c4 13 18 5 26 12c-8 34 31 27 28 59c-76 20 -159 0 -241 6
c-19 16 -53 6 -81 9c2 4 -2 5 -2 7c-12 -3 -15 9 -22 16c3 -2 5 0 7 1c-4 16 19 11 15 30h24c-1 -4 2 -5 4 -7c14 15 17 7 34 3c9 2 6 -19 16 -7c23 -5 47 25 64 0l7 -20c2 8 7 12 12 17c16 9 37 10 50 19c-1 -3 2 -5 4 -5h9v-4c10 -5 26 -5 34 0c24 6 59 2 87 4
c0 -7 8 -7 14 -7c13 0 17 10 33 7c3 -28 12 -63 -9 -78c-9 -42 -47 -52 -40 -101c-21 -19 -40 -46 -31 -86c-38 -17 -28 -62 -61 -82c2 -34 -36 -31 -36 -62c-11 -12 -19 -22 -28 -34c-7 -14 -14 -25 -19 -40c-10 -14 -22 -28 -22 -51c-21 -15 -21 -50 -47 -58l-5 -47
c-4 0 -6 -2 -7 -4c0 -13 -18 -17 -19 -31v-34c-4 0 -6 -2 -6 -4c16 -15 37 5 56 -5c3 -16 7 5 15 2l28 -2c0 -7 5 -7 11 -7h8c-1 -3 2 -5 4 -7c14 -3 12 12 27 7c-1 -3 2 -5 4 -7c12 -3 5 12 12 16h194zM426 589c-10 -19 9 -56 -16 -59l-12 -16c2 -1 4 33 26 33
c2 16 -12 16 -7 31zM395 500c-11 6 -7 -5 -16 -5c-1 -27 -19 -38 -24 -59h3c13 21 25 44 37 64z" />
    <glyph glyph-name="bar" unicode="|" 
 />
    <glyph glyph-name="asciitilde" unicode="~" 
d="M472 868c-1 -13 8 -34 -4 -39c-17 0 -28 1 -41 18c-14 6 -25 -2 -37 10c-17 -16 -10 6 -28 -4l-22 -12c1 2 -11 -6 -13 -4c-1 1 -21 -8 -21 -8l-19 -5c-23 7 -19 -1 -42 2c-15 -7 -21 4 -37 3c-10 0 -19 24 -30 25v13c2 9 9 15 11 24c27 0 31 3 31 3v-2
c13 -9 28 -35 42 -27l29 5c5 -6 28 13 36 11l43 20l27 6c58 -10 26 -22 65 -25c-1 -10 8 -9 10 -14z" />
    <glyph glyph-name="DEL" 
 />
    <glyph glyph-name="bullet" unicode="&#x2022;" horiz-adv-x="1894" 
d="M1841 652c-10 -37 -16 -77 -20 -117c11 -9 13 -22 2 -33l-33 -56c-25 16 -50 35 -75 52c-1 7 -1 14 -4 21c-24 -15 -38 -39 -57 -58c-25 22 -53 42 -81 59c17 35 12 76 17 115c-2 10 -15 22 -3 31l47 67c27 -16 49 -42 75 -61c-13 -30 -13 -66 -19 -100
c9 -7 17 -21 27 -17c-1 33 18 76 -1 109l72 51l4 -2zM1566 677c-12 -55 -21 -114 -22 -173c-21 -25 -38 -64 -76 -67c-39 -11 -79 -19 -119 -27c-3 3 -3 5 -3 8c24 12 53 19 70 46c6 15 18 33 10 51c-23 -15 -42 -36 -61 -56c-28 16 -51 40 -75 61c15 90 12 189 17 284l4 5
c40 -6 77 -1 115 -3c1 -42 -11 -86 -10 -127l2 -3c20 20 34 43 51 65c33 -21 62 -46 97 -64zM1279 568l-37 -100c-31 16 -59 37 -90 54c10 93 6 196 9 289c39 -1 77 2 115 5l3 -2l-15 -230zM1577 340c-2 2 -4 1 -5 -1c-2 -6 -5 -12 -4 -18c2 -18 0 -36 0 -54
c0 -10 1 -21 -6 -30c0 3 2 5 -1 8c-10 -14 -11 -30 -13 -46c-2 -11 -1 -22 -6 -32c-10 -24 -7 -49 -19 -71c-3 -5 -10 -6 -10 -14c-8 5 -8 16 -15 20c-4 2 -9 6 -15 7c4 9 -6 11 -10 14s-7 10 -5 15c13 30 25 57 33 89c0 1 4 2 5 3c15 39 15 81 20 122c25 12 13 46 27 65
c1 2 10 5 15 1c9 -6 7 -19 8 -27c2 -16 8 -34 1 -51zM1339 327l1 -1l-2 2c1 -2 2 -3 2 -3c0 2 -1 2 -1 2zM1341 317c0 -1 -1 -1 -2 -2c1 0 1 0 2 -1c-1 0 -3 0 -2 1c1 2 1 3 2 4c1 -2 1 -2 0 -2zM1338 306c-1 0 -4 1 -4 2s3 0 3 -1zM1339 301c-1 -1 -2 0 -1 2v0
c1 -1 1 -2 1 -2zM1114 698c-7 -38 -9 -78 -10 -118c12 -9 15 -21 5 -33l-27 -58c-27 13 -53 29 -80 44c-2 7 -2 14 -6 20c-22 -17 -34 -42 -51 -63c-27 20 -57 37 -86 52c13 36 5 76 6 116c-3 10 -17 20 -6 30l41 72c28 -14 52 -38 80 -54c-10 -31 -6 -67 -9 -102
c9 -6 18 -19 28 -14c-4 32 10 78 -11 109l66 57l4 -2zM1444 374c-16 -25 -60 -23 -92 -36c-9 -3 -16 -13 -24 -21c-5 -6 8 -12 1 -19c-2 -2 4 -3 7 -4c-1 0 -3 -1 -3 -2c0 -2 2 -3 5 -3c-8 -1 3 -7 -1 -8c-3 0 -7 2 -10 2c-5 -1 -5 -4 0 -6c1 1 3 1 5 0c1 0 2 -1 4 -1
c-1 -1 -1 -1 -1 -2l-3 3c-2 1 -4 1 -6 -1c2 -19 14 -35 29 -50c3 -3 6 -10 13 -10c0 -2 -3 -5 2 -8c17 -9 36 -20 42 -34c6 -13 0 -29 -11 -40c-18 -20 -30 -41 -45 -63c-3 -6 -13 -10 -21 -10c-33 -4 -63 -17 -96 -13c-36 4 -77 48 -46 68c13 9 38 -7 59 -4c1 0 3 -3 5 -5
c4 7 12 3 20 3c3 0 5 1 4 4c2 -2 3 -5 6 -4c5 1 9 2 14 2c-1 -1 -3 -1 -3 -2c0 -2 2 -4 5 -4c5 1 4 4 5 7c8 -3 16 -9 22 -2c1 1 -2 3 -5 3l7 4c3 -9 -13 -12 0 -18c4 -2 10 0 16 -1c5 0 5 7 11 7c-9 12 14 24 -3 28c-5 1 -14 -4 -19 -10c-12 10 -18 -11 -30 0
c5 3 14 1 17 6c2 3 -7 3 -7 7c-3 -1 -5 -2 -5 -4c-3 3 -10 8 -6 11c10 8 27 10 33 22c5 11 1 23 -9 32c-10 10 -15 21 -26 27c-4 3 -13 -1 -15 2c-15 23 -35 39 -48 62c-3 4 -4 10 -5 15c-5 37 33 58 69 66c28 7 66 -8 85 10c9 8 26 18 40 16c11 -1 16 -18 14 -22zM1518 22
c-8 -8 -16 5 -25 4c-2 -1 -5 -2 -5 -3c-1 -5 4 -7 9 -8c-1 -2 0 -3 1 -5s-2 -4 -3 -4c-5 1 -8 8 -14 4c3 -4 0 -7 0 -10l-5 1c2 2 1 4 -1 5c-4 3 -9 3 -12 -1c-2 -3 2 -7 0 -10c-3 -3 -6 -2 -7 0c-4 5 3 17 -6 15c-7 -1 -4 -17 -13 -10c-5 5 4 7 5 10c1 7 -9 9 -12 9
c-8 2 -8 -15 -19 -14c-1 0 -1 3 -4 2c4 9 15 9 18 15c2 7 -4 10 -9 14c-4 2 7 5 7 11c-1 2 -2 4 -4 4c-5 -1 -10 -7 -15 -3c-1 0 0 3 1 4c5 -2 10 -2 14 1l-3 6c8 4 13 7 12 16c4 -2 9 -2 12 2c1 1 -1 3 -4 3c1 2 1 4 2 4c6 3 9 -9 15 -3c2 2 1 5 0 7c-2 3 -4 9 -2 9
c9 0 1 -13 7 -17c2 -2 7 -3 7 0c0 2 -1 6 1 7c12 7 15 -6 14 -16c2 1 4 1 4 4c2 -1 5 -1 7 -2c1 -1 2 -3 1 -5c-2 -1 -4 -2 -4 -4c1 -2 2 -5 4 -5c4 0 7 6 13 3c1 -1 3 -4 1 -5c-6 -4 -17 -5 -11 -14c4 3 10 4 11 1c3 -6 -5 -6 -10 -5c-1 1 -3 -1 -3 -3c3 -12 16 -4 24 -9
c2 -1 3 -4 1 -5zM1117 385c0 0 -1 1 -1 2zM1106 386c-1 0 -2 0 -2 1c-1 0 0 1 1 1zM1098 387c1 0 1 -1 0 -2c-1 0 -2 1 0 2zM1078 390c-1 0 -3 1 -1 2c1 0 1 -1 1 -2zM1182 374c-12 -9 -18 -23 -26 -32c-24 -29 -67 -21 -102 -8c-11 3 -25 2 -28 15c-1 3 2 3 3 5
c2 1 1 4 -1 5c-3 2 -7 1 -10 3c-9 8 -17 22 -9 31c9 10 29 10 41 -3c4 -4 -1 5 4 6c-2 -4 2 -6 3 -9c3 1 4 3 3 5c2 -2 3 -5 5 -6c1 -2 3 -1 5 1c0 -3 -3 -7 1 -8c2 -1 4 1 4 4c1 -2 2 -5 4 -6c1 -1 3 1 3 4c1 -2 2 -4 5 -4c1 0 2 1 3 2c0 -1 1 -2 2 -3c4 -1 8 1 11 2l-2 4
c3 1 2 -2 2 -4c0 -1 1 -1 3 -1c2 1 3 2 3 4c0 -2 0 -3 2 -5c2 4 7 0 10 6c3 4 -2 -6 4 -4c5 2 4 5 4 8c-2 1 -2 3 -1 5c0 -1 0 -3 2 -5c7 -2 8 6 13 10c0 -1 1 -3 2 -3c4 -1 3 5 4 6c9 2 19 1 26 -4c8 -6 17 -14 7 -21zM1400 29c1 -2 -1 -4 -3 -4c0 0 -1 2 -1 3c1 1 3 2 4 1
zM1386 3c-1 -3 -4 -1 -7 0c2 2 -2 5 7 5c5 0 0 -3 0 -5zM1286 134c-5 -2 -11 -2 -17 -2c-3 0 -6 0 -9 -1c-13 -2 -27 -4 -37 -12c-6 8 6 13 7 20c1 2 2 3 4 1c-1 -2 1 -5 2 -5c11 2 22 -2 33 -3c6 1 12 1 17 2zM838 697c-7 -55 -11 -115 -7 -174c-19 -27 -33 -67 -70 -73
c-38 -14 -77 -26 -117 -37c-2 3 -3 5 -3 8c23 14 51 23 65 51c6 16 16 35 6 53c-21 -17 -38 -39 -56 -61c-29 13 -54 36 -80 54c8 91 -3 190 -6 284l3 5c40 -2 77 7 115 8c4 -43 -4 -87 1 -128l2 -3c18 22 30 46 45 69c35 -18 66 -41 102 -56zM1182 201
c4 -10 -7 -17 -14 -24c-2 -2 1 -10 0 -15c-1 -4 -7 0 -8 -4c0 -2 2 -5 4 -5c1 -1 4 2 6 3c-8 -5 -9 -14 -3 -21c-2 1 -5 0 -5 -1c1 -4 8 -7 7 -10c-8 -17 -28 -15 -42 -16c-25 -3 -50 -5 -76 -6c-27 0 -55 -17 -77 -7c-14 6 -9 32 -21 48c-10 14 -6 33 -7 48
c0 25 1 52 10 78c2 6 0 13 1 18c6 28 10 57 24 81c2 3 14 15 20 3c10 -24 -2 -49 3 -74c43 -7 84 -22 127 -15c1 0 3 -4 1 -5c-2 -2 -4 -2 -4 -5c1 -2 3 -4 1 -6c-3 -4 -8 -10 -13 -9c-13 1 -27 3 -39 2c-15 -2 -11 -28 -22 -28c-19 0 -46 3 -53 26c-1 2 -4 1 -5 -1
c-3 -14 -6 -29 2 -40c6 -7 19 -9 28 -14c17 -9 39 -9 59 -14c-2 -3 -1 -5 1 -6c2 0 4 2 4 4c4 -3 -2 -9 2 -10c2 -1 3 0 4 3c1 2 1 4 1 6c2 -2 0 -5 -1 -7c0 -1 0 -1 2 -1c7 1 8 -7 12 -6c8 2 16 0 23 5c-1 1 -3 3 -1 5c1 -2 2 -4 4 -3c9 6 9 20 16 24c8 4 24 13 29 -1z
M550 550l-37 -87l-9 -1c-29 17 -59 31 -90 42c-9 7 -1 16 -2 24c-6 38 -2 78 -6 115c-5 6 -12 5 -19 5c-2 21 -9 42 1 57c7 0 15 1 15 7c1 19 -6 41 3 54c36 12 75 19 109 35l6 -5c-1 -28 0 -53 5 -82c5 -7 14 1 19 -5l3 -53c-6 -9 -21 2 -22 -12c8 -31 -11 -77 24 -94z
M915 399c5 -24 -4 -48 -12 -71c-7 -21 3 -47 -5 -66c-15 -38 -18 -78 -36 -114c-6 -13 -14 -36 -25 -34c-43 9 -48 65 -84 88c15 26 -10 48 -15 74c-7 29 -20 56 -5 83c2 2 10 2 13 -1c29 -24 31 -64 57 -91c15 16 23 38 42 53c6 5 7 15 11 19c20 20 15 49 34 65
c6 4 23 6 25 -5zM727 96c-10 -15 -32 -10 -50 -9c-5 0 -4 9 -7 13c-17 23 -36 43 -40 72c0 4 -5 8 -7 13c-12 24 -16 52 -16 79c0 37 -21 88 14 110c15 9 31 -19 35 -34c14 -57 15 -113 47 -165c15 -25 43 -52 24 -79zM379 538c-31 -65 -96 -84 -161 -81
c-54 2 -114 34 -138 86l-13 74c16 29 17 72 56 81c9 3 17 11 25 14c-1 -39 3 -81 28 -111l14 -12l3 2c-7 44 -20 84 -33 125l1 5c35 23 70 46 105 68c27 -17 61 -15 93 -16c4 -24 -7 -49 0 -74c-6 -8 -20 3 -19 -11c4 -39 4 -81 12 -124c4 -9 11 1 17 4c2 4 6 6 9 7
c-2 -13 3 -24 1 -37zM609 61c-16 -7 -35 18 -51 3c-5 -5 3 -24 -4 -26c-19 -2 -39 -11 -59 0c-16 8 -38 3 -50 -9c-14 -15 -32 -29 -47 -17c-31 25 -26 75 -30 117c0 2 2 14 10 11c7 31 -1 62 3 93c4 40 2 79 14 115c4 13 22 21 27 10c14 -25 30 -46 36 -76
c6 -40 -6 -77 0 -116c49 8 105 9 142 -38c1 -2 -1 -8 1 -10c14 -16 29 -49 8 -57zM1430 558c-3 26 12 51 0 72c-7 2 -13 12 -18 6c-2 -22 -8 -49 -1 -71c7 -2 13 -12 19 -7zM713 568c-5 25 7 51 -6 72c-7 1 -14 10 -19 4c0 -22 -3 -50 6 -71c6 -1 13 -11 19 -5zM322 553
c-3 44 -10 87 -15 131c2 12 -11 15 -18 10l8 -103c-14 -16 -36 -20 -53 -32v-4c23 -11 50 -11 75 -5z" />
    <glyph glyph-name="germandbls" unicode="&#xdf;" 
 />
    <glyph glyph-name="nbspace" unicode="&#xa0;" 
 />
  </font>
</defs>
</svg>
